<svg width="388" height="247" viewBox="0 0 388 247" fill="none" xmlns="http://www.w3.org/2000/svg">
<rect width="388" height="247" rx="5" fill="white"/>
<path d="M24.944 32.84L25.136 30.776H30.688L30.864 32.84H24.944ZM27.872 27.912L26.304 31.528L26.432 32.12L25.04 35H21.984L27.872 23.096L33.776 35H30.704L29.36 32.232L29.456 31.544L27.872 27.912ZM40.2936 22.52H42.7096V35H40.2936V22.52ZM34.2776 31.32C34.2776 30.488 34.443 29.7893 34.7736 29.224C35.115 28.6587 35.5523 28.2267 36.0856 27.928C36.619 27.6293 37.1843 27.48 37.7816 27.48C38.4003 27.48 38.9443 27.6347 39.4136 27.944C39.8936 28.2533 40.2723 28.696 40.5496 29.272C40.827 29.8373 40.9656 30.52 40.9656 31.32C40.9656 32.1093 40.827 32.792 40.5496 33.368C40.2723 33.944 39.8936 34.3867 39.4136 34.696C38.9443 35.0053 38.4003 35.16 37.7816 35.16C37.1843 35.16 36.619 35.0107 36.0856 34.712C35.5523 34.4133 35.115 33.9813 34.7736 33.416C34.443 32.84 34.2776 32.1413 34.2776 31.32ZM36.8216 31.32C36.8216 31.704 36.9016 32.04 37.0616 32.328C37.2216 32.6053 37.435 32.824 37.7016 32.984C37.9683 33.1333 38.2616 33.208 38.5816 33.208C38.859 33.208 39.1256 33.1333 39.3816 32.984C39.6483 32.8347 39.867 32.6213 40.0376 32.344C40.2083 32.056 40.2936 31.7147 40.2936 31.32C40.2936 30.9253 40.2083 30.5893 40.0376 30.312C39.867 30.024 39.6483 29.8053 39.3816 29.656C39.1256 29.5067 38.859 29.432 38.5816 29.432C38.2616 29.432 37.9683 29.512 37.7016 29.672C37.435 29.8213 37.2216 30.04 37.0616 30.328C36.9016 30.6053 36.8216 30.936 36.8216 31.32ZM50.1686 22.52H52.5846V35H50.1686V22.52ZM44.1526 31.32C44.1526 30.488 44.318 29.7893 44.6486 29.224C44.99 28.6587 45.4273 28.2267 45.9606 27.928C46.494 27.6293 47.0593 27.48 47.6566 27.48C48.2753 27.48 48.8193 27.6347 49.2886 27.944C49.7686 28.2533 50.1473 28.696 50.4246 29.272C50.702 29.8373 50.8406 30.52 50.8406 31.32C50.8406 32.1093 50.702 32.792 50.4246 33.368C50.1473 33.944 49.7686 34.3867 49.2886 34.696C48.8193 35.0053 48.2753 35.16 47.6566 35.16C47.0593 35.16 46.494 35.0107 45.9606 34.712C45.4273 34.4133 44.99 33.9813 44.6486 33.416C44.318 32.84 44.1526 32.1413 44.1526 31.32ZM46.6966 31.32C46.6966 31.704 46.7766 32.04 46.9366 32.328C47.0966 32.6053 47.31 32.824 47.5766 32.984C47.8433 33.1333 48.1366 33.208 48.4566 33.208C48.734 33.208 49.0006 33.1333 49.2566 32.984C49.5233 32.8347 49.742 32.6213 49.9126 32.344C50.0833 32.056 50.1686 31.7147 50.1686 31.32C50.1686 30.9253 50.0833 30.5893 49.9126 30.312C49.742 30.024 49.5233 29.8053 49.2566 29.656C49.0006 29.5067 48.734 29.432 48.4566 29.432C48.1366 29.432 47.8433 29.512 47.5766 29.672C47.31 29.8213 47.0966 30.04 46.9366 30.328C46.7766 30.6053 46.6966 30.936 46.6966 31.32ZM64.8405 22.52H67.2565V35H64.8405V22.52ZM58.8245 31.32C58.8245 30.488 58.9898 29.7893 59.3205 29.224C59.6618 28.6587 60.0992 28.2267 60.6325 27.928C61.1658 27.6293 61.7312 27.48 62.3285 27.48C62.9472 27.48 63.4912 27.6347 63.9605 27.944C64.4405 28.2533 64.8192 28.696 65.0965 29.272C65.3738 29.8373 65.5125 30.52 65.5125 31.32C65.5125 32.1093 65.3738 32.792 65.0965 33.368C64.8192 33.944 64.4405 34.3867 63.9605 34.696C63.4912 35.0053 62.9472 35.16 62.3285 35.16C61.7312 35.16 61.1658 35.0107 60.6325 34.712C60.0992 34.4133 59.6618 33.9813 59.3205 33.416C58.9898 32.84 58.8245 32.1413 58.8245 31.32ZM61.3685 31.32C61.3685 31.704 61.4485 32.04 61.6085 32.328C61.7685 32.6053 61.9818 32.824 62.2485 32.984C62.5152 33.1333 62.8085 33.208 63.1285 33.208C63.4058 33.208 63.6725 33.1333 63.9285 32.984C64.1952 32.8347 64.4138 32.6213 64.5845 32.344C64.7552 32.056 64.8405 31.7147 64.8405 31.32C64.8405 30.9253 64.7552 30.5893 64.5845 30.312C64.4138 30.024 64.1952 29.8053 63.9285 29.656C63.6725 29.5067 63.4058 29.432 63.1285 29.432C62.8085 29.432 62.5152 29.512 62.2485 29.672C61.9818 29.8213 61.7685 30.04 61.6085 30.328C61.4485 30.6053 61.3685 30.936 61.3685 31.32ZM71.0035 32.696C71.0035 32.888 71.0515 33.0533 71.1475 33.192C71.2435 33.32 71.3715 33.4213 71.5315 33.496C71.6915 33.56 71.8675 33.592 72.0595 33.592C72.3368 33.592 72.5928 33.5333 72.8275 33.416C73.0622 33.2987 73.2542 33.1227 73.4035 32.888C73.5528 32.6533 73.6275 32.3653 73.6275 32.024L73.8835 32.984C73.8835 33.4533 73.7555 33.8533 73.4995 34.184C73.2435 34.504 72.9128 34.7493 72.5075 34.92C72.1022 35.08 71.6648 35.16 71.1955 35.16C70.7262 35.16 70.2888 35.0747 69.8835 34.904C69.4888 34.7227 69.1688 34.456 68.9235 34.104C68.6888 33.752 68.5715 33.3253 68.5715 32.824C68.5715 32.12 68.8222 31.5653 69.3235 31.16C69.8248 30.744 70.5342 30.536 71.4515 30.536C71.8995 30.536 72.2995 30.5787 72.6515 30.664C73.0142 30.7493 73.3235 30.856 73.5795 30.984C73.8355 31.112 74.0275 31.2453 74.1555 31.384V32.456C73.8995 32.264 73.6008 32.12 73.2595 32.024C72.9288 31.9173 72.5768 31.864 72.2035 31.864C71.9155 31.864 71.6862 31.896 71.5155 31.96C71.3448 32.024 71.2168 32.12 71.1315 32.248C71.0462 32.3653 71.0035 32.5147 71.0035 32.696ZM69.9315 29.896L69.1155 28.28C69.5315 28.0773 70.0328 27.8853 70.6195 27.704C71.2062 27.5227 71.8462 27.432 72.5395 27.432C73.1902 27.432 73.7715 27.528 74.2835 27.72C74.7955 27.9013 75.2008 28.168 75.4995 28.52C75.7982 28.872 75.9475 29.304 75.9475 29.816V35H73.6275V30.36C73.6275 30.1787 73.5955 30.024 73.5315 29.896C73.4782 29.7573 73.3928 29.64 73.2755 29.544C73.1582 29.448 73.0088 29.3787 72.8275 29.336C72.6568 29.2933 72.4595 29.272 72.2355 29.272C71.9048 29.272 71.5795 29.3093 71.2595 29.384C70.9502 29.4587 70.6782 29.5493 70.4435 29.656C70.2088 29.752 70.0382 29.832 69.9315 29.896ZM76.8925 27.64H81.8205V29.64H76.8925V27.64ZM78.1885 25.08H80.5085V35H78.1885V25.08ZM84.7223 32.696C84.7223 32.888 84.7703 33.0533 84.8663 33.192C84.9623 33.32 85.0903 33.4213 85.2503 33.496C85.4103 33.56 85.5863 33.592 85.7783 33.592C86.0556 33.592 86.3116 33.5333 86.5463 33.416C86.7809 33.2987 86.9729 33.1227 87.1223 32.888C87.2716 32.6533 87.3463 32.3653 87.3463 32.024L87.6023 32.984C87.6023 33.4533 87.4743 33.8533 87.2183 34.184C86.9623 34.504 86.6316 34.7493 86.2263 34.92C85.8209 35.08 85.3836 35.16 84.9143 35.16C84.4449 35.16 84.0076 35.0747 83.6023 34.904C83.2076 34.7227 82.8876 34.456 82.6423 34.104C82.4076 33.752 82.2903 33.3253 82.2903 32.824C82.2903 32.12 82.5409 31.5653 83.0423 31.16C83.5436 30.744 84.2529 30.536 85.1703 30.536C85.6183 30.536 86.0183 30.5787 86.3703 30.664C86.7329 30.7493 87.0423 30.856 87.2983 30.984C87.5543 31.112 87.7463 31.2453 87.8743 31.384V32.456C87.6183 32.264 87.3196 32.12 86.9783 32.024C86.6476 31.9173 86.2956 31.864 85.9223 31.864C85.6343 31.864 85.4049 31.896 85.2343 31.96C85.0636 32.024 84.9356 32.12 84.8503 32.248C84.7649 32.3653 84.7223 32.5147 84.7223 32.696ZM83.6503 29.896L82.8343 28.28C83.2503 28.0773 83.7516 27.8853 84.3383 27.704C84.9249 27.5227 85.5649 27.432 86.2583 27.432C86.9089 27.432 87.4903 27.528 88.0023 27.72C88.5143 27.9013 88.9196 28.168 89.2183 28.52C89.5169 28.872 89.6663 29.304 89.6663 29.816V35H87.3463V30.36C87.3463 30.1787 87.3143 30.024 87.2503 29.896C87.1969 29.7573 87.1116 29.64 86.9943 29.544C86.8769 29.448 86.7276 29.3787 86.5463 29.336C86.3756 29.2933 86.1783 29.272 85.9543 29.272C85.6236 29.272 85.2983 29.3093 84.9783 29.384C84.6689 29.4587 84.3969 29.5493 84.1623 29.656C83.9276 29.752 83.7569 29.832 83.6503 29.896ZM93.8753 22.52V35H91.4593V22.52H93.8753ZM99.8913 31.32C99.8913 32.1413 99.7206 32.84 99.3793 33.416C99.0486 33.9813 98.6166 34.4133 98.0833 34.712C97.5606 35.0107 96.9953 35.16 96.3873 35.16C95.7793 35.16 95.2353 35.0053 94.7552 34.696C94.2753 34.3867 93.8966 33.944 93.6193 33.368C93.3419 32.792 93.2033 32.1093 93.2033 31.32C93.2033 30.52 93.3419 29.8373 93.6193 29.272C93.8966 28.696 94.2753 28.2533 94.7552 27.944C95.2353 27.6347 95.7793 27.48 96.3873 27.48C96.9953 27.48 97.5606 27.6293 98.0833 27.928C98.6166 28.2267 99.0486 28.6587 99.3793 29.224C99.7206 29.7893 99.8913 30.488 99.8913 31.32ZM97.3473 31.32C97.3473 30.936 97.2673 30.6053 97.1073 30.328C96.9473 30.04 96.7339 29.8213 96.4673 29.672C96.2006 29.512 95.9073 29.432 95.5873 29.432C95.3099 29.432 95.0379 29.5067 94.7713 29.656C94.5153 29.8053 94.3019 30.024 94.1313 30.312C93.9606 30.5893 93.8753 30.9253 93.8753 31.32C93.8753 31.7147 93.9606 32.056 94.1313 32.344C94.3019 32.6213 94.5153 32.8347 94.7713 32.984C95.0379 33.1333 95.3099 33.208 95.5873 33.208C95.9073 33.208 96.2006 33.1333 96.4673 32.984C96.7339 32.824 96.9473 32.6053 97.1073 32.328C97.2673 32.04 97.3473 31.704 97.3473 31.32ZM103.222 32.696C103.222 32.888 103.27 33.0533 103.366 33.192C103.462 33.32 103.59 33.4213 103.75 33.496C103.91 33.56 104.086 33.592 104.278 33.592C104.556 33.592 104.812 33.5333 105.046 33.416C105.281 33.2987 105.473 33.1227 105.622 32.888C105.772 32.6533 105.846 32.3653 105.846 32.024L106.102 32.984C106.102 33.4533 105.974 33.8533 105.718 34.184C105.462 34.504 105.132 34.7493 104.726 34.92C104.321 35.08 103.884 35.16 103.414 35.16C102.945 35.16 102.508 35.0747 102.102 34.904C101.708 34.7227 101.388 34.456 101.142 34.104C100.908 33.752 100.79 33.3253 100.79 32.824C100.79 32.12 101.041 31.5653 101.542 31.16C102.044 30.744 102.753 30.536 103.67 30.536C104.118 30.536 104.518 30.5787 104.87 30.664C105.233 30.7493 105.542 30.856 105.798 30.984C106.054 31.112 106.246 31.2453 106.374 31.384V32.456C106.118 32.264 105.82 32.12 105.478 32.024C105.148 31.9173 104.796 31.864 104.422 31.864C104.134 31.864 103.905 31.896 103.734 31.96C103.564 32.024 103.436 32.12 103.35 32.248C103.265 32.3653 103.222 32.5147 103.222 32.696ZM102.15 29.896L101.334 28.28C101.75 28.0773 102.252 27.8853 102.838 27.704C103.425 27.5227 104.065 27.432 104.758 27.432C105.409 27.432 105.99 27.528 106.502 27.72C107.014 27.9013 107.42 28.168 107.718 28.52C108.017 28.872 108.166 29.304 108.166 29.816V35H105.846V30.36C105.846 30.1787 105.814 30.024 105.75 29.896C105.697 29.7573 105.612 29.64 105.494 29.544C105.377 29.448 105.228 29.3787 105.046 29.336C104.876 29.2933 104.678 29.272 104.454 29.272C104.124 29.272 103.798 29.3093 103.478 29.384C103.169 29.4587 102.897 29.5493 102.662 29.656C102.428 29.752 102.257 29.832 102.15 29.896ZM110.375 32.328C110.749 32.6373 111.085 32.8827 111.383 33.064C111.693 33.2347 111.965 33.3573 112.199 33.432C112.434 33.496 112.637 33.528 112.807 33.528C113.053 33.528 113.234 33.4747 113.351 33.368C113.469 33.2613 113.527 33.1227 113.527 32.952C113.527 32.792 113.479 32.6587 113.383 32.552C113.287 32.4347 113.122 32.3227 112.887 32.216C112.663 32.1093 112.354 31.9973 111.959 31.88C111.607 31.752 111.271 31.6027 110.951 31.432C110.642 31.2507 110.386 31.0107 110.183 30.712C109.981 30.4133 109.879 30.0293 109.879 29.56C109.879 29.112 109.997 28.7333 110.231 28.424C110.477 28.1147 110.802 27.88 111.207 27.72C111.623 27.56 112.098 27.48 112.631 27.48C113.058 27.48 113.453 27.528 113.815 27.624C114.189 27.72 114.535 27.848 114.855 28.008C115.186 28.168 115.495 28.3547 115.783 28.568L114.919 30.136C114.61 29.848 114.258 29.6133 113.863 29.432C113.469 29.24 113.106 29.144 112.775 29.144C112.551 29.144 112.381 29.1867 112.263 29.272C112.157 29.3573 112.103 29.4693 112.103 29.608C112.103 29.768 112.167 29.9013 112.295 30.008C112.434 30.1147 112.626 30.216 112.871 30.312C113.127 30.3973 113.437 30.5093 113.799 30.648C114.183 30.7867 114.535 30.9467 114.855 31.128C115.186 31.3093 115.447 31.5387 115.639 31.816C115.842 32.0933 115.943 32.4613 115.943 32.92C115.943 33.7093 115.698 34.3067 115.207 34.712C114.727 35.1067 114.05 35.304 113.175 35.304C112.642 35.304 112.146 35.24 111.687 35.112C111.239 34.9947 110.823 34.8347 110.439 34.632C110.055 34.4187 109.698 34.184 109.367 33.928L110.375 32.328ZM121.016 35.16C120.163 35.16 119.421 35.0053 118.792 34.696C118.173 34.376 117.693 33.928 117.352 33.352C117.011 32.776 116.84 32.0987 116.84 31.32C116.84 30.5307 117.005 29.848 117.336 29.272C117.667 28.696 118.141 28.2533 118.76 27.944C119.389 27.6347 120.131 27.48 120.984 27.48C121.837 27.48 122.557 27.6293 123.144 27.928C123.731 28.216 124.179 28.6373 124.488 29.192C124.797 29.7467 124.952 30.4187 124.952 31.208C124.952 31.3253 124.952 31.4427 124.952 31.56C124.952 31.6667 124.941 31.7573 124.92 31.832H118.2V30.488H122.744L122.168 31.224C122.221 31.1493 122.264 31.0587 122.296 30.952C122.339 30.8347 122.36 30.7387 122.36 30.664C122.36 30.344 122.301 30.0667 122.184 29.832C122.067 29.5973 121.901 29.416 121.688 29.288C121.475 29.16 121.224 29.096 120.936 29.096C120.573 29.096 120.269 29.176 120.024 29.336C119.779 29.496 119.592 29.7413 119.464 30.072C119.347 30.392 119.283 30.7973 119.272 31.288C119.272 31.736 119.336 32.12 119.464 32.44C119.592 32.76 119.784 33.0053 120.04 33.176C120.296 33.336 120.611 33.416 120.984 33.416C121.411 33.416 121.773 33.336 122.072 33.176C122.381 33.016 122.627 32.776 122.808 32.456L124.968 32.984C124.584 33.7093 124.061 34.2533 123.4 34.616C122.749 34.9787 121.955 35.16 121.016 35.16ZM130.585 27.64H135.609V29.64H130.585V27.64ZM135.337 24.84C135.23 24.7013 135.113 24.6 134.985 24.536C134.868 24.472 134.74 24.44 134.601 24.44C134.441 24.44 134.302 24.4773 134.185 24.552C134.078 24.6267 133.993 24.744 133.929 24.904C133.865 25.064 133.833 25.272 133.833 25.528V35H131.513V24.92C131.513 24.3653 131.614 23.8907 131.817 23.496C132.03 23.1013 132.34 22.7973 132.745 22.584C133.161 22.3707 133.673 22.264 134.281 22.264C134.654 22.264 134.969 22.312 135.225 22.408C135.481 22.4933 135.7 22.6 135.881 22.728C136.062 22.8453 136.206 22.9573 136.313 23.064L135.337 24.84ZM136.309 31.32C136.309 30.5413 136.49 29.864 136.853 29.288C137.216 28.712 137.717 28.264 138.357 27.944C138.997 27.624 139.717 27.464 140.517 27.464C141.317 27.464 142.032 27.624 142.661 27.944C143.301 28.264 143.802 28.712 144.165 29.288C144.538 29.864 144.725 30.5413 144.725 31.32C144.725 32.088 144.538 32.76 144.165 33.336C143.802 33.912 143.301 34.36 142.661 34.68C142.032 35 141.317 35.16 140.517 35.16C139.717 35.16 138.997 35 138.357 34.68C137.717 34.36 137.216 33.912 136.853 33.336C136.49 32.76 136.309 32.088 136.309 31.32ZM138.789 31.32C138.789 31.704 138.869 32.0347 139.029 32.312C139.189 32.5787 139.397 32.7867 139.653 32.936C139.909 33.0853 140.197 33.16 140.517 33.16C140.826 33.16 141.109 33.0853 141.365 32.936C141.632 32.7867 141.84 32.5787 141.989 32.312C142.149 32.0347 142.229 31.704 142.229 31.32C142.229 30.936 142.149 30.6053 141.989 30.328C141.84 30.0507 141.632 29.8373 141.365 29.688C141.109 29.5387 140.826 29.464 140.517 29.464C140.197 29.464 139.909 29.5387 139.653 29.688C139.397 29.8373 139.189 30.0507 139.029 30.328C138.869 30.6053 138.789 30.936 138.789 31.32ZM148.562 27.64V35H146.178V27.64H148.562ZM150.69 30.136C150.562 30.008 150.424 29.9067 150.274 29.832C150.136 29.7573 149.96 29.72 149.746 29.72C149.512 29.72 149.304 29.784 149.122 29.912C148.941 30.04 148.802 30.2267 148.706 30.472C148.61 30.7173 148.562 31.016 148.562 31.368L147.986 30.52C147.986 29.9333 148.098 29.4107 148.322 28.952C148.557 28.4933 148.861 28.1307 149.234 27.864C149.608 27.5973 149.997 27.464 150.402 27.464C150.669 27.464 150.925 27.5173 151.17 27.624C151.416 27.7307 151.602 27.88 151.73 28.072L150.69 30.136ZM159.953 22.52V35H157.537V22.52H159.953ZM165.969 31.32C165.969 32.1413 165.799 32.84 165.457 33.416C165.127 33.9813 164.695 34.4133 164.161 34.712C163.639 35.0107 163.073 35.16 162.465 35.16C161.857 35.16 161.313 35.0053 160.833 34.696C160.353 34.3867 159.975 33.944 159.697 33.368C159.42 32.792 159.281 32.1093 159.281 31.32C159.281 30.52 159.42 29.8373 159.697 29.272C159.975 28.696 160.353 28.2533 160.833 27.944C161.313 27.6347 161.857 27.48 162.465 27.48C163.073 27.48 163.639 27.6293 164.161 27.928C164.695 28.2267 165.127 28.6587 165.457 29.224C165.799 29.7893 165.969 30.488 165.969 31.32ZM163.425 31.32C163.425 30.936 163.345 30.6053 163.185 30.328C163.025 30.04 162.812 29.8213 162.545 29.672C162.279 29.512 161.985 29.432 161.665 29.432C161.388 29.432 161.116 29.5067 160.849 29.656C160.593 29.8053 160.38 30.024 160.209 30.312C160.039 30.5893 159.953 30.9253 159.953 31.32C159.953 31.7147 160.039 32.056 160.209 32.344C160.38 32.6213 160.593 32.8347 160.849 32.984C161.116 33.1333 161.388 33.208 161.665 33.208C161.985 33.208 162.279 33.1333 162.545 32.984C162.812 32.824 163.025 32.6053 163.185 32.328C163.345 32.04 163.425 31.704 163.425 31.32ZM169.3 32.696C169.3 32.888 169.348 33.0533 169.444 33.192C169.54 33.32 169.668 33.4213 169.828 33.496C169.988 33.56 170.164 33.592 170.356 33.592C170.634 33.592 170.89 33.5333 171.124 33.416C171.359 33.2987 171.551 33.1227 171.7 32.888C171.85 32.6533 171.924 32.3653 171.924 32.024L172.18 32.984C172.18 33.4533 172.052 33.8533 171.796 34.184C171.54 34.504 171.21 34.7493 170.804 34.92C170.399 35.08 169.962 35.16 169.492 35.16C169.023 35.16 168.586 35.0747 168.18 34.904C167.786 34.7227 167.466 34.456 167.22 34.104C166.986 33.752 166.868 33.3253 166.868 32.824C166.868 32.12 167.119 31.5653 167.62 31.16C168.122 30.744 168.831 30.536 169.748 30.536C170.196 30.536 170.596 30.5787 170.948 30.664C171.311 30.7493 171.62 30.856 171.876 30.984C172.132 31.112 172.324 31.2453 172.452 31.384V32.456C172.196 32.264 171.898 32.12 171.556 32.024C171.226 31.9173 170.874 31.864 170.5 31.864C170.212 31.864 169.983 31.896 169.812 31.96C169.642 32.024 169.514 32.12 169.428 32.248C169.343 32.3653 169.3 32.5147 169.3 32.696ZM168.228 29.896L167.412 28.28C167.828 28.0773 168.33 27.8853 168.916 27.704C169.503 27.5227 170.143 27.432 170.836 27.432C171.487 27.432 172.068 27.528 172.58 27.72C173.092 27.9013 173.498 28.168 173.796 28.52C174.095 28.872 174.244 29.304 174.244 29.816V35H171.924V30.36C171.924 30.1787 171.892 30.024 171.828 29.896C171.775 29.7573 171.69 29.64 171.572 29.544C171.455 29.448 171.306 29.3787 171.124 29.336C170.954 29.2933 170.756 29.272 170.532 29.272C170.202 29.272 169.876 29.3093 169.556 29.384C169.247 29.4587 168.975 29.5493 168.74 29.656C168.506 29.752 168.335 29.832 168.228 29.896ZM178.085 31.32C178.085 31.7147 178.171 32.056 178.341 32.344C178.512 32.6213 178.747 32.84 179.045 33C179.355 33.16 179.685 33.24 180.037 33.24C180.336 33.24 180.619 33.1973 180.885 33.112C181.163 33.016 181.413 32.888 181.637 32.728C181.872 32.568 182.064 32.3707 182.213 32.136V34.488C181.957 34.6907 181.637 34.856 181.253 34.984C180.869 35.1013 180.4 35.16 179.845 35.16C179.035 35.16 178.304 35 177.653 34.68C177.013 34.36 176.507 33.912 176.133 33.336C175.771 32.76 175.589 32.088 175.589 31.32C175.589 30.5413 175.771 29.8693 176.133 29.304C176.507 28.728 177.013 28.28 177.653 27.96C178.304 27.64 179.035 27.48 179.845 27.48C180.4 27.48 180.869 27.544 181.253 27.672C181.637 27.7893 181.957 27.9387 182.213 28.12V30.488C182.064 30.2533 181.867 30.056 181.621 29.896C181.387 29.736 181.131 29.6133 180.853 29.528C180.576 29.4427 180.304 29.4 180.037 29.4C179.685 29.4 179.355 29.4853 179.045 29.656C178.747 29.8267 178.512 30.056 178.341 30.344C178.171 30.632 178.085 30.9573 178.085 31.32ZM183.944 22.52H186.264V35H183.944V22.52ZM188.936 27.64H191.832L188.68 30.68L192.152 35H189.304L185.784 30.68L188.936 27.64ZM195.566 32.12C195.566 32.5467 195.646 32.8827 195.806 33.128C195.966 33.3627 196.243 33.48 196.638 33.48C196.904 33.48 197.128 33.4267 197.31 33.32C197.502 33.2133 197.651 33.0587 197.758 32.856C197.864 32.6533 197.918 32.408 197.918 32.12V27.64H200.334V35H197.918V33.896C197.694 34.2907 197.4 34.6053 197.038 34.84C196.675 35.064 196.222 35.176 195.678 35.176C194.76 35.176 194.088 34.9307 193.662 34.44C193.246 33.9387 193.038 33.2507 193.038 32.376V27.64H195.566V32.12ZM204.641 38.52H202.225V27.64H204.641V38.52ZM210.657 31.32C210.657 32.1733 210.486 32.8933 210.145 33.48C209.814 34.0667 209.382 34.5093 208.849 34.808C208.326 35.1067 207.761 35.256 207.153 35.256C206.513 35.256 205.958 35.096 205.489 34.776C205.03 34.4453 204.678 33.9867 204.433 33.4C204.188 32.8027 204.065 32.1093 204.065 31.32C204.065 30.52 204.188 29.8267 204.433 29.24C204.678 28.6533 205.03 28.2 205.489 27.88C205.958 27.5493 206.513 27.384 207.153 27.384C207.761 27.384 208.326 27.5333 208.849 27.832C209.382 28.1307 209.814 28.5733 210.145 29.16C210.486 29.736 210.657 30.456 210.657 31.32ZM208.113 31.32C208.113 30.936 208.033 30.6107 207.873 30.344C207.713 30.0773 207.5 29.8747 207.233 29.736C206.966 29.5973 206.673 29.528 206.353 29.528C206.076 29.528 205.804 29.5973 205.537 29.736C205.281 29.864 205.068 30.0613 204.897 30.328C204.726 30.5947 204.641 30.9253 204.641 31.32C204.641 31.7147 204.726 32.0453 204.897 32.312C205.068 32.5787 205.281 32.7813 205.537 32.92C205.804 33.048 206.076 33.112 206.353 33.112C206.673 33.112 206.966 33.0427 207.233 32.904C207.5 32.7653 207.713 32.5627 207.873 32.296C208.033 32.0293 208.113 31.704 208.113 31.32Z" fill="black"/>
<path d="M30.54 68.2H31.73V78.49L24.31 70.706V78H23.12V67.71L30.54 75.494V68.2ZM34.4095 76.012C34.4095 76.2547 34.4655 76.4647 34.5775 76.642C34.6988 76.8193 34.8621 76.9547 35.0675 77.048C35.2821 77.132 35.5248 77.174 35.7955 77.174C36.1408 77.174 36.4488 77.104 36.7195 76.964C36.9995 76.824 37.2188 76.628 37.3775 76.376C37.5455 76.1147 37.6295 75.816 37.6295 75.48L37.8535 76.32C37.8535 76.7307 37.7275 77.0713 37.4755 77.342C37.2328 77.6127 36.9295 77.8133 36.5655 77.944C36.2108 78.0747 35.8561 78.14 35.5015 78.14C35.1095 78.14 34.7408 78.0607 34.3955 77.902C34.0595 77.734 33.7888 77.496 33.5835 77.188C33.3781 76.88 33.2755 76.5067 33.2755 76.068C33.2755 75.4427 33.4948 74.9433 33.9335 74.57C34.3815 74.1873 35.0021 73.996 35.7955 73.996C36.2621 73.996 36.6495 74.052 36.9575 74.164C37.2748 74.2667 37.5268 74.388 37.7135 74.528C37.9001 74.6587 38.0261 74.766 38.0915 74.85V75.508C37.7648 75.284 37.4288 75.1253 37.0835 75.032C36.7381 74.9293 36.3695 74.878 35.9775 74.878C35.6135 74.878 35.3148 74.9247 35.0815 75.018C34.8575 75.1113 34.6895 75.242 34.5775 75.41C34.4655 75.578 34.4095 75.7787 34.4095 76.012ZM34.2415 73.044L33.6955 72.218C33.9381 72.0407 34.2695 71.8633 34.6895 71.686C35.1188 71.5087 35.6321 71.42 36.2295 71.42C36.7335 71.42 37.1721 71.4993 37.5455 71.658C37.9281 71.8073 38.2221 72.0267 38.4275 72.316C38.6421 72.6053 38.7495 72.96 38.7495 73.38V78H37.6295V73.534C37.6295 73.31 37.5921 73.128 37.5175 72.988C37.4428 72.8387 37.3355 72.722 37.1955 72.638C37.0648 72.554 36.9108 72.4933 36.7335 72.456C36.5561 72.4187 36.3695 72.4 36.1735 72.4C35.8561 72.4 35.5668 72.4373 35.3055 72.512C35.0535 72.5867 34.8388 72.6753 34.6615 72.778C34.4841 72.8807 34.3441 72.9693 34.2415 73.044ZM49.4657 73.94V78H48.3457V74.08C48.3457 73.5293 48.243 73.1233 48.0377 72.862C47.8417 72.6007 47.5337 72.47 47.1137 72.47C46.8057 72.47 46.5397 72.5353 46.3157 72.666C46.0917 72.7873 45.919 72.9693 45.7977 73.212C45.6764 73.4547 45.6157 73.744 45.6157 74.08V78H44.4957V74.08C44.4957 73.5293 44.393 73.1233 44.1877 72.862C43.9917 72.6007 43.6837 72.47 43.2637 72.47C42.9557 72.47 42.6897 72.5353 42.4657 72.666C42.2417 72.7873 42.069 72.9693 41.9477 73.212C41.8264 73.4547 41.7657 73.744 41.7657 74.08V78H40.6457V71.56H41.7657V72.498C41.9617 72.134 42.2044 71.8633 42.4937 71.686C42.7924 71.5087 43.1424 71.42 43.5437 71.42C43.9917 71.42 44.3744 71.5273 44.6917 71.742C45.0184 71.9473 45.2564 72.2413 45.4057 72.624C45.6297 72.2227 45.9097 71.924 46.2457 71.728C46.5817 71.5227 46.9644 71.42 47.3937 71.42C47.8324 71.42 48.2057 71.518 48.5137 71.714C48.8217 71.91 49.055 72.1993 49.2137 72.582C49.3817 72.9553 49.4657 73.408 49.4657 73.94ZM54.0615 78.14C53.4642 78.14 52.9322 78 52.4655 77.72C52.0082 77.4307 51.6489 77.034 51.3875 76.53C51.1355 76.026 51.0095 75.4427 51.0095 74.78C51.0095 74.108 51.1402 73.52 51.4015 73.016C51.6722 72.512 52.0455 72.12 52.5215 71.84C53.0069 71.56 53.5669 71.42 54.2015 71.42C54.8362 71.42 55.3775 71.5553 55.8255 71.826C56.2829 72.0873 56.6329 72.4653 56.8755 72.96C57.1182 73.4547 57.2395 74.0427 57.2395 74.724C57.2395 74.7893 57.2349 74.8593 57.2255 74.934C57.2255 74.9993 57.2255 75.0413 57.2255 75.06H51.7235V74.108H56.3435L55.8955 74.752C55.9235 74.7053 55.9515 74.6353 55.9795 74.542C56.0075 74.4393 56.0215 74.3553 56.0215 74.29C56.0215 73.9073 55.9422 73.576 55.7835 73.296C55.6342 73.016 55.4242 72.7967 55.1535 72.638C54.8829 72.4793 54.5655 72.4 54.2015 72.4C53.7722 72.4 53.4035 72.4933 53.0955 72.68C52.7969 72.8573 52.5635 73.1187 52.3955 73.464C52.2369 73.8 52.1529 74.2153 52.1435 74.71C52.1435 75.214 52.2229 75.6433 52.3815 75.998C52.5402 76.3527 52.7735 76.6233 53.0815 76.81C53.3895 76.9967 53.7629 77.09 54.2015 77.09C54.6402 77.09 55.0275 76.9967 55.3635 76.81C55.6995 76.614 55.9842 76.32 56.2175 75.928L57.1275 76.502C56.7915 77.0433 56.3669 77.454 55.8535 77.734C55.3495 78.0047 54.7522 78.14 54.0615 78.14Z" fill="black"/>
<path d="M182.058 75.06L182.478 73.94H186.818L187.238 75.06H182.058ZM184.62 70.412L182.968 74.304L182.856 74.556L181.4 78H180.07L184.62 67.71L189.17 78H187.84L186.412 74.64L186.3 74.36L184.62 70.412ZM191.342 81.08H190.222V71.56H191.342V81.08ZM196.732 74.78C196.732 75.4707 196.588 76.068 196.298 76.572C196.009 77.076 195.622 77.4633 195.136 77.734C194.66 78.0047 194.128 78.14 193.54 78.14C193.008 78.14 192.537 78.0047 192.126 77.734C191.725 77.4633 191.408 77.076 191.174 76.572C190.95 76.068 190.838 75.4707 190.838 74.78C190.838 74.08 190.95 73.4827 191.174 72.988C191.408 72.484 191.725 72.0967 192.126 71.826C192.537 71.5553 193.008 71.42 193.54 71.42C194.128 71.42 194.66 71.5553 195.136 71.826C195.622 72.0967 196.009 72.484 196.298 72.988C196.588 73.4827 196.732 74.08 196.732 74.78ZM195.598 74.78C195.598 74.2853 195.496 73.8653 195.29 73.52C195.094 73.1747 194.828 72.9133 194.492 72.736C194.166 72.5587 193.802 72.47 193.4 72.47C193.074 72.47 192.752 72.5587 192.434 72.736C192.117 72.9133 191.856 73.1747 191.65 73.52C191.445 73.8653 191.342 74.2853 191.342 74.78C191.342 75.2747 191.445 75.6947 191.65 76.04C191.856 76.3853 192.117 76.6467 192.434 76.824C192.752 77.0013 193.074 77.09 193.4 77.09C193.802 77.09 194.166 77.0013 194.492 76.824C194.828 76.6467 195.094 76.3853 195.29 76.04C195.496 75.6947 195.598 75.2747 195.598 74.78ZM199.327 81.08H198.207V71.56H199.327V81.08ZM204.717 74.78C204.717 75.4707 204.572 76.068 204.283 76.572C203.993 77.076 203.606 77.4633 203.121 77.734C202.645 78.0047 202.113 78.14 201.525 78.14C200.993 78.14 200.521 78.0047 200.111 77.734C199.709 77.4633 199.392 77.076 199.159 76.572C198.935 76.068 198.823 75.4707 198.823 74.78C198.823 74.08 198.935 73.4827 199.159 72.988C199.392 72.484 199.709 72.0967 200.111 71.826C200.521 71.5553 200.993 71.42 201.525 71.42C202.113 71.42 202.645 71.5553 203.121 71.826C203.606 72.0967 203.993 72.484 204.283 72.988C204.572 73.4827 204.717 74.08 204.717 74.78ZM203.583 74.78C203.583 74.2853 203.48 73.8653 203.275 73.52C203.079 73.1747 202.813 72.9133 202.477 72.736C202.15 72.5587 201.786 72.47 201.385 72.47C201.058 72.47 200.736 72.5587 200.419 72.736C200.101 72.9133 199.84 73.1747 199.635 73.52C199.429 73.8653 199.327 74.2853 199.327 74.78C199.327 75.2747 199.429 75.6947 199.635 76.04C199.84 76.3853 200.101 76.6467 200.419 76.824C200.736 77.0013 201.058 77.09 201.385 77.09C201.786 77.09 202.15 77.0013 202.477 76.824C202.813 76.6467 203.079 76.3853 203.275 76.04C203.48 75.6947 203.583 75.2747 203.583 74.78ZM206.261 67.08H207.381V78H206.261V67.08ZM209.488 68.9C209.488 68.6853 209.562 68.5033 209.712 68.354C209.87 68.2047 210.052 68.13 210.258 68.13C210.472 68.13 210.654 68.2047 210.804 68.354C210.953 68.5033 211.028 68.6853 211.028 68.9C211.028 69.1053 210.953 69.2873 210.804 69.446C210.654 69.5953 210.472 69.67 210.258 69.67C210.052 69.67 209.87 69.5953 209.712 69.446C209.562 69.2873 209.488 69.1053 209.488 68.9ZM209.698 71.56H210.818V78H209.698V71.56ZM213.628 74.78C213.628 75.228 213.722 75.6247 213.908 75.97C214.104 76.3153 214.366 76.5907 214.692 76.796C215.028 76.992 215.406 77.09 215.826 77.09C216.172 77.09 216.494 77.0387 216.792 76.936C217.1 76.824 217.366 76.6793 217.59 76.502C217.814 76.3153 217.973 76.1193 218.066 75.914V77.314C217.842 77.5753 217.52 77.7807 217.1 77.93C216.69 78.07 216.265 78.14 215.826 78.14C215.201 78.14 214.636 77.9953 214.132 77.706C213.628 77.4167 213.227 77.02 212.928 76.516C212.639 76.0027 212.494 75.424 212.494 74.78C212.494 74.1267 212.639 73.548 212.928 73.044C213.227 72.54 213.628 72.1433 214.132 71.854C214.636 71.5647 215.201 71.42 215.826 71.42C216.265 71.42 216.69 71.4947 217.1 71.644C217.52 71.784 217.842 71.9847 218.066 72.246V73.646C217.973 73.4313 217.814 73.2353 217.59 73.058C217.366 72.8807 217.1 72.7407 216.792 72.638C216.494 72.526 216.172 72.47 215.826 72.47C215.406 72.47 215.028 72.568 214.692 72.764C214.366 72.96 214.104 73.2353 213.908 73.59C213.722 73.9353 213.628 74.332 213.628 74.78ZM220.314 76.012C220.314 76.2547 220.37 76.4647 220.482 76.642C220.603 76.8193 220.766 76.9547 220.972 77.048C221.186 77.132 221.429 77.174 221.7 77.174C222.045 77.174 222.353 77.104 222.624 76.964C222.904 76.824 223.123 76.628 223.282 76.376C223.45 76.1147 223.534 75.816 223.534 75.48L223.758 76.32C223.758 76.7307 223.632 77.0713 223.38 77.342C223.137 77.6127 222.834 77.8133 222.47 77.944C222.115 78.0747 221.76 78.14 221.406 78.14C221.014 78.14 220.645 78.0607 220.3 77.902C219.964 77.734 219.693 77.496 219.488 77.188C219.282 76.88 219.18 76.5067 219.18 76.068C219.18 75.4427 219.399 74.9433 219.838 74.57C220.286 74.1873 220.906 73.996 221.7 73.996C222.166 73.996 222.554 74.052 222.862 74.164C223.179 74.2667 223.431 74.388 223.618 74.528C223.804 74.6587 223.93 74.766 223.996 74.85V75.508C223.669 75.284 223.333 75.1253 222.988 75.032C222.642 74.9293 222.274 74.878 221.882 74.878C221.518 74.878 221.219 74.9247 220.986 75.018C220.762 75.1113 220.594 75.242 220.482 75.41C220.37 75.578 220.314 75.7787 220.314 76.012ZM220.146 73.044L219.6 72.218C219.842 72.0407 220.174 71.8633 220.594 71.686C221.023 71.5087 221.536 71.42 222.134 71.42C222.638 71.42 223.076 71.4993 223.45 71.658C223.832 71.8073 224.126 72.0267 224.332 72.316C224.546 72.6053 224.654 72.96 224.654 73.38V78H223.534V73.534C223.534 73.31 223.496 73.128 223.422 72.988C223.347 72.8387 223.24 72.722 223.1 72.638C222.969 72.554 222.815 72.4933 222.638 72.456C222.46 72.4187 222.274 72.4 222.078 72.4C221.76 72.4 221.471 72.4373 221.21 72.512C220.958 72.5867 220.743 72.6753 220.566 72.778C220.388 72.8807 220.248 72.9693 220.146 73.044ZM230.817 68.2H232.007V78H230.817V68.2ZM233.757 78H231.475V76.81H233.757C234.308 76.81 234.812 76.726 235.269 76.558C235.727 76.3807 236.119 76.1333 236.445 75.816C236.772 75.4893 237.024 75.0973 237.201 74.64C237.379 74.1827 237.467 73.6693 237.467 73.1C237.467 72.5307 237.379 72.0173 237.201 71.56C237.024 71.1027 236.772 70.7153 236.445 70.398C236.119 70.0713 235.727 69.824 235.269 69.656C234.812 69.4787 234.308 69.39 233.757 69.39H231.475V68.2H233.757C234.709 68.2 235.554 68.4053 236.291 68.816C237.029 69.2267 237.607 69.8007 238.027 70.538C238.447 71.266 238.657 72.12 238.657 73.1C238.657 74.08 238.447 74.9387 238.027 75.676C237.607 76.404 237.029 76.9733 236.291 77.384C235.554 77.7947 234.709 78 233.757 78ZM241.271 72.82V72.162H242.853C243.18 72.162 243.474 72.106 243.735 71.994C243.996 71.882 244.202 71.7187 244.351 71.504C244.5 71.2893 244.575 71.028 244.575 70.72C244.575 70.2533 244.412 69.894 244.085 69.642C243.758 69.3807 243.348 69.25 242.853 69.25H241.523V76.95H242.993C243.413 76.95 243.782 76.8753 244.099 76.726C244.426 76.5767 244.678 76.362 244.855 76.082C245.042 75.802 245.135 75.4613 245.135 75.06C245.135 74.7613 245.084 74.4953 244.981 74.262C244.878 74.0287 244.729 73.8327 244.533 73.674C244.346 73.5153 244.122 73.3987 243.861 73.324C243.6 73.24 243.31 73.198 242.993 73.198H241.271V72.54H242.993C243.469 72.54 243.908 72.5913 244.309 72.694C244.71 72.7967 245.06 72.9553 245.359 73.17C245.667 73.3753 245.905 73.6413 246.073 73.968C246.241 74.2947 246.325 74.682 246.325 75.13C246.325 75.774 246.176 76.3107 245.877 76.74C245.588 77.16 245.191 77.4773 244.687 77.692C244.192 77.8973 243.628 78 242.993 78H240.333V68.2H242.853C243.441 68.2 243.95 68.2887 244.379 68.466C244.818 68.6433 245.158 68.914 245.401 69.278C245.644 69.6327 245.765 70.09 245.765 70.65C245.765 71.1073 245.644 71.4993 245.401 71.826C245.158 72.1527 244.818 72.4 244.379 72.568C243.95 72.736 243.441 72.82 242.853 72.82H241.271Z" fill="black"/>
<path d="M181.12 98.2H182.31V108H181.12V98.2ZM184.06 108H181.778V106.81H184.06C184.611 106.81 185.115 106.726 185.572 106.558C186.029 106.381 186.421 106.133 186.748 105.816C187.075 105.489 187.327 105.097 187.504 104.64C187.681 104.183 187.77 103.669 187.77 103.1C187.77 102.531 187.681 102.017 187.504 101.56C187.327 101.103 187.075 100.715 186.748 100.398C186.421 100.071 186.029 99.824 185.572 99.656C185.115 99.4787 184.611 99.39 184.06 99.39H181.778V98.2H184.06C185.012 98.2 185.857 98.4053 186.594 98.816C187.331 99.2267 187.91 99.8007 188.33 100.538C188.75 101.266 188.96 102.12 188.96 103.1C188.96 104.08 188.75 104.939 188.33 105.676C187.91 106.404 187.331 106.973 186.594 107.384C185.857 107.795 185.012 108 184.06 108ZM191.07 106.012C191.07 106.255 191.126 106.465 191.238 106.642C191.359 106.819 191.522 106.955 191.728 107.048C191.942 107.132 192.185 107.174 192.456 107.174C192.801 107.174 193.109 107.104 193.38 106.964C193.66 106.824 193.879 106.628 194.038 106.376C194.206 106.115 194.29 105.816 194.29 105.48L194.514 106.32C194.514 106.731 194.388 107.071 194.136 107.342C193.893 107.613 193.59 107.813 193.226 107.944C192.871 108.075 192.516 108.14 192.162 108.14C191.77 108.14 191.401 108.061 191.056 107.902C190.72 107.734 190.449 107.496 190.244 107.188C190.038 106.88 189.936 106.507 189.936 106.068C189.936 105.443 190.155 104.943 190.594 104.57C191.042 104.187 191.662 103.996 192.456 103.996C192.922 103.996 193.31 104.052 193.618 104.164C193.935 104.267 194.187 104.388 194.374 104.528C194.56 104.659 194.686 104.766 194.752 104.85V105.508C194.425 105.284 194.089 105.125 193.744 105.032C193.398 104.929 193.03 104.878 192.638 104.878C192.274 104.878 191.975 104.925 191.742 105.018C191.518 105.111 191.35 105.242 191.238 105.41C191.126 105.578 191.07 105.779 191.07 106.012ZM190.902 103.044L190.356 102.218C190.598 102.041 190.93 101.863 191.35 101.686C191.779 101.509 192.292 101.42 192.89 101.42C193.394 101.42 193.832 101.499 194.206 101.658C194.588 101.807 194.882 102.027 195.088 102.316C195.302 102.605 195.41 102.96 195.41 103.38V108H194.29V103.534C194.29 103.31 194.252 103.128 194.178 102.988C194.103 102.839 193.996 102.722 193.856 102.638C193.725 102.554 193.571 102.493 193.394 102.456C193.216 102.419 193.03 102.4 192.834 102.4C192.516 102.4 192.227 102.437 191.966 102.512C191.714 102.587 191.499 102.675 191.322 102.778C191.144 102.881 191.004 102.969 190.902 103.044ZM197.306 98.9C197.306 98.6853 197.381 98.5033 197.53 98.354C197.689 98.2047 197.871 98.13 198.076 98.13C198.291 98.13 198.473 98.2047 198.622 98.354C198.771 98.5033 198.846 98.6853 198.846 98.9C198.846 99.1053 198.771 99.2873 198.622 99.446C198.473 99.5953 198.291 99.67 198.076 99.67C197.871 99.67 197.689 99.5953 197.53 99.446C197.381 99.2873 197.306 99.1053 197.306 98.9ZM197.516 101.56H198.636V108H197.516V101.56ZM200.943 97.08H202.063V108H200.943V97.08ZM209.279 101.56L205.079 111.08H203.819L205.583 107.09L203.119 101.56H204.449L206.493 106.6L206.031 106.544L208.019 101.56H209.279Z" fill="black"/>
<path d="M181.75 131.1C181.75 131.669 181.806 132.197 181.918 132.682C182.03 133.158 182.193 133.573 182.408 133.928C182.623 134.273 182.879 134.544 183.178 134.74C183.486 134.927 183.827 135.02 184.2 135.02C184.583 135.02 184.923 134.927 185.222 134.74C185.521 134.544 185.777 134.273 185.992 133.928C186.207 133.573 186.37 133.158 186.482 132.682C186.594 132.197 186.65 131.669 186.65 131.1C186.65 130.531 186.594 130.008 186.482 129.532C186.37 129.047 186.207 128.631 185.992 128.286C185.777 127.931 185.521 127.661 185.222 127.474C184.923 127.278 184.583 127.18 184.2 127.18C183.827 127.18 183.486 127.278 183.178 127.474C182.879 127.661 182.623 127.931 182.408 128.286C182.193 128.631 182.03 129.047 181.918 129.532C181.806 130.008 181.75 130.531 181.75 131.1ZM180.56 131.1C180.56 130.12 180.714 129.252 181.022 128.496C181.33 127.74 181.755 127.147 182.296 126.718C182.847 126.279 183.481 126.06 184.2 126.06C184.919 126.06 185.549 126.279 186.09 126.718C186.641 127.147 187.07 127.74 187.378 128.496C187.686 129.252 187.84 130.12 187.84 131.1C187.84 132.08 187.686 132.948 187.378 133.704C187.07 134.46 186.641 135.057 186.09 135.496C185.549 135.925 184.919 136.14 184.2 136.14C183.481 136.14 182.847 135.925 182.296 135.496C181.755 135.057 181.33 134.46 181.022 133.704C180.714 132.948 180.56 132.08 180.56 131.1ZM188.675 134.04L194.107 126.2H194.597V136H193.407V133.536V133.382V128.846L190.635 132.99H193.897H194.135H196.137V134.04H188.675ZM197.887 135.44C197.887 135.225 197.961 135.043 198.111 134.894C198.269 134.745 198.451 134.67 198.657 134.67C198.871 134.67 199.053 134.745 199.203 134.894C199.352 135.043 199.427 135.225 199.427 135.44C199.427 135.645 199.352 135.827 199.203 135.986C199.053 136.135 198.871 136.21 198.657 136.21C198.451 136.21 198.269 136.135 198.111 135.986C197.961 135.827 197.887 135.645 197.887 135.44ZM197.887 130.12C197.887 129.905 197.961 129.723 198.111 129.574C198.269 129.425 198.451 129.35 198.657 129.35C198.871 129.35 199.053 129.425 199.203 129.574C199.352 129.723 199.427 129.905 199.427 130.12C199.427 130.325 199.352 130.507 199.203 130.666C199.053 130.815 198.871 130.89 198.657 130.89C198.451 130.89 198.269 130.815 198.111 130.666C197.961 130.507 197.887 130.325 197.887 130.12ZM202.504 131.1C202.504 131.669 202.56 132.197 202.672 132.682C202.784 133.158 202.947 133.573 203.162 133.928C203.377 134.273 203.633 134.544 203.932 134.74C204.24 134.927 204.581 135.02 204.954 135.02C205.337 135.02 205.677 134.927 205.976 134.74C206.275 134.544 206.531 134.273 206.746 133.928C206.961 133.573 207.124 133.158 207.236 132.682C207.348 132.197 207.404 131.669 207.404 131.1C207.404 130.531 207.348 130.008 207.236 129.532C207.124 129.047 206.961 128.631 206.746 128.286C206.531 127.931 206.275 127.661 205.976 127.474C205.677 127.278 205.337 127.18 204.954 127.18C204.581 127.18 204.24 127.278 203.932 127.474C203.633 127.661 203.377 127.931 203.162 128.286C202.947 128.631 202.784 129.047 202.672 129.532C202.56 130.008 202.504 130.531 202.504 131.1ZM201.314 131.1C201.314 130.12 201.468 129.252 201.776 128.496C202.084 127.74 202.509 127.147 203.05 126.718C203.601 126.279 204.235 126.06 204.954 126.06C205.673 126.06 206.303 126.279 206.844 126.718C207.395 127.147 207.824 127.74 208.132 128.496C208.44 129.252 208.594 130.12 208.594 131.1C208.594 132.08 208.44 132.948 208.132 133.704C207.824 134.46 207.395 135.057 206.844 135.496C206.303 135.925 205.673 136.14 204.954 136.14C204.235 136.14 203.601 135.925 203.05 135.496C202.509 135.057 202.084 134.46 201.776 133.704C201.468 132.948 201.314 132.08 201.314 131.1ZM210.898 131.1C210.898 131.669 210.954 132.197 211.066 132.682C211.178 133.158 211.342 133.573 211.556 133.928C211.771 134.273 212.028 134.544 212.326 134.74C212.634 134.927 212.975 135.02 213.348 135.02C213.731 135.02 214.072 134.927 214.37 134.74C214.669 134.544 214.926 134.273 215.14 133.928C215.355 133.573 215.518 133.158 215.63 132.682C215.742 132.197 215.798 131.669 215.798 131.1C215.798 130.531 215.742 130.008 215.63 129.532C215.518 129.047 215.355 128.631 215.14 128.286C214.926 127.931 214.669 127.661 214.37 127.474C214.072 127.278 213.731 127.18 213.348 127.18C212.975 127.18 212.634 127.278 212.326 127.474C212.028 127.661 211.771 127.931 211.556 128.286C211.342 128.631 211.178 129.047 211.066 129.532C210.954 130.008 210.898 130.531 210.898 131.1ZM209.708 131.1C209.708 130.12 209.862 129.252 210.17 128.496C210.478 127.74 210.903 127.147 211.444 126.718C211.995 126.279 212.63 126.06 213.348 126.06C214.067 126.06 214.697 126.279 215.238 126.718C215.789 127.147 216.218 127.74 216.526 128.496C216.834 129.252 216.988 130.12 216.988 131.1C216.988 132.08 216.834 132.948 216.526 133.704C216.218 134.46 215.789 135.057 215.238 135.496C214.697 135.925 214.067 136.14 213.348 136.14C212.63 136.14 211.995 135.925 211.444 135.496C210.903 135.057 210.478 134.46 210.17 133.704C209.862 132.948 209.708 132.08 209.708 131.1Z" fill="black"/>
<path d="M181.12 158.132V156.9L184.48 156.06V166H183.29V157.488L181.12 158.132ZM200.37 161.94V166H199.25V162.08C199.25 161.529 199.147 161.123 198.942 160.862C198.746 160.601 198.438 160.47 198.018 160.47C197.71 160.47 197.444 160.535 197.22 160.666C196.996 160.787 196.823 160.969 196.702 161.212C196.581 161.455 196.52 161.744 196.52 162.08V166H195.4V162.08C195.4 161.529 195.297 161.123 195.092 160.862C194.896 160.601 194.588 160.47 194.168 160.47C193.86 160.47 193.594 160.535 193.37 160.666C193.146 160.787 192.973 160.969 192.852 161.212C192.731 161.455 192.67 161.744 192.67 162.08V166H191.55V159.56H192.67V160.498C192.866 160.134 193.109 159.863 193.398 159.686C193.697 159.509 194.047 159.42 194.448 159.42C194.896 159.42 195.279 159.527 195.596 159.742C195.923 159.947 196.161 160.241 196.31 160.624C196.534 160.223 196.814 159.924 197.15 159.728C197.486 159.523 197.869 159.42 198.298 159.42C198.737 159.42 199.11 159.518 199.418 159.714C199.726 159.91 199.959 160.199 200.118 160.582C200.286 160.955 200.37 161.408 200.37 161.94ZM201.914 162.78C201.914 162.127 202.058 161.548 202.348 161.044C202.646 160.54 203.048 160.143 203.552 159.854C204.056 159.565 204.62 159.42 205.246 159.42C205.88 159.42 206.445 159.565 206.94 159.854C207.444 160.143 207.84 160.54 208.13 161.044C208.428 161.548 208.578 162.127 208.578 162.78C208.578 163.424 208.428 164.003 208.13 164.516C207.84 165.02 207.444 165.417 206.94 165.706C206.445 165.995 205.88 166.14 205.246 166.14C204.62 166.14 204.056 165.995 203.552 165.706C203.048 165.417 202.646 165.02 202.348 164.516C202.058 164.003 201.914 163.424 201.914 162.78ZM203.048 162.78C203.048 163.228 203.141 163.625 203.328 163.97C203.524 164.315 203.785 164.591 204.112 164.796C204.448 164.992 204.826 165.09 205.246 165.09C205.666 165.09 206.039 164.992 206.366 164.796C206.702 164.591 206.963 164.315 207.15 163.97C207.346 163.625 207.444 163.228 207.444 162.78C207.444 162.332 207.346 161.935 207.15 161.59C206.963 161.235 206.702 160.96 206.366 160.764C206.039 160.568 205.666 160.47 205.246 160.47C204.826 160.47 204.448 160.568 204.112 160.764C203.785 160.96 203.524 161.235 203.328 161.59C203.141 161.935 203.048 162.332 203.048 162.78ZM214.246 162.08C214.246 161.548 214.13 161.147 213.896 160.876C213.663 160.605 213.322 160.47 212.874 160.47C212.548 160.47 212.258 160.54 212.006 160.68C211.764 160.811 211.572 160.997 211.432 161.24C211.302 161.483 211.236 161.763 211.236 162.08V166H210.116V159.56H211.236V160.568C211.451 160.176 211.717 159.887 212.034 159.7C212.361 159.513 212.734 159.42 213.154 159.42C213.836 159.42 214.372 159.649 214.764 160.106C215.166 160.554 215.366 161.165 215.366 161.94V166H214.246V162.08ZM216.492 159.56H219.712V160.61H216.492V159.56ZM217.542 157.32H218.662V166H217.542V157.32ZM221.955 155.08V166H220.835V155.08H221.955ZM224.965 162.08C224.965 161.548 224.848 161.147 224.615 160.876C224.391 160.605 224.05 160.47 223.593 160.47C223.266 160.47 222.977 160.54 222.725 160.68C222.482 160.82 222.291 161.011 222.151 161.254C222.02 161.497 221.955 161.772 221.955 162.08H221.591C221.591 161.567 221.689 161.114 221.885 160.722C222.081 160.321 222.347 160.003 222.683 159.77C223.028 159.537 223.425 159.42 223.873 159.42C224.321 159.42 224.708 159.513 225.035 159.7C225.371 159.887 225.628 160.167 225.805 160.54C225.992 160.913 226.085 161.38 226.085 161.94V166H224.965V162.08Z" fill="black"/>
<path d="M24.058 102.82V102.162H25.64C25.9667 102.162 26.2607 102.106 26.522 101.994C26.7833 101.882 26.9887 101.719 27.138 101.504C27.2873 101.289 27.362 101.028 27.362 100.72C27.362 100.253 27.1987 99.894 26.872 99.642C26.5453 99.3807 26.1347 99.25 25.64 99.25H24.31V106.95H25.78C26.2 106.95 26.5687 106.875 26.886 106.726C27.2127 106.577 27.4647 106.362 27.642 106.082C27.8287 105.802 27.922 105.461 27.922 105.06C27.922 104.761 27.8707 104.495 27.768 104.262C27.6653 104.029 27.516 103.833 27.32 103.674C27.1333 103.515 26.9093 103.399 26.648 103.324C26.3867 103.24 26.0973 103.198 25.78 103.198H24.058V102.54H25.78C26.256 102.54 26.6947 102.591 27.096 102.694C27.4973 102.797 27.8473 102.955 28.146 103.17C28.454 103.375 28.692 103.641 28.86 103.968C29.028 104.295 29.112 104.682 29.112 105.13C29.112 105.774 28.9627 106.311 28.664 106.74C28.3747 107.16 27.978 107.477 27.474 107.692C26.9793 107.897 26.4147 108 25.78 108H23.12V98.2H25.64C26.228 98.2 26.7367 98.2887 27.166 98.466C27.6047 98.6433 27.9453 98.914 28.188 99.278C28.4307 99.6327 28.552 100.09 28.552 100.65C28.552 101.107 28.4307 101.499 28.188 101.826C27.9453 102.153 27.6047 102.4 27.166 102.568C26.7367 102.736 26.228 102.82 25.64 102.82H24.058ZM31.3606 106.012C31.3606 106.255 31.4166 106.465 31.5286 106.642C31.65 106.819 31.8133 106.955 32.0186 107.048C32.2333 107.132 32.476 107.174 32.7466 107.174C33.092 107.174 33.4 107.104 33.6706 106.964C33.9506 106.824 34.17 106.628 34.3286 106.376C34.4966 106.115 34.5806 105.816 34.5806 105.48L34.8046 106.32C34.8046 106.731 34.6786 107.071 34.4266 107.342C34.184 107.613 33.8806 107.813 33.5166 107.944C33.162 108.075 32.8073 108.14 32.4526 108.14C32.0606 108.14 31.692 108.061 31.3466 107.902C31.0106 107.734 30.74 107.496 30.5346 107.188C30.3293 106.88 30.2266 106.507 30.2266 106.068C30.2266 105.443 30.446 104.943 30.8846 104.57C31.3326 104.187 31.9533 103.996 32.7466 103.996C33.2133 103.996 33.6006 104.052 33.9086 104.164C34.226 104.267 34.478 104.388 34.6646 104.528C34.8513 104.659 34.9773 104.766 35.0426 104.85V105.508C34.716 105.284 34.38 105.125 34.0346 105.032C33.6893 104.929 33.3206 104.878 32.9286 104.878C32.5646 104.878 32.266 104.925 32.0326 105.018C31.8086 105.111 31.6406 105.242 31.5286 105.41C31.4166 105.578 31.3606 105.779 31.3606 106.012ZM31.1926 103.044L30.6466 102.218C30.8893 102.041 31.2206 101.863 31.6406 101.686C32.07 101.509 32.5833 101.42 33.1806 101.42C33.6846 101.42 34.1233 101.499 34.4966 101.658C34.8793 101.807 35.1733 102.027 35.3786 102.316C35.5933 102.605 35.7006 102.96 35.7006 103.38V108H34.5806V103.534C34.5806 103.31 34.5433 103.128 34.4686 102.988C34.394 102.839 34.2866 102.722 34.1466 102.638C34.016 102.554 33.862 102.493 33.6846 102.456C33.5073 102.419 33.3206 102.4 33.1246 102.4C32.8073 102.4 32.518 102.437 32.2566 102.512C32.0046 102.587 31.79 102.675 31.6126 102.778C31.4353 102.881 31.2953 102.969 31.1926 103.044ZM38.1009 104.78C38.1009 105.228 38.1942 105.625 38.3809 105.97C38.5769 106.315 38.8382 106.591 39.1649 106.796C39.5009 106.992 39.8789 107.09 40.2989 107.09C40.6442 107.09 40.9662 107.039 41.2649 106.936C41.5729 106.824 41.8389 106.679 42.0629 106.502C42.2869 106.315 42.4455 106.119 42.5389 105.914V107.314C42.3149 107.575 41.9929 107.781 41.5729 107.93C41.1622 108.07 40.7375 108.14 40.2989 108.14C39.6735 108.14 39.1089 107.995 38.6049 107.706C38.1009 107.417 37.6995 107.02 37.4009 106.516C37.1115 106.003 36.9669 105.424 36.9669 104.78C36.9669 104.127 37.1115 103.548 37.4009 103.044C37.6995 102.54 38.1009 102.143 38.6049 101.854C39.1089 101.565 39.6735 101.42 40.2989 101.42C40.7375 101.42 41.1622 101.495 41.5729 101.644C41.9929 101.784 42.3149 101.985 42.5389 102.246V103.646C42.4455 103.431 42.2869 103.235 42.0629 103.058C41.8389 102.881 41.5729 102.741 41.2649 102.638C40.9662 102.526 40.6442 102.47 40.2989 102.47C39.8789 102.47 39.5009 102.568 39.1649 102.764C38.8382 102.96 38.5769 103.235 38.3809 103.59C38.1942 103.935 38.1009 104.332 38.1009 104.78ZM44.2124 97.08H45.3324V108H44.2124V97.08ZM47.7124 101.56H49.1124L46.3124 104.22L49.3924 108H47.9924L44.9124 104.22L47.7124 101.56ZM51.4317 105.48C51.4317 105.993 51.5484 106.39 51.7817 106.67C52.0151 106.95 52.3557 107.09 52.8037 107.09C53.1304 107.09 53.4151 107.025 53.6577 106.894C53.9097 106.754 54.1011 106.563 54.2317 106.32C54.3717 106.077 54.4417 105.797 54.4417 105.48V101.56H55.5617V108H54.4417V106.992C54.2271 107.375 53.9611 107.664 53.6437 107.86C53.3264 108.047 52.9531 108.14 52.5237 108.14C51.8517 108.14 51.3151 107.911 50.9137 107.454C50.5124 106.997 50.3117 106.385 50.3117 105.62V101.56H51.4317V105.48ZM58.7172 111.08H57.5972V101.56H58.7172V111.08ZM64.1072 104.78C64.1072 105.471 63.9625 106.068 63.6732 106.572C63.3839 107.076 62.9965 107.463 62.5112 107.734C62.0352 108.005 61.5032 108.14 60.9152 108.14C60.3832 108.14 59.9119 108.005 59.5012 107.734C59.0999 107.463 58.7825 107.076 58.5492 106.572C58.3252 106.068 58.2132 105.471 58.2132 104.78C58.2132 104.08 58.3252 103.483 58.5492 102.988C58.7825 102.484 59.0999 102.097 59.5012 101.826C59.9119 101.555 60.3832 101.42 60.9152 101.42C61.5032 101.42 62.0352 101.555 62.5112 101.826C62.9965 102.097 63.3839 102.484 63.6732 102.988C63.9625 103.483 64.1072 104.08 64.1072 104.78ZM62.9732 104.78C62.9732 104.285 62.8705 103.865 62.6652 103.52C62.4692 103.175 62.2032 102.913 61.8672 102.736C61.5405 102.559 61.1765 102.47 60.7752 102.47C60.4485 102.47 60.1265 102.559 59.8092 102.736C59.4919 102.913 59.2305 103.175 59.0252 103.52C58.8199 103.865 58.7172 104.285 58.7172 104.78C58.7172 105.275 58.8199 105.695 59.0252 106.04C59.2305 106.385 59.4919 106.647 59.8092 106.824C60.1265 107.001 60.4485 107.09 60.7752 107.09C61.1765 107.09 61.5405 107.001 61.8672 106.824C62.2032 106.647 62.4692 106.385 62.6652 106.04C62.8705 105.695 62.9732 105.275 62.9732 104.78ZM69.8488 98.9C69.8488 98.6853 69.9235 98.5033 70.0728 98.354C70.2315 98.2047 70.4135 98.13 70.6188 98.13C70.8335 98.13 71.0155 98.2047 71.1648 98.354C71.3142 98.5033 71.3888 98.6853 71.3888 98.9C71.3888 99.1053 71.3142 99.2873 71.1648 99.446C71.0155 99.5953 70.8335 99.67 70.6188 99.67C70.4135 99.67 70.2315 99.5953 70.0728 99.446C69.9235 99.2873 69.8488 99.1053 69.8488 98.9ZM70.0588 101.56H71.1788V108H70.0588V101.56ZM77.6155 104.08C77.6155 103.548 77.4989 103.147 77.2655 102.876C77.0322 102.605 76.6915 102.47 76.2435 102.47C75.9169 102.47 75.6275 102.54 75.3755 102.68C75.1329 102.811 74.9415 102.997 74.8015 103.24C74.6709 103.483 74.6055 103.763 74.6055 104.08V108H73.4855V101.56H74.6055V102.568C74.8202 102.176 75.0862 101.887 75.4035 101.7C75.7302 101.513 76.1035 101.42 76.5235 101.42C77.2049 101.42 77.7415 101.649 78.1335 102.106C78.5349 102.554 78.7355 103.165 78.7355 103.94V108H77.6155V104.08ZM79.861 101.56H83.081V102.61H79.861V101.56ZM80.911 99.32H82.031V108H80.911V99.32ZM86.6963 108.14C86.099 108.14 85.567 108 85.1003 107.72C84.643 107.431 84.2836 107.034 84.0223 106.53C83.7703 106.026 83.6443 105.443 83.6443 104.78C83.6443 104.108 83.775 103.52 84.0363 103.016C84.307 102.512 84.6803 102.12 85.1563 101.84C85.6416 101.56 86.2016 101.42 86.8363 101.42C87.471 101.42 88.0123 101.555 88.4603 101.826C88.9176 102.087 89.2676 102.465 89.5103 102.96C89.753 103.455 89.8743 104.043 89.8743 104.724C89.8743 104.789 89.8696 104.859 89.8603 104.934C89.8603 104.999 89.8603 105.041 89.8603 105.06H84.3583V104.108H88.9783L88.5303 104.752C88.5583 104.705 88.5863 104.635 88.6143 104.542C88.6423 104.439 88.6563 104.355 88.6563 104.29C88.6563 103.907 88.577 103.576 88.4183 103.296C88.269 103.016 88.059 102.797 87.7883 102.638C87.5176 102.479 87.2003 102.4 86.8363 102.4C86.407 102.4 86.0383 102.493 85.7303 102.68C85.4316 102.857 85.1983 103.119 85.0303 103.464C84.8716 103.8 84.7876 104.215 84.7783 104.71C84.7783 105.214 84.8576 105.643 85.0163 105.998C85.175 106.353 85.4083 106.623 85.7163 106.81C86.0243 106.997 86.3976 107.09 86.8363 107.09C87.275 107.09 87.6623 106.997 87.9983 106.81C88.3343 106.614 88.619 106.32 88.8523 105.928L89.7623 106.502C89.4263 107.043 89.0016 107.454 88.4883 107.734C87.9843 108.005 87.387 108.14 86.6963 108.14ZM92.5294 101.56V108H91.4094V101.56H92.5294ZM94.4754 102.792C94.326 102.68 94.1907 102.601 94.0694 102.554C93.948 102.498 93.794 102.47 93.6074 102.47C93.3274 102.47 93.108 102.54 92.9494 102.68C92.7907 102.82 92.6787 103.011 92.6134 103.254C92.5574 103.497 92.5294 103.772 92.5294 104.08H92.0254C92.0254 103.567 92.114 103.114 92.2914 102.722C92.478 102.321 92.716 102.003 93.0054 101.77C93.2947 101.537 93.5887 101.42 93.8874 101.42C94.1207 101.42 94.3354 101.453 94.5314 101.518C94.7367 101.574 94.9234 101.691 95.0914 101.868L94.4754 102.792ZM95.582 101.56H96.842L98.662 106.11L100.482 101.56H101.742L98.662 108.49L95.582 101.56ZM103.302 106.012C103.302 106.255 103.358 106.465 103.47 106.642C103.591 106.819 103.755 106.955 103.96 107.048C104.175 107.132 104.417 107.174 104.688 107.174C105.033 107.174 105.341 107.104 105.612 106.964C105.892 106.824 106.111 106.628 106.27 106.376C106.438 106.115 106.522 105.816 106.522 105.48L106.746 106.32C106.746 106.731 106.62 107.071 106.368 107.342C106.125 107.613 105.822 107.813 105.458 107.944C105.103 108.075 104.749 108.14 104.394 108.14C104.002 108.14 103.633 108.061 103.288 107.902C102.952 107.734 102.681 107.496 102.476 107.188C102.271 106.88 102.168 106.507 102.168 106.068C102.168 105.443 102.387 104.943 102.826 104.57C103.274 104.187 103.895 103.996 104.688 103.996C105.155 103.996 105.542 104.052 105.85 104.164C106.167 104.267 106.419 104.388 106.606 104.528C106.793 104.659 106.919 104.766 106.984 104.85V105.508C106.657 105.284 106.321 105.125 105.976 105.032C105.631 104.929 105.262 104.878 104.87 104.878C104.506 104.878 104.207 104.925 103.974 105.018C103.75 105.111 103.582 105.242 103.47 105.41C103.358 105.578 103.302 105.779 103.302 106.012ZM103.134 103.044L102.588 102.218C102.831 102.041 103.162 101.863 103.582 101.686C104.011 101.509 104.525 101.42 105.122 101.42C105.626 101.42 106.065 101.499 106.438 101.658C106.821 101.807 107.115 102.027 107.32 102.316C107.535 102.605 107.642 102.96 107.642 103.38V108H106.522V103.534C106.522 103.31 106.485 103.128 106.41 102.988C106.335 102.839 106.228 102.722 106.088 102.638C105.957 102.554 105.803 102.493 105.626 102.456C105.449 102.419 105.262 102.4 105.066 102.4C104.749 102.4 104.459 102.437 104.198 102.512C103.946 102.587 103.731 102.675 103.554 102.778C103.377 102.881 103.237 102.969 103.134 103.044ZM109.538 97.08H110.658V108H109.538V97.08Z" fill="black"/>
<path d="M24.058 130.82V130.162H25.64C25.9667 130.162 26.2607 130.106 26.522 129.994C26.7833 129.882 26.9887 129.719 27.138 129.504C27.2873 129.289 27.362 129.028 27.362 128.72C27.362 128.253 27.1987 127.894 26.872 127.642C26.5453 127.381 26.1347 127.25 25.64 127.25H24.31V134.95H25.78C26.2 134.95 26.5687 134.875 26.886 134.726C27.2127 134.577 27.4647 134.362 27.642 134.082C27.8287 133.802 27.922 133.461 27.922 133.06C27.922 132.761 27.8707 132.495 27.768 132.262C27.6653 132.029 27.516 131.833 27.32 131.674C27.1333 131.515 26.9093 131.399 26.648 131.324C26.3867 131.24 26.0973 131.198 25.78 131.198H24.058V130.54H25.78C26.256 130.54 26.6947 130.591 27.096 130.694C27.4973 130.797 27.8473 130.955 28.146 131.17C28.454 131.375 28.692 131.641 28.86 131.968C29.028 132.295 29.112 132.682 29.112 133.13C29.112 133.774 28.9627 134.311 28.664 134.74C28.3747 135.16 27.978 135.477 27.474 135.692C26.9793 135.897 26.4147 136 25.78 136H23.12V126.2H25.64C26.228 126.2 26.7367 126.289 27.166 126.466C27.6047 126.643 27.9453 126.914 28.188 127.278C28.4307 127.633 28.552 128.09 28.552 128.65C28.552 129.107 28.4307 129.499 28.188 129.826C27.9453 130.153 27.6047 130.4 27.166 130.568C26.7367 130.736 26.228 130.82 25.64 130.82H24.058ZM31.3606 134.012C31.3606 134.255 31.4166 134.465 31.5286 134.642C31.65 134.819 31.8133 134.955 32.0186 135.048C32.2333 135.132 32.476 135.174 32.7466 135.174C33.092 135.174 33.4 135.104 33.6706 134.964C33.9506 134.824 34.17 134.628 34.3286 134.376C34.4966 134.115 34.5806 133.816 34.5806 133.48L34.8046 134.32C34.8046 134.731 34.6786 135.071 34.4266 135.342C34.184 135.613 33.8806 135.813 33.5166 135.944C33.162 136.075 32.8073 136.14 32.4526 136.14C32.0606 136.14 31.692 136.061 31.3466 135.902C31.0106 135.734 30.74 135.496 30.5346 135.188C30.3293 134.88 30.2266 134.507 30.2266 134.068C30.2266 133.443 30.446 132.943 30.8846 132.57C31.3326 132.187 31.9533 131.996 32.7466 131.996C33.2133 131.996 33.6006 132.052 33.9086 132.164C34.226 132.267 34.478 132.388 34.6646 132.528C34.8513 132.659 34.9773 132.766 35.0426 132.85V133.508C34.716 133.284 34.38 133.125 34.0346 133.032C33.6893 132.929 33.3206 132.878 32.9286 132.878C32.5646 132.878 32.266 132.925 32.0326 133.018C31.8086 133.111 31.6406 133.242 31.5286 133.41C31.4166 133.578 31.3606 133.779 31.3606 134.012ZM31.1926 131.044L30.6466 130.218C30.8893 130.041 31.2206 129.863 31.6406 129.686C32.07 129.509 32.5833 129.42 33.1806 129.42C33.6846 129.42 34.1233 129.499 34.4966 129.658C34.8793 129.807 35.1733 130.027 35.3786 130.316C35.5933 130.605 35.7006 130.96 35.7006 131.38V136H34.5806V131.534C34.5806 131.31 34.5433 131.128 34.4686 130.988C34.394 130.839 34.2866 130.722 34.1466 130.638C34.016 130.554 33.862 130.493 33.6846 130.456C33.5073 130.419 33.3206 130.4 33.1246 130.4C32.8073 130.4 32.518 130.437 32.2566 130.512C32.0046 130.587 31.79 130.675 31.6126 130.778C31.4353 130.881 31.2953 130.969 31.1926 131.044ZM38.1009 132.78C38.1009 133.228 38.1942 133.625 38.3809 133.97C38.5769 134.315 38.8382 134.591 39.1649 134.796C39.5009 134.992 39.8789 135.09 40.2989 135.09C40.6442 135.09 40.9662 135.039 41.2649 134.936C41.5729 134.824 41.8389 134.679 42.0629 134.502C42.2869 134.315 42.4455 134.119 42.5389 133.914V135.314C42.3149 135.575 41.9929 135.781 41.5729 135.93C41.1622 136.07 40.7375 136.14 40.2989 136.14C39.6735 136.14 39.1089 135.995 38.6049 135.706C38.1009 135.417 37.6995 135.02 37.4009 134.516C37.1115 134.003 36.9669 133.424 36.9669 132.78C36.9669 132.127 37.1115 131.548 37.4009 131.044C37.6995 130.54 38.1009 130.143 38.6049 129.854C39.1089 129.565 39.6735 129.42 40.2989 129.42C40.7375 129.42 41.1622 129.495 41.5729 129.644C41.9929 129.784 42.3149 129.985 42.5389 130.246V131.646C42.4455 131.431 42.2869 131.235 42.0629 131.058C41.8389 130.881 41.5729 130.741 41.2649 130.638C40.9662 130.526 40.6442 130.47 40.2989 130.47C39.8789 130.47 39.5009 130.568 39.1649 130.764C38.8382 130.96 38.5769 131.235 38.3809 131.59C38.1942 131.935 38.1009 132.332 38.1009 132.78ZM44.2124 125.08H45.3324V136H44.2124V125.08ZM47.7124 129.56H49.1124L46.3124 132.22L49.3924 136H47.9924L44.9124 132.22L47.7124 129.56ZM51.4317 133.48C51.4317 133.993 51.5484 134.39 51.7817 134.67C52.0151 134.95 52.3557 135.09 52.8037 135.09C53.1304 135.09 53.4151 135.025 53.6577 134.894C53.9097 134.754 54.1011 134.563 54.2317 134.32C54.3717 134.077 54.4417 133.797 54.4417 133.48V129.56H55.5617V136H54.4417V134.992C54.2271 135.375 53.9611 135.664 53.6437 135.86C53.3264 136.047 52.9531 136.14 52.5237 136.14C51.8517 136.14 51.3151 135.911 50.9137 135.454C50.5124 134.997 50.3117 134.385 50.3117 133.62V129.56H51.4317V133.48ZM58.7172 139.08H57.5972V129.56H58.7172V139.08ZM64.1072 132.78C64.1072 133.471 63.9625 134.068 63.6732 134.572C63.3839 135.076 62.9965 135.463 62.5112 135.734C62.0352 136.005 61.5032 136.14 60.9152 136.14C60.3832 136.14 59.9119 136.005 59.5012 135.734C59.0999 135.463 58.7825 135.076 58.5492 134.572C58.3252 134.068 58.2132 133.471 58.2132 132.78C58.2132 132.08 58.3252 131.483 58.5492 130.988C58.7825 130.484 59.0999 130.097 59.5012 129.826C59.9119 129.555 60.3832 129.42 60.9152 129.42C61.5032 129.42 62.0352 129.555 62.5112 129.826C62.9965 130.097 63.3839 130.484 63.6732 130.988C63.9625 131.483 64.1072 132.08 64.1072 132.78ZM62.9732 132.78C62.9732 132.285 62.8705 131.865 62.6652 131.52C62.4692 131.175 62.2032 130.913 61.8672 130.736C61.5405 130.559 61.1765 130.47 60.7752 130.47C60.4485 130.47 60.1265 130.559 59.8092 130.736C59.4919 130.913 59.2305 131.175 59.0252 131.52C58.8199 131.865 58.7172 132.285 58.7172 132.78C58.7172 133.275 58.8199 133.695 59.0252 134.04C59.2305 134.385 59.4919 134.647 59.8092 134.824C60.1265 135.001 60.4485 135.09 60.7752 135.09C61.1765 135.09 61.5405 135.001 61.8672 134.824C62.2032 134.647 62.4692 134.385 62.6652 134.04C62.8705 133.695 62.9732 133.275 62.9732 132.78ZM68.8688 129.56H72.0888V130.61H68.8688V129.56ZM69.9188 127.32H71.0388V136H69.9188V127.32ZM73.2121 126.9C73.2121 126.685 73.2868 126.503 73.4361 126.354C73.5948 126.205 73.7768 126.13 73.9821 126.13C74.1968 126.13 74.3788 126.205 74.5281 126.354C74.6774 126.503 74.7521 126.685 74.7521 126.9C74.7521 127.105 74.6774 127.287 74.5281 127.446C74.3788 127.595 74.1968 127.67 73.9821 127.67C73.7768 127.67 73.5948 127.595 73.4361 127.446C73.2868 127.287 73.2121 127.105 73.2121 126.9ZM73.4221 129.56H74.5421V136H73.4221V129.56ZM85.6688 131.94V136H84.5488V132.08C84.5488 131.529 84.4462 131.123 84.2408 130.862C84.0448 130.601 83.7368 130.47 83.3168 130.47C83.0088 130.47 82.7428 130.535 82.5188 130.666C82.2948 130.787 82.1222 130.969 82.0008 131.212C81.8795 131.455 81.8188 131.744 81.8188 132.08V136H80.6988V132.08C80.6988 131.529 80.5962 131.123 80.3908 130.862C80.1948 130.601 79.8868 130.47 79.4668 130.47C79.1588 130.47 78.8928 130.535 78.6688 130.666C78.4448 130.787 78.2722 130.969 78.1508 131.212C78.0295 131.455 77.9688 131.744 77.9688 132.08V136H76.8488V129.56H77.9688V130.498C78.1648 130.134 78.4075 129.863 78.6968 129.686C78.9955 129.509 79.3455 129.42 79.7468 129.42C80.1948 129.42 80.5775 129.527 80.8948 129.742C81.2215 129.947 81.4595 130.241 81.6088 130.624C81.8328 130.223 82.1128 129.924 82.4488 129.728C82.7848 129.523 83.1675 129.42 83.5968 129.42C84.0355 129.42 84.4088 129.518 84.7168 129.714C85.0248 129.91 85.2582 130.199 85.4168 130.582C85.5848 130.955 85.6688 131.408 85.6688 131.94ZM90.2647 136.14C89.6673 136.14 89.1353 136 88.6687 135.72C88.2113 135.431 87.852 135.034 87.5907 134.53C87.3387 134.026 87.2127 133.443 87.2127 132.78C87.2127 132.108 87.3433 131.52 87.6047 131.016C87.8753 130.512 88.2487 130.12 88.7247 129.84C89.21 129.56 89.77 129.42 90.4047 129.42C91.0393 129.42 91.5807 129.555 92.0287 129.826C92.486 130.087 92.836 130.465 93.0787 130.96C93.3213 131.455 93.4427 132.043 93.4427 132.724C93.4427 132.789 93.438 132.859 93.4287 132.934C93.4287 132.999 93.4287 133.041 93.4287 133.06H87.9267V132.108H92.5467L92.0987 132.752C92.1267 132.705 92.1547 132.635 92.1827 132.542C92.2107 132.439 92.2247 132.355 92.2247 132.29C92.2247 131.907 92.1453 131.576 91.9867 131.296C91.8373 131.016 91.6273 130.797 91.3567 130.638C91.086 130.479 90.7687 130.4 90.4047 130.4C89.9753 130.4 89.6067 130.493 89.2987 130.68C89 130.857 88.7667 131.119 88.5987 131.464C88.44 131.8 88.356 132.215 88.3467 132.71C88.3467 133.214 88.426 133.643 88.5847 133.998C88.7433 134.353 88.9767 134.623 89.2847 134.81C89.5927 134.997 89.966 135.09 90.4047 135.09C90.8433 135.09 91.2307 134.997 91.5667 134.81C91.9027 134.614 92.1873 134.32 92.4207 133.928L93.3307 134.502C92.9947 135.043 92.57 135.454 92.0567 135.734C91.5527 136.005 90.9553 136.14 90.2647 136.14ZM98.615 132.78C98.615 132.127 98.7597 131.548 99.049 131.044C99.3477 130.54 99.749 130.143 100.253 129.854C100.757 129.565 101.322 129.42 101.947 129.42C102.582 129.42 103.146 129.565 103.641 129.854C104.145 130.143 104.542 130.54 104.831 131.044C105.13 131.548 105.279 132.127 105.279 132.78C105.279 133.424 105.13 134.003 104.831 134.516C104.542 135.02 104.145 135.417 103.641 135.706C103.146 135.995 102.582 136.14 101.947 136.14C101.322 136.14 100.757 135.995 100.253 135.706C99.749 135.417 99.3477 135.02 99.049 134.516C98.7597 134.003 98.615 133.424 98.615 132.78ZM99.749 132.78C99.749 133.228 99.8423 133.625 100.029 133.97C100.225 134.315 100.486 134.591 100.813 134.796C101.149 134.992 101.527 135.09 101.947 135.09C102.367 135.09 102.74 134.992 103.067 134.796C103.403 134.591 103.664 134.315 103.851 133.97C104.047 133.625 104.145 133.228 104.145 132.78C104.145 132.332 104.047 131.935 103.851 131.59C103.664 131.235 103.403 130.96 103.067 130.764C102.74 130.568 102.367 130.47 101.947 130.47C101.527 130.47 101.149 130.568 100.813 130.764C100.486 130.96 100.225 131.235 100.029 131.59C99.8423 131.935 99.749 132.332 99.749 132.78ZM106.328 129.56H109.548V130.61H106.328V129.56ZM109.436 126.424C109.342 126.265 109.23 126.167 109.1 126.13C108.978 126.083 108.862 126.06 108.75 126.06C108.61 126.06 108.488 126.102 108.386 126.186C108.292 126.261 108.218 126.391 108.162 126.578C108.106 126.765 108.078 127.012 108.078 127.32V136H106.958V127.18C106.958 126.667 107.032 126.247 107.182 125.92C107.331 125.593 107.541 125.351 107.812 125.192C108.092 125.024 108.428 124.94 108.82 124.94C109.025 124.94 109.207 124.968 109.366 125.024C109.524 125.08 109.66 125.15 109.772 125.234C109.893 125.318 109.986 125.407 110.052 125.5L109.436 126.424ZM119.851 125.08H120.971V136H119.851V125.08ZM114.461 132.78C114.461 132.08 114.605 131.483 114.895 130.988C115.184 130.484 115.571 130.097 116.057 129.826C116.542 129.555 117.074 129.42 117.653 129.42C118.194 129.42 118.665 129.555 119.067 129.826C119.468 130.097 119.781 130.484 120.005 130.988C120.238 131.483 120.355 132.08 120.355 132.78C120.355 133.471 120.238 134.068 120.005 134.572C119.781 135.076 119.468 135.463 119.067 135.734C118.665 136.005 118.194 136.14 117.653 136.14C117.074 136.14 116.542 136.005 116.057 135.734C115.571 135.463 115.184 135.076 114.895 134.572C114.605 134.068 114.461 133.471 114.461 132.78ZM115.595 132.78C115.595 133.275 115.693 133.695 115.889 134.04C116.094 134.385 116.365 134.647 116.701 134.824C117.037 135.001 117.401 135.09 117.793 135.09C118.119 135.09 118.441 135.001 118.759 134.824C119.076 134.647 119.337 134.385 119.543 134.04C119.748 133.695 119.851 133.275 119.851 132.78C119.851 132.285 119.748 131.865 119.543 131.52C119.337 131.175 119.076 130.913 118.759 130.736C118.441 130.559 118.119 130.47 117.793 130.47C117.401 130.47 117.037 130.559 116.701 130.736C116.365 130.913 116.094 131.175 115.889 131.52C115.693 131.865 115.595 132.285 115.595 132.78ZM123.509 134.012C123.509 134.255 123.565 134.465 123.677 134.642C123.798 134.819 123.962 134.955 124.167 135.048C124.382 135.132 124.624 135.174 124.895 135.174C125.24 135.174 125.548 135.104 125.819 134.964C126.099 134.824 126.318 134.628 126.477 134.376C126.645 134.115 126.729 133.816 126.729 133.48L126.953 134.32C126.953 134.731 126.827 135.071 126.575 135.342C126.332 135.613 126.029 135.813 125.665 135.944C125.31 136.075 124.956 136.14 124.601 136.14C124.209 136.14 123.84 136.061 123.495 135.902C123.159 135.734 122.888 135.496 122.683 135.188C122.478 134.88 122.375 134.507 122.375 134.068C122.375 133.443 122.594 132.943 123.033 132.57C123.481 132.187 124.102 131.996 124.895 131.996C125.362 131.996 125.749 132.052 126.057 132.164C126.374 132.267 126.626 132.388 126.813 132.528C127 132.659 127.126 132.766 127.191 132.85V133.508C126.864 133.284 126.528 133.125 126.183 133.032C125.838 132.929 125.469 132.878 125.077 132.878C124.713 132.878 124.414 132.925 124.181 133.018C123.957 133.111 123.789 133.242 123.677 133.41C123.565 133.578 123.509 133.779 123.509 134.012ZM123.341 131.044L122.795 130.218C123.038 130.041 123.369 129.863 123.789 129.686C124.218 129.509 124.732 129.42 125.329 129.42C125.833 129.42 126.272 129.499 126.645 129.658C127.028 129.807 127.322 130.027 127.527 130.316C127.742 130.605 127.849 130.96 127.849 131.38V136H126.729V131.534C126.729 131.31 126.692 131.128 126.617 130.988C126.542 130.839 126.435 130.722 126.295 130.638C126.164 130.554 126.01 130.493 125.833 130.456C125.656 130.419 125.469 130.4 125.273 130.4C124.956 130.4 124.666 130.437 124.405 130.512C124.153 130.587 123.938 130.675 123.761 130.778C123.584 130.881 123.444 130.969 123.341 131.044ZM134.787 129.56L130.587 139.08H129.327L131.091 135.09L128.627 129.56H129.957L132.001 134.6L131.539 134.544L133.527 129.56H134.787Z" fill="black"/>
<path d="M23.484 163.032C23.708 163.424 23.9413 163.769 24.184 164.068C24.436 164.367 24.716 164.6 25.024 164.768C25.332 164.936 25.682 165.02 26.074 165.02C26.5967 165.02 27.0167 164.875 27.334 164.586C27.6513 164.297 27.81 163.928 27.81 163.48C27.81 163.041 27.7073 162.691 27.502 162.43C27.2967 162.169 27.026 161.959 26.69 161.8C26.3633 161.632 26.0133 161.483 25.64 161.352C25.3973 161.268 25.1267 161.161 24.828 161.03C24.5293 160.89 24.2447 160.717 23.974 160.512C23.7033 160.297 23.4793 160.036 23.302 159.728C23.134 159.42 23.05 159.042 23.05 158.594C23.05 158.109 23.1713 157.675 23.414 157.292C23.6567 156.909 23.9927 156.611 24.422 156.396C24.8513 156.172 25.3413 156.06 25.892 156.06C26.424 156.06 26.886 156.163 27.278 156.368C27.6793 156.564 28.02 156.821 28.3 157.138C28.58 157.446 28.7993 157.773 28.958 158.118L27.936 158.706C27.8147 158.463 27.6607 158.225 27.474 157.992C27.2873 157.759 27.0587 157.567 26.788 157.418C26.5267 157.269 26.2047 157.194 25.822 157.194C25.29 157.194 24.9027 157.325 24.66 157.586C24.4173 157.838 24.296 158.123 24.296 158.44C24.296 158.711 24.366 158.963 24.506 159.196C24.646 159.42 24.8793 159.635 25.206 159.84C25.542 160.036 25.9947 160.232 26.564 160.428C26.8253 160.521 27.1007 160.643 27.39 160.792C27.6793 160.941 27.9453 161.133 28.188 161.366C28.44 161.59 28.6453 161.865 28.804 162.192C28.9627 162.509 29.042 162.892 29.042 163.34C29.042 163.769 28.958 164.157 28.79 164.502C28.6313 164.847 28.4073 165.141 28.118 165.384C27.838 165.627 27.516 165.813 27.152 165.944C26.7973 166.075 26.424 166.14 26.032 166.14C25.5 166.14 25.0053 166.028 24.548 165.804C24.1 165.571 23.7033 165.267 23.358 164.894C23.022 164.511 22.7467 164.105 22.532 163.676L23.484 163.032ZM29.7399 159.56H32.9599V160.61H29.7399V159.56ZM30.7899 157.32H31.9099V166H30.7899V157.32ZM33.5232 162.78C33.5232 162.127 33.6679 161.548 33.9572 161.044C34.2559 160.54 34.6572 160.143 35.1612 159.854C35.6652 159.565 36.2299 159.42 36.8552 159.42C37.4899 159.42 38.0545 159.565 38.5492 159.854C39.0532 160.143 39.4499 160.54 39.7392 161.044C40.0379 161.548 40.1872 162.127 40.1872 162.78C40.1872 163.424 40.0379 164.003 39.7392 164.516C39.4499 165.02 39.0532 165.417 38.5492 165.706C38.0545 165.995 37.4899 166.14 36.8552 166.14C36.2299 166.14 35.6652 165.995 35.1612 165.706C34.6572 165.417 34.2559 165.02 33.9572 164.516C33.6679 164.003 33.5232 163.424 33.5232 162.78ZM34.6572 162.78C34.6572 163.228 34.7505 163.625 34.9372 163.97C35.1332 164.315 35.3945 164.591 35.7212 164.796C36.0572 164.992 36.4352 165.09 36.8552 165.09C37.2752 165.09 37.6485 164.992 37.9752 164.796C38.3112 164.591 38.5725 164.315 38.7592 163.97C38.9552 163.625 39.0532 163.228 39.0532 162.78C39.0532 162.332 38.9552 161.935 38.7592 161.59C38.5725 161.235 38.3112 160.96 37.9752 160.764C37.6485 160.568 37.2752 160.47 36.8552 160.47C36.4352 160.47 36.0572 160.568 35.7212 160.764C35.3945 160.96 35.1332 161.235 34.9372 161.59C34.7505 161.935 34.6572 162.332 34.6572 162.78ZM42.8458 159.56V166H41.7258V159.56H42.8458ZM44.7918 160.792C44.6424 160.68 44.5071 160.601 44.3858 160.554C44.2644 160.498 44.1104 160.47 43.9238 160.47C43.6438 160.47 43.4244 160.54 43.2658 160.68C43.1071 160.82 42.9951 161.011 42.9298 161.254C42.8738 161.497 42.8458 161.772 42.8458 162.08H42.3418C42.3418 161.567 42.4304 161.114 42.6078 160.722C42.7944 160.321 43.0324 160.003 43.3218 159.77C43.6111 159.537 43.9051 159.42 44.2038 159.42C44.4371 159.42 44.6518 159.453 44.8478 159.518C45.0531 159.574 45.2398 159.691 45.4078 159.868L44.7918 160.792ZM48.8115 166.14C48.2142 166.14 47.6822 166 47.2155 165.72C46.7582 165.431 46.3989 165.034 46.1375 164.53C45.8855 164.026 45.7595 163.443 45.7595 162.78C45.7595 162.108 45.8902 161.52 46.1515 161.016C46.4222 160.512 46.7955 160.12 47.2715 159.84C47.7569 159.56 48.3169 159.42 48.9515 159.42C49.5862 159.42 50.1275 159.555 50.5755 159.826C51.0329 160.087 51.3829 160.465 51.6255 160.96C51.8682 161.455 51.9895 162.043 51.9895 162.724C51.9895 162.789 51.9849 162.859 51.9755 162.934C51.9755 162.999 51.9755 163.041 51.9755 163.06H46.4735V162.108H51.0935L50.6455 162.752C50.6735 162.705 50.7015 162.635 50.7295 162.542C50.7575 162.439 50.7715 162.355 50.7715 162.29C50.7715 161.907 50.6922 161.576 50.5335 161.296C50.3842 161.016 50.1742 160.797 49.9035 160.638C49.6329 160.479 49.3155 160.4 48.9515 160.4C48.5222 160.4 48.1535 160.493 47.8455 160.68C47.5469 160.857 47.3135 161.119 47.1455 161.464C46.9869 161.8 46.9029 162.215 46.8935 162.71C46.8935 163.214 46.9729 163.643 47.1315 163.998C47.2902 164.353 47.5235 164.623 47.8315 164.81C48.1395 164.997 48.5129 165.09 48.9515 165.09C49.3902 165.09 49.7775 164.997 50.1135 164.81C50.4495 164.614 50.7342 164.32 50.9675 163.928L51.8775 164.502C51.5415 165.043 51.1169 165.454 50.6035 165.734C50.0995 166.005 49.5022 166.14 48.8115 166.14ZM58.7719 169.08H57.6519V159.56H58.7719V169.08ZM64.1619 162.78C64.1619 163.471 64.0172 164.068 63.7279 164.572C63.4385 165.076 63.0512 165.463 62.5659 165.734C62.0899 166.005 61.5579 166.14 60.9699 166.14C60.4379 166.14 59.9665 166.005 59.5559 165.734C59.1545 165.463 58.8372 165.076 58.6039 164.572C58.3799 164.068 58.2679 163.471 58.2679 162.78C58.2679 162.08 58.3799 161.483 58.6039 160.988C58.8372 160.484 59.1545 160.097 59.5559 159.826C59.9665 159.555 60.4379 159.42 60.9699 159.42C61.5579 159.42 62.0899 159.555 62.5659 159.826C63.0512 160.097 63.4385 160.484 63.7279 160.988C64.0172 161.483 64.1619 162.08 64.1619 162.78ZM63.0279 162.78C63.0279 162.285 62.9252 161.865 62.7199 161.52C62.5239 161.175 62.2579 160.913 61.9219 160.736C61.5952 160.559 61.2312 160.47 60.8299 160.47C60.5032 160.47 60.1812 160.559 59.8639 160.736C59.5465 160.913 59.2852 161.175 59.0799 161.52C58.8745 161.865 58.7719 162.285 58.7719 162.78C58.7719 163.275 58.8745 163.695 59.0799 164.04C59.2852 164.385 59.5465 164.647 59.8639 164.824C60.1812 165.001 60.5032 165.09 60.8299 165.09C61.2312 165.09 61.5952 165.001 61.9219 164.824C62.2579 164.647 62.5239 164.385 62.7199 164.04C62.9252 163.695 63.0279 163.275 63.0279 162.78ZM68.1983 166.14C67.6009 166.14 67.0689 166 66.6023 165.72C66.1449 165.431 65.7856 165.034 65.5243 164.53C65.2723 164.026 65.1463 163.443 65.1463 162.78C65.1463 162.108 65.2769 161.52 65.5383 161.016C65.8089 160.512 66.1823 160.12 66.6583 159.84C67.1436 159.56 67.7036 159.42 68.3383 159.42C68.9729 159.42 69.5143 159.555 69.9623 159.826C70.4196 160.087 70.7696 160.465 71.0123 160.96C71.2549 161.455 71.3763 162.043 71.3763 162.724C71.3763 162.789 71.3716 162.859 71.3623 162.934C71.3623 162.999 71.3623 163.041 71.3623 163.06H65.8603V162.108H70.4803L70.0323 162.752C70.0603 162.705 70.0883 162.635 70.1163 162.542C70.1443 162.439 70.1583 162.355 70.1583 162.29C70.1583 161.907 70.0789 161.576 69.9203 161.296C69.7709 161.016 69.5609 160.797 69.2903 160.638C69.0196 160.479 68.7023 160.4 68.3383 160.4C67.9089 160.4 67.5403 160.493 67.2323 160.68C66.9336 160.857 66.7003 161.119 66.5323 161.464C66.3736 161.8 66.2896 162.215 66.2803 162.71C66.2803 163.214 66.3596 163.643 66.5183 163.998C66.6769 164.353 66.9103 164.623 67.2183 164.81C67.5263 164.997 67.8996 165.09 68.3383 165.09C68.7769 165.09 69.1643 164.997 69.5003 164.81C69.8363 164.614 70.1209 164.32 70.3543 163.928L71.2643 164.502C70.9283 165.043 70.5036 165.454 69.9903 165.734C69.4863 166.005 68.8889 166.14 68.1983 166.14ZM74.0313 159.56V166H72.9113V159.56H74.0313ZM75.9773 160.792C75.828 160.68 75.6927 160.601 75.5713 160.554C75.45 160.498 75.296 160.47 75.1093 160.47C74.8293 160.47 74.61 160.54 74.4513 160.68C74.2927 160.82 74.1807 161.011 74.1153 161.254C74.0593 161.497 74.0313 161.772 74.0313 162.08H73.5273C73.5273 161.567 73.616 161.114 73.7933 160.722C73.98 160.321 74.218 160.003 74.5073 159.77C74.7967 159.537 75.0907 159.42 75.3893 159.42C75.6227 159.42 75.8373 159.453 76.0333 159.518C76.2387 159.574 76.4253 159.691 76.5933 159.868L75.9773 160.792ZM77.7102 156.9C77.7102 156.685 77.7848 156.503 77.9342 156.354C78.0928 156.205 78.2748 156.13 78.4802 156.13C78.6948 156.13 78.8768 156.205 79.0262 156.354C79.1755 156.503 79.2502 156.685 79.2502 156.9C79.2502 157.105 79.1755 157.287 79.0262 157.446C78.8768 157.595 78.6948 157.67 78.4802 157.67C78.2748 157.67 78.0928 157.595 77.9342 157.446C77.7848 157.287 77.7102 157.105 77.7102 156.9ZM77.9202 159.56H79.0402V166H77.9202V159.56ZM80.7869 162.78C80.7869 162.127 80.9315 161.548 81.2209 161.044C81.5195 160.54 81.9209 160.143 82.4249 159.854C82.9289 159.565 83.4935 159.42 84.1189 159.42C84.7535 159.42 85.3182 159.565 85.8129 159.854C86.3169 160.143 86.7135 160.54 87.0029 161.044C87.3015 161.548 87.4509 162.127 87.4509 162.78C87.4509 163.424 87.3015 164.003 87.0029 164.516C86.7135 165.02 86.3169 165.417 85.8129 165.706C85.3182 165.995 84.7535 166.14 84.1189 166.14C83.4935 166.14 82.9289 165.995 82.4249 165.706C81.9209 165.417 81.5195 165.02 81.2209 164.516C80.9315 164.003 80.7869 163.424 80.7869 162.78ZM81.9209 162.78C81.9209 163.228 82.0142 163.625 82.2009 163.97C82.3969 164.315 82.6582 164.591 82.9849 164.796C83.3209 164.992 83.6989 165.09 84.1189 165.09C84.5389 165.09 84.9122 164.992 85.2389 164.796C85.5749 164.591 85.8362 164.315 86.0229 163.97C86.2189 163.625 86.3169 163.228 86.3169 162.78C86.3169 162.332 86.2189 161.935 86.0229 161.59C85.8362 161.235 85.5749 160.96 85.2389 160.764C84.9122 160.568 84.5389 160.47 84.1189 160.47C83.6989 160.47 83.3209 160.568 82.9849 160.764C82.6582 160.96 82.3969 161.235 82.2009 161.59C82.0142 161.935 81.9209 162.332 81.9209 162.78ZM93.8195 155.08H94.9395V166H93.8195V155.08ZM88.4295 162.78C88.4295 162.08 88.5741 161.483 88.8635 160.988C89.1528 160.484 89.5401 160.097 90.0255 159.826C90.5108 159.555 91.0428 159.42 91.6215 159.42C92.1628 159.42 92.6341 159.555 93.0355 159.826C93.4368 160.097 93.7495 160.484 93.9735 160.988C94.2068 161.483 94.3235 162.08 94.3235 162.78C94.3235 163.471 94.2068 164.068 93.9735 164.572C93.7495 165.076 93.4368 165.463 93.0355 165.734C92.6341 166.005 92.1628 166.14 91.6215 166.14C91.0428 166.14 90.5108 166.005 90.0255 165.734C89.5401 165.463 89.1528 165.076 88.8635 164.572C88.5741 164.068 88.4295 163.471 88.4295 162.78ZM89.5635 162.78C89.5635 163.275 89.6615 163.695 89.8575 164.04C90.0628 164.385 90.3335 164.647 90.6695 164.824C91.0055 165.001 91.3695 165.09 91.7615 165.09C92.0881 165.09 92.4101 165.001 92.7275 164.824C93.0448 164.647 93.3061 164.385 93.5115 164.04C93.7168 163.695 93.8195 163.275 93.8195 162.78C93.8195 162.285 93.7168 161.865 93.5115 161.52C93.3061 161.175 93.0448 160.913 92.7275 160.736C92.4101 160.559 92.0881 160.47 91.7615 160.47C91.3695 160.47 91.0055 160.559 90.6695 160.736C90.3335 160.913 90.0628 161.175 89.8575 161.52C89.6615 161.865 89.5635 162.285 89.5635 162.78Z" fill="black"/>
<line x1="365.354" y1="13.6464" x2="376.354" y2="24.6464" stroke="#808080"/>
<line x1="365.646" y1="24.6464" x2="376.646" y2="13.6464" stroke="#808080"/>
<line x1="349.354" y1="99.6464" x2="355.354" y2="105.646" stroke="#808080"/>
<line y1="-0.5" x2="8.48528" y2="-0.5" transform="matrix(-0.707107 0.707107 0.707107 0.707107 361 100)" stroke="#808080"/>
<line x1="349.354" y1="157.646" x2="355.354" y2="163.646" stroke="#808080"/>
<line y1="-0.5" x2="8.48528" y2="-0.5" transform="matrix(-0.707107 0.707107 0.707107 0.707107 361 158)" stroke="#808080"/>
<rect x="172.5" y="61.5" width="199" height="23" rx="2.5" stroke="#D9D9D9"/>
<rect x="172.5" y="91.5" width="199" height="23" rx="2.5" stroke="#D9D9D9"/>
<rect x="172.5" y="119.5" width="199" height="23" rx="2.5" stroke="#D9D9D9"/>
<rect x="172.5" y="149.5" width="199" height="23" rx="2.5" stroke="#D9D9D9"/>
<circle cx="357" cy="131" r="6.5" stroke="#D9D9D9"/>
<line x1="356.5" y1="127" x2="356.5" y2="132" stroke="#D9D9D9"/>
<line x1="356.277" y1="131.584" x2="359.277" y2="133.584" stroke="#D9D9D9"/>
<rect x="286" y="203" width="88" height="32" rx="5" fill="#155DFC"/>
<path d="M305.674 219.1C305.674 219.744 305.819 220.309 306.108 220.794C306.407 221.27 306.794 221.639 307.27 221.9C307.746 222.152 308.264 222.278 308.824 222.278C309.291 222.278 309.706 222.217 310.07 222.096C310.434 221.975 310.761 221.811 311.05 221.606C311.349 221.401 311.605 221.177 311.82 220.934V223.188C311.419 223.505 310.98 223.753 310.504 223.93C310.037 224.107 309.445 224.196 308.726 224.196C307.979 224.196 307.284 224.075 306.64 223.832C306.005 223.589 305.45 223.239 304.974 222.782C304.507 222.325 304.143 221.788 303.882 221.172C303.63 220.547 303.504 219.856 303.504 219.1C303.504 218.344 303.63 217.658 303.882 217.042C304.143 216.417 304.507 215.875 304.974 215.418C305.45 214.961 306.005 214.611 306.64 214.368C307.284 214.125 307.979 214.004 308.726 214.004C309.445 214.004 310.037 214.093 310.504 214.27C310.98 214.447 311.419 214.695 311.82 215.012V217.266C311.605 217.023 311.349 216.799 311.05 216.594C310.761 216.389 310.434 216.225 310.07 216.104C309.706 215.983 309.291 215.922 308.824 215.922C308.264 215.922 307.746 216.053 307.27 216.314C306.794 216.566 306.407 216.93 306.108 217.406C305.819 217.882 305.674 218.447 305.674 219.1ZM313.21 220.78C313.21 220.108 313.364 219.52 313.672 219.016C313.989 218.512 314.414 218.12 314.946 217.84C315.487 217.56 316.099 217.42 316.78 217.42C317.461 217.42 318.068 217.56 318.6 217.84C319.141 218.12 319.566 218.512 319.874 219.016C320.191 219.52 320.35 220.108 320.35 220.78C320.35 221.443 320.191 222.031 319.874 222.544C319.566 223.048 319.141 223.44 318.6 223.72C318.068 224 317.461 224.14 316.78 224.14C316.099 224.14 315.487 224 314.946 223.72C314.414 223.44 313.989 223.048 313.672 222.544C313.364 222.031 313.21 221.443 313.21 220.78ZM315.058 220.78C315.058 221.144 315.133 221.466 315.282 221.746C315.441 222.017 315.651 222.231 315.912 222.39C316.173 222.539 316.463 222.614 316.78 222.614C317.097 222.614 317.387 222.539 317.648 222.39C317.909 222.231 318.115 222.017 318.264 221.746C318.423 221.466 318.502 221.144 318.502 220.78C318.502 220.416 318.423 220.094 318.264 219.814C318.115 219.534 317.909 219.319 317.648 219.17C317.387 219.021 317.097 218.946 316.78 218.946C316.463 218.946 316.173 219.021 315.912 219.17C315.651 219.319 315.441 219.534 315.282 219.814C315.133 220.094 315.058 220.416 315.058 220.78ZM325.868 220.08C325.868 219.651 325.784 219.324 325.616 219.1C325.448 218.876 325.178 218.764 324.804 218.764C324.552 218.764 324.328 218.82 324.132 218.932C323.936 219.035 323.787 219.184 323.684 219.38C323.582 219.576 323.53 219.809 323.53 220.08V224H321.71V217.56H323.53V218.54C323.726 218.176 323.983 217.901 324.3 217.714C324.627 217.518 325.019 217.42 325.476 217.42C326.242 217.42 326.811 217.639 327.184 218.078C327.558 218.507 327.744 219.109 327.744 219.884V224H325.868V220.08ZM328.705 217.56H332.681V219.086H328.705V217.56ZM329.811 215.32H331.561V224H329.811V215.32ZM333.562 215.068C333.562 214.769 333.669 214.527 333.884 214.34C334.099 214.144 334.355 214.046 334.654 214.046C334.953 214.046 335.205 214.144 335.41 214.34C335.625 214.527 335.732 214.769 335.732 215.068C335.732 215.357 335.625 215.6 335.41 215.796C335.205 215.992 334.953 216.09 334.654 216.09C334.355 216.09 334.099 215.992 333.884 215.796C333.669 215.6 333.562 215.357 333.562 215.068ZM333.758 217.56H335.522V224H333.758V217.56ZM341.605 220.08C341.605 219.651 341.521 219.324 341.353 219.1C341.185 218.876 340.914 218.764 340.541 218.764C340.289 218.764 340.065 218.82 339.869 218.932C339.673 219.035 339.523 219.184 339.421 219.38C339.318 219.576 339.267 219.809 339.267 220.08V224H337.447V217.56H339.267V218.54C339.463 218.176 339.719 217.901 340.037 217.714C340.363 217.518 340.755 217.42 341.213 217.42C341.978 217.42 342.547 217.639 342.921 218.078C343.294 218.507 343.481 219.109 343.481 219.884V224H341.605V220.08ZM347.143 221.48C347.143 221.9 347.227 222.227 347.395 222.46C347.563 222.684 347.834 222.796 348.207 222.796C348.468 222.796 348.692 222.745 348.879 222.642C349.075 222.53 349.224 222.376 349.327 222.18C349.439 221.984 349.495 221.751 349.495 221.48V217.56H351.301V224H349.495V223.02C349.29 223.384 349.028 223.664 348.711 223.86C348.394 224.047 348.006 224.14 347.549 224.14C346.784 224.14 346.21 223.921 345.827 223.482C345.454 223.043 345.267 222.441 345.267 221.676V217.56H347.143V221.48ZM356.125 224.14C355.425 224.14 354.814 224 354.291 223.72C353.769 223.44 353.363 223.053 353.073 222.558C352.793 222.054 352.653 221.461 352.653 220.78C352.653 220.089 352.793 219.497 353.073 219.002C353.363 218.498 353.769 218.111 354.291 217.84C354.814 217.56 355.43 217.42 356.139 217.42C356.849 217.42 357.451 217.551 357.945 217.812C358.449 218.064 358.832 218.437 359.093 218.932C359.355 219.417 359.485 220.005 359.485 220.696C359.485 220.78 359.481 220.869 359.471 220.962C359.471 221.055 359.467 221.13 359.457 221.186H353.689V220.066H357.875L357.385 220.71C357.423 220.654 357.455 220.579 357.483 220.486C357.521 220.383 357.539 220.299 357.539 220.234C357.539 219.917 357.479 219.646 357.357 219.422C357.245 219.198 357.082 219.021 356.867 218.89C356.653 218.759 356.401 218.694 356.111 218.694C355.757 218.694 355.458 218.773 355.215 218.932C354.982 219.081 354.8 219.31 354.669 219.618C354.548 219.917 354.483 220.29 354.473 220.738C354.473 221.167 354.534 221.531 354.655 221.83C354.786 222.129 354.977 222.357 355.229 222.516C355.481 222.675 355.785 222.754 356.139 222.754C356.541 222.754 356.881 222.679 357.161 222.53C357.451 222.371 357.689 222.138 357.875 221.83L359.457 222.32C359.121 222.927 358.673 223.384 358.113 223.692C357.563 223.991 356.9 224.14 356.125 224.14Z" fill="white"/>
</svg>
