<svg width="276" height="164" viewBox="0 0 276 164" fill="none" xmlns="http://www.w3.org/2000/svg">
<rect x="0.5" y="0.5" width="275" height="163" rx="7.5" fill="#16181D"/>
<rect x="0.5" y="0.5" width="275" height="163" rx="7.5" stroke="#2C2F35"/>
<path d="M16.1056 27.5231L16.2421 26.0549H20.1915L20.3167 27.5231H16.1056ZM18.1884 24.0177L17.073 26.5899L17.164 27.011L16.1739 29.0596H14L18.1884 20.5918L22.3881 29.0596H20.2029L19.2468 27.0906L19.3151 26.6012L18.1884 24.0177ZM27.0244 20.1821H28.743V29.0596H27.0244V20.1821ZM22.7449 26.4419C22.7449 25.8501 22.8626 25.353 23.0978 24.9509C23.3406 24.5488 23.6517 24.2415 24.031 24.029C24.4105 23.8166 24.8126 23.7104 25.2375 23.7104C25.6776 23.7104 26.0645 23.8204 26.3984 24.0404C26.7398 24.2604 27.0092 24.5753 27.2065 24.9851C27.4038 25.3872 27.5024 25.8728 27.5024 26.4419C27.5024 27.0034 27.4038 27.489 27.2065 27.8987C27.0092 28.3085 26.7398 28.6234 26.3984 28.8434C26.0645 29.0634 25.6776 29.1734 25.2375 29.1734C24.8126 29.1734 24.4105 29.0672 24.031 28.8548C23.6517 28.6423 23.3406 28.335 23.0978 27.9329C22.8626 27.5231 22.7449 27.0261 22.7449 26.4419ZM24.5546 26.4419C24.5546 26.7151 24.6115 26.9541 24.7253 27.1589C24.8391 27.3562 24.9909 27.5118 25.1806 27.6256C25.3703 27.7318 25.5789 27.7849 25.8065 27.7849C26.0039 27.7849 26.1935 27.7318 26.3756 27.6256C26.5653 27.5194 26.7209 27.3676 26.8423 27.1703C26.9637 26.9654 27.0244 26.7227 27.0244 26.4419C27.0244 26.1611 26.9637 25.9221 26.8423 25.7249C26.7209 25.52 26.5653 25.3644 26.3756 25.2582C26.1935 25.152 26.0039 25.0989 25.8065 25.0989C25.5789 25.0989 25.3703 25.1558 25.1806 25.2696C24.9909 25.3758 24.8391 25.5314 24.7253 25.7362C24.6115 25.9335 24.5546 26.1687 24.5546 26.4419ZM34.0488 20.1821H35.7674V29.0596H34.0488V20.1821ZM29.7694 26.4419C29.7694 25.8501 29.8871 25.353 30.1222 24.9509C30.3651 24.5488 30.6762 24.2415 31.0555 24.029C31.4349 23.8166 31.8371 23.7104 32.262 23.7104C32.7021 23.7104 33.089 23.8204 33.4229 24.0404C33.7643 24.2604 34.0337 24.5753 34.2309 24.9851C34.4283 25.3872 34.5269 25.8728 34.5269 26.4419C34.5269 27.0034 34.4283 27.489 34.2309 27.8987C34.0337 28.3085 33.7643 28.6234 33.4229 28.8434C33.089 29.0634 32.7021 29.1734 32.262 29.1734C31.8371 29.1734 31.4349 29.0672 31.0555 28.8548C30.6762 28.6423 30.3651 28.335 30.1222 27.9329C29.8871 27.5231 29.7694 27.0261 29.7694 26.4419ZM31.5791 26.4419C31.5791 26.7151 31.636 26.9541 31.7498 27.1589C31.8636 27.3562 32.0154 27.5118 32.205 27.6256C32.3948 27.7318 32.6034 27.7849 32.831 27.7849C33.0284 27.7849 33.218 27.7318 33.4001 27.6256C33.5898 27.5194 33.7454 27.3676 33.8667 27.1703C33.9882 26.9654 34.0488 26.7227 34.0488 26.4419C34.0488 26.1611 33.9882 25.9221 33.8667 25.7249C33.7454 25.52 33.5898 25.3644 33.4001 25.2582C33.218 25.152 33.0284 25.0989 32.831 25.0989C32.6034 25.0989 32.3948 25.1558 32.205 25.2696C32.0154 25.3758 31.8636 25.5314 31.7498 25.7362C31.636 25.9335 31.5791 26.1687 31.5791 26.4419ZM44.4855 20.1821H46.2041V29.0596H44.4855V20.1821ZM40.2061 26.4419C40.2061 25.8501 40.3237 25.353 40.559 24.9509C40.8017 24.5488 41.1129 24.2415 41.4922 24.029C41.8716 23.8166 42.2738 23.7104 42.6987 23.7104C43.1388 23.7104 43.5257 23.8204 43.8596 24.0404C44.201 24.2604 44.4704 24.5753 44.6677 24.9851C44.8649 25.3872 44.9636 25.8728 44.9636 26.4419C44.9636 27.0034 44.8649 27.489 44.6677 27.8987C44.4704 28.3085 44.201 28.6234 43.8596 28.8434C43.5257 29.0634 43.1388 29.1734 42.6987 29.1734C42.2738 29.1734 41.8716 29.0672 41.4922 28.8548C41.1129 28.6423 40.8017 28.335 40.559 27.9329C40.3237 27.5231 40.2061 27.0261 40.2061 26.4419ZM42.0158 26.4419C42.0158 26.7151 42.0727 26.9541 42.1865 27.1589C42.3003 27.3562 42.452 27.5118 42.6418 27.6256C42.8315 27.7318 43.0401 27.7849 43.2677 27.7849C43.465 27.7849 43.6547 27.7318 43.8368 27.6256C44.0265 27.5194 44.182 27.3676 44.3034 27.1703C44.4249 26.9654 44.4855 26.7227 44.4855 26.4419C44.4855 26.1611 44.4249 25.9221 44.3034 25.7249C44.182 25.52 44.0265 25.3644 43.8368 25.2582C43.6547 25.152 43.465 25.0989 43.2677 25.0989C43.0401 25.0989 42.8315 25.1558 42.6418 25.2696C42.452 25.3758 42.3003 25.5314 42.1865 25.7362C42.0727 25.9335 42.0158 26.1687 42.0158 26.4419ZM48.8695 27.4207C48.8695 27.5573 48.9037 27.6749 48.972 27.7735C49.0403 27.8646 49.1313 27.9366 49.2451 27.9898C49.3589 28.0353 49.4841 28.0581 49.6207 28.0581C49.818 28.0581 50.0001 28.0163 50.167 27.9329C50.334 27.8494 50.4706 27.7242 50.5768 27.5573C50.683 27.3903 50.7361 27.1855 50.7361 26.9427L50.9182 27.6256C50.9182 27.9594 50.8271 28.2439 50.645 28.4792C50.4629 28.7068 50.2277 28.8813 49.9394 29.0027C49.6511 29.1165 49.34 29.1734 49.0061 29.1734C48.6723 29.1734 48.3611 29.1128 48.0728 28.9913C47.7921 28.8624 47.5644 28.6727 47.39 28.4223C47.223 28.1719 47.1396 27.8683 47.1396 27.5118C47.1396 27.011 47.3179 26.6164 47.6745 26.3281C48.0311 26.0322 48.5357 25.8842 49.1882 25.8842C49.5069 25.8842 49.7914 25.9146 50.0418 25.9753C50.2998 26.0359 50.5198 26.1118 50.702 26.2029C50.8841 26.2939 51.0206 26.3888 51.1117 26.4874V27.25C50.9296 27.1134 50.7171 27.011 50.4743 26.9427C50.2391 26.8668 49.9887 26.8289 49.7231 26.8289C49.5183 26.8289 49.3552 26.8516 49.2337 26.8972C49.1123 26.9427 49.0213 27.011 48.9606 27.102C48.8999 27.1855 48.8695 27.2917 48.8695 27.4207ZM48.107 25.4289L47.5265 24.2794C47.8224 24.1352 48.179 23.9987 48.5964 23.8697C49.0137 23.7407 49.469 23.6762 49.9622 23.6762C50.425 23.6762 50.8385 23.7445 51.2027 23.8811C51.5669 24.01 51.8552 24.1998 52.0677 24.4501C52.2802 24.7005 52.3864 25.0078 52.3864 25.372V29.0596H50.7361V25.759C50.7361 25.63 50.7133 25.52 50.6678 25.4289C50.6299 25.3303 50.5691 25.2468 50.4857 25.1786C50.4023 25.1103 50.296 25.061 50.167 25.0306C50.0456 25.0002 49.9052 24.9851 49.7459 24.9851C49.5107 24.9851 49.2793 25.0116 49.0516 25.0647C48.8316 25.1179 48.6381 25.1823 48.4712 25.2582C48.3042 25.3265 48.1829 25.3834 48.107 25.4289ZM53.0586 23.8242H56.5641V25.2468H53.0586V23.8242ZM53.9805 22.0031H55.6308V29.0596H53.9805V22.0031ZM58.6283 27.4207C58.6283 27.5573 58.6624 27.6749 58.7307 27.7735C58.799 27.8646 58.89 27.9366 59.0039 27.9898C59.1177 28.0353 59.2429 28.0581 59.3794 28.0581C59.5767 28.0581 59.7588 28.0163 59.9258 27.9329C60.0926 27.8494 60.2292 27.7242 60.3355 27.5573C60.4417 27.3903 60.4948 27.1855 60.4948 26.9427L60.6769 27.6256C60.6769 27.9594 60.5859 28.2439 60.4038 28.4792C60.2217 28.7068 59.9864 28.8813 59.6981 29.0027C59.4098 29.1165 59.0987 29.1734 58.7648 29.1734C58.4309 29.1734 58.1199 29.1128 57.8316 28.9913C57.5508 28.8624 57.3232 28.6727 57.1487 28.4223C56.9817 28.1719 56.8983 27.8683 56.8983 27.5118C56.8983 27.011 57.0766 26.6164 57.4332 26.3281C57.7898 26.0322 58.2944 25.8842 58.947 25.8842C59.2656 25.8842 59.5502 25.9146 59.8006 25.9753C60.0585 26.0359 60.2786 26.1118 60.4607 26.2029C60.6428 26.2939 60.7794 26.3888 60.8704 26.4874V27.25C60.6883 27.1134 60.4758 27.011 60.2331 26.9427C59.9978 26.8668 59.7474 26.8289 59.4819 26.8289C59.277 26.8289 59.1138 26.8516 58.9925 26.8972C58.8711 26.9427 58.78 27.011 58.7193 27.102C58.6586 27.1855 58.6283 27.2917 58.6283 27.4207ZM57.8657 25.4289L57.2853 24.2794C57.5812 24.1352 57.9378 23.9987 58.3551 23.8697C58.7724 23.7407 59.2276 23.6762 59.7209 23.6762C60.1837 23.6762 60.5973 23.7445 60.9615 23.8811C61.3257 24.01 61.614 24.1998 61.8265 24.4501C62.0389 24.7005 62.1451 25.0078 62.1451 25.372V29.0596H60.4948V25.759C60.4948 25.63 60.4721 25.52 60.4265 25.4289C60.3886 25.3303 60.3279 25.2468 60.2444 25.1786C60.1609 25.1103 60.0547 25.061 59.9258 25.0306C59.8043 25.0002 59.664 24.9851 59.5046 24.9851C59.2694 24.9851 59.038 25.0116 58.8104 25.0647C58.5903 25.1179 58.3968 25.1823 58.2299 25.2582C58.063 25.3265 57.9415 25.3834 57.8657 25.4289ZM65.1392 20.1821V29.0596H63.4206V20.1821H65.1392ZM69.4186 26.4419C69.4186 27.0261 69.2972 27.5231 69.0544 27.9329C68.8191 28.335 68.5118 28.6423 68.1325 28.8548C67.7607 29.0672 67.3586 29.1734 66.9261 29.1734C66.4936 29.1734 66.1066 29.0634 65.7651 28.8434C65.4237 28.6234 65.1543 28.3085 64.9571 27.8987C64.7597 27.489 64.6611 27.0034 64.6611 26.4419C64.6611 25.8728 64.7597 25.3872 64.9571 24.9851C65.1543 24.5753 65.4237 24.2604 65.7651 24.0404C66.1066 23.8204 66.4936 23.7104 66.9261 23.7104C67.3586 23.7104 67.7607 23.8166 68.1325 24.029C68.5118 24.2415 68.8191 24.5488 69.0544 24.9509C69.2972 25.353 69.4186 25.8501 69.4186 26.4419ZM67.6089 26.4419C67.6089 26.1687 67.552 25.9335 67.4382 25.7362C67.3244 25.5314 67.1726 25.3758 66.983 25.2696C66.7932 25.1558 66.5846 25.0989 66.357 25.0989C66.1597 25.0989 65.9662 25.152 65.7765 25.2582C65.5944 25.3644 65.4426 25.52 65.3213 25.7249C65.1998 25.9221 65.1392 26.1611 65.1392 26.4419C65.1392 26.7227 65.1998 26.9654 65.3213 27.1703C65.4426 27.3676 65.5944 27.5194 65.7765 27.6256C65.9662 27.7318 66.1597 27.7849 66.357 27.7849C66.5846 27.7849 66.7932 27.7318 66.983 27.6256C67.1726 27.5118 67.3244 27.3562 67.4382 27.1589C67.552 26.9541 67.6089 26.7151 67.6089 26.4419ZM71.7879 27.4207C71.7879 27.5573 71.822 27.6749 71.8903 27.7735C71.9586 27.8646 72.0496 27.9366 72.1634 27.9898C72.2773 28.0353 72.4025 28.0581 72.539 28.0581C72.7368 28.0581 72.9189 28.0163 73.0853 27.9329C73.2525 27.8494 73.3891 27.7242 73.4951 27.5573C73.6018 27.3903 73.6544 27.1855 73.6544 26.9427L73.8365 27.6256C73.8365 27.9594 73.7455 28.2439 73.5634 28.4792C73.3813 28.7068 73.1465 28.8813 72.8577 29.0027C72.5696 29.1165 72.2588 29.1734 71.9244 29.1734C71.5908 29.1734 71.28 29.1128 70.9912 28.9913C70.7109 28.8624 70.4833 28.6727 70.3083 28.4223C70.1418 28.1719 70.0579 27.8683 70.0579 27.5118C70.0579 27.011 70.2364 26.6164 70.5928 26.3281C70.9499 26.0322 71.4542 25.8842 72.1065 25.8842C72.4252 25.8842 72.7098 25.9146 72.9601 25.9753C73.2184 26.0359 73.4382 26.1118 73.6203 26.2029C73.8024 26.2939 73.9389 26.3888 74.03 26.4874V27.25C73.8479 27.1134 73.6359 27.011 73.3926 26.9427C73.1579 26.8668 72.9075 26.8289 72.6415 26.8289C72.4366 26.8289 72.2737 26.8516 72.1521 26.8972C72.0311 26.9427 71.9401 27.011 71.8789 27.102C71.8184 27.1855 71.7879 27.2917 71.7879 27.4207ZM71.0253 25.4289L70.4448 24.2794C70.7408 24.1352 71.0979 23.9987 71.5147 23.8697C71.9323 23.7407 72.3875 23.6762 72.8805 23.6762C73.3436 23.6762 73.7568 23.7445 74.121 23.8811C74.4853 24.01 74.7741 24.1998 74.986 24.4501C75.1987 24.7005 75.3047 25.0078 75.3047 25.372V29.0596H73.6544V25.759C73.6544 25.63 73.6316 25.52 73.5861 25.4289C73.5484 25.3303 73.488 25.2468 73.404 25.1786C73.3208 25.1103 73.2148 25.061 73.0853 25.0306C72.9644 25.0002 72.8236 24.9851 72.6642 24.9851C72.4295 24.9851 72.1976 25.0116 71.97 25.0647C71.7502 25.1179 71.5567 25.1823 71.3895 25.2582C71.2231 25.3265 71.1014 25.3834 71.0253 25.4289ZM76.8761 27.1589C77.1421 27.3789 77.3811 27.5535 77.5931 27.6825C77.8136 27.8039 78.0071 27.8911 78.1736 27.9442C78.3407 27.9898 78.4851 28.0125 78.606 28.0125C78.781 28.0125 78.9098 27.9746 78.993 27.8987C79.077 27.8228 79.1182 27.7242 79.1182 27.6028C79.1182 27.489 79.0841 27.3942 79.0158 27.3183C78.9475 27.2348 78.8301 27.1552 78.663 27.0793C78.5036 27.0034 78.2838 26.9237 78.0028 26.8402C77.7524 26.7492 77.5134 26.643 77.2858 26.5216C77.066 26.3926 76.8839 26.2219 76.7395 26.0094C76.5958 25.7969 76.5232 25.5238 76.5232 25.1899C76.5232 24.8713 76.6072 24.6019 76.7736 24.3819C76.9486 24.1618 77.1798 23.9949 77.4679 23.8811C77.7638 23.7673 78.1017 23.7104 78.4809 23.7104C78.7846 23.7104 79.0656 23.7445 79.3231 23.8128C79.5891 23.8811 79.8352 23.9721 80.0629 24.0859C80.2983 24.1998 80.5181 24.3326 80.723 24.4843L80.1084 25.5997C79.8886 25.3948 79.6382 25.2279 79.3572 25.0989C79.077 24.9623 78.8187 24.894 78.5833 24.894C78.4239 24.894 78.303 24.9244 78.2191 24.9851C78.1437 25.0457 78.1053 25.1254 78.1053 25.2241C78.1053 25.3379 78.1508 25.4327 78.2418 25.5086C78.3407 25.5845 78.4773 25.6566 78.6516 25.7249C78.8337 25.7855 79.0542 25.8652 79.3117 25.9639C79.5849 26.0625 79.8352 26.1764 80.0629 26.3053C80.2983 26.4343 80.484 26.5975 80.6206 26.7947C80.765 26.992 80.8368 27.2537 80.8368 27.58C80.8368 28.1415 80.6625 28.5665 80.3133 28.8548C79.9718 29.1355 79.4902 29.2759 78.8678 29.2759C78.4887 29.2759 78.1359 29.2304 77.8093 29.1393C77.4907 29.0559 77.1948 28.942 76.9216 28.7979C76.6484 28.6461 76.3945 28.4792 76.159 28.2971L76.8761 27.1589ZM84.4454 29.1734C83.8387 29.1734 83.3109 29.0634 82.8634 28.8434C82.4231 28.6158 82.0817 28.2971 81.8391 27.8873C81.5965 27.4776 81.4749 26.9958 81.4749 26.4419C81.4749 25.8804 81.5923 25.3948 81.8277 24.9851C82.0632 24.5753 82.4003 24.2604 82.8407 24.0404C83.2881 23.8204 83.8159 23.7104 84.4227 23.7104C85.0295 23.7104 85.5416 23.8166 85.9592 24.029C86.3767 24.2339 86.6954 24.5336 86.9152 24.9282C87.135 25.3227 87.2453 25.8008 87.2453 26.3622C87.2453 26.4457 87.2453 26.5292 87.2453 26.6126C87.2453 26.6885 87.2374 26.753 87.2225 26.8061H82.4423V25.8501H85.6746L85.2649 26.3736C85.3026 26.3205 85.3332 26.256 85.356 26.1801C85.3865 26.0967 85.4015 26.0284 85.4015 25.9753C85.4015 25.7476 85.3595 25.5504 85.2763 25.3834C85.1931 25.2165 85.075 25.0875 84.9235 24.9965C84.7719 24.9054 84.5934 24.8599 84.3885 24.8599C84.1303 24.8599 83.9141 24.9168 83.7398 25.0306C83.5655 25.1444 83.4325 25.3189 83.3414 25.5541C83.2582 25.7818 83.2127 26.0701 83.2049 26.4191C83.2049 26.7378 83.2504 27.011 83.3414 27.2386C83.4325 27.4662 83.5691 27.6407 83.7512 27.7621C83.9333 27.876 84.1573 27.9329 84.4227 27.9329C84.7264 27.9329 84.9839 27.876 85.1966 27.7621C85.4164 27.6483 85.5914 27.4776 85.7202 27.25L87.2567 27.6256C86.9835 28.1415 86.6115 28.5285 86.1413 28.7865C85.6782 29.0445 85.1134 29.1734 84.4454 29.1734ZM91.2523 23.8242H94.826V25.2468H91.2523V23.8242ZM94.6325 21.8324C94.5564 21.7337 94.4732 21.6617 94.3822 21.6162C94.2989 21.5706 94.2079 21.5479 94.109 21.5479C93.9952 21.5479 93.8963 21.5744 93.8131 21.6275C93.737 21.6807 93.6765 21.7641 93.631 21.8779C93.5855 21.9918 93.5627 22.1397 93.5627 22.3218V29.0596H91.9124V21.8893C91.9124 21.4947 91.9842 21.1571 92.1286 20.8764C92.2801 20.5956 92.5007 20.3794 92.7887 20.2276C93.0847 20.0759 93.4489 20 93.8814 20C94.1467 20 94.3708 20.0341 94.5529 20.1024C94.735 20.1631 94.8908 20.239 95.0195 20.3301C95.1483 20.4135 95.2507 20.4932 95.3268 20.5691L94.6325 21.8324ZM95.324 26.4419C95.324 25.888 95.4527 25.4062 95.7109 24.9965C95.9691 24.5867 96.3255 24.268 96.7808 24.0404C97.236 23.8128 97.7482 23.699 98.3173 23.699C98.8864 23.699 99.395 23.8128 99.8424 24.0404C100.298 24.268 100.654 24.5867 100.912 24.9965C101.178 25.4062 101.311 25.888 101.311 26.4419C101.311 26.9882 101.178 27.4662 100.912 27.876C100.654 28.2857 100.298 28.6044 99.8424 28.832C99.395 29.0596 98.8864 29.1734 98.3173 29.1734C97.7482 29.1734 97.236 29.0596 96.7808 28.832C96.3255 28.6044 95.9691 28.2857 95.7109 27.876C95.4527 27.4662 95.324 26.9882 95.324 26.4419ZM97.0881 26.4419C97.0881 26.7151 97.145 26.9503 97.2588 27.1475C97.3726 27.3373 97.5206 27.4852 97.7027 27.5914C97.8848 27.6976 98.0897 27.7508 98.3173 27.7508C98.5371 27.7508 98.7384 27.6976 98.9205 27.5914C99.1104 27.4852 99.2584 27.3373 99.3644 27.1475C99.4782 26.9503 99.5351 26.7151 99.5351 26.4419C99.5351 26.1687 99.4782 25.9335 99.3644 25.7362C99.2584 25.539 99.1104 25.3872 98.9205 25.281C98.7384 25.1748 98.5371 25.1217 98.3173 25.1217C98.0897 25.1217 97.8848 25.1748 97.7027 25.281C97.5206 25.3872 97.3726 25.539 97.2588 25.7362C97.145 25.9335 97.0881 26.1687 97.0881 26.4419ZM104.04 23.8242V29.0596H102.344V23.8242H104.04ZM105.554 25.5997C105.463 25.5086 105.365 25.4366 105.258 25.3834C105.16 25.3303 105.034 25.3038 104.882 25.3038C104.716 25.3038 104.568 25.3493 104.438 25.4403C104.31 25.5314 104.211 25.6642 104.142 25.8387C104.074 26.0132 104.04 26.2256 104.04 26.476L103.63 25.8728C103.63 25.4555 103.71 25.0837 103.869 24.7574C104.036 24.4312 104.253 24.1732 104.518 23.9835C104.784 23.7938 105.061 23.699 105.349 23.699C105.539 23.699 105.721 23.7369 105.895 23.8128C106.07 23.8887 106.202 23.9949 106.294 24.1315L105.554 25.5997ZM112.143 20.1821V29.0596H110.424V20.1821H112.143ZM116.422 26.4419C116.422 27.0261 116.301 27.5231 116.058 27.9329C115.823 28.335 115.516 28.6423 115.136 28.8548C114.765 29.0672 114.362 29.1734 113.93 29.1734C113.497 29.1734 113.11 29.0634 112.769 28.8434C112.427 28.6234 112.159 28.3085 111.961 27.8987C111.764 27.489 111.665 27.0034 111.665 26.4419C111.665 25.8728 111.764 25.3872 111.961 24.9851C112.159 24.5753 112.427 24.2604 112.769 24.0404C113.11 23.8204 113.497 23.7104 113.93 23.7104C114.362 23.7104 114.765 23.8166 115.136 24.029C115.516 24.2415 115.823 24.5488 116.058 24.9509C116.301 25.353 116.422 25.8501 116.422 26.4419ZM114.613 26.4419C114.613 26.1687 114.556 25.9335 114.442 25.7362C114.328 25.5314 114.177 25.3758 113.987 25.2696C113.797 25.1558 113.588 25.0989 113.361 25.0989C113.164 25.0989 112.97 25.152 112.78 25.2582C112.598 25.3644 112.447 25.52 112.325 25.7249C112.204 25.9221 112.143 26.1611 112.143 26.4419C112.143 26.7227 112.204 26.9654 112.325 27.1703C112.447 27.3676 112.598 27.5194 112.78 27.6256C112.97 27.7318 113.164 27.7849 113.361 27.7849C113.588 27.7849 113.797 27.7318 113.987 27.6256C114.177 27.5118 114.328 27.3562 114.442 27.1589C114.556 26.9541 114.613 26.7151 114.613 26.4419ZM118.792 27.4207C118.792 27.5573 118.826 27.6749 118.894 27.7735C118.963 27.8646 119.054 27.9366 119.167 27.9898C119.281 28.0353 119.406 28.0581 119.543 28.0581C119.741 28.0581 119.923 28.0163 120.089 27.9329C120.256 27.8494 120.393 27.7242 120.499 27.5573C120.606 27.3903 120.658 27.1855 120.658 26.9427L120.84 27.6256C120.84 27.9594 120.749 28.2439 120.567 28.4792C120.385 28.7068 120.15 28.8813 119.862 29.0027C119.574 29.1165 119.263 29.1734 118.928 29.1734C118.595 29.1734 118.284 29.1128 117.995 28.9913C117.715 28.8624 117.487 28.6727 117.312 28.4223C117.146 28.1719 117.062 27.8683 117.062 27.5118C117.062 27.011 117.24 26.6164 117.597 26.3281C117.954 26.0322 118.458 25.8842 119.11 25.8842C119.429 25.8842 119.714 25.9146 119.964 25.9753C120.222 26.0359 120.442 26.1118 120.624 26.2029C120.806 26.2939 120.943 26.3888 121.034 26.4874V27.25C120.852 27.1134 120.64 27.011 120.397 26.9427C120.162 26.8668 119.911 26.8289 119.645 26.8289C119.441 26.8289 119.278 26.8516 119.156 26.8972C119.035 26.9427 118.944 27.011 118.883 27.102C118.822 27.1855 118.792 27.2917 118.792 27.4207ZM118.029 25.4289L117.449 24.2794C117.745 24.1352 118.102 23.9987 118.519 23.8697C118.936 23.7407 119.391 23.6762 119.884 23.6762C120.347 23.6762 120.761 23.7445 121.125 23.8811C121.489 24.01 121.778 24.1998 121.99 24.4501C122.203 24.7005 122.309 25.0078 122.309 25.372V29.0596H120.658V25.759C120.658 25.63 120.636 25.52 120.59 25.4289C120.552 25.3303 120.492 25.2468 120.408 25.1786C120.325 25.1103 120.219 25.061 120.089 25.0306C119.968 25.0002 119.828 24.9851 119.668 24.9851C119.433 24.9851 119.202 25.0116 118.974 25.0647C118.754 25.1179 118.561 25.1823 118.393 25.2582C118.227 25.3265 118.105 25.3834 118.029 25.4289ZM125.041 26.4419C125.041 26.7227 125.102 26.9654 125.223 27.1703C125.345 27.3676 125.512 27.5231 125.724 27.6369C125.944 27.7508 126.179 27.8077 126.429 27.8077C126.642 27.8077 126.843 27.7773 127.033 27.7166C127.23 27.6483 127.408 27.5573 127.568 27.4435C127.735 27.3297 127.871 27.1893 127.977 27.0224V28.6954C127.795 28.8396 127.568 28.9572 127.294 29.0482C127.021 29.1317 126.688 29.1734 126.293 29.1734C125.717 29.1734 125.197 29.0596 124.734 28.832C124.278 28.6044 123.918 28.2857 123.652 27.876C123.395 27.4662 123.265 26.9882 123.265 26.4419C123.265 25.888 123.395 25.41 123.652 25.0078C123.918 24.5981 124.278 24.2794 124.734 24.0518C125.197 23.8242 125.717 23.7104 126.293 23.7104C126.688 23.7104 127.021 23.7559 127.294 23.8469C127.568 23.9304 127.795 24.0366 127.977 24.1656V25.8501C127.871 25.6831 127.731 25.5428 127.556 25.4289C127.39 25.3151 127.208 25.2279 127.01 25.1672C126.813 25.1065 126.619 25.0761 126.429 25.0761C126.179 25.0761 125.944 25.1368 125.724 25.2582C125.512 25.3797 125.345 25.5428 125.223 25.7476C125.102 25.9525 125.041 26.1839 125.041 26.4419ZM129.209 20.1821H130.859V29.0596H129.209V20.1821ZM132.76 23.8242H134.82L132.578 25.9866L135.047 29.0596H133.021L130.518 25.9866L132.76 23.8242ZM137.476 27.011C137.476 27.3145 137.533 27.5535 137.647 27.728C137.76 27.895 137.957 27.9784 138.238 27.9784C138.428 27.9784 138.587 27.9405 138.716 27.8646C138.853 27.7887 138.959 27.6787 139.035 27.5345C139.111 27.3903 139.149 27.2158 139.149 27.011V23.8242H140.868V29.0596H139.149V28.2743C138.99 28.5551 138.78 28.7789 138.523 28.9458C138.265 29.1052 137.942 29.1848 137.556 29.1848C136.903 29.1848 136.424 29.0103 136.121 28.6613C135.826 28.3047 135.678 27.8153 135.678 27.1931V23.8242H137.476V27.011ZM143.931 31.5635H142.213V23.8242H143.931V31.5635ZM148.211 26.4419C148.211 27.0489 148.089 27.561 147.846 27.9784C147.611 28.3957 147.304 28.7106 146.925 28.9231C146.553 29.1355 146.151 29.2417 145.718 29.2417C145.263 29.2417 144.868 29.1279 144.534 28.9003C144.208 28.665 143.958 28.3388 143.783 27.9215C143.609 27.4966 143.522 27.0034 143.522 26.4419C143.522 25.8728 143.609 25.3797 143.783 24.9623C143.958 24.545 144.208 24.2225 144.534 23.9949C144.868 23.7596 145.263 23.6421 145.718 23.6421C146.151 23.6421 146.553 23.7483 146.925 23.9607C147.304 24.1732 147.611 24.4881 147.846 24.9054C148.089 25.3151 148.211 25.8273 148.211 26.4419ZM146.401 26.4419C146.401 26.1687 146.344 25.9373 146.23 25.7476C146.117 25.5579 145.965 25.4138 145.775 25.3151C145.585 25.2165 145.377 25.1672 145.149 25.1672C144.952 25.1672 144.759 25.2165 144.569 25.3151C144.387 25.4062 144.235 25.5465 144.113 25.7362C143.992 25.926 143.931 26.1611 143.931 26.4419C143.931 26.7227 143.992 26.9578 144.113 27.1475C144.235 27.3373 144.387 27.4814 144.569 27.58C144.759 27.6711 144.952 27.7166 145.149 27.7166C145.377 27.7166 145.585 27.6673 145.775 27.5687C145.965 27.47 146.117 27.3259 146.23 27.1362C146.344 26.9465 146.401 26.7151 146.401 26.4419Z" fill="white"/>
<path d="M20.0862 46.6761H20.9327V53.9958L15.6546 48.4587V53.6472H14.8081V46.3275L20.0862 51.8646V46.6761ZM22.8388 52.2331C22.8388 52.4057 22.8786 52.5551 22.9583 52.6812C23.0446 52.8073 23.1607 52.9036 23.3068 52.97C23.4595 53.0298 23.6321 53.0596 23.8247 53.0596C24.0703 53.0596 24.2894 53.0098 24.482 52.9103C24.6812 52.8107 24.8371 52.6712 24.95 52.492C25.0695 52.3061 25.1293 52.0936 25.1293 51.8546L25.2886 52.4522C25.2886 52.7443 25.199 52.9866 25.0197 53.1791C24.8471 53.3717 24.6314 53.5144 24.3724 53.6074C24.1201 53.7003 23.8678 53.7468 23.6156 53.7468C23.3367 53.7468 23.0744 53.6904 22.8288 53.5775C22.5898 53.458 22.3973 53.2887 22.2512 53.0696C22.1051 52.8505 22.0321 52.585 22.0321 52.2729C22.0321 51.8281 22.1881 51.4729 22.5002 51.2073C22.8189 50.9351 23.2603 50.799 23.8247 50.799C24.1566 50.799 24.4322 50.8388 24.6513 50.9185C24.877 50.9916 25.0562 51.0778 25.189 51.1774C25.3218 51.2704 25.4114 51.3467 25.4579 51.4065V51.8745C25.2255 51.7152 24.9865 51.6023 24.7409 51.5359C24.4952 51.4629 24.233 51.4264 23.9542 51.4264C23.6952 51.4264 23.4828 51.4596 23.3168 51.526C23.1575 51.5924 23.038 51.6853 22.9583 51.8048C22.8786 51.9243 22.8388 52.0671 22.8388 52.2331ZM22.7193 50.1218L22.3309 49.5342C22.5035 49.4081 22.7392 49.2819 23.038 49.1558C23.3433 49.0297 23.7085 48.9666 24.1334 48.9666C24.4919 48.9666 24.8039 49.023 25.0695 49.1359C25.3417 49.2421 25.5508 49.3982 25.6969 49.6039C25.8496 49.8097 25.926 50.062 25.926 50.3608V53.6472H25.1293V50.4704C25.1293 50.311 25.1027 50.1816 25.0496 50.082C24.9965 49.9758 24.9202 49.8928 24.8206 49.833C24.7276 49.7732 24.6181 49.7301 24.4919 49.7035C24.3657 49.677 24.233 49.6637 24.0936 49.6637C23.8678 49.6637 23.662 49.6902 23.4761 49.7434C23.2969 49.7965 23.1442 49.8595 23.018 49.9326C22.8918 50.0056 22.7923 50.0687 22.7193 50.1218ZM33.5489 50.7592V53.6472H32.7522V50.8588C32.7522 50.467 32.6791 50.1782 32.5331 49.9923C32.3936 49.8065 32.1746 49.7135 31.8758 49.7135C31.6567 49.7135 31.4675 49.7599 31.3081 49.8529C31.1488 49.9392 31.0259 50.0687 30.9397 50.2413C30.8534 50.414 30.8102 50.6197 30.8102 50.8588V53.6472H30.0135V50.8588C30.0135 50.467 29.9404 50.1782 29.7944 49.9923C29.655 49.8065 29.4359 49.7135 29.1371 49.7135C28.918 49.7135 28.7288 49.7599 28.5695 49.8529C28.4101 49.9392 28.2873 50.0687 28.201 50.2413C28.1147 50.414 28.0715 50.6197 28.0715 50.8588V53.6472H27.2748V49.0662H28.0715V49.7334C28.211 49.4745 28.3836 49.2819 28.5894 49.1558C28.8019 49.0297 29.0508 48.9666 29.3363 48.9666C29.655 48.9666 29.9272 49.0429 30.1529 49.1956C30.3853 49.3417 30.5546 49.5508 30.6608 49.823C30.8202 49.5376 31.0193 49.3251 31.2583 49.1857C31.4974 49.0396 31.7696 48.9666 32.075 48.9666C32.387 48.9666 32.6526 49.0363 32.8717 49.1757C33.0908 49.3151 33.2567 49.5209 33.3696 49.7932C33.4891 50.0587 33.5489 50.3807 33.5489 50.7592ZM36.818 53.7468C36.3932 53.7468 36.0147 53.6472 35.6827 53.448C35.3574 53.2422 35.1019 52.9601 34.9159 52.6015C34.7367 52.243 34.647 51.8281 34.647 51.3567C34.647 50.8787 34.74 50.4604 34.9259 50.1019C35.1184 49.7434 35.384 49.4645 35.7226 49.2653C36.0679 49.0662 36.4662 48.9666 36.9176 48.9666C37.3691 48.9666 37.7542 49.0628 38.0728 49.2554C38.3982 49.4413 38.6472 49.7102 38.8197 50.0621C38.9924 50.414 39.0787 50.8322 39.0787 51.3169C39.0787 51.3633 39.0754 51.4131 39.0687 51.4662C39.0687 51.5127 39.0687 51.5426 39.0687 51.5559H35.1549V50.8787H38.4413L38.1226 51.3368C38.1426 51.3036 38.1625 51.2538 38.1824 51.1874C38.2023 51.1143 38.2123 51.0546 38.2123 51.0081C38.2123 50.7359 38.1559 50.5002 38.043 50.3011C37.9368 50.1019 37.7874 49.9459 37.5948 49.833C37.4023 49.7201 37.1766 49.6637 36.9176 49.6637C36.6122 49.6637 36.35 49.7301 36.1309 49.8629C35.9185 49.989 35.7524 50.1749 35.6329 50.4206C35.5201 50.6596 35.4604 50.955 35.4537 51.3069C35.4537 51.6654 35.5102 51.9708 35.623 52.2231C35.7359 52.4754 35.9018 52.6679 36.1209 52.8007C36.34 52.9335 36.6056 52.9999 36.9176 52.9999C37.2297 52.9999 37.5052 52.9335 37.7442 52.8007C37.9832 52.6613 38.1857 52.4522 38.3517 52.1733L38.999 52.5816C38.76 52.9667 38.458 53.2588 38.0928 53.458C37.7342 53.6506 37.3094 53.7468 36.818 53.7468Z" fill="white"/>
<path d="M127.867 51.556L128.166 50.7593H131.253L131.552 51.556H127.867ZM129.689 48.2497L128.514 51.0182L128.435 51.1975L127.399 53.6474H126.453L129.689 46.3277L132.926 53.6474H131.98L130.964 51.2572L130.885 51.0581L129.689 48.2497ZM134.471 55.8383H133.674V49.0663H134.471V55.8383ZM138.305 51.3568C138.305 51.8482 138.203 52.273 137.997 52.6316C137.791 52.9901 137.516 53.2656 137.17 53.4581C136.831 53.6507 136.453 53.7469 136.035 53.7469C135.656 53.7469 135.321 53.6507 135.029 53.4581C134.744 53.2656 134.518 52.9901 134.352 52.6316C134.192 52.273 134.113 51.8482 134.113 51.3568C134.113 50.8589 134.192 50.434 134.352 50.0821C134.518 49.7236 134.744 49.4481 135.029 49.2555C135.321 49.063 135.656 48.9667 136.035 48.9667C136.453 48.9667 136.831 49.063 137.17 49.2555C137.516 49.4481 137.791 49.7236 137.997 50.0821C138.203 50.434 138.305 50.8589 138.305 51.3568ZM137.499 51.3568C137.499 51.0049 137.426 50.7062 137.279 50.4605C137.14 50.2149 136.951 50.029 136.712 49.9029C136.48 49.7767 136.221 49.7136 135.935 49.7136C135.703 49.7136 135.474 49.7767 135.248 49.9029C135.022 50.029 134.837 50.2149 134.69 50.4605C134.544 50.7062 134.471 51.0049 134.471 51.3568C134.471 51.7087 134.544 52.0075 134.69 52.2531C134.837 52.4988 135.022 52.6847 135.248 52.8108C135.474 52.9369 135.703 53 135.935 53C136.221 53 136.48 52.9369 136.712 52.8108C136.951 52.6847 137.14 52.4988 137.279 52.2531C137.426 52.0075 137.499 51.7087 137.499 51.3568ZM140.151 55.8383H139.354V49.0663H140.151V55.8383ZM143.985 51.3568C143.985 51.8482 143.882 52.273 143.677 52.6316C143.47 52.9901 143.195 53.2656 142.85 53.4581C142.511 53.6507 142.133 53.7469 141.715 53.7469C141.336 53.7469 141 53.6507 140.709 53.4581C140.423 53.2656 140.197 52.9901 140.032 52.6316C139.872 52.273 139.793 51.8482 139.793 51.3568C139.793 50.8589 139.872 50.434 140.032 50.0821C140.197 49.7236 140.423 49.4481 140.709 49.2555C141 49.063 141.336 48.9667 141.715 48.9667C142.133 48.9667 142.511 49.063 142.85 49.2555C143.195 49.4481 143.47 49.7236 143.677 50.0821C143.882 50.434 143.985 50.8589 143.985 51.3568ZM143.179 51.3568C143.179 51.0049 143.105 50.7062 142.96 50.4605C142.82 50.2149 142.631 50.029 142.392 49.9029C142.159 49.7767 141.9 49.7136 141.615 49.7136C141.382 49.7136 141.153 49.7767 140.928 49.9029C140.702 50.029 140.516 50.2149 140.37 50.4605C140.224 50.7062 140.151 51.0049 140.151 51.3568C140.151 51.7087 140.224 52.0075 140.37 52.2531C140.516 52.4988 140.702 52.6847 140.928 52.8108C141.153 52.9369 141.382 53 141.615 53C141.9 53 142.159 52.9369 142.392 52.8108C142.631 52.6847 142.82 52.4988 142.96 52.2531C143.105 52.0075 143.179 51.7087 143.179 51.3568ZM145.084 45.8795H145.88V53.6474H145.084V45.8795ZM147.379 47.1742C147.379 47.0214 147.432 46.892 147.538 46.7858C147.651 46.6796 147.78 46.6264 147.927 46.6264C148.079 46.6264 148.209 46.6796 148.315 46.7858C148.421 46.892 148.475 47.0214 148.475 47.1742C148.475 47.3202 148.421 47.4497 148.315 47.5625C148.209 47.6687 148.079 47.7219 147.927 47.7219C147.78 47.7219 147.651 47.6687 147.538 47.5625C147.432 47.4497 147.379 47.3202 147.379 47.1742ZM147.528 49.0663H148.325V53.6474H147.528V49.0663ZM150.324 51.3568C150.324 51.6755 150.391 51.9577 150.523 52.2033C150.663 52.449 150.849 52.6449 151.081 52.7909C151.32 52.9303 151.589 53 151.888 53C152.134 53 152.363 52.9635 152.575 52.8905C152.794 52.8108 152.983 52.7079 153.142 52.5818C153.302 52.449 153.415 52.3095 153.481 52.1635V53.1594C153.322 53.3452 153.093 53.4914 152.794 53.5976C152.502 53.6971 152.2 53.7469 151.888 53.7469C151.443 53.7469 151.041 53.644 150.683 53.4382C150.324 53.2324 150.039 52.9502 149.826 52.5917C149.621 52.2266 149.517 51.8149 149.517 51.3568C149.517 50.8921 149.621 50.4805 149.826 50.1219C150.039 49.7634 150.324 49.4812 150.683 49.2755C151.041 49.0697 151.443 48.9667 151.888 48.9667C152.2 48.9667 152.502 49.0199 152.794 49.1261C153.093 49.2257 153.322 49.3684 153.481 49.5543V50.5502C153.415 50.3975 153.302 50.258 153.142 50.1319C152.983 50.0058 152.794 49.9062 152.575 49.8331C152.363 49.7535 152.134 49.7136 151.888 49.7136C151.589 49.7136 151.32 49.7834 151.081 49.9228C150.849 50.0622 150.663 50.258 150.523 50.5103C150.391 50.756 150.324 51.0382 150.324 51.3568ZM155.08 52.2332C155.08 52.4058 155.12 52.5552 155.2 52.6813C155.286 52.8075 155.402 52.9038 155.548 52.9702C155.7 53.0299 155.873 53.0598 156.066 53.0598C156.311 53.0598 156.53 53.01 156.723 52.9104C156.922 52.8108 157.078 52.6714 157.191 52.4921C157.311 52.3063 157.371 52.0938 157.371 51.8548L157.53 52.4523C157.53 52.7444 157.44 52.9867 157.261 53.1793C157.088 53.3719 156.873 53.5145 156.614 53.6075C156.361 53.7005 156.109 53.7469 155.857 53.7469C155.578 53.7469 155.316 53.6905 155.07 53.5776C154.831 53.4581 154.638 53.2888 154.492 53.0697C154.346 52.8507 154.273 52.5851 154.273 52.273C154.273 51.8282 154.429 51.473 154.741 51.2075C155.06 50.9352 155.501 50.7991 156.066 50.7991C156.397 50.7991 156.673 50.839 156.893 50.9187C157.118 50.9917 157.297 51.078 157.43 51.1776C157.563 51.2705 157.652 51.3469 157.699 51.4066V51.8747C157.467 51.7154 157.228 51.6025 156.982 51.5361C156.736 51.463 156.474 51.4265 156.195 51.4265C155.937 51.4265 155.724 51.4598 155.558 51.5261C155.399 51.5925 155.279 51.6855 155.2 51.805C155.12 51.9245 155.08 52.0673 155.08 52.2332ZM154.961 50.1219L154.572 49.5344C154.744 49.4083 154.98 49.2821 155.279 49.1559C155.584 49.0298 155.949 48.9667 156.375 48.9667C156.733 48.9667 157.045 49.0231 157.311 49.136C157.583 49.2422 157.792 49.3983 157.938 49.6041C158.09 49.8099 158.167 50.0622 158.167 50.361V53.6474H157.371V50.4705C157.371 50.3112 157.344 50.1817 157.291 50.0821C157.238 49.9759 157.161 49.8929 157.062 49.8331C156.969 49.7734 156.859 49.7302 156.733 49.7037C156.607 49.6771 156.474 49.6638 156.335 49.6638C156.109 49.6638 155.903 49.6904 155.717 49.7435C155.538 49.7967 155.385 49.8597 155.259 49.9327C155.133 50.0058 155.033 50.0688 154.961 50.1219ZM162.551 46.6762H163.398V53.6474H162.551V46.6762ZM164.643 53.6474H163.019V52.8009H164.643C165.035 52.8009 165.393 52.7411 165.718 52.6216C166.044 52.4955 166.323 52.3195 166.555 52.0938C166.787 51.8614 166.967 51.5825 167.092 51.2572C167.219 50.932 167.282 50.5667 167.282 50.1618C167.282 49.7568 167.219 49.3916 167.092 49.0663C166.967 48.741 166.787 48.4655 166.555 48.2397C166.323 48.0073 166.044 47.8314 165.718 47.7119C165.393 47.5858 165.035 47.5227 164.643 47.5227H163.019V46.6762H164.643C165.32 46.6762 165.921 46.8223 166.445 47.1144C166.97 47.4066 167.381 47.8149 167.68 48.3393C167.979 48.8572 168.128 49.4647 168.128 50.1618C168.128 50.8589 167.979 51.4697 167.68 51.9942C167.381 52.5121 166.97 52.917 166.445 53.2092C165.921 53.5013 165.32 53.6474 164.643 53.6474ZM169.988 49.9626V49.4945H171.113C171.346 49.4945 171.555 49.4547 171.74 49.375C171.926 49.2954 172.073 49.1792 172.179 49.0265C172.285 48.8738 172.338 48.6879 172.338 48.4688C172.338 48.1368 172.222 47.8812 171.989 47.702C171.757 47.5161 171.465 47.4231 171.113 47.4231H170.167V52.9004H171.213C171.511 52.9004 171.774 52.8473 171.999 52.7411C172.232 52.6349 172.411 52.4822 172.537 52.283C172.67 52.0838 172.736 51.8415 172.736 51.556C172.736 51.3435 172.7 51.1543 172.627 50.9884C172.553 50.8224 172.447 50.683 172.308 50.5701C172.175 50.4572 172.016 50.3743 171.83 50.3211C171.644 50.2614 171.438 50.2315 171.213 50.2315H169.988V49.7634H171.213C171.551 49.7634 171.863 49.7999 172.149 49.873C172.434 49.946 172.683 50.0589 172.896 50.2116C173.115 50.3576 173.284 50.5468 173.403 50.7792C173.523 51.0116 173.583 51.2871 173.583 51.6058C173.583 52.0639 173.477 52.4457 173.264 52.7511C173.058 53.0498 172.776 53.2755 172.418 53.4283C172.065 53.5743 171.664 53.6474 171.213 53.6474H169.32V46.6762H171.113C171.531 46.6762 171.893 46.7393 172.198 46.8654C172.511 46.9916 172.753 47.1841 172.925 47.443C173.098 47.6954 173.184 48.0207 173.184 48.419C173.184 48.7443 173.098 49.0231 172.925 49.2555C172.753 49.4879 172.511 49.6638 172.198 49.7834C171.893 49.9029 171.531 49.9626 171.113 49.9626H169.988Z" fill="#8F8F8F"/>
<path d="M127.2 68.0163H128.046V74.9874H127.2V68.0163ZM129.291 74.9874H127.668V74.1409H129.291C129.683 74.1409 130.042 74.0812 130.367 73.9617C130.692 73.8358 130.971 73.6594 131.203 73.4339C131.436 73.2013 131.615 72.9224 131.741 72.5973C131.867 72.2723 131.93 71.9066 131.93 71.5019C131.93 71.0971 131.867 70.7315 131.741 70.4064C131.615 70.0813 131.436 69.8053 131.203 69.5798C130.971 69.3472 130.692 69.1715 130.367 69.052C130.042 68.9259 129.683 68.8628 129.291 68.8628H127.668V68.0163H129.291C129.968 68.0163 130.569 68.1623 131.094 68.4545C131.618 68.7466 132.03 69.1549 132.328 69.6794C132.627 70.1973 132.777 70.8048 132.777 71.5019C132.777 72.199 132.627 72.81 132.328 73.3343C132.03 73.8521 131.618 74.2569 131.094 74.5493C130.569 74.8416 129.968 74.9874 129.291 74.9874ZM134.278 73.5733C134.278 73.7462 134.317 73.8955 134.397 74.0214C134.483 74.1473 134.599 74.2441 134.746 74.3102C134.898 74.37 135.071 74.3999 135.263 74.3999C135.509 74.3999 135.728 74.3501 135.921 74.2505C136.12 74.1509 136.276 74.0115 136.389 73.8322C136.508 73.6466 136.568 73.4339 136.568 73.1949L136.727 73.7924C136.727 74.0847 136.638 74.3266 136.459 74.5194C136.286 74.7122 136.07 74.8544 135.811 74.9476C135.559 75.0408 135.306 75.087 135.054 75.087C134.775 75.087 134.513 75.0308 134.268 74.9177C134.029 74.7982 133.836 74.6289 133.69 74.4098C133.543 74.1907 133.471 73.9254 133.471 73.6131C133.471 73.1685 133.627 72.8129 133.939 72.5475C134.258 72.2751 134.699 72.1392 135.263 72.1392C135.595 72.1392 135.871 72.1791 136.09 72.2587C136.316 72.332 136.495 72.4181 136.628 72.5177C136.76 72.6109 136.85 72.687 136.897 72.7467V73.2148C136.664 73.0554 136.425 72.9423 136.18 72.8762C135.934 72.8029 135.672 72.7666 135.393 72.7666C135.134 72.7666 134.921 72.8001 134.756 72.8662C134.596 72.9324 134.477 73.0256 134.397 73.1451C134.317 73.2646 134.278 73.4076 134.278 73.5733ZM134.158 71.462L133.77 70.8745C133.942 70.7486 134.178 70.6219 134.477 70.496C134.782 70.3701 135.147 70.3068 135.572 70.3068C135.931 70.3068 136.242 70.363 136.508 70.4761C136.78 70.5821 136.989 70.7386 137.136 70.9442C137.288 71.1498 137.365 71.4023 137.365 71.701V74.9874H136.568V71.8106C136.568 71.6513 136.541 71.5218 136.488 71.4222C136.435 71.3162 136.359 71.233 136.259 71.1732C136.166 71.1135 136.057 71.0701 135.931 71.0438C135.804 71.0174 135.672 71.0039 135.532 71.0039C135.306 71.0039 135.101 71.0303 134.915 71.0836C134.736 71.137 134.583 71.1996 134.457 71.2728C134.33 71.3461 134.231 71.4087 134.158 71.462ZM138.713 68.5142C138.713 68.3615 138.767 68.2321 138.873 68.1258C138.986 68.0196 139.115 67.9665 139.261 67.9665C139.414 67.9665 139.544 68.0196 139.65 68.1258C139.756 68.2321 139.809 68.3615 139.809 68.5142C139.809 68.6603 139.756 68.7897 139.65 68.9026C139.544 69.0088 139.414 69.062 139.261 69.062C139.115 69.062 138.986 69.0088 138.873 68.9026C138.767 68.7897 138.713 68.6603 138.713 68.5142ZM138.863 70.4064H139.66V74.9874H138.863V70.4064ZM141.301 67.2196H142.097V74.9874H141.301V67.2196ZM147.23 70.4064L144.243 77.1784H143.346L144.601 74.3401L142.848 70.4064H143.795L145.249 73.9916L144.92 73.9517L146.334 70.4064H147.23Z" fill="#8F8F8F"/>
<path d="M127.648 91.4195C127.648 91.8243 127.688 92.1999 127.768 92.5449C127.847 92.8834 127.963 93.1786 128.116 93.4312C128.269 93.6766 128.451 93.8694 128.664 94.0088C128.883 94.1418 129.125 94.208 129.391 94.208C129.663 94.208 129.905 94.1418 130.118 94.0088C130.33 93.8694 130.513 93.6766 130.666 93.4312C130.818 93.1786 130.934 92.8834 131.014 92.5449C131.094 92.1999 131.134 91.8243 131.134 91.4195C131.134 91.0148 131.094 90.6427 131.014 90.3041C130.934 89.9591 130.818 89.6632 130.666 89.4178C130.513 89.1653 130.33 88.9732 130.118 88.8402C129.905 88.7008 129.663 88.6311 129.391 88.6311C129.125 88.6311 128.883 88.7008 128.664 88.8402C128.451 88.9732 128.269 89.1653 128.116 89.4178C127.963 89.6632 127.847 89.9591 127.768 90.3041C127.688 90.6427 127.648 91.0148 127.648 91.4195ZM126.802 91.4195C126.802 90.7224 126.911 90.105 127.13 89.5672C127.349 89.0294 127.652 88.6076 128.036 88.3024C128.428 87.9901 128.879 87.8344 129.391 87.8344C129.902 87.8344 130.35 87.9901 130.735 88.3024C131.127 88.6076 131.432 89.0294 131.651 89.5672C131.871 90.105 131.98 90.7224 131.98 91.4195C131.98 92.1166 131.871 92.7341 131.651 93.2718C131.432 93.8096 131.127 94.2343 130.735 94.5466C130.35 94.8517 129.902 95.0047 129.391 95.0047C128.879 95.0047 128.428 94.8517 128.036 94.5466C127.652 94.2343 127.349 93.8096 127.13 93.2718C126.911 92.7341 126.802 92.1166 126.802 91.4195ZM132.574 93.5108L136.438 87.9339H136.787V94.9051H135.94V93.1523V93.0428V89.8161L133.968 92.7639H136.289H136.458H137.882V93.5108H132.574ZM139.127 94.5067C139.127 94.3538 139.18 94.2243 139.286 94.1183C139.399 94.0123 139.528 93.959 139.675 93.959C139.827 93.959 139.956 94.0123 140.063 94.1183C140.169 94.2243 140.222 94.3538 140.222 94.5067C140.222 94.6525 140.169 94.782 140.063 94.8951C139.956 95.0011 139.827 95.0545 139.675 95.0545C139.528 95.0545 139.399 95.0011 139.286 94.8951C139.18 94.782 139.127 94.6525 139.127 94.5067ZM139.127 90.7224C139.127 90.5695 139.18 90.44 139.286 90.334C139.399 90.228 139.528 90.1747 139.675 90.1747C139.827 90.1747 139.956 90.228 140.063 90.334C140.169 90.44 140.222 90.5695 140.222 90.7224C140.222 90.8682 140.169 90.9977 140.063 91.1108C139.956 91.2168 139.827 91.2701 139.675 91.2701C139.528 91.2701 139.399 91.2168 139.286 91.1108C139.18 90.9977 139.127 90.8682 139.127 90.7224ZM142.411 91.4195C142.411 91.8243 142.451 92.1999 142.531 92.5449C142.61 92.8834 142.726 93.1786 142.879 93.4312C143.032 93.6766 143.214 93.8694 143.427 94.0088C143.646 94.1418 143.889 94.208 144.154 94.208C144.426 94.208 144.668 94.1418 144.881 94.0088C145.094 93.8694 145.276 93.6766 145.429 93.4312C145.582 93.1786 145.698 92.8834 145.777 92.5449C145.857 92.1999 145.897 91.8243 145.897 91.4195C145.897 91.0148 145.857 90.6427 145.777 90.3041C145.698 89.9591 145.582 89.6632 145.429 89.4178C145.276 89.1653 145.094 88.9732 144.881 88.8402C144.668 88.7008 144.426 88.6311 144.154 88.6311C143.889 88.6311 143.646 88.7008 143.427 88.8402C143.214 88.9732 143.032 89.1653 142.879 89.4178C142.726 89.6632 142.61 89.9591 142.531 90.3041C142.451 90.6427 142.411 91.0148 142.411 91.4195ZM141.565 91.4195C141.565 90.7224 141.674 90.105 141.893 89.5672C142.112 89.0294 142.415 88.6076 142.8 88.3024C143.192 87.9901 143.642 87.8344 144.154 87.8344C144.665 87.8344 145.114 87.9901 145.498 88.3024C145.89 88.6076 146.195 89.0294 146.415 89.5672C146.634 90.105 146.743 90.7224 146.743 91.4195C146.743 92.1166 146.634 92.7341 146.415 93.2718C146.195 93.8096 145.89 94.2343 145.498 94.5466C145.114 94.8517 144.665 95.0047 144.154 95.0047C143.642 95.0047 143.192 94.8517 142.8 94.5466C142.415 94.2343 142.112 93.8096 141.893 93.2718C141.674 92.7341 141.565 92.1166 141.565 91.4195ZM148.382 91.4195C148.382 91.8243 148.422 92.1999 148.502 92.5449C148.581 92.8834 148.698 93.1786 148.85 93.4312C149.003 93.6766 149.186 93.8694 149.398 94.0088C149.617 94.1418 149.86 94.208 150.125 94.208C150.397 94.208 150.64 94.1418 150.852 94.0088C151.065 93.8694 151.247 93.6766 151.4 93.4312C151.553 93.1786 151.669 92.8834 151.748 92.5449C151.828 92.1999 151.868 91.8243 151.868 91.4195C151.868 91.0148 151.828 90.6427 151.748 90.3041C151.669 89.9591 151.553 89.6632 151.4 89.4178C151.247 89.1653 151.065 88.9732 150.852 88.8402C150.64 88.7008 150.397 88.6311 150.125 88.6311C149.86 88.6311 149.617 88.7008 149.398 88.8402C149.186 88.9732 149.003 89.1653 148.85 89.4178C148.698 89.6632 148.581 89.9591 148.502 90.3041C148.422 90.6427 148.382 91.0148 148.382 91.4195ZM147.536 91.4195C147.536 90.7224 147.645 90.105 147.864 89.5672C148.083 89.0294 148.386 88.6076 148.771 88.3024C149.162 87.9901 149.614 87.8344 150.125 87.8344C150.636 87.8344 151.085 87.9901 151.469 88.3024C151.861 88.6076 152.166 89.0294 152.386 89.5672C152.605 90.105 152.714 90.7224 152.714 91.4195C152.714 92.1166 152.605 92.7341 152.386 93.2718C152.166 93.8096 151.861 94.2343 151.469 94.5466C151.085 94.8517 150.636 95.0047 150.125 95.0047C149.614 95.0047 149.162 94.8517 148.771 94.5466C148.386 94.2343 148.083 93.8096 147.864 93.2718C147.645 92.7341 147.536 92.1166 147.536 91.4195Z" fill="#8F8F8F"/>
<path d="M127.2 110.648V109.772L129.59 109.175V116.245H128.743V110.19L127.2 110.648ZM140.893 113.357V116.245H140.096V113.457C140.096 113.065 140.023 112.776 139.877 112.59C139.738 112.405 139.519 112.312 139.22 112.312C139.001 112.312 138.812 112.358 138.652 112.451C138.493 112.537 138.37 112.667 138.284 112.839C138.198 113.012 138.154 113.218 138.154 113.457V116.245H137.358V113.457C137.358 113.065 137.284 112.776 137.139 112.59C136.999 112.405 136.78 112.312 136.481 112.312C136.262 112.312 136.073 112.358 135.914 112.451C135.754 112.537 135.631 112.667 135.545 112.839C135.459 113.012 135.416 113.218 135.416 113.457V116.245H134.619V111.664H135.416V112.331C135.555 112.073 135.728 111.88 135.934 111.754C136.146 111.628 136.395 111.565 136.68 111.565C136.999 111.565 137.272 111.641 137.497 111.794C137.73 111.94 137.899 112.149 138.005 112.421C138.164 112.136 138.363 111.923 138.602 111.784C138.841 111.638 139.114 111.565 139.419 111.565C139.731 111.565 139.997 111.634 140.216 111.774C140.435 111.913 140.601 112.119 140.714 112.391C140.833 112.657 140.893 112.979 140.893 113.357ZM141.991 113.955C141.991 113.49 142.094 113.078 142.3 112.72C142.512 112.361 142.798 112.079 143.156 111.873C143.515 111.668 143.916 111.565 144.362 111.565C144.812 111.565 145.214 111.668 145.567 111.873C145.925 112.079 146.207 112.361 146.413 112.72C146.625 113.078 146.732 113.49 146.732 113.955C146.732 114.413 146.625 114.825 146.413 115.19C146.207 115.548 145.925 115.831 145.567 116.036C145.214 116.242 144.812 116.345 144.362 116.345C143.916 116.345 143.515 116.242 143.156 116.036C142.798 115.831 142.512 115.548 142.3 115.19C142.094 114.825 141.991 114.413 141.991 113.955ZM142.798 113.955C142.798 114.273 142.864 114.556 142.997 114.801C143.137 115.047 143.322 115.243 143.555 115.389C143.794 115.528 144.063 115.598 144.362 115.598C144.66 115.598 144.926 115.528 145.158 115.389C145.397 115.243 145.583 115.047 145.716 114.801C145.855 114.556 145.925 114.273 145.925 113.955C145.925 113.636 145.855 113.354 145.716 113.108C145.583 112.856 145.397 112.66 145.158 112.521C144.926 112.381 144.66 112.312 144.362 112.312C144.063 112.312 143.794 112.381 143.555 112.521C143.322 112.66 143.137 112.856 142.997 113.108C142.864 113.354 142.798 113.636 142.798 113.955ZM150.764 113.457C150.764 113.078 150.681 112.793 150.515 112.6C150.349 112.408 150.106 112.312 149.788 112.312C149.556 112.312 149.349 112.361 149.17 112.461C148.998 112.554 148.861 112.686 148.762 112.859C148.669 113.032 148.622 113.231 148.622 113.457V116.245H147.826V111.664H148.622V112.381C148.775 112.102 148.965 111.897 149.19 111.764C149.423 111.631 149.688 111.565 149.987 111.565C150.472 111.565 150.853 111.728 151.132 112.053C151.418 112.371 151.56 112.806 151.56 113.357V116.245H150.764V113.457ZM152.361 111.664H154.652V112.411H152.361V111.664ZM153.108 110.071H153.905V116.245H153.108V110.071ZM156.247 108.477V116.245H155.451V108.477H156.247ZM158.388 113.457C158.388 113.078 158.305 112.793 158.139 112.6C157.98 112.408 157.738 112.312 157.412 112.312C157.18 112.312 156.974 112.361 156.795 112.461C156.622 112.561 156.486 112.696 156.387 112.869C156.294 113.042 156.247 113.238 156.247 113.457H155.988C155.988 113.092 156.058 112.77 156.197 112.491C156.337 112.206 156.526 111.979 156.765 111.814C157.011 111.648 157.293 111.565 157.612 111.565C157.93 111.565 158.206 111.631 158.438 111.764C158.677 111.897 158.86 112.096 158.986 112.361C159.119 112.627 159.185 112.959 159.185 113.357V116.245H158.388V113.457Z" fill="#8F8F8F"/>
<path d="M15.4753 71.3027V70.8346H16.6007C16.8331 70.8346 17.0422 70.7948 17.2281 70.7151C17.414 70.6355 17.5601 70.5195 17.6663 70.3666C17.7725 70.2136 17.8256 70.028 17.8256 69.8089C17.8256 69.4767 17.7094 69.2213 17.4771 69.0421C17.2447 68.8562 16.9526 68.7632 16.6007 68.7632H15.6546V74.2405H16.7003C16.999 74.2405 17.2613 74.1872 17.487 74.0812C17.7194 73.9752 17.8987 73.8223 18.0248 73.6231C18.1576 73.4239 18.224 73.1813 18.224 72.8961C18.224 72.6834 18.1875 72.4942 18.1144 72.3284C18.0414 72.1627 17.9352 72.0233 17.7957 71.9102C17.6629 71.7971 17.5036 71.7146 17.3177 71.6612C17.1318 71.6015 16.926 71.5716 16.7003 71.5716H15.4753V71.1035H16.7003C17.0389 71.1035 17.3509 71.1398 17.6364 71.2131C17.9219 71.2863 18.1708 71.3987 18.3833 71.5517C18.6024 71.6975 18.7717 71.8867 18.8912 72.1193C19.0107 72.3519 19.0705 72.6272 19.0705 72.9459C19.0705 73.404 18.9643 73.786 18.7518 74.0911C18.546 74.3899 18.2638 74.6154 17.9053 74.7683C17.5534 74.9142 17.1518 74.9874 16.7003 74.9874H14.8081V68.0163H16.6007C17.0189 68.0163 17.3808 68.0794 17.6862 68.2055C17.9983 68.3316 18.2405 68.5242 18.4132 68.7831C18.5858 69.0354 18.6721 69.3607 18.6721 69.7591C18.6721 70.0842 18.5858 70.363 18.4132 70.5956C18.2405 70.8282 17.9983 71.0039 17.6862 71.1234C17.3808 71.2429 17.0189 71.3027 16.6007 71.3027H15.4753ZM20.67 73.5733C20.67 73.7462 20.7098 73.8955 20.7895 74.0214C20.8758 74.1473 20.992 74.2441 21.138 74.3102C21.2908 74.37 21.4634 74.3999 21.6559 74.3999C21.9016 74.3999 22.1207 74.3501 22.3132 74.2505C22.5123 74.1509 22.6684 74.0115 22.7812 73.8322C22.9007 73.6466 22.9605 73.4339 22.9605 73.1949L23.1198 73.7924C23.1198 74.0847 23.0302 74.3266 22.8509 74.5194C22.6784 74.7122 22.4626 74.8544 22.2036 74.9476C21.9514 75.0408 21.6991 75.087 21.4468 75.087C21.1679 75.087 20.9057 75.0308 20.66 74.9177C20.421 74.7982 20.2285 74.6289 20.0824 74.4098C19.9364 74.1907 19.8633 73.9254 19.8633 73.6131C19.8633 73.1685 20.0194 72.8129 20.3314 72.5475C20.6501 72.2751 21.0916 72.1392 21.6559 72.1392C21.9879 72.1392 22.2634 72.1791 22.4825 72.2587C22.7082 72.332 22.8875 72.4181 23.0202 72.5177C23.1531 72.6109 23.2427 72.687 23.2891 72.7467V73.2148C23.0568 73.0554 22.8178 72.9423 22.5721 72.8762C22.3265 72.8029 22.0642 72.7666 21.7854 72.7666C21.5264 72.7666 21.314 72.8001 21.148 72.8662C20.9887 72.9324 20.8692 73.0256 20.7895 73.1451C20.7098 73.2646 20.67 73.4076 20.67 73.5733ZM20.5505 71.462L20.1621 70.8745C20.3347 70.7486 20.5704 70.6219 20.8692 70.496C21.1746 70.3701 21.5397 70.3068 21.9646 70.3068C22.3231 70.3068 22.6352 70.363 22.9007 70.4761C23.173 70.5821 23.3821 70.7386 23.5281 70.9442C23.6809 71.1498 23.7572 71.4023 23.7572 71.701V74.9874H22.9605V71.8106C22.9605 71.6513 22.934 71.5218 22.8808 71.4222C22.8278 71.3162 22.7514 71.233 22.6518 71.1732C22.5589 71.1135 22.4493 71.0701 22.3231 71.0438C22.197 71.0174 22.0642 71.0039 21.9248 71.0039C21.6991 71.0039 21.4933 71.0303 21.3073 71.0836C21.1281 71.137 20.9754 71.1996 20.8492 71.2728C20.7231 71.3461 20.6235 71.4087 20.5505 71.462ZM25.4646 72.6969C25.4646 73.0156 25.531 73.298 25.6638 73.5434C25.8032 73.7888 25.9891 73.9852 26.2215 74.131C26.4605 74.2704 26.7294 74.3401 27.0281 74.3401C27.2738 74.3401 27.5028 74.3038 27.7153 74.2306C27.9344 74.1509 28.1236 74.0478 28.283 73.9219C28.4423 73.7888 28.5551 73.6494 28.6215 73.5036V74.4995C28.4622 74.6851 28.2332 74.8317 27.9344 74.9376C27.6422 75.0372 27.3401 75.087 27.0281 75.087C26.5833 75.087 26.1817 74.9839 25.8231 74.7783C25.4646 74.5727 25.1791 74.2903 24.9667 73.9318C24.7608 73.5669 24.658 73.155 24.658 72.6969C24.658 72.2324 24.7608 71.8206 24.9667 71.462C25.1791 71.1035 25.4646 70.8211 25.8231 70.6155C26.1817 70.41 26.5833 70.3068 27.0281 70.3068C27.3401 70.3068 27.6422 70.3602 27.9344 70.4662C28.2332 70.5657 28.4622 70.7087 28.6215 70.8944V71.8903C28.5551 71.7373 28.4423 71.5979 28.283 71.472C28.1236 71.3461 27.9344 71.2465 27.7153 71.1732C27.5028 71.0936 27.2738 71.0537 27.0281 71.0537C26.7294 71.0537 26.4605 71.1234 26.2215 71.2629C25.9891 71.4023 25.8032 71.5979 25.6638 71.8504C25.531 72.0958 25.4646 72.3782 25.4646 72.6969ZM29.812 67.2196H30.6087V74.9874H29.812V67.2196ZM32.3017 70.4064H33.2975L31.3058 72.2986L33.4967 74.9874H32.5008L30.3099 72.2986L32.3017 70.4064ZM34.9474 73.1949C34.9474 73.5598 35.0304 73.8422 35.1963 74.0414C35.3624 74.2405 35.6046 74.3401 35.9233 74.3401C36.1557 74.3401 36.3582 74.2939 36.5308 74.2007C36.7101 74.1011 36.8462 73.9652 36.9391 73.7924C37.0387 73.6195 37.0885 73.4204 37.0885 73.1949V70.4064H37.8852V74.9874H37.0885V74.2704C36.9358 74.5428 36.7466 74.7484 36.5208 74.8879C36.2951 75.0209 36.0296 75.087 35.7241 75.087C35.2461 75.087 34.8644 74.9241 34.5789 74.599C34.2934 74.274 34.1507 73.8386 34.1507 73.2945V70.4064H34.9474V73.1949ZM40.1298 77.1784H39.3331V70.4064H40.1298V77.1784ZM43.9639 72.6969C43.9639 73.1885 43.861 73.6131 43.6552 73.9716C43.4494 74.3302 43.1739 74.6054 42.8286 74.7982C42.49 74.991 42.1116 75.087 41.6933 75.087C41.3149 75.087 40.9797 74.991 40.6875 74.7982C40.4021 74.6054 40.1763 74.3302 40.0103 73.9716C39.851 73.6131 39.7713 73.1885 39.7713 72.6969C39.7713 72.199 39.851 71.7743 40.0103 71.4222C40.1763 71.0637 40.4021 70.7884 40.6875 70.5956C40.9797 70.4028 41.3149 70.3068 41.6933 70.3068C42.1116 70.3068 42.49 70.4028 42.8286 70.5956C43.1739 70.7884 43.4494 71.0637 43.6552 71.4222C43.861 71.7743 43.9639 72.199 43.9639 72.6969ZM43.1573 72.6969C43.1573 72.3448 43.0842 72.046 42.9382 71.8006C42.7988 71.5552 42.6096 71.3689 42.3705 71.2429C42.1382 71.117 41.8792 71.0537 41.5938 71.0537C41.3614 71.0537 41.1323 71.117 40.9066 71.2429C40.6809 71.3689 40.495 71.5552 40.3489 71.8006C40.2029 72.046 40.1298 72.3448 40.1298 72.6969C40.1298 73.049 40.2029 73.3478 40.3489 73.5932C40.495 73.8386 40.6809 74.025 40.9066 74.1509C41.1323 74.2768 41.3614 74.3401 41.5938 74.3401C41.8792 74.3401 42.1382 74.2768 42.3705 74.1509C42.6096 74.025 42.7988 73.8386 42.9382 73.5932C43.0842 73.3478 43.1573 73.049 43.1573 72.6969ZM48.0482 68.5142C48.0482 68.3615 48.1013 68.2321 48.2075 68.1258C48.3204 68.0196 48.4499 67.9665 48.5959 67.9665C48.7486 67.9665 48.8781 68.0196 48.9843 68.1258C49.0906 68.2321 49.1436 68.3615 49.1436 68.5142C49.1436 68.6603 49.0906 68.7897 48.9843 68.9026C48.8781 69.0088 48.7486 69.062 48.5959 69.062C48.4499 69.062 48.3204 69.0088 48.2075 68.9026C48.1013 68.7897 48.0482 68.6603 48.0482 68.5142ZM48.1976 70.4064H48.9943V74.9874H48.1976V70.4064ZM53.5729 72.199C53.5729 71.8206 53.49 71.5353 53.324 71.3425C53.158 71.1498 52.9157 71.0537 52.597 71.0537C52.3647 71.0537 52.1588 71.1035 51.9795 71.2031C51.807 71.2963 51.6708 71.4286 51.5712 71.6015C51.4783 71.7743 51.4318 71.9735 51.4318 72.199V74.9874H50.6351V70.4064H51.4318V71.1234C51.5845 70.8446 51.7738 70.639 51.9995 70.506C52.2319 70.373 52.4974 70.3068 52.7962 70.3068C53.2809 70.3068 53.6626 70.4697 53.9414 70.7948C54.2269 71.1135 54.3696 71.5481 54.3696 72.0994V74.9874H53.5729V72.199ZM55.1703 70.4064H57.4608V71.1533H55.1703V70.4064ZM55.9172 68.813H56.7139V74.9874H55.9172V68.813ZM60.0325 75.087C59.6076 75.087 59.2292 74.9874 58.8972 74.7883C58.5719 74.5827 58.3162 74.3003 58.1304 73.9418C57.9511 73.5833 57.8615 73.1685 57.8615 72.6969C57.8615 72.2189 57.9544 71.8006 58.1403 71.4421C58.3329 71.0836 58.5984 70.8048 58.937 70.6056C59.2822 70.4064 59.6806 70.3068 60.1321 70.3068C60.5836 70.3068 60.9686 70.4028 61.2873 70.5956C61.6126 70.7813 61.8615 71.0502 62.0342 71.4023C62.2068 71.7544 62.2931 72.1727 62.2931 72.6571C62.2931 72.7033 62.2898 72.7531 62.2832 72.8065C62.2832 72.8527 62.2832 72.8826 62.2832 72.8961H58.3694V72.2189H61.6558L61.3371 72.677C61.357 72.6436 61.3769 72.5938 61.3968 72.5276C61.4168 72.4544 61.4267 72.3946 61.4267 72.3484C61.4267 72.0759 61.3703 71.8405 61.2574 71.6413C61.1512 71.4421 61.0018 71.2863 60.8093 71.1732C60.6167 71.0601 60.391 71.0039 60.1321 71.0039C59.8267 71.0039 59.5644 71.0701 59.3453 71.2031C59.1328 71.329 58.9669 71.5154 58.8474 71.7608C58.7345 71.9998 58.6747 72.295 58.6681 72.6471C58.6681 73.0056 58.7245 73.3108 58.8374 73.5633C58.9503 73.8159 59.1163 74.0079 59.3354 74.1409C59.5545 74.274 59.82 74.3401 60.1321 74.3401C60.4441 74.3401 60.7196 74.274 60.9586 74.1409C61.1977 74.0015 61.4002 73.7924 61.5661 73.5135L62.2134 73.9219C61.9744 74.3067 61.6723 74.599 61.3072 74.7982C60.9487 74.991 60.5238 75.087 60.0325 75.087ZM64.1818 70.4064V74.9874H63.3851V70.4064H64.1818ZM65.5661 71.2828C65.4598 71.2031 65.3635 71.1469 65.2773 71.1135C65.1909 71.0736 65.0814 71.0537 64.9486 71.0537C64.7494 71.0537 64.5934 71.1035 64.4806 71.2031C64.3677 71.3027 64.288 71.4386 64.2416 71.6114C64.2017 71.7843 64.1818 71.9799 64.1818 72.199H63.8233C63.8233 71.8341 63.8863 71.5118 64.0125 71.233C64.1452 70.9477 64.3145 70.7215 64.5204 70.5558C64.7262 70.39 64.9353 70.3068 65.1478 70.3068C65.3138 70.3068 65.4665 70.3303 65.6059 70.3765C65.7519 70.4164 65.8847 70.4996 66.0043 70.6255L65.5661 71.2828ZM66.3532 70.4064H67.2495L68.5442 73.643L69.8388 70.4064H70.7351L68.5442 75.336L66.3532 70.4064ZM71.8448 73.5733C71.8448 73.7462 71.8846 73.8955 71.9643 74.0214C72.0504 74.1473 72.167 74.2441 72.3128 74.3102C72.4658 74.37 72.6379 74.3999 72.8307 74.3999C73.0761 74.3999 73.2952 74.3501 73.488 74.2505C73.6872 74.1509 73.8429 74.0115 73.956 73.8322C74.0755 73.6466 74.1353 73.4339 74.1353 73.1949L74.2946 73.7924C74.2946 74.0847 74.205 74.3266 74.0257 74.5194C73.8529 74.7122 73.6374 74.8544 73.3784 74.9476C73.1259 75.0408 72.8741 75.087 72.6216 75.087C72.3427 75.087 72.0802 75.0308 71.8348 74.9177C71.5958 74.7982 71.403 74.6289 71.2572 74.4098C71.1114 74.1907 71.0381 73.9254 71.0381 73.6131C71.0381 73.1685 71.1939 72.8129 71.5062 72.5475C71.8249 72.2751 72.2666 72.1392 72.8307 72.1392C73.1629 72.1392 73.4382 72.1791 73.6573 72.2587C73.8828 72.332 74.062 72.4181 74.1951 72.5177C74.3281 72.6109 74.4177 72.687 74.4639 72.7467V73.2148C74.2313 73.0554 73.9923 72.9423 73.7469 72.8762C73.5015 72.8029 73.239 72.7666 72.9602 72.7666C72.7012 72.7666 72.4885 72.8001 72.3228 72.8662C72.1635 72.9324 72.044 73.0256 71.9643 73.1451C71.8846 73.2646 71.8448 73.4076 71.8448 73.5733ZM71.7253 71.462L71.3369 70.8745C71.5097 70.7486 71.7452 70.6219 72.044 70.496C72.3491 70.3701 72.7148 70.3068 73.1394 70.3068C73.4979 70.3068 73.8102 70.363 74.0755 70.4761C74.348 70.5821 74.5571 70.7386 74.7029 70.9442C74.8559 71.1498 74.932 71.4023 74.932 71.701V74.9874H74.1353V71.8106C74.1353 71.6513 74.109 71.5218 74.0556 71.4222C74.0023 71.3162 73.9262 71.233 73.8266 71.1732C73.7334 71.1135 73.6238 71.0701 73.4979 71.0438C73.372 71.0174 73.239 71.0039 73.0996 71.0039C72.8741 71.0039 72.6678 71.0303 72.4821 71.0836C72.3029 71.137 72.1499 71.1996 72.024 71.2728C71.8981 71.3461 71.7985 71.4087 71.7253 71.462ZM76.2807 67.2196H77.0774V74.9874H76.2807V67.2196Z" fill="white"/>
<path d="M15.4753 91.2203V90.7522H16.6007C16.8331 90.7522 17.0422 90.7124 17.2281 90.6327C17.414 90.553 17.5601 90.4371 17.6663 90.2842C17.7725 90.1312 17.8256 89.9456 17.8256 89.7265C17.8256 89.3943 17.7094 89.1389 17.4771 88.9596C17.2447 88.774 16.9526 88.6808 16.6007 88.6808H15.6546V94.1581H16.7003C16.999 94.1581 17.2613 94.1048 17.487 93.9988C17.7194 93.8928 17.8987 93.7398 18.0248 93.5407C18.1576 93.3415 18.224 93.0989 18.224 92.8137C18.224 92.601 18.1875 92.4118 18.1144 92.246C18.0414 92.0803 17.9352 91.9409 17.7957 91.8278C17.6629 91.7147 17.5036 91.6321 17.3177 91.5788C17.1318 91.519 16.926 91.4892 16.7003 91.4892H15.4753V91.0211H16.7003C17.0389 91.0211 17.3509 91.0574 17.6364 91.1306C17.9219 91.2039 18.1708 91.3163 18.3833 91.4692C18.6024 91.6151 18.7717 91.8043 18.8912 92.0369C19.0107 92.2695 19.0705 92.5448 19.0705 92.8635C19.0705 93.3216 18.9643 93.7036 18.7518 94.0087C18.546 94.3075 18.2638 94.533 17.9053 94.6859C17.5534 94.8318 17.1518 94.905 16.7003 94.905H14.8081V87.9339H16.6007C17.0189 87.9339 17.3808 87.9972 17.6862 88.1231C17.9983 88.249 18.2405 88.4418 18.4132 88.7007C18.5858 88.9532 18.6721 89.2783 18.6721 89.6767C18.6721 90.0017 18.5858 90.2806 18.4132 90.5132C18.2405 90.7458 17.9983 90.9215 17.6862 91.041C17.3808 91.1605 17.0189 91.2203 16.6007 91.2203H15.4753ZM20.67 93.4909C20.67 93.6637 20.7098 93.8131 20.7895 93.939C20.8758 94.0649 20.992 94.1617 21.138 94.2278C21.2908 94.2876 21.4634 94.3174 21.6559 94.3174C21.9016 94.3174 22.1207 94.2677 22.3132 94.1681C22.5123 94.0685 22.6684 93.9291 22.7812 93.7498C22.9007 93.5641 22.9605 93.3514 22.9605 93.1124L23.1198 93.71C23.1198 94.0023 23.0302 94.2442 22.8509 94.437C22.6784 94.6297 22.4626 94.772 22.2036 94.8652C21.9514 94.9584 21.6991 95.0046 21.4468 95.0046C21.1679 95.0046 20.9057 94.9484 20.66 94.8353C20.421 94.7158 20.2285 94.5465 20.0824 94.3274C19.9364 94.1083 19.8633 93.843 19.8633 93.5307C19.8633 93.0861 20.0194 92.7305 20.3314 92.4651C20.6501 92.1927 21.0916 92.0568 21.6559 92.0568C21.9879 92.0568 22.2634 92.0966 22.4825 92.1763C22.7082 92.2496 22.8875 92.3357 23.0202 92.4352C23.1531 92.5284 23.2427 92.6045 23.2891 92.6643V93.1324C23.0568 92.973 22.8178 92.8599 22.5721 92.7938C22.3265 92.7205 22.0642 92.6842 21.7854 92.6842C21.5264 92.6842 21.314 92.7177 21.148 92.7838C20.9887 92.85 20.8692 92.9431 20.7895 93.0626C20.7098 93.1822 20.67 93.3251 20.67 93.4909ZM20.5505 91.3796L20.1621 90.7921C20.3347 90.6661 20.5704 90.5395 20.8692 90.4136C21.1746 90.2877 21.5397 90.2244 21.9646 90.2244C22.3231 90.2244 22.6352 90.2806 22.9007 90.3937C23.173 90.4997 23.3821 90.6562 23.5281 90.8618C23.6809 91.0673 23.7572 91.3199 23.7572 91.6186V94.905H22.9605V91.7282C22.9605 91.5688 22.934 91.4394 22.8808 91.3398C22.8278 91.2338 22.7514 91.1506 22.6518 91.0908C22.5589 91.0311 22.4493 90.9877 22.3231 90.9613C22.197 90.935 22.0642 90.9215 21.9248 90.9215C21.6991 90.9215 21.4933 90.9478 21.3073 91.0012C21.1281 91.0545 20.9754 91.1171 20.8492 91.1904C20.7231 91.2637 20.6235 91.3263 20.5505 91.3796ZM25.4646 92.6145C25.4646 92.9332 25.531 93.2156 25.6638 93.461C25.8032 93.7064 25.9891 93.9027 26.2215 94.0486C26.4605 94.188 26.7294 94.2577 27.0281 94.2577C27.2738 94.2577 27.5028 94.2214 27.7153 94.1482C27.9344 94.0685 28.1236 93.9653 28.283 93.8394C28.4423 93.7064 28.5551 93.567 28.6215 93.4212V94.417C28.4622 94.6027 28.2332 94.7492 27.9344 94.8552C27.6422 94.9548 27.3401 95.0046 27.0281 95.0046C26.5833 95.0046 26.1817 94.9015 25.8231 94.6959C25.4646 94.4903 25.1791 94.2079 24.9667 93.8494C24.7608 93.4845 24.658 93.0726 24.658 92.6145C24.658 92.15 24.7608 91.7381 24.9667 91.3796C25.1791 91.0211 25.4646 90.7387 25.8231 90.5331C26.1817 90.3275 26.5833 90.2244 27.0281 90.2244C27.3401 90.2244 27.6422 90.2777 27.9344 90.3837C28.2332 90.4833 28.4622 90.6263 28.6215 90.812V91.8078C28.5551 91.6549 28.4423 91.5155 28.283 91.3896C28.1236 91.2637 27.9344 91.1641 27.7153 91.0908C27.5028 91.0111 27.2738 90.9713 27.0281 90.9713C26.7294 90.9713 26.4605 91.041 26.2215 91.1804C25.9891 91.3199 25.8032 91.5155 25.6638 91.768C25.531 92.0134 25.4646 92.2958 25.4646 92.6145ZM29.812 87.1372H30.6087V94.905H29.812V87.1372ZM32.3017 90.324H33.2975L31.3058 92.2162L33.4967 94.905H32.5008L30.3099 92.2162L32.3017 90.324ZM34.9474 93.1124C34.9474 93.4774 35.0304 93.7598 35.1963 93.9589C35.3624 94.1581 35.6046 94.2577 35.9233 94.2577C36.1557 94.2577 36.3582 94.2115 36.5308 94.1183C36.7101 94.0187 36.8462 93.8828 36.9391 93.71C37.0387 93.5371 37.0885 93.3379 37.0885 93.1124V90.324H37.8852V94.905H37.0885V94.188C36.9358 94.4604 36.7466 94.666 36.5208 94.8054C36.2951 94.9385 36.0296 95.0046 35.7241 95.0046C35.2461 95.0046 34.8644 94.8417 34.5789 94.5166C34.2934 94.1915 34.1507 93.7562 34.1507 93.212V90.324H34.9474V93.1124ZM40.1298 97.0959H39.3331V90.324H40.1298V97.0959ZM43.9639 92.6145C43.9639 93.106 43.861 93.5307 43.6552 93.8892C43.4494 94.2477 43.1739 94.523 42.8286 94.7158C42.49 94.9086 42.1116 95.0046 41.6933 95.0046C41.3149 95.0046 40.9797 94.9086 40.6875 94.7158C40.4021 94.523 40.1763 94.2477 40.0103 93.8892C39.851 93.5307 39.7713 93.106 39.7713 92.6145C39.7713 92.1166 39.851 91.6919 40.0103 91.3398C40.1763 90.9813 40.4021 90.706 40.6875 90.5132C40.9797 90.3204 41.3149 90.2244 41.6933 90.2244C42.1116 90.2244 42.49 90.3204 42.8286 90.5132C43.1739 90.706 43.4494 90.9813 43.6552 91.3398C43.861 91.6919 43.9639 92.1166 43.9639 92.6145ZM43.1573 92.6145C43.1573 92.2624 43.0842 91.9636 42.9382 91.7182C42.7988 91.4728 42.6096 91.2864 42.3705 91.1605C42.1382 91.0346 41.8792 90.9713 41.5938 90.9713C41.3614 90.9713 41.1323 91.0346 40.9066 91.1605C40.6809 91.2864 40.495 91.4728 40.3489 91.7182C40.2029 91.9636 40.1298 92.2624 40.1298 92.6145C40.1298 92.9666 40.2029 93.2654 40.3489 93.5108C40.495 93.7562 40.6809 93.9426 40.9066 94.0685C41.1323 94.1944 41.3614 94.2577 41.5938 94.2577C41.8792 94.2577 42.1382 94.1944 42.3705 94.0685C42.6096 93.9426 42.7988 93.7562 42.9382 93.5108C43.0842 93.2654 43.1573 92.9666 43.1573 92.6145ZM47.3511 90.324H49.6416V91.0709H47.3511V90.324ZM48.098 88.7306H48.8947V94.905H48.098V88.7306ZM50.4406 88.4318C50.4406 88.2789 50.4938 88.1494 50.6 88.0434C50.7129 87.9374 50.8423 87.8841 50.9884 87.8841C51.1411 87.8841 51.2705 87.9374 51.3768 88.0434C51.483 88.1494 51.5361 88.2789 51.5361 88.4318C51.5361 88.5776 51.483 88.7071 51.3768 88.8202C51.2705 88.9262 51.1411 88.9796 50.9884 88.9796C50.8423 88.9796 50.7129 88.9262 50.6 88.8202C50.4938 88.7071 50.4406 88.5776 50.4406 88.4318ZM50.59 90.324H51.3867V94.905H50.59V90.324ZM59.3016 92.017V94.905H58.5049V92.1166C58.5049 91.7246 58.4319 91.4358 58.2858 91.2502C58.1464 91.0645 57.9273 90.9713 57.6285 90.9713C57.4094 90.9713 57.2202 91.0175 57.0609 91.1107C56.9015 91.1968 56.7787 91.3263 56.6924 91.4991C56.6061 91.672 56.5629 91.8776 56.5629 92.1166V94.905H55.7662V92.1166C55.7662 91.7246 55.6932 91.4358 55.5471 91.2502C55.4077 91.0645 55.1886 90.9713 54.8898 90.9713C54.6708 90.9713 54.4815 91.0175 54.3222 91.1107C54.1629 91.1968 54.0401 91.3263 53.9537 91.4991C53.8674 91.672 53.8243 91.8776 53.8243 92.1166V94.905H53.0276V90.324H53.8243V90.9912C53.9637 90.7323 54.1363 90.5395 54.3421 90.4136C54.5546 90.2877 54.8036 90.2244 55.089 90.2244C55.4077 90.2244 55.6799 90.3005 55.9056 90.4535C56.138 90.5993 56.3073 90.8084 56.4135 91.0808C56.5729 90.7956 56.7721 90.5829 57.0111 90.4435C57.2501 90.2977 57.5223 90.2244 57.8277 90.2244C58.1397 90.2244 58.4053 90.2941 58.6244 90.4335C58.8435 90.573 59.0095 90.7785 59.1223 91.051C59.2418 91.3163 59.3016 91.6385 59.3016 92.017ZM62.5708 95.0046C62.1459 95.0046 61.7674 94.905 61.4355 94.7058C61.1102 94.5003 60.8546 94.2179 60.6687 93.8593C60.4894 93.5008 60.3998 93.0861 60.3998 92.6145C60.3998 92.1365 60.4927 91.7182 60.6787 91.3597C60.8711 91.0012 61.1368 90.7223 61.4754 90.5232C61.8206 90.324 62.2189 90.2244 62.6704 90.2244C63.1218 90.2244 63.507 90.3204 63.8256 90.5132C64.1509 90.6989 64.3999 90.9678 64.5725 91.3199C64.7451 91.672 64.8315 92.0902 64.8315 92.5747C64.8315 92.6209 64.8281 92.6707 64.8215 92.7241C64.8215 92.7703 64.8215 92.8002 64.8215 92.8137H60.9077V92.1365H64.1941L63.8754 92.5946C63.8953 92.5612 63.9153 92.5114 63.9352 92.4452C63.9551 92.3719 63.9651 92.3122 63.9651 92.2659C63.9651 91.9935 63.9086 91.7581 63.7958 91.5589C63.6895 91.3597 63.5401 91.2039 63.3476 91.0908C63.155 90.9777 62.9293 90.9215 62.6704 90.9215C62.365 90.9215 62.1028 90.9877 61.8837 91.1207C61.6712 91.2466 61.5052 91.433 61.3857 91.6784C61.2728 91.9174 61.2131 92.2126 61.2065 92.5647C61.2065 92.9232 61.2629 93.2284 61.3758 93.4809C61.4886 93.7334 61.6546 93.9255 61.8737 94.0585C62.0928 94.1915 62.3584 94.2577 62.6704 94.2577C62.9824 94.2577 63.258 94.1915 63.497 94.0585C63.736 93.9191 63.9384 93.71 64.1045 93.4311L64.7518 93.8394C64.5128 94.2243 64.2107 94.5166 63.8455 94.7158C63.487 94.9086 63.0621 95.0046 62.5708 95.0046ZM68.5107 92.6145C68.5107 92.15 68.6137 91.7381 68.8195 91.3796C69.0319 91.0211 69.3174 90.7387 69.6759 90.5331C70.0344 90.3275 70.4363 90.2244 70.8809 90.2244C71.3326 90.2244 71.7338 90.3275 72.0859 90.5331C72.4444 90.7387 72.7268 91.0211 72.9324 91.3796C73.1451 91.7381 73.2511 92.15 73.2511 92.6145C73.2511 93.0726 73.1451 93.4845 72.9324 93.8494C72.7268 94.2079 72.4444 94.4903 72.0859 94.6959C71.7338 94.9015 71.3326 95.0046 70.8809 95.0046C70.4363 95.0046 70.0344 94.9015 69.6759 94.6959C69.3174 94.4903 69.0319 94.2079 68.8195 93.8494C68.6137 93.4845 68.5107 93.0726 68.5107 92.6145ZM69.3174 92.6145C69.3174 92.9332 69.3838 93.2156 69.5166 93.461C69.656 93.7064 69.8417 93.9027 70.0743 94.0486C70.3133 94.188 70.5822 94.2577 70.8809 94.2577C71.1797 94.2577 71.445 94.188 71.6776 94.0486C71.9166 93.9027 72.1023 93.7064 72.2353 93.461C72.3747 93.2156 72.4444 92.9332 72.4444 92.6145C72.4444 92.2958 72.3747 92.0134 72.2353 91.768C72.1023 91.5155 71.9166 91.3199 71.6776 91.1804C71.445 91.041 71.1797 90.9713 70.8809 90.9713C70.5822 90.9713 70.3133 91.041 70.0743 91.1804C69.8417 91.3199 69.656 91.5155 69.5166 91.768C69.3838 92.0134 69.3174 92.2958 69.3174 92.6145ZM73.9973 90.324H76.2878V91.0709H73.9973V90.324ZM76.2081 88.0932C76.1413 87.9801 76.0616 87.9104 75.9691 87.8841C75.8823 87.8507 75.7998 87.8343 75.7202 87.8343C75.6206 87.8343 75.5338 87.8642 75.4612 87.9239C75.3944 87.9773 75.3417 88.0698 75.3019 88.2028C75.2621 88.3358 75.2421 88.5115 75.2421 88.7306V94.905H74.4454V88.631C74.4454 88.2661 74.4981 87.9673 74.6048 87.7347C74.7108 87.5021 74.8602 87.33 75.0529 87.2169C75.2521 87.0973 75.4911 87.0376 75.77 87.0376C75.9158 87.0376 76.0452 87.0575 76.1583 87.0973C76.2707 87.1372 76.3675 87.187 76.4472 87.2467C76.5332 87.3065 76.5994 87.3698 76.6463 87.4359L76.2081 88.0932ZM83.6167 87.1372H84.4135V94.905H83.6167V87.1372ZM79.7826 92.6145C79.7826 92.1166 79.8851 91.6919 80.0913 91.3398C80.2969 90.9813 80.5722 90.706 80.9179 90.5132C81.2629 90.3204 81.6414 90.2244 82.0532 90.2244C82.4381 90.2244 82.7731 90.3204 83.0591 90.5132C83.3443 90.706 83.567 90.9813 83.7263 91.3398C83.892 91.6919 83.9753 92.1166 83.9753 92.6145C83.9753 93.106 83.892 93.5307 83.7263 93.8892C83.567 94.2477 83.3443 94.523 83.0591 94.7158C82.7731 94.9086 82.4381 95.0046 82.0532 95.0046C81.6414 95.0046 81.2629 94.9086 80.9179 94.7158C80.5722 94.523 80.2969 94.2477 80.0913 93.8892C79.8851 93.5307 79.7826 93.106 79.7826 92.6145ZM80.5893 92.6145C80.5893 92.9666 80.659 93.2654 80.7984 93.5108C80.9442 93.7562 81.137 93.9426 81.376 94.0685C81.615 94.1944 81.874 94.2577 82.1528 94.2577C82.3847 94.2577 82.6138 94.1944 82.84 94.0685C83.0655 93.9426 83.2511 93.7562 83.3977 93.5108C83.5435 93.2654 83.6167 92.9666 83.6167 92.6145C83.6167 92.2624 83.5435 91.9636 83.3977 91.7182C83.2511 91.4728 83.0655 91.2864 82.84 91.1605C82.6138 91.0346 82.3847 90.9713 82.1528 90.9713C81.874 90.9713 81.615 91.0346 81.376 91.1605C81.137 91.2864 80.9442 91.4728 80.7984 91.7182C80.659 91.9636 80.5893 92.2624 80.5893 92.6145ZM86.2188 93.4909C86.2188 93.6637 86.2587 93.8131 86.3383 93.939C86.4244 94.0649 86.5411 94.1617 86.6869 94.2278C86.8398 94.2876 87.012 94.3174 87.2047 94.3174C87.4502 94.3174 87.6693 94.2677 87.862 94.1681C88.0612 94.0685 88.217 93.9291 88.3301 93.7498C88.4496 93.5641 88.5093 93.3514 88.5093 93.1124L88.6687 93.71C88.6687 94.0023 88.5791 94.2442 88.3998 94.437C88.2269 94.6297 88.0114 94.772 87.7525 94.8652C87.5 94.9584 87.2481 95.0046 86.9956 95.0046C86.7168 95.0046 86.4543 94.9484 86.2089 94.8353C85.9699 94.7158 85.7771 94.5465 85.6313 94.3274C85.4854 94.1083 85.4122 93.843 85.4122 93.5307C85.4122 93.0861 85.568 92.7305 85.8802 92.4651C86.1989 92.1927 86.6407 92.0568 87.2047 92.0568C87.5369 92.0568 87.8122 92.0966 88.0313 92.1763C88.2568 92.2496 88.4361 92.3357 88.5691 92.4352C88.7021 92.5284 88.7918 92.6045 88.838 92.6643V93.1324C88.6054 92.973 88.3664 92.8599 88.121 92.7938C87.8755 92.7205 87.6131 92.6842 87.3342 92.6842C87.0753 92.6842 86.8626 92.7177 86.6969 92.7838C86.5375 92.85 86.418 92.9431 86.3383 93.0626C86.2587 93.1822 86.2188 93.3251 86.2188 93.4909ZM86.0993 91.3796L85.7109 90.7921C85.8838 90.6661 86.1192 90.5395 86.418 90.4136C86.7232 90.2877 87.0888 90.2244 87.5135 90.2244C87.872 90.2244 88.1843 90.2806 88.4496 90.3937C88.722 90.4997 88.9312 90.6562 89.077 90.8618C89.2299 91.0673 89.306 91.3199 89.306 91.6186V94.905H88.5093V91.7282C88.5093 91.5688 88.483 91.4394 88.4297 91.3398C88.3763 91.2338 88.3002 91.1506 88.2006 91.0908C88.1074 91.0311 87.9979 90.9877 87.872 90.9613C87.7461 90.935 87.6131 90.9215 87.4736 90.9215C87.2481 90.9215 87.0419 90.9478 86.8562 91.0012C86.6769 91.0545 86.524 91.1171 86.3981 91.1904C86.2722 91.2637 86.1726 91.3263 86.0993 91.3796ZM94.2413 90.324L91.2537 97.0959H90.3574L91.6122 94.2577L89.8595 90.324H90.8056L92.2595 93.9091L91.9309 93.8693L93.345 90.324H94.2413Z" fill="white"/>
<path d="M15.0668 114.134C15.2262 114.413 15.3921 114.658 15.5648 114.871C15.744 115.084 15.9432 115.249 16.1623 115.369C16.3814 115.488 16.6304 115.548 16.9092 115.548C17.281 115.548 17.5798 115.445 17.8055 115.239C18.0312 115.034 18.1441 114.771 18.1441 114.453C18.1441 114.14 18.071 113.891 17.925 113.706C17.779 113.52 17.5864 113.371 17.3474 113.258C17.115 113.138 16.866 113.032 16.6005 112.939C16.4279 112.879 16.2354 112.803 16.0229 112.71C15.8104 112.61 15.608 112.487 15.4154 112.341C15.2228 112.188 15.0635 112.003 14.9374 111.784C14.8179 111.565 14.7581 111.296 14.7581 110.977C14.7581 110.632 14.8444 110.323 15.0171 110.051C15.1897 109.778 15.4287 109.566 15.7341 109.414C16.0395 109.254 16.388 109.175 16.7798 109.175C17.1582 109.175 17.4868 109.248 17.7657 109.394C18.0511 109.533 18.2935 109.716 18.4927 109.941C18.6918 110.16 18.8478 110.393 18.9607 110.638L18.2337 111.057C18.1474 110.884 18.0379 110.715 17.9051 110.549C17.7723 110.383 17.6097 110.247 17.4171 110.141C17.2312 110.035 17.0022 109.981 16.73 109.981C16.3515 109.981 16.076 110.074 15.9034 110.26C15.7307 110.439 15.6445 110.642 15.6445 110.868C15.6445 111.06 15.6942 111.24 15.7938 111.405C15.8934 111.565 16.0594 111.718 16.2918 111.863C16.5308 112.003 16.8528 112.142 17.2578 112.282C17.4436 112.348 17.6395 112.435 17.8453 112.541C18.0511 112.647 18.2403 112.783 18.413 112.949C18.5922 113.108 18.7383 113.304 18.8512 113.536C18.9641 113.762 19.0205 114.034 19.0205 114.353C19.0205 114.658 18.9607 114.934 18.8412 115.18C18.7283 115.425 18.569 115.634 18.3632 115.807C18.164 115.98 17.935 116.112 17.676 116.205C17.4237 116.299 17.1582 116.345 16.8793 116.345C16.5009 116.345 16.149 116.265 15.8237 116.106C15.505 115.94 15.2228 115.724 14.9772 115.459C14.7382 115.186 14.5424 114.897 14.3896 114.592L15.0668 114.134ZM19.5169 111.664H21.8074V112.411H19.5169V111.664ZM20.2638 110.071H21.0605V116.245H20.2638V110.071ZM22.2081 113.955C22.2081 113.49 22.3111 113.078 22.5169 112.72C22.7293 112.361 23.0148 112.079 23.3733 111.873C23.7318 111.668 24.1335 111.565 24.5783 111.565C25.0298 111.565 25.4314 111.668 25.7833 111.873C26.1418 112.079 26.424 112.361 26.6298 112.72C26.8423 113.078 26.9485 113.49 26.9485 113.955C26.9485 114.413 26.8423 114.825 26.6298 115.19C26.424 115.548 26.1418 115.831 25.7833 116.036C25.4314 116.242 25.0298 116.345 24.5783 116.345C24.1335 116.345 23.7318 116.242 23.3733 116.036C23.0148 115.831 22.7293 115.548 22.5169 115.19C22.3111 114.825 22.2081 114.413 22.2081 113.955ZM23.0148 113.955C23.0148 114.273 23.0812 114.556 23.214 114.801C23.3534 115.047 23.5393 115.243 23.7717 115.389C24.0107 115.528 24.2796 115.598 24.5783 115.598C24.8771 115.598 25.1426 115.528 25.375 115.389C25.614 115.243 25.7999 115.047 25.9327 114.801C26.0721 114.556 26.1418 114.273 26.1418 113.955C26.1418 113.636 26.0721 113.354 25.9327 113.108C25.7999 112.856 25.614 112.66 25.375 112.521C25.1426 112.381 24.8771 112.312 24.5783 112.312C24.2796 112.312 24.0107 112.381 23.7717 112.521C23.5393 112.66 23.3534 112.856 23.214 113.108C23.0812 113.354 23.0148 113.636 23.0148 113.955ZM28.8397 111.664V116.245H28.043V111.664H28.8397ZM30.2239 112.541C30.1177 112.461 30.0214 112.405 29.9351 112.371C29.8488 112.331 29.7392 112.312 29.6065 112.312C29.4073 112.312 29.2513 112.361 29.1384 112.461C29.0255 112.561 28.9459 112.696 28.8994 112.869C28.8596 113.042 28.8397 113.238 28.8397 113.457H28.4812C28.4812 113.092 28.5442 112.77 28.6704 112.491C28.8031 112.206 28.9724 111.979 29.1783 111.814C29.3841 111.648 29.5932 111.565 29.8057 111.565C29.9716 111.565 30.1244 111.588 30.2638 111.634C30.4098 111.674 30.5426 111.757 30.6621 111.883L30.2239 112.541ZM33.0833 116.345C32.6584 116.345 32.28 116.245 31.948 116.046C31.6227 115.84 31.3671 115.558 31.1812 115.2C31.0019 114.841 30.9123 114.426 30.9123 113.955C30.9123 113.477 31.0053 113.058 31.1911 112.7C31.3837 112.341 31.6493 112.063 31.9878 111.863C32.3331 111.664 32.7315 111.565 33.1829 111.565C33.6344 111.565 34.0194 111.661 34.3381 111.853C34.6635 112.039 34.9125 112.308 35.085 112.66C35.2577 113.012 35.344 113.43 35.344 113.915C35.344 113.961 35.3407 114.011 35.334 114.064C35.334 114.111 35.334 114.14 35.334 114.154H31.4202V113.477H34.7066L34.3879 113.935C34.4078 113.901 34.4277 113.852 34.4477 113.785C34.4676 113.712 34.4775 113.652 34.4775 113.606C34.4775 113.334 34.4211 113.098 34.3082 112.899C34.202 112.7 34.0527 112.544 33.8601 112.431C33.6676 112.318 33.4418 112.262 33.1829 112.262C32.8775 112.262 32.6153 112.328 32.3962 112.461C32.1838 112.587 32.0177 112.773 31.8982 113.019C31.7854 113.258 31.7257 113.553 31.719 113.905C31.719 114.263 31.7754 114.569 31.8883 114.821C32.0012 115.074 32.1671 115.266 32.3862 115.399C32.6053 115.532 32.8709 115.598 33.1829 115.598C33.495 115.598 33.7705 115.532 34.0095 115.399C34.2485 115.259 34.451 115.05 34.617 114.771L35.2643 115.18C35.0253 115.564 34.7232 115.857 34.358 116.056C33.9995 116.249 33.5746 116.345 33.0833 116.345ZM40.1685 118.436H39.3718V111.664H40.1685V118.436ZM44.0027 113.955C44.0027 114.446 43.8997 114.871 43.6939 115.229C43.4881 115.588 43.2126 115.863 42.8674 116.056C42.5288 116.249 42.1503 116.345 41.7321 116.345C41.3536 116.345 41.0183 116.249 40.7262 116.056C40.4407 115.863 40.215 115.588 40.049 115.229C39.8897 114.871 39.81 114.446 39.81 113.955C39.81 113.457 39.8897 113.032 40.049 112.68C40.215 112.322 40.4407 112.046 40.7262 111.853C41.0183 111.661 41.3536 111.565 41.7321 111.565C42.1503 111.565 42.5288 111.661 42.8674 111.853C43.2126 112.046 43.4881 112.322 43.6939 112.68C43.8997 113.032 44.0027 113.457 44.0027 113.955ZM43.196 113.955C43.196 113.603 43.123 113.304 42.9769 113.058C42.8375 112.813 42.6483 112.627 42.4093 112.501C42.1769 112.375 41.9179 112.312 41.6325 112.312C41.4001 112.312 41.171 112.375 40.9453 112.501C40.7196 112.627 40.5337 112.813 40.3876 113.058C40.2415 113.304 40.1685 113.603 40.1685 113.955C40.1685 114.307 40.2415 114.606 40.3876 114.851C40.5337 115.096 40.7196 115.283 40.9453 115.409C41.171 115.535 41.4001 115.598 41.6325 115.598C41.9179 115.598 42.1769 115.535 42.4093 115.409C42.6483 115.283 42.8375 115.096 42.9769 114.851C43.123 114.606 43.196 114.307 43.196 113.955ZM46.8739 116.345C46.449 116.345 46.0705 116.245 45.7386 116.046C45.4133 115.84 45.1577 115.558 44.9718 115.2C44.7925 114.841 44.7029 114.426 44.7029 113.955C44.7029 113.477 44.7958 113.058 44.9818 112.7C45.1742 112.341 45.4399 112.063 45.7785 111.863C46.1237 111.664 46.522 111.565 46.9735 111.565C47.4249 111.565 47.8101 111.661 48.1287 111.853C48.454 112.039 48.703 112.308 48.8756 112.66C49.0482 113.012 49.1346 113.43 49.1346 113.915C49.1346 113.961 49.1312 114.011 49.1246 114.064C49.1246 114.111 49.1246 114.14 49.1246 114.154H45.2108V113.477H48.4972L48.1785 113.935C48.1984 113.901 48.2184 113.852 48.2383 113.785C48.2582 113.712 48.2682 113.652 48.2682 113.606C48.2682 113.334 48.2117 113.098 48.0989 112.899C47.9926 112.7 47.8432 112.544 47.6507 112.431C47.4581 112.318 47.2324 112.262 46.9735 112.262C46.6681 112.262 46.4059 112.328 46.1868 112.461C45.9743 112.587 45.8083 112.773 45.6888 113.019C45.5759 113.258 45.5162 113.553 45.5096 113.905C45.5096 114.263 45.566 114.569 45.6789 114.821C45.7917 115.074 45.9577 115.266 46.1768 115.399C46.3959 115.532 46.6614 115.598 46.9735 115.598C47.2855 115.598 47.5611 115.532 47.8001 115.399C48.0391 115.259 48.2415 115.05 48.4076 114.771L49.0549 115.18C48.8159 115.564 48.5138 115.857 48.1486 116.056C47.7901 116.249 47.3652 116.345 46.8739 116.345ZM51.0232 111.664V116.245H50.2265V111.664H51.0232ZM52.4074 112.541C52.3012 112.461 52.205 112.405 52.1186 112.371C52.0323 112.331 51.9228 112.312 51.79 112.312C51.5908 112.312 51.4348 112.361 51.3219 112.461C51.2091 112.561 51.1294 112.696 51.0829 112.869C51.0431 113.042 51.0232 113.238 51.0232 113.457H50.6647C50.6647 113.092 50.7278 112.77 50.8539 112.491C50.9867 112.206 51.156 111.979 51.3618 111.814C51.5676 111.648 51.7768 111.565 51.9892 111.565C52.1552 111.565 52.3079 111.588 52.4473 111.634C52.5934 111.674 52.7261 111.757 52.8456 111.883L52.4074 112.541ZM53.6401 109.772C53.6401 109.619 53.6932 109.49 53.7995 109.384C53.9123 109.278 54.0417 109.224 54.1879 109.224C54.3405 109.224 54.47 109.278 54.5762 109.384C54.6824 109.49 54.7356 109.619 54.7356 109.772C54.7356 109.918 54.6824 110.047 54.5762 110.16C54.47 110.266 54.3405 110.32 54.1879 110.32C54.0417 110.32 53.9123 110.266 53.7995 110.16C53.6932 110.047 53.6401 109.918 53.6401 109.772ZM53.7895 111.664H54.5862V116.245H53.7895V111.664ZM55.8287 113.955C55.8287 113.49 55.9316 113.078 56.1374 112.72C56.3498 112.361 56.6354 112.079 56.9939 111.873C57.3524 111.668 57.754 111.565 58.1989 111.565C58.6503 111.565 59.052 111.668 59.4039 111.873C59.7624 112.079 60.0445 112.361 60.2504 112.72C60.4628 113.078 60.5691 113.49 60.5691 113.955C60.5691 114.413 60.4628 114.825 60.2504 115.19C60.0445 115.548 59.7624 115.831 59.4039 116.036C59.052 116.242 58.6503 116.345 58.1989 116.345C57.754 116.345 57.3524 116.242 56.9939 116.036C56.6354 115.831 56.3498 115.548 56.1374 115.19C55.9316 114.825 55.8287 114.413 55.8287 113.955ZM56.6354 113.955C56.6354 114.273 56.7017 114.556 56.8345 114.801C56.974 115.047 57.1598 115.243 57.3922 115.389C57.6312 115.528 57.9001 115.598 58.1989 115.598C58.4976 115.598 58.7632 115.528 58.9956 115.389C59.2346 115.243 59.4205 115.047 59.5533 114.801C59.6927 114.556 59.7624 114.273 59.7624 113.955C59.7624 113.636 59.6927 113.354 59.5533 113.108C59.4205 112.856 59.2346 112.66 58.9956 112.521C58.7632 112.381 58.4976 112.312 58.1989 112.312C57.9001 112.312 57.6312 112.381 57.3922 112.521C57.1598 112.66 56.974 112.856 56.8345 113.108C56.7017 113.354 56.6354 113.636 56.6354 113.955ZM65.0993 108.477H65.896V116.245H65.0993V108.477ZM61.2652 113.955C61.2652 113.457 61.3681 113.032 61.5739 112.68C61.7797 112.322 62.0552 112.046 62.4005 111.853C62.7457 111.661 63.1241 111.565 63.5358 111.565C63.9208 111.565 64.2561 111.661 64.5416 111.853C64.8271 112.046 65.0495 112.322 65.2089 112.68C65.3748 113.032 65.4578 113.457 65.4578 113.955C65.4578 114.446 65.3748 114.871 65.2089 115.229C65.0495 115.588 64.8271 115.863 64.5416 116.056C64.2561 116.249 63.9208 116.345 63.5358 116.345C63.1241 116.345 62.7457 116.249 62.4005 116.056C62.0552 115.863 61.7797 115.588 61.5739 115.229C61.3681 114.871 61.2652 114.446 61.2652 113.955ZM62.0718 113.955C62.0718 114.307 62.1416 114.606 62.281 114.851C62.427 115.096 62.6196 115.283 62.8586 115.409C63.0976 115.535 63.3565 115.598 63.6354 115.598C63.8677 115.598 64.0968 115.535 64.3225 115.409C64.5482 115.283 64.7341 115.096 64.8802 114.851C65.0263 114.606 65.0993 114.307 65.0993 113.955C65.0993 113.603 65.0263 113.304 64.8802 113.058C64.7341 112.813 64.5482 112.627 64.3225 112.501C64.0968 112.375 63.8677 112.312 63.6354 112.312C63.3565 112.312 63.0976 112.375 62.8586 112.501C62.6196 112.627 62.427 112.813 62.281 113.058C62.1416 113.304 62.0718 113.603 62.0718 113.955Z" fill="white"/>
<path d="M246.871 69.0453L251.139 73.313" stroke="#808080" stroke-width="0.71134"/>
<path d="M254.904 69.0453L250.636 73.3133" stroke="#808080" stroke-width="0.71134"/>
<path d="M246.871 110.303L251.139 114.571" stroke="#808080" stroke-width="0.71134"/>
<path d="M254.904 110.303L250.636 114.571" stroke="#808080" stroke-width="0.71134"/>
<path d="M260.846 41.9102H122.846C121.864 41.9102 121.068 42.7064 121.068 43.6885V56.4926C121.068 57.4748 121.864 58.271 122.846 58.271H260.846C261.829 58.271 262.625 57.4748 262.625 56.4926V43.6885C262.625 42.7064 261.829 41.9102 260.846 41.9102Z" stroke="#2C2F35" stroke-width="0.71134"/>
<path d="M260.846 63.2504H122.846C121.864 63.2504 121.068 64.0466 121.068 65.0287V77.8328C121.068 78.815 121.864 79.6112 122.846 79.6112H260.846C261.829 79.6112 262.625 78.815 262.625 77.8328V65.0287C262.625 64.0466 261.829 63.2504 260.846 63.2504Z" stroke="#2C2F35" stroke-width="0.71134"/>
<path d="M260.846 83.1678H122.846C121.864 83.1678 121.068 83.964 121.068 84.9462V97.7503C121.068 98.7325 121.864 99.5287 122.846 99.5287H260.846C261.829 99.5287 262.625 98.7325 262.625 97.7503V84.9462C262.625 83.964 261.829 83.1678 260.846 83.1678Z" stroke="#2C2F35" stroke-width="0.71134"/>
<path d="M260.846 104.508H122.846C121.864 104.508 121.068 105.304 121.068 106.286V119.091C121.068 120.073 121.864 120.869 122.846 120.869H260.846C261.829 120.869 262.625 120.073 262.625 119.091V106.286C262.625 105.304 261.829 104.508 260.846 104.508Z" stroke="#2C2F35" stroke-width="0.71134"/>
<path d="M252.31 95.972C254.864 95.972 256.934 93.9019 256.934 91.3483C256.934 88.7947 254.864 86.7246 252.31 86.7246C249.757 86.7246 247.687 88.7947 247.687 91.3483C247.687 93.9019 249.757 95.972 252.31 95.972Z" stroke="#155DFC" stroke-width="0.71134"/>
<path d="M251.955 88.5029V92.0596" stroke="#155DFC" stroke-width="0.71134"/>
<path d="M251.796 91.7638L253.93 93.1865" stroke="#155DFC" stroke-width="0.71134"/>
<path d="M260.846 130.565H205.362C203.398 130.565 201.805 132.157 201.805 134.122V149.771C201.805 151.735 203.398 153.328 205.362 153.328H260.846C262.811 153.328 264.403 151.735 264.403 149.771V134.122C264.403 132.157 262.811 130.565 260.846 130.565Z" fill="#155DFC"/>
<path d="M215.8 142.017C215.8 142.476 215.903 142.877 216.109 143.222C216.321 143.561 216.597 143.824 216.935 144.009C217.274 144.188 217.642 144.278 218.041 144.278C218.373 144.278 218.668 144.235 218.927 144.149C219.186 144.063 219.419 143.946 219.624 143.8C219.837 143.654 220.019 143.495 220.172 143.322V144.925C219.887 145.151 219.574 145.327 219.236 145.453C218.904 145.579 218.482 145.642 217.971 145.642C217.44 145.642 216.945 145.556 216.487 145.384C216.035 145.211 215.641 144.962 215.302 144.637C214.97 144.312 214.711 143.93 214.525 143.491C214.346 143.047 214.256 142.555 214.256 142.017C214.256 141.48 214.346 140.992 214.525 140.554C214.711 140.109 214.97 139.723 215.302 139.398C215.641 139.073 216.035 138.824 216.487 138.651C216.945 138.479 217.44 138.392 217.971 138.392C218.482 138.392 218.904 138.456 219.236 138.582C219.574 138.708 219.887 138.884 220.172 139.109V140.713C220.019 140.54 219.837 140.381 219.624 140.235C219.419 140.089 219.186 139.972 218.927 139.886C218.668 139.8 218.373 139.757 218.041 139.757C217.642 139.757 217.274 139.85 216.935 140.036C216.597 140.215 216.321 140.474 216.109 140.812C215.903 141.151 215.8 141.553 215.8 142.017ZM221.161 143.212C221.161 142.734 221.27 142.316 221.489 141.958C221.715 141.599 222.017 141.32 222.396 141.121C222.78 140.922 223.216 140.822 223.7 140.822C224.185 140.822 224.616 140.922 224.995 141.121C225.38 141.32 225.682 141.599 225.901 141.958C226.126 142.316 226.24 142.734 226.24 143.212C226.24 143.684 226.126 144.102 225.901 144.467C225.682 144.826 225.38 145.105 224.995 145.304C224.616 145.503 224.185 145.603 223.7 145.603C223.216 145.603 222.78 145.503 222.396 145.304C222.017 145.105 221.715 144.826 221.489 144.467C221.27 144.102 221.161 143.684 221.161 143.212ZM222.475 143.212C222.475 143.471 222.529 143.7 222.635 143.9C222.748 144.092 222.897 144.245 223.083 144.358C223.268 144.464 223.475 144.517 223.7 144.517C223.926 144.517 224.132 144.464 224.318 144.358C224.503 144.245 224.65 144.092 224.756 143.9C224.869 143.7 224.925 143.471 224.925 143.212C224.925 142.954 224.869 142.725 224.756 142.525C224.65 142.326 224.503 142.173 224.318 142.067C224.132 141.961 223.926 141.908 223.7 141.908C223.475 141.908 223.268 141.961 223.083 142.067C222.897 142.173 222.748 142.326 222.635 142.525C222.529 142.725 222.475 142.954 222.475 143.212ZM230.165 142.715C230.165 142.409 230.105 142.177 229.986 142.017C229.866 141.858 229.674 141.778 229.408 141.778C229.229 141.778 229.069 141.818 228.93 141.898C228.79 141.971 228.684 142.077 228.611 142.217C228.539 142.356 228.502 142.522 228.502 142.715V145.503H227.207V140.922H228.502V141.619C228.641 141.36 228.824 141.165 229.049 141.032C229.282 140.892 229.561 140.822 229.886 140.822C230.431 140.822 230.836 140.978 231.101 141.29C231.367 141.596 231.499 142.024 231.499 142.575V145.503H230.165V142.715ZM232.183 140.922H235.011V142.007H232.183V140.922ZM232.97 139.329H234.214V145.503H232.97V139.329ZM235.638 139.149C235.638 138.937 235.714 138.764 235.867 138.631C236.02 138.492 236.202 138.422 236.415 138.422C236.627 138.422 236.807 138.492 236.952 138.631C237.105 138.764 237.181 138.937 237.181 139.149C237.181 139.355 237.105 139.528 236.952 139.667C236.807 139.807 236.627 139.876 236.415 139.876C236.202 139.876 236.02 139.807 235.867 139.667C235.714 139.528 235.638 139.355 235.638 139.149ZM235.777 140.922H237.032V145.503H235.777V140.922ZM241.359 142.715C241.359 142.409 241.299 142.177 241.18 142.017C241.06 141.858 240.868 141.778 240.602 141.778C240.423 141.778 240.264 141.818 240.124 141.898C239.985 141.971 239.878 142.077 239.806 142.217C239.732 142.356 239.696 142.522 239.696 142.715V145.503H238.401V140.922H239.696V141.619C239.835 141.36 240.018 141.165 240.244 141.032C240.476 140.892 240.754 140.822 241.08 140.822C241.624 140.822 242.029 140.978 242.295 141.29C242.561 141.596 242.694 142.024 242.694 142.575V145.503H241.359V142.715ZM245.299 143.71C245.299 144.009 245.358 144.242 245.478 144.408C245.597 144.567 245.79 144.647 246.055 144.647C246.241 144.647 246.4 144.61 246.533 144.537C246.673 144.457 246.779 144.348 246.852 144.208C246.932 144.069 246.972 143.903 246.972 143.71V140.922H248.256V145.503H246.972V144.806C246.826 145.065 246.639 145.264 246.414 145.403C246.188 145.536 245.912 145.603 245.587 145.603C245.043 145.603 244.635 145.447 244.362 145.135C244.097 144.822 243.964 144.394 243.964 143.85V140.922H245.299V143.71ZM251.688 145.603C251.19 145.603 250.755 145.503 250.383 145.304C250.012 145.105 249.723 144.829 249.517 144.477C249.318 144.119 249.218 143.697 249.218 143.212C249.218 142.721 249.318 142.3 249.517 141.948C249.723 141.589 250.012 141.314 250.383 141.121C250.755 140.922 251.193 140.822 251.698 140.822C252.203 140.822 252.631 140.916 252.982 141.101C253.341 141.28 253.613 141.546 253.799 141.898C253.985 142.243 254.078 142.661 254.078 143.153C254.078 143.212 254.075 143.276 254.068 143.342C254.068 143.408 254.065 143.461 254.058 143.501H249.955V142.705H252.933L252.584 143.163C252.611 143.123 252.634 143.07 252.654 143.003C252.681 142.93 252.694 142.87 252.694 142.824C252.694 142.599 252.651 142.406 252.564 142.246C252.484 142.087 252.369 141.961 252.216 141.868C252.063 141.775 251.884 141.729 251.678 141.729C251.426 141.729 251.213 141.785 251.04 141.898C250.875 142.004 250.745 142.167 250.652 142.386C250.566 142.599 250.52 142.864 250.513 143.183C250.513 143.488 250.556 143.747 250.642 143.959C250.735 144.172 250.871 144.334 251.05 144.447C251.23 144.56 251.446 144.617 251.698 144.617C251.984 144.617 252.226 144.563 252.425 144.457C252.631 144.344 252.8 144.179 252.933 143.959L254.058 144.308C253.819 144.74 253.5 145.065 253.102 145.284C252.711 145.497 252.239 145.603 251.688 145.603Z" fill="white"/>
</svg>
