<svg width="44" height="44" viewBox="0 0 44 44" fill="none" xmlns="http://www.w3.org/2000/svg">
<mask id="mask0_323_209" style="mask-type:luminance" maskUnits="userSpaceOnUse" x="8" y="8" width="28" height="28">
<path d="M36 8H8V36H36V8Z" fill="white"/>
</mask>
<g mask="url(#mask0_323_209)">
<path d="M28.9449 28.3831C29.1285 26.8994 29.0735 26.6818 30.2127 26.9222L30.5019 26.9468C31.3779 26.9855 32.5237 26.8101 33.1969 26.5067C34.6461 25.8544 35.5054 24.7653 34.0764 25.0515C30.817 25.7038 30.5929 24.6331 30.5929 24.6331C34.0347 19.679 35.4735 13.3902 34.2316 11.8508C30.8443 7.65192 24.9809 9.63746 24.8828 9.68901L24.8516 9.69461C24.2075 9.56497 23.4868 9.48752 22.6771 9.47482C21.2021 9.45131 20.0829 9.84995 19.2339 10.4747C19.2339 10.4747 8.774 6.29412 9.26061 15.7322C9.36411 17.7399 12.2271 30.9243 15.6419 26.942C16.8899 25.4858 18.096 24.2546 18.096 24.2546C18.695 24.6406 19.412 24.8375 20.1641 24.7668L20.2222 24.7187C20.204 24.8995 20.212 25.0763 20.2455 25.2857C19.366 26.2392 19.6244 26.4066 17.8657 26.7578C16.0863 27.1135 17.1317 27.7469 17.814 27.9124C18.6414 28.1132 20.5556 28.3975 21.8492 26.641L21.7977 26.8414C22.1428 27.1093 22.1195 28.7664 22.1684 29.9503C22.2174 31.1344 22.2991 32.2393 22.5479 32.8907C22.7967 33.542 23.0902 35.2199 25.4016 34.7394C27.3334 34.3378 28.8103 33.7598 28.9449 28.3831Z" fill="black" stroke="black" stroke-width="2.42337"/>
<path d="M34.0771 25.0514C30.8173 25.7038 30.5932 24.6331 30.5932 24.6331C34.035 19.6786 35.4738 13.3897 34.2322 11.8505C30.8448 7.65189 24.9812 9.63755 24.8834 9.6891L24.8519 9.69457C24.2079 9.56488 23.4871 9.48761 22.6771 9.47479C21.202 9.45134 20.0832 9.84992 19.2342 10.4745C19.2342 10.4745 8.77411 6.29414 9.2606 15.7321C9.36409 17.74 12.2271 30.9244 15.6419 26.9421C16.89 25.4859 18.096 24.2547 18.096 24.2547C18.695 24.6407 19.412 24.8376 20.1638 24.7668L20.2221 24.7188C20.204 24.8996 20.2123 25.0764 20.2455 25.2858C19.3658 26.2393 19.6243 26.4067 17.8657 26.7579C16.0863 27.1136 17.1316 27.747 17.8142 27.9125C18.6416 28.1133 20.5558 28.3976 21.8492 26.6411L21.7977 26.8415C22.1424 27.1093 22.3844 28.5836 22.3438 29.9201C22.3033 31.2566 22.2762 32.1741 22.5478 32.8908C22.8194 33.6075 23.0901 35.22 25.4019 34.7395C27.3336 34.3379 28.3347 33.2972 28.4739 31.5612C28.5727 30.3271 28.7964 30.5095 28.8105 29.4061L28.9899 28.8838C29.1967 27.2108 29.0227 26.6711 30.2129 26.9221L30.5021 26.9468C31.3781 26.9854 32.5245 26.8101 33.1974 26.5067C34.6463 25.8544 35.5057 24.7653 34.0771 25.0514Z" fill="#336791"/>
<path d="M21.9889 26.0103C21.8991 29.1232 22.0114 32.2579 22.3254 33.0197C22.6396 33.7815 23.3119 35.2633 25.6239 34.7828C27.5555 34.3811 28.2583 33.6037 28.5633 31.8877C28.7879 30.6252 29.2209 27.119 29.2764 26.4006" stroke="white" stroke-width="0.807791" stroke-linecap="round" stroke-linejoin="round"/>
<path d="M19.2177 10.4049C19.2177 10.4049 8.75055 6.25461 9.23716 15.6926C9.34065 17.7005 12.2038 30.8854 15.6186 26.9028C16.8664 25.4465 17.995 24.3042 17.995 24.3042" stroke="white" stroke-width="0.807791" stroke-linecap="round" stroke-linejoin="round"/>
<path d="M24.8727 9.64739C24.5104 9.75759 30.6952 7.45401 34.2101 11.8111C35.4517 13.3504 34.0129 19.6393 30.5712 24.5939" stroke="white" stroke-width="0.807791" stroke-linecap="round" stroke-linejoin="round"/>
<path d="M30.5699 24.5941C30.5699 24.5941 30.7942 25.6651 34.054 25.0124C35.4823 24.7262 34.6227 25.8154 33.1742 26.468C31.9853 27.0033 29.32 27.1405 29.2765 26.4008C29.1644 24.4925 30.6792 25.0723 30.5699 24.5941ZM30.5699 24.5941C30.4711 24.1635 29.7937 23.7408 29.3455 22.6868C28.9543 21.7669 23.98 14.7122 30.725 15.7599C30.9721 15.7103 28.9658 9.53595 22.6535 9.43555C16.3425 9.33515 16.5496 16.9647 16.5496 16.9647" stroke="white" stroke-width="0.807791" stroke-linecap="round" stroke-linejoin="bevel"/>
<path d="M20.223 25.2462C19.3432 26.1996 19.602 26.3671 17.8432 26.7184C16.0638 27.0742 17.1093 27.7074 17.7916 27.8729C18.619 28.0738 20.5333 28.3581 21.8267 26.6012C22.2206 26.0662 21.8244 25.2127 21.2833 24.9951C21.0219 24.89 20.6723 24.7584 20.223 25.2462Z" stroke="white" stroke-width="0.807791" stroke-linecap="round" stroke-linejoin="round"/>
<path d="M20.1647 25.2297C20.0761 24.6691 20.3546 24.0021 20.6531 23.2216C21.1017 22.0507 22.1367 20.8795 21.3087 17.165C20.6916 14.3971 16.5524 16.589 16.5498 16.9643C16.5472 17.3395 16.737 18.8667 16.4806 20.6451C16.1461 22.9657 18.0027 24.9283 20.1407 24.7275" stroke="white" stroke-width="0.807791" stroke-linecap="round" stroke-linejoin="round"/>
<path d="M19.1787 16.9084C19.16 17.0366 19.4206 17.3787 19.7604 17.4244C20.0995 17.4703 20.3899 17.203 20.4083 17.0749C20.4267 16.9467 20.1664 16.8055 19.8265 16.7596C19.4871 16.7137 19.1967 16.7806 19.1787 16.9084Z" fill="white" stroke="white" stroke-width="0.269261"/>
<path d="M29.5102 16.6467C29.5286 16.7749 29.2684 17.117 28.9285 17.1627C28.5891 17.2086 28.2988 16.9413 28.2802 16.8132C28.2622 16.685 28.5225 16.5438 28.8621 16.4979C29.2016 16.452 29.4918 16.5188 29.5102 16.6467Z" fill="white" stroke="white" stroke-width="0.134631"/>
<path d="M30.7244 15.7598C30.7803 16.7653 30.5012 17.4501 30.466 18.5205C30.4139 20.0764 31.2306 21.8571 30 23.6401" stroke="white" stroke-width="0.807791" stroke-linecap="round" stroke-linejoin="round"/>
</g>
</svg>
