<svg width="43" height="43" viewBox="0 0 43 43" fill="none" xmlns="http://www.w3.org/2000/svg">
<g clip-path="url(#clip0_323_208)">
<path d="M21 36C28.732 36 35 29.732 35 22C35 14.268 28.732 8 21 8C13.268 8 7 14.268 7 22C7 29.732 13.268 36 21 36Z" fill="#13AA52"/>
<path d="M24.7432 20.2894C23.8589 16.3866 21.769 15.1034 21.544 14.6131C21.2979 14.2672 21.0485 13.652 21.0485 13.652C21.0444 13.6416 21.0378 13.6232 21.0302 13.6055C21.0048 13.9514 20.9916 14.0848 20.6646 14.4337C20.1582 14.8296 17.56 17.0098 17.3486 21.4438C17.1515 25.5793 20.3359 28.0435 20.7666 28.3577L20.8155 28.3924V28.3894C20.8183 28.4102 20.9523 29.3738 21.0463 30.3948H21.3837C21.4629 29.6731 21.5816 28.9562 21.7392 28.2475L21.7666 28.2297C21.9592 28.0916 22.1429 27.9414 22.3164 27.7799L22.3361 27.7621C23.2516 26.9164 24.8974 24.9602 24.8813 21.8414C24.8779 21.3212 24.8317 20.8021 24.7432 20.2894ZM21.0105 26.0228C21.0105 26.0228 21.0105 20.2227 21.2019 20.2238C21.3512 20.2238 21.5445 27.7053 21.5445 27.7053C21.2787 27.6733 21.0105 26.474 21.0105 26.0228Z" fill="white"/>
</g>
<defs>
<clipPath id="clip0_323_208">
<rect width="28" height="28" fill="white" transform="translate(7 8)"/>
</clipPath>
</defs>
</svg>
