<svg width="43" height="43" viewBox="0 0 43 43" fill="none" xmlns="http://www.w3.org/2000/svg">
<path d="M35.2232 12.1187C34.7631 12.1335 34.9044 12.2663 33.9152 12.5107C32.7968 12.626 31.6901 12.835 30.6066 13.1355C27.3819 14.488 26.7349 19.111 23.8066 20.7663C21.6147 22.0042 19.4047 22.103 17.4167 22.7256C15.9751 23.2194 14.644 23.9904 13.4982 24.9951C12.5792 25.7867 12.5558 26.4826 11.5953 27.4771C10.5689 28.5396 7.51423 27.4951 6.13086 29.1208C6.57711 29.5713 6.76836 29.6977 7.6513 29.5808C7.46961 29.9262 6.39755 30.2183 6.60686 30.723C6.82786 31.2543 9.42036 31.6187 11.777 30.1918C12.8745 29.5288 13.749 28.5736 15.4585 28.3462C17.9127 28.2143 20.3735 28.4022 22.7792 28.9051C22.3326 29.9139 21.7421 30.8527 21.026 31.692C20.8369 31.896 21.4054 31.9183 22.0545 31.7983C23.0643 31.6007 24.0386 31.2522 24.9445 30.7645C26.0272 30.1344 26.1909 28.5183 27.519 28.1688C28.0019 28.7387 28.6815 29.1062 29.4228 29.1981C30.1641 29.29 30.9129 29.0997 31.5204 28.665C30.4249 28.3547 30.1221 26.0225 30.4919 24.994C30.8425 24.0208 31.1889 22.4642 31.5416 21.1786C31.9209 19.7973 32.0601 18.0559 32.5191 17.3536C33.1098 16.5705 33.8239 15.8887 34.6335 15.3348C35.0356 15.0482 35.3598 14.6658 35.5767 14.2221C35.7936 13.7785 35.8963 13.2878 35.8755 12.7944C35.8692 12.3545 35.6418 12.1091 35.2232 12.1229V12.1187Z" fill="#002B64"/>
<path d="M7.08078 30.6294C8.45765 30.8677 9.87461 30.6631 11.1278 30.0451C12.2943 29.3253 13.5004 28.6719 14.7403 28.0879C16.7293 27.4504 18.9096 28.0879 21.0357 28.2165C21.5486 28.252 22.0636 28.2441 22.5752 28.1931C23.3668 27.7065 23.3508 25.8854 24.1212 25.7186C24.0723 27.7705 23.3062 29.7404 21.9558 31.2861C22.9559 31.121 23.9003 30.7132 24.7063 30.0984C25.5123 29.4836 26.1552 28.6806 26.5787 27.7596C26.8681 27.2011 27.1167 26.6223 27.3225 26.0278C27.6529 26.2817 27.4659 27.0531 27.6317 27.4706C29.2254 26.5845 30.1317 24.5636 30.7352 22.5194C31.4322 20.1532 31.718 17.7583 32.1685 17.0581C32.6395 16.4366 33.2279 15.9135 33.9004 15.5186C34.2754 15.3224 34.6009 15.0435 34.8522 14.703C35.1035 14.3624 35.274 13.9691 35.3507 13.5529C34.607 13.4839 34.4306 13.3107 34.3201 12.9346C33.9804 13.1181 33.599 13.2104 33.213 13.2023C32.8762 13.2129 32.5053 13.2023 32.0527 13.2438C28.3095 13.6284 27.8335 17.7541 25.4344 20.0937C25.2574 20.2652 25.0693 20.4249 24.8713 20.5718C24.0004 21.175 23.0523 21.6582 22.0525 22.0083C20.5182 22.5948 19.0594 22.6363 17.6197 23.142C16.5618 23.5147 15.5554 24.0198 14.6245 24.6454C14.412 24.7942 14.1995 24.9461 14.0147 25.1002C13.5592 25.4905 13.1652 25.9472 12.8459 26.4549C12.516 26.9853 12.1318 27.4799 11.6995 27.9307C10.9037 28.7116 7.93184 28.1581 6.88528 28.8869C6.77258 28.9617 6.67933 29.0622 6.61328 29.1802C7.18384 29.4394 7.56953 29.2801 8.22191 29.3534C8.30797 29.9771 6.86722 30.3468 7.07972 30.6337L7.08078 30.6294Z" fill="#C49A6C"/>
<path d="M30.8086 14.7918C30.947 14.9092 31.1183 14.9812 31.299 14.9978C31.4798 15.0145 31.6613 14.9752 31.8189 14.8851C31.9765 14.7951 32.1026 14.6587 32.18 14.4945C32.2574 14.3302 32.2823 14.1462 32.2515 13.9673C31.428 13.8982 30.951 14.1777 30.8086 14.7918Z" fill="#002B64"/>
<path d="M34.5013 13.722C34.2359 14.1517 34.0937 14.6461 34.0901 15.1511C34.0901 15.2807 33.9924 15.3636 33.9903 15.1691C33.9884 14.6503 34.1299 14.141 34.3993 13.6976C34.4928 13.5276 34.5534 13.5977 34.5013 13.722Z" fill="#002B64"/>
<path d="M34.3592 13.6062C34.0213 14.0604 33.8022 14.5918 33.7217 15.1522C33.709 15.2807 33.6049 15.3647 33.6208 15.1617C33.6972 14.5873 33.9164 14.0412 34.2583 13.5733C34.3709 13.416 34.423 13.4915 34.3592 13.6062Z" fill="#002B64"/>
<path d="M34.2312 13.4629C33.7956 13.9238 33.4752 14.4812 33.2962 15.0896C33.2728 15.216 33.1623 15.2872 33.1899 15.0896C33.3699 14.4681 33.6918 13.8971 34.1303 13.4214C34.2588 13.2706 34.3034 13.3502 34.2312 13.4629Z" fill="#002B64"/>
<path d="M34.115 13.298C33.6101 13.7973 33.2058 14.3888 32.9239 15.0405C32.8825 15.1627 32.7635 15.2179 32.823 15.0278C33.1031 14.3603 33.5118 13.7545 34.0257 13.2449C34.1692 13.111 34.2032 13.196 34.115 13.298Z" fill="#002B64"/>
</svg>
