<svg width="43" height="43" viewBox="0 0 43 43" fill="none" xmlns="http://www.w3.org/2000/svg">
<path d="M32.9305 28.7246C31.517 28.6894 30.4214 28.8308 29.5025 29.2195C29.2375 29.3254 28.8134 29.3256 28.778 29.6612C28.9195 29.8027 28.9371 30.0323 29.0608 30.2267C29.273 30.58 29.6439 31.0572 29.9797 31.3046C30.3507 31.5873 30.7218 31.8699 31.1105 32.1174C31.7996 32.5415 32.5771 32.7888 33.2486 33.2129C33.6374 33.4601 34.026 33.7784 34.4147 34.0434C34.6092 34.1847 34.7328 34.4144 34.9802 34.5028V34.4498C34.8565 34.2907 34.8211 34.0611 34.6975 33.8844C34.5209 33.7077 34.3441 33.5486 34.1674 33.3719C33.655 32.6828 33.0189 32.082 32.3297 31.5873C31.7644 31.1985 30.5274 30.6684 30.2977 30.0146C30.2977 30.0146 30.28 29.997 30.2623 29.9794C30.6511 29.944 31.1105 29.8027 31.4816 29.6966C32.0824 29.5375 32.6301 29.5729 33.2486 29.4139C33.5313 29.3432 33.814 29.2548 34.0967 29.1665V29.0075C33.7788 28.6894 33.549 28.2654 33.2132 27.9649C32.3121 27.1873 31.3225 26.4276 30.2977 25.7916C29.7499 25.4382 29.0431 25.2084 28.46 24.9081C28.248 24.8019 27.8945 24.749 27.7709 24.5723C27.4528 24.1835 27.2761 23.6712 27.0464 23.2117C26.5341 22.2397 26.0392 21.162 25.5974 20.1372C25.2795 19.448 25.0851 18.7589 24.6963 18.1228C22.8764 15.1189 20.8973 13.2989 17.8581 11.5142C17.2043 11.1432 16.4268 10.9841 15.5963 10.7898C15.1547 10.7721 14.7128 10.7368 14.2711 10.7191C13.9884 10.5954 13.7056 10.2597 13.4582 10.1006C12.4512 9.46446 9.85363 8.08634 9.11147 9.90631C8.63436 11.0549 9.81827 12.1857 10.2246 12.7689C10.5252 13.1752 10.9138 13.6346 11.1259 14.0941C11.2496 14.3943 11.2848 14.7125 11.4086 15.0306C11.6913 15.8079 11.9563 16.6738 12.3274 17.3984C12.5218 17.7694 12.7338 18.1582 12.9812 18.4938C13.1226 18.6881 13.3699 18.7766 13.423 19.0946C13.1757 19.448 13.1579 19.9781 13.0165 20.4199C12.3804 22.4166 12.6278 24.8903 13.5289 26.3569C13.8116 26.7986 14.4831 27.7706 15.3843 27.3995C16.1794 27.0815 16.0027 26.0742 16.2324 25.1908C16.2855 24.9786 16.2501 24.8374 16.3561 24.696C16.3562 24.7136 16.3561 24.7314 16.3561 24.7314C16.6035 25.2261 16.8509 25.7032 17.0805 26.1979C17.6284 27.0637 18.5825 27.9649 19.3776 28.5658C19.8019 28.8837 20.1375 29.4315 20.6676 29.626V29.5729H20.6322C20.5262 29.4138 20.3672 29.3432 20.2259 29.2195C19.9078 28.9014 19.5543 28.5127 19.307 28.1593C18.565 27.1697 17.911 26.0742 17.328 24.9433C17.0453 24.3956 16.7979 23.7948 16.5682 23.2471C16.4621 23.0349 16.4621 22.717 16.2854 22.611C16.0203 22.9996 15.6317 23.3354 15.4373 23.8125C15.1017 24.5723 15.0662 25.5088 14.9425 26.4806C14.8719 26.4984 14.9072 26.4806 14.8718 26.516C14.3065 26.3745 14.112 25.7916 13.9 25.2967C13.3699 24.0422 13.2815 22.0278 13.741 20.579C13.8647 20.2078 14.3948 19.0417 14.1827 18.6883C14.0768 18.3525 13.7233 18.1582 13.5289 17.8931C13.2992 17.5573 13.0518 17.1333 12.8929 16.7622C12.4687 15.7727 12.2567 14.6772 11.7973 13.6876C11.5853 13.2281 11.2142 12.7511 10.9138 12.3271C10.5782 11.85 10.207 11.5142 9.94197 10.9488C9.85373 10.7544 9.72991 10.4364 9.87125 10.2243C9.90661 10.083 9.97722 10.03 10.1187 9.99466C10.3484 9.80022 11.0022 10.0476 11.2318 10.1536C11.8857 10.4186 12.4334 10.6661 12.9812 11.0371C13.2285 11.2138 13.4936 11.5496 13.8116 11.6379H14.1827C14.7482 11.7615 15.3843 11.6733 15.9144 11.8323C16.851 12.1326 17.699 12.5744 18.4589 13.0515C20.7737 14.5181 22.6819 16.6032 23.9719 19.0946C24.184 19.5009 24.2722 19.8722 24.4666 20.2962C24.8378 21.162 25.2971 22.0455 25.6682 22.8937C26.0392 23.7241 26.3926 24.5723 26.9227 25.2615C27.1878 25.6324 28.2479 25.8268 28.725 26.0213C29.0784 26.1802 29.6263 26.3217 29.9443 26.516C30.545 26.8869 31.1458 27.3111 31.7113 27.7175C31.9941 27.9295 32.8774 28.3713 32.9305 28.7246Z" fill="#018FB5"/>
<path d="M14.908 13.3696C14.6076 13.3696 14.3957 13.4051 14.1836 13.4581C14.1836 13.4581 14.1836 13.4758 14.1836 13.4935H14.219C14.3604 13.7761 14.6076 13.9706 14.7843 14.2179C14.9258 14.5005 15.0493 14.7833 15.1908 15.0661C15.2084 15.0484 15.226 15.0308 15.226 15.0308C15.4736 14.8539 15.5972 14.5713 15.5972 14.1473C15.4911 14.0235 15.4735 13.8998 15.3851 13.7761C15.2791 13.5993 15.0493 13.5111 14.908 13.3696Z" fill="#018FB5"/>
</svg>
