<svg width="88" height="44" viewBox="0 0 88 44" fill="none" xmlns="http://www.w3.org/2000/svg">
<rect x="0.5" y="0.5" width="87" height="43" rx="5.5" stroke="#2C2F35"/>
<path d="M35.7219 19.5864C35.6439 19.523 34.9364 18.9912 33.4435 18.9912C33.0484 18.9912 32.6532 19.0205 32.2629 19.0937C31.975 17.108 30.3358 16.142 30.2626 16.0981L29.8626 15.864L29.5991 16.2445C29.2674 16.7568 29.0283 17.3178 28.8868 17.913C28.6185 19.0449 28.7795 20.1084 29.3552 21.0159C28.6624 21.4013 27.5452 21.4989 27.3207 21.5038H8.87427C8.39127 21.5038 8.00098 21.8941 8.00098 22.3771C7.98146 23.9919 8.25467 25.597 8.80597 27.1143C9.4402 28.7828 10.3867 30.0074 11.6161 30.7587C12.9919 31.6027 15.2313 32.0857 17.7731 32.0857C18.9196 32.0906 20.0661 31.9833 21.1931 31.7735C22.7591 31.4856 24.2667 30.9392 25.6522 30.1537C26.7938 29.4902 27.8232 28.6511 28.6965 27.6607C30.1553 26.0068 31.0286 24.1627 31.6774 22.5283H31.936C33.5362 22.5283 34.5217 21.8892 35.0633 21.3525C35.4243 21.011 35.7073 20.5963 35.8878 20.1328L36 19.7962L35.7219 19.5864ZM10.5818 20.972H13.0553C13.1724 20.972 13.27 20.8744 13.27 20.7573V18.557C13.27 18.4399 13.1724 18.3423 13.0553 18.3375H10.5818C10.4647 18.3375 10.3672 18.435 10.3672 18.5521V20.7573C10.3672 20.8793 10.4647 20.972 10.5818 20.972ZM13.9921 20.972H16.4656C16.5827 20.972 16.6802 20.8744 16.6802 20.7573V18.557C16.6802 18.4399 16.5827 18.3423 16.4656 18.3375H13.9921C13.8701 18.3375 13.7725 18.435 13.7725 18.557V20.7573C13.7725 20.8793 13.8701 20.972 13.9921 20.972ZM17.4462 20.9769H19.9197C20.0368 20.9769 20.1344 20.8793 20.1344 20.7622V18.5619C20.1344 18.4448 20.0368 18.3472 19.9197 18.3423H17.4462C17.3291 18.3423 17.2315 18.4399 17.2315 18.557V20.7622C17.2315 20.8793 17.3291 20.972 17.4462 20.9769ZM20.8662 20.9769H23.3397C23.4568 20.9769 23.5544 20.8793 23.5592 20.7622V18.5619C23.5592 18.4399 23.4617 18.3423 23.3397 18.3423H20.8662C20.7491 18.3423 20.6515 18.4399 20.6515 18.557V20.7622C20.6515 20.8793 20.7442 20.9769 20.8662 20.9769ZM13.9872 17.8057H16.4607C16.5778 17.8057 16.6754 17.7081 16.6754 17.5861V15.3858C16.6754 15.2687 16.5778 15.1712 16.4607 15.1712H13.9872C13.8652 15.1712 13.7725 15.2687 13.7676 15.3858V17.5861C13.7725 17.7081 13.8701 17.8057 13.9872 17.8057ZM17.4462 17.8057H19.9197C20.0368 17.8057 20.1344 17.7081 20.1344 17.5861V15.3858C20.1344 15.2687 20.0368 15.1712 19.9197 15.1712H17.4462C17.3291 15.1712 17.2315 15.2687 17.2315 15.3858V17.5861C17.2315 17.7081 17.3291 17.8057 17.4462 17.8057ZM20.8662 17.8057H23.3397C23.4617 17.8057 23.5544 17.7081 23.5592 17.5861V15.3858C23.5592 15.2639 23.4617 15.1712 23.3397 15.1712H20.8662C20.7491 15.1712 20.6515 15.2687 20.6515 15.3858V17.5861C20.6515 17.7081 20.7442 17.8057 20.8662 17.8057ZM20.8662 14.6394H23.3397C23.4617 14.6394 23.5592 14.5418 23.5592 14.4198V12.2147C23.5592 12.0976 23.4617 12 23.3397 12H20.8662C20.7491 12 20.6515 12.0976 20.6515 12.2147V14.4198C20.6515 14.5418 20.7442 14.6394 20.8662 14.6394ZM24.3106 20.9769H26.7841C26.9012 20.9769 26.9987 20.8793 26.9987 20.7622V18.5619C26.9987 18.4399 26.9012 18.3472 26.7841 18.3423H24.3106C24.1935 18.3423 24.0959 18.4399 24.0959 18.557V20.7622C24.0959 20.8793 24.1935 20.9769 24.3106 20.9769Z" fill="#0091E2"/>
<line x1="44.5747" x2="44.5747" y2="44" stroke="#2C2F35" stroke-width="1.14934"/>
<line x1="44.5747" x2="44.5747" y2="44" stroke="#2C2F35" stroke-width="1.14934"/>
<line x1="44.5747" x2="44.5747" y2="44" stroke="#2C2F35" stroke-width="1.14934"/>
<line x1="44.5747" x2="44.5747" y2="44" stroke="#2C2F35" stroke-width="1.14934"/>
<line x1="44.5747" x2="44.5747" y2="44" stroke="#2C2F35" stroke-width="1.14934"/>
<path d="M65.9029 8.41841C65.6554 8.43088 65.4129 8.49225 65.1896 8.59893L55.4554 13.25C55.2035 13.3703 54.9821 13.5454 54.8077 13.7622C54.6334 13.9791 54.5105 14.232 54.4483 14.5024L52.0468 24.95C51.9913 25.1907 51.9851 25.44 52.0285 25.6831C52.0719 25.9262 52.1641 26.1583 52.2995 26.3654C52.3323 26.4161 52.3676 26.4651 52.4053 26.5124L59.1429 34.8895C59.3173 35.1063 59.5387 35.2813 59.7907 35.4016C60.0426 35.5219 60.3186 35.5843 60.5983 35.5842L71.4031 35.5817C71.6826 35.5819 71.9585 35.5197 72.2105 35.3997C72.4624 35.2796 72.6839 35.1048 72.8584 34.8883L79.5935 26.5099C79.768 26.293 79.891 26.0399 79.9533 25.7694C80.0156 25.4989 80.0156 25.218 79.9533 24.9475L77.5481 14.4999C77.4858 14.2296 77.363 13.9766 77.1886 13.7597C77.0143 13.5429 76.7929 13.3678 76.5409 13.2475L66.8055 8.59893C66.5246 8.46474 66.2143 8.40267 65.9029 8.41841Z" fill="#326CE5"/>
<path d="M65.9995 11.9739C65.6777 11.9739 65.4168 12.2637 65.4168 12.6212C65.4168 12.6267 65.4179 12.632 65.4181 12.6374C65.4176 12.686 65.4152 12.7445 65.4168 12.7868C65.4245 12.993 65.4694 13.1508 65.4965 13.3408C65.5455 13.7474 65.5866 14.0845 65.5612 14.3978C65.5366 14.5159 65.4496 14.624 65.372 14.699L65.3583 14.9455C65.0087 14.9745 64.6567 15.0276 64.3051 15.1074C62.7923 15.4509 61.4897 16.2301 60.4981 17.2823C60.4337 17.2384 60.3211 17.1576 60.2877 17.1329C60.1836 17.147 60.0785 17.179 59.9416 17.0993C59.6808 16.9238 59.4434 16.6815 59.156 16.3897C59.0244 16.2501 58.929 16.1171 58.7726 15.9826C58.7371 15.952 58.6828 15.9107 58.6431 15.8793C58.5208 15.7817 58.3766 15.7309 58.2373 15.7261C58.0581 15.72 57.8857 15.79 57.7729 15.9315C57.5723 16.1831 57.6365 16.5677 57.9161 16.7905C57.9189 16.7928 57.9219 16.7946 57.9248 16.7968C57.9632 16.8279 58.0102 16.8678 58.0455 16.8939C58.2115 17.0164 58.3632 17.0792 58.5286 17.1765C58.877 17.3917 59.1659 17.5701 59.395 17.7853C59.4845 17.8806 59.5002 18.0487 59.5121 18.1214L59.6988 18.2882C58.6991 19.7926 58.2365 21.6509 58.5099 23.5443L58.2659 23.6153C58.2016 23.6983 58.1107 23.829 58.0157 23.868C57.7159 23.9624 57.3785 23.9971 56.9712 24.0398C56.7799 24.0557 56.6149 24.0462 56.4122 24.0846C56.3676 24.0931 56.3054 24.1093 56.2566 24.1207C56.2549 24.1211 56.2533 24.1216 56.2516 24.122C56.2489 24.1226 56.2454 24.1239 56.2429 24.1245C55.8995 24.2075 55.6788 24.5231 55.7499 24.8341C55.8209 25.1452 56.1563 25.3343 56.5018 25.2599C56.5043 25.2593 56.5079 25.2592 56.5105 25.2586C56.5144 25.2577 56.5179 25.2558 56.5217 25.2549C56.5699 25.2443 56.6302 25.2326 56.6724 25.2213C56.8717 25.1679 57.016 25.0895 57.1952 25.0208C57.5808 24.8826 57.9 24.7671 58.2111 24.7221C58.341 24.7119 58.4779 24.8022 58.546 24.8403L58.8 24.7968C59.3844 26.6087 60.6092 28.0732 62.1601 28.9922L62.0542 29.2462C62.0924 29.3448 62.1344 29.4782 62.106 29.5756C61.9929 29.8689 61.7992 30.1784 61.5787 30.5235C61.4719 30.6829 61.3626 30.8066 61.2662 30.9891C61.2431 31.0327 61.2138 31.0998 61.1915 31.1459C61.0417 31.4663 61.1516 31.8353 61.4392 31.9738C61.7287 32.1132 62.088 31.9662 62.2435 31.6452C62.2437 31.6447 62.2445 31.6444 62.2447 31.6439C62.2449 31.6436 62.2446 31.643 62.2447 31.6427C62.2669 31.5972 62.2982 31.5373 62.3169 31.4945C62.3995 31.3054 62.4269 31.1433 62.485 30.9604C62.6391 30.5732 62.7238 30.1669 62.9361 29.9137C62.9942 29.8444 63.0889 29.8177 63.1871 29.7914L63.3191 29.5524C64.6711 30.0714 66.1845 30.2106 67.6963 29.8674C68.0412 29.7891 68.3741 29.6877 68.696 29.5661C68.7331 29.6319 68.802 29.7584 68.8205 29.7902C68.9203 29.8227 69.0292 29.8394 69.118 29.9707C69.2768 30.242 69.3854 30.5629 69.5176 30.9505C69.5757 31.1334 69.6044 31.2955 69.687 31.4846C69.7058 31.5277 69.737 31.5883 69.7592 31.634C69.9143 31.956 70.2748 32.1035 70.5646 31.9639C70.8522 31.8253 70.9622 31.4563 70.8124 31.136C70.7901 31.0898 70.7595 31.0228 70.7364 30.9791C70.6401 30.7967 70.5308 30.6742 70.424 30.5148C70.2034 30.1697 70.0204 29.883 69.9073 29.5898C69.86 29.4385 69.9153 29.3445 69.9521 29.2462C69.9301 29.2209 69.8829 29.078 69.855 29.0109C71.4668 28.0592 72.6556 26.5401 73.2139 24.7855C73.2893 24.7974 73.4203 24.8206 73.4629 24.8291C73.5505 24.7713 73.6311 24.6959 73.789 24.7084C74.1001 24.7534 74.4194 24.8689 74.8049 25.0071C74.9841 25.0758 75.1284 25.1555 75.3278 25.2088C75.3699 25.2201 75.4303 25.2306 75.4784 25.2412C75.4823 25.2421 75.4857 25.244 75.4896 25.2449C75.4922 25.2455 75.4958 25.2456 75.4983 25.2462C75.8438 25.3205 76.1793 25.1315 76.2503 24.8204C76.3212 24.5094 76.1007 24.1937 75.7573 24.1108C75.7073 24.0994 75.6365 24.0801 75.588 24.071C75.3852 24.0326 75.2202 24.042 75.029 24.0261C74.6217 23.9835 74.2843 23.9487 73.9845 23.8543C73.8623 23.8069 73.7753 23.6615 73.733 23.6016L73.4977 23.5331C73.6197 22.6505 73.5868 21.732 73.3757 20.8129C73.1626 19.8853 72.7861 19.0369 72.2839 18.2895C72.3443 18.2346 72.4582 18.1337 72.4906 18.104C72.5 17.9994 72.4919 17.8898 72.6001 17.774C72.8292 17.5589 73.1181 17.3805 73.4666 17.1653C73.632 17.068 73.7849 17.0052 73.9509 16.8827C73.9884 16.855 74.0397 16.8111 74.0791 16.7793C74.3586 16.5564 74.4229 16.1719 74.2223 15.9203C74.0216 15.6688 73.6328 15.6451 73.3533 15.868C73.3135 15.8996 73.2595 15.9407 73.2238 15.9714C73.0674 16.1059 72.9708 16.2389 72.8391 16.3785C72.5518 16.6703 72.3143 16.9138 72.0536 17.0893C71.9406 17.1551 71.7751 17.1323 71.7 17.1279L71.4784 17.286C70.2148 15.961 68.4944 15.1138 66.6418 14.9493C66.6367 14.8716 66.6299 14.7313 66.6281 14.6891C66.5523 14.6165 66.4607 14.5546 66.4377 14.3978C66.4123 14.0845 66.4546 13.7474 66.5037 13.3408C66.5307 13.1508 66.5757 12.993 66.5833 12.7868C66.5851 12.7399 66.5823 12.6719 66.5821 12.6212C66.582 12.2637 66.3212 11.9738 65.9995 11.9739ZM65.2699 16.493L65.0969 19.5493L65.0844 19.5556C65.0728 19.829 64.8478 20.0473 64.5715 20.0473C64.4583 20.0473 64.3539 20.011 64.269 19.949L64.264 19.9514L61.7579 18.1749C62.5282 17.4176 63.5133 16.8579 64.6487 16.6001C64.8561 16.553 65.0634 16.518 65.2699 16.493ZM66.7302 16.493C68.0558 16.656 69.2817 17.2563 70.221 18.1762L67.7312 19.9415L67.7224 19.9378C67.5014 20.0992 67.1901 20.0591 67.0178 19.8431C66.9472 19.7547 66.9102 19.6506 66.9058 19.5456L66.9033 19.5444L66.7302 16.493ZM60.8491 19.3165L63.1373 21.3632L63.1348 21.3757C63.3414 21.5552 63.3718 21.8668 63.1996 22.0828C63.129 22.1713 63.0346 22.2306 62.9332 22.2583L62.9307 22.2683L59.9976 23.1148C59.8483 21.7498 60.17 20.4228 60.8491 19.3165ZM71.1336 19.3178C71.4736 19.8688 71.731 20.4843 71.8843 21.1516C72.0357 21.8108 72.0737 22.4689 72.0113 23.1049L69.0632 22.2558L69.0608 22.2434C68.7968 22.1712 68.6345 21.9027 68.696 21.6334C68.7212 21.523 68.7797 21.4297 68.8591 21.3607L68.8578 21.3545L71.1336 19.3178ZM65.5301 21.5213H66.4675L67.0502 22.2496L66.841 23.1584L65.9995 23.563L65.1554 23.1572L64.9462 22.2484L65.5301 21.5213ZM68.5354 24.0137C68.5752 24.0117 68.6149 24.0153 68.6537 24.0224L68.6586 24.0162L71.6926 24.5291C71.2485 25.7765 70.3989 26.8572 69.2637 27.5804L68.086 24.7357L68.0897 24.7308C67.9815 24.4794 68.0898 24.1846 68.3387 24.0647C68.4024 24.034 68.469 24.017 68.5354 24.0137ZM63.4399 24.0261C63.6714 24.0294 63.8791 24.1901 63.9329 24.4258C63.958 24.5361 63.9458 24.6454 63.9042 24.742L63.9129 24.7532L62.7477 27.5692C61.6582 26.8701 60.7905 25.8234 60.3263 24.539L63.334 24.0286L63.339 24.0348C63.3727 24.0287 63.4068 24.0257 63.4399 24.0261ZM65.9808 25.2599C66.0614 25.2569 66.1433 25.2734 66.2211 25.3109C66.323 25.36 66.4018 25.4373 66.4514 25.53H66.4626L67.9453 28.2091C67.7529 28.2736 67.555 28.3288 67.3527 28.3747C66.2187 28.6322 65.0884 28.5542 64.0648 28.2054L65.5438 25.5313H65.5463C65.635 25.3654 65.8033 25.2664 65.9808 25.2599Z" fill="#0F1115"/>
</svg>
