<?xml version="1.0" encoding="UTF-8"?> <svg xmlns="http://www.w3.org/2000/svg" width="222" height="91" viewBox="0 0 222 91" fill="none"><rect width="222" height="91" rx="5" fill="white"></rect><rect x="4" y="4" width="10" height="10" rx="2" fill="#00C951"></rect><rect x="16" y="4" width="10" height="10" rx="2" fill="#00C951"></rect><rect x="28" y="4" width="10" height="10" rx="2" fill="#00C951"></rect><rect x="40" y="4" width="10" height="10" rx="2" fill="#00C951"></rect><rect x="52" y="4" width="10" height="10" rx="2" fill="#00C951"></rect><rect x="64" y="4" width="10" height="10" rx="2" fill="#00C951"></rect><rect x="76" y="4" width="10" height="10" rx="2" fill="#00C951"></rect><rect x="88" y="4" width="10" height="10" rx="2" fill="#00C951"></rect><rect x="100" y="4" width="10" height="10" rx="2" fill="#00C951"></rect><rect x="112" y="4" width="10" height="10" rx="2" fill="#00C951"></rect><rect x="124" y="4" width="10" height="10" rx="2" fill="#00C951"></rect><rect x="136" y="4" width="10" height="10" rx="2" fill="#00C951"></rect><rect x="148" y="4" width="10" height="10" rx="2" fill="#00C951"></rect><rect x="160" y="4" width="10" height="10" rx="2" fill="#00C951"></rect><rect x="172" y="4" width="10" height="10" rx="2" fill="#00C951"></rect><rect x="184" y="4" width="10" height="10" rx="2" fill="#00C951"></rect><rect x="196" y="4" width="10" height="10" rx="2" fill="#00C951"></rect><rect x="208" y="4" width="10" height="10" rx="2" fill="#00C951"></rect><rect x="4" y="16" width="10" height="10" rx="2" fill="#00C951"></rect><rect x="16" y="16" width="10" height="10" rx="2" fill="#00C951"></rect><rect x="28" y="16" width="10" height="10" rx="2" fill="#00C951"></rect><rect x="40" y="16" width="10" height="10" rx="2" fill="#00C951"></rect><rect x="52" y="16" width="10" height="10" rx="2" fill="#00C951"></rect><rect x="64" y="16" width="10" height="10" rx="2" fill="#00C951"></rect><rect x="76" y="16" width="10" height="10" rx="2" fill="#00C951"></rect><rect x="88" y="16" width="10" height="10" rx="2" fill="#00C951"></rect><rect x="100" y="16" width="10" height="10" rx="2" fill="#00C951"></rect><rect x="112" y="16" width="10" height="10" rx="2" fill="#00C951"></rect><rect x="124" y="16" width="10" height="10" rx="2" fill="#00C951"></rect><rect x="136" y="16" width="10" height="10" rx="2" fill="#00C951"></rect><rect x="148" y="16" width="10" height="10" rx="2" fill="#00C951"></rect><rect x="160" y="16" width="10" height="10" rx="2" fill="#00C951"></rect><rect x="172" y="16" width="10" height="10" rx="2" fill="#00C951"></rect><rect x="184" y="16" width="10" height="10" rx="2" fill="#00C951"></rect><rect x="196" y="16" width="10" height="10" rx="2" fill="#00C951"></rect><rect x="208" y="16" width="10" height="10" rx="2" fill="#00C951"></rect><rect x="4" y="28" width="10" height="10" rx="2" fill="#FB2C36"></rect><rect x="16" y="28" width="10" height="10" rx="2" fill="#FB2C36"></rect><rect x="28" y="28" width="10" height="10" rx="2" fill="#FB2C36"></rect><rect x="40" y="28" width="10" height="10" rx="2" fill="#FB2C36"></rect><rect x="52" y="28" width="10" height="10" rx="2" fill="#FB2C36"></rect><rect x="64" y="28" width="10" height="10" rx="2" fill="#00C951"></rect><rect x="76" y="28" width="10" height="10" rx="2" fill="#00C951"></rect><rect x="88" y="28" width="10" height="10" rx="2" fill="#00C951"></rect><rect x="100" y="28" width="10" height="10" rx="2" fill="#00C951"></rect><rect x="112" y="28" width="10" height="10" rx="2" fill="#00C951"></rect><rect x="124" y="28" width="10" height="10" rx="2" fill="#00C951"></rect><rect x="136" y="28" width="10" height="10" rx="2" fill="#00C951"></rect><rect x="148" y="28" width="10" height="10" rx="2" fill="#00C951"></rect><rect x="160" y="28" width="10" height="10" rx="2" fill="#00C951"></rect><rect x="172" y="28" width="10" height="10" rx="2" fill="#00C951"></rect><rect x="184" y="28" width="10" height="10" rx="2" fill="#00C951"></rect><rect x="196" y="28" width="10" height="10" rx="2" fill="#00C951"></rect><rect x="208" y="28" width="10" height="10" rx="2" fill="#00C951"></rect><rect x="4" y="40" width="10" height="10" rx="2" fill="#00C951"></rect><rect x="16" y="40" width="10" height="10" rx="2" fill="#00C951"></rect><rect x="28" y="40" width="10" height="10" rx="2" fill="#00C951"></rect><rect x="40" y="40" width="10" height="10" rx="2" fill="#00C951"></rect><rect x="52" y="40" width="10" height="10" rx="2" fill="#00C951"></rect><rect x="64" y="40" width="10" height="10" rx="2" fill="#00C951"></rect><rect x="76" y="40" width="10" height="10" rx="2" fill="#00C951"></rect><rect x="88" y="40" width="10" height="10" rx="2" fill="#00C951"></rect><rect x="100" y="40" width="10" height="10" rx="2" fill="#00C951"></rect><rect x="112" y="40" width="10" height="10" rx="2" fill="#00C951"></rect><rect x="124" y="40" width="10" height="10" rx="2" fill="#00C951"></rect><rect x="136" y="40" width="10" height="10" rx="2" fill="#00C951"></rect><rect x="148" y="40" width="10" height="10" rx="2" fill="#00C951"></rect><rect x="160" y="40" width="10" height="10" rx="2" fill="#00C951"></rect><rect x="172" y="40" width="10" height="10" rx="2" fill="#00C951"></rect><rect x="184" y="40" width="10" height="10" rx="2" fill="#00C951"></rect><rect x="196" y="40" width="10" height="10" rx="2" fill="#00C951"></rect><rect x="208" y="40" width="10" height="10" rx="2" fill="#00C951"></rect><rect x="4" y="52" width="10" height="10" rx="2" fill="#00C951"></rect><rect x="16" y="52" width="10" height="10" rx="2" fill="#00C951"></rect><rect x="28" y="52" width="10" height="10" rx="2" fill="#00C951"></rect><rect x="40" y="52" width="10" height="10" rx="2" fill="#00C951"></rect><rect x="52" y="52" width="10" height="10" rx="2" fill="#00C951"></rect><rect x="64" y="52" width="10" height="10" rx="2" fill="#00C951"></rect><rect x="76" y="52" width="10" height="10" rx="2" fill="#00C951"></rect><rect x="88" y="52" width="10" height="10" rx="2" fill="#00C951"></rect><rect x="100" y="52" width="10" height="10" rx="2" fill="#00C951"></rect><rect x="112" y="52" width="10" height="10" rx="2" fill="#00C951"></rect><rect x="124" y="52" width="10" height="10" rx="2" fill="#00C951"></rect><rect x="136" y="52" width="10" height="10" rx="2" fill="#00C951"></rect><rect x="148" y="52" width="10" height="10" rx="2" fill="#00C951"></rect><rect x="160" y="52" width="10" height="10" rx="2" fill="#00C951"></rect><rect x="172" y="52" width="10" height="10" rx="2" fill="#00C951"></rect><rect x="184" y="52" width="10" height="10" rx="2" fill="#00C951"></rect><rect x="196" y="52" width="10" height="10" rx="2" fill="#00C951"></rect><rect x="208" y="52" width="10" height="10" rx="2" fill="#00C951"></rect><rect x="4" y="64" width="10" height="10" rx="2" fill="#00C951"></rect><rect x="16" y="64" width="10" height="10" rx="2" fill="#00C951"></rect><rect x="28" y="64" width="10" height="10" rx="2" fill="#00C951"></rect><rect x="40" y="64" width="10" height="10" rx="2" fill="#00C951"></rect><rect x="52" y="64" width="10" height="10" rx="2" fill="#00C951"></rect><rect x="64" y="64" width="10" height="10" rx="2" fill="#00C951"></rect><rect x="76" y="64" width="10" height="10" rx="2" fill="#00C951"></rect><rect x="88" y="64" width="10" height="10" rx="2" fill="#00C951"></rect><rect x="100" y="64" width="10" height="10" rx="2" fill="#00C951"></rect><rect x="112" y="64" width="10" height="10" rx="2" fill="#00C951"></rect><rect x="124" y="64" width="10" height="10" rx="2" fill="#00C951"></rect><rect x="136" y="64" width="10" height="10" rx="2" fill="#00C951"></rect><rect x="148" y="64" width="10" height="10" rx="2" fill="#FB2C36"></rect><rect x="160" y="64" width="10" height="10" rx="2" fill="#FB2C36"></rect><rect x="172" y="64" width="10" height="10" rx="2" fill="#FB2C36"></rect><rect x="184" y="64" width="10" height="10" rx="2" fill="#00C951"></rect><rect x="196" y="64" width="10" height="10" rx="2" fill="#00C951"></rect><rect x="208" y="64" width="10" height="10" rx="2" fill="#00C951"></rect><rect x="4" y="76" width="10" height="10" rx="2" fill="#00C951"></rect><rect x="16" y="76" width="10" height="10" rx="2" fill="#00C951"></rect><rect x="28" y="76" width="10" height="10" rx="2" fill="#00C951"></rect><rect x="40" y="76" width="10" height="10" rx="2" fill="#00C951"></rect><rect x="52" y="76" width="10" height="10" rx="2" fill="#00C951"></rect><rect x="64" y="76" width="10" height="10" rx="2" fill="#00C951"></rect><rect x="76" y="76" width="10" height="10" rx="2" fill="#00C951"></rect><rect x="88" y="76" width="10" height="10" rx="2" fill="#00C951"></rect><rect x="100" y="76" width="10" height="10" rx="2" fill="#00C951"></rect><rect x="112" y="76" width="10" height="10" rx="2" fill="#00C951"></rect><rect x="124" y="76" width="10" height="10" rx="2" fill="#00C951"></rect><rect x="136" y="76" width="10" height="10" rx="2" fill="#00C951"></rect><rect x="148" y="76" width="10" height="10" rx="2" fill="#00C951"></rect><rect x="160" y="76" width="10" height="10" rx="2" fill="#00C951"></rect><rect x="172" y="76" width="10" height="10" rx="2" fill="#00C951"></rect><rect x="184" y="76" width="10" height="10" rx="2" fill="#00C951"></rect><rect x="196" y="76" width="10" height="10" rx="2" fill="#00C951"></rect><rect x="208" y="76" width="10" height="10" rx="2" fill="#00C951"></rect><rect x="94" y="43" width="118" height="19" rx="2" fill="#373737" fill-opacity="0.95"></rect><path d="M153.046 67L158.242 61.75H147.85L153.046 67Z" fill="#373737" fill-opacity="0.95"></path><path d="M98.22 57L101.861 53.117C102.03 52.9337 102.173 52.754 102.29 52.578C102.415 52.3947 102.506 52.2113 102.565 52.028C102.631 51.8373 102.664 51.6393 102.664 51.434C102.664 51.2653 102.631 51.1003 102.565 50.939C102.499 50.7777 102.4 50.631 102.268 50.499C102.143 50.367 101.989 50.2607 101.806 50.18C101.623 50.0993 101.414 50.059 101.179 50.059C100.849 50.059 100.563 50.136 100.321 50.29C100.086 50.4367 99.9067 50.653 99.782 50.939C99.6573 51.2177 99.595 51.5513 99.595 51.94H98.66C98.66 51.39 98.759 50.9097 98.957 50.499C99.155 50.081 99.441 49.7583 99.815 49.531C100.196 49.2963 100.651 49.179 101.179 49.179C101.604 49.179 101.971 49.2523 102.279 49.399C102.587 49.5383 102.84 49.7217 103.038 49.949C103.236 50.169 103.383 50.4073 103.478 50.664C103.573 50.9207 103.621 51.1663 103.621 51.401C103.621 51.797 103.526 52.1893 103.335 52.578C103.144 52.9667 102.899 53.315 102.598 53.623L100.145 56.12H103.654V57H98.22ZM105.143 50.818V49.85L107.783 49.19V57H106.848V50.312L105.143 50.818ZM114.13 54.69L114.46 53.81H117.87L118.2 54.69H114.13ZM116.143 51.038L114.845 54.096L114.757 54.294L113.613 57H112.568L116.143 48.915L119.718 57H118.673L117.551 54.36L117.463 54.14L116.143 51.038ZM121.265 55.02C121.265 55.4233 121.356 55.735 121.54 55.955C121.723 56.175 121.991 56.285 122.343 56.285C122.599 56.285 122.823 56.2337 123.014 56.131C123.212 56.021 123.362 55.8707 123.465 55.68C123.575 55.4893 123.63 55.2693 123.63 55.02V51.94H124.51V57H123.63V56.208C123.461 56.5087 123.252 56.736 123.003 56.89C122.753 57.0367 122.46 57.11 122.123 57.11C121.595 57.11 121.173 56.9303 120.858 56.571C120.542 56.2117 120.385 55.7313 120.385 55.13V51.94H121.265V55.02ZM125.823 57.33H126.714C126.714 57.572 126.78 57.7957 126.912 58.001C127.044 58.2137 127.231 58.3823 127.473 58.507C127.715 58.639 128.001 58.705 128.331 58.705C128.588 58.705 128.841 58.6427 129.09 58.518C129.339 58.3933 129.545 58.1953 129.706 57.924C129.875 57.66 129.959 57.3153 129.959 56.89V51.94H130.839V56.89C130.839 57.4693 130.718 57.9533 130.476 58.342C130.234 58.738 129.922 59.035 129.541 59.233C129.16 59.431 128.756 59.53 128.331 59.53C127.84 59.53 127.403 59.4383 127.022 59.255C126.648 59.0717 126.355 58.8113 126.142 58.474C125.929 58.144 125.823 57.7627 125.823 57.33ZM125.724 54.47C125.724 53.92 125.838 53.4507 126.065 53.062C126.292 52.666 126.597 52.3617 126.978 52.149C127.359 51.9363 127.777 51.83 128.232 51.83C128.657 51.83 129.028 51.9363 129.343 52.149C129.658 52.3617 129.904 52.666 130.08 53.062C130.263 53.4507 130.355 53.92 130.355 54.47C130.355 55.0127 130.263 55.482 130.08 55.878C129.904 56.274 129.658 56.5783 129.343 56.791C129.028 57.0037 128.657 57.11 128.232 57.11C127.777 57.11 127.359 57.0037 126.978 56.791C126.597 56.5783 126.292 56.274 126.065 55.878C125.838 55.482 125.724 55.0127 125.724 54.47ZM126.615 54.47C126.615 54.8587 126.692 55.1887 126.846 55.46C127.007 55.7313 127.22 55.9367 127.484 56.076C127.748 56.2153 128.034 56.285 128.342 56.285C128.599 56.285 128.852 56.2153 129.101 56.076C129.35 55.9367 129.556 55.7313 129.717 55.46C129.878 55.1887 129.959 54.8587 129.959 54.47C129.959 54.1767 129.911 53.92 129.816 53.7C129.721 53.4727 129.592 53.282 129.431 53.128C129.277 52.974 129.105 52.8567 128.914 52.776C128.723 52.6953 128.533 52.655 128.342 52.655C128.034 52.655 127.748 52.7247 127.484 52.864C127.22 53.0033 127.007 53.2087 126.846 53.48C126.692 53.7513 126.615 54.0813 126.615 54.47ZM135.13 57L138.771 53.117C138.94 52.9337 139.083 52.754 139.2 52.578C139.325 52.3947 139.416 52.2113 139.475 52.028C139.541 51.8373 139.574 51.6393 139.574 51.434C139.574 51.2653 139.541 51.1003 139.475 50.939C139.409 50.7777 139.31 50.631 139.178 50.499C139.053 50.367 138.899 50.2607 138.716 50.18C138.533 50.0993 138.324 50.059 138.089 50.059C137.759 50.059 137.473 50.136 137.231 50.29C136.996 50.4367 136.817 50.653 136.692 50.939C136.567 51.2177 136.505 51.5513 136.505 51.94H135.57C135.57 51.39 135.669 50.9097 135.867 50.499C136.065 50.081 136.351 49.7583 136.725 49.531C137.106 49.2963 137.561 49.179 138.089 49.179C138.514 49.179 138.881 49.2523 139.189 49.399C139.497 49.5383 139.75 49.7217 139.948 49.949C140.146 50.169 140.293 50.4073 140.388 50.664C140.483 50.9207 140.531 51.1663 140.531 51.401C140.531 51.797 140.436 52.1893 140.245 52.578C140.054 52.9667 139.809 53.315 139.508 53.623L137.055 56.12H140.564V57H135.13ZM142.548 53.15C142.548 53.5973 142.592 54.0117 142.68 54.393C142.768 54.767 142.896 55.0933 143.065 55.372C143.234 55.6433 143.435 55.856 143.67 56.01C143.912 56.1567 144.18 56.23 144.473 56.23C144.774 56.23 145.041 56.1567 145.276 56.01C145.511 55.856 145.712 55.6433 145.881 55.372C146.05 55.0933 146.178 54.767 146.266 54.393C146.354 54.0117 146.398 53.5973 146.398 53.15C146.398 52.7027 146.354 52.292 146.266 51.918C146.178 51.5367 146.05 51.2103 145.881 50.939C145.712 50.6603 145.511 50.4477 145.276 50.301C145.041 50.147 144.774 50.07 144.473 50.07C144.18 50.07 143.912 50.147 143.67 50.301C143.435 50.4477 143.234 50.6603 143.065 50.939C142.896 51.2103 142.768 51.5367 142.68 51.918C142.592 52.292 142.548 52.7027 142.548 53.15ZM141.613 53.15C141.613 52.38 141.734 51.698 141.976 51.104C142.218 50.51 142.552 50.0443 142.977 49.707C143.41 49.3623 143.908 49.19 144.473 49.19C145.038 49.19 145.533 49.3623 145.958 49.707C146.391 50.0443 146.728 50.51 146.97 51.104C147.212 51.698 147.333 52.38 147.333 53.15C147.333 53.92 147.212 54.602 146.97 55.196C146.728 55.79 146.391 56.2593 145.958 56.604C145.533 56.9413 145.038 57.11 144.473 57.11C143.908 57.11 143.41 56.9413 142.977 56.604C142.552 56.2593 142.218 55.79 141.976 55.196C141.734 54.602 141.613 53.92 141.613 53.15ZM147.989 57L151.63 53.117C151.798 52.9337 151.941 52.754 152.059 52.578C152.183 52.3947 152.275 52.2113 152.334 52.028C152.4 51.8373 152.433 51.6393 152.433 51.434C152.433 51.2653 152.4 51.1003 152.334 50.939C152.268 50.7777 152.169 50.631 152.037 50.499C151.912 50.367 151.758 50.2607 151.575 50.18C151.391 50.0993 151.182 50.059 150.948 50.059C150.618 50.059 150.332 50.136 150.09 50.29C149.855 50.4367 149.675 50.653 149.551 50.939C149.426 51.2177 149.364 51.5513 149.364 51.94H148.429C148.429 51.39 148.528 50.9097 148.726 50.499C148.924 50.081 149.21 49.7583 149.584 49.531C149.965 49.2963 150.42 49.179 150.948 49.179C151.373 49.179 151.74 49.2523 152.048 49.399C152.356 49.5383 152.609 49.7217 152.807 49.949C153.005 50.169 153.151 50.4073 153.247 50.664C153.342 50.9207 153.39 51.1663 153.39 51.401C153.39 51.797 153.294 52.1893 153.104 52.578C152.913 52.9667 152.667 53.315 152.367 53.623L149.914 56.12H153.423V57H147.989ZM159.795 54.47C159.795 54.91 159.726 55.295 159.586 55.625C159.447 55.955 159.253 56.23 159.003 56.45C158.754 56.67 158.468 56.835 158.145 56.945C157.823 57.055 157.474 57.11 157.1 57.11C156.631 57.11 156.22 57.0367 155.868 56.89C155.524 56.7433 155.227 56.549 154.977 56.307C154.735 56.0577 154.53 55.7863 154.361 55.493L155.153 54.954C155.271 55.174 155.425 55.383 155.615 55.581C155.813 55.7717 156.041 55.9293 156.297 56.054C156.554 56.1713 156.822 56.23 157.1 56.23C157.467 56.23 157.779 56.1567 158.035 56.01C158.292 55.8633 158.486 55.658 158.618 55.394C158.758 55.13 158.827 54.822 158.827 54.47C158.827 54.118 158.75 53.81 158.596 53.546C158.45 53.282 158.244 53.0767 157.98 52.93C157.724 52.7833 157.43 52.71 157.1 52.71C156.858 52.71 156.635 52.732 156.429 52.776C156.231 52.8127 156.03 52.8823 155.824 52.985C155.626 53.0803 155.395 53.2197 155.131 53.403L156.143 49.3H159.773V50.125H156.869L156.352 52.16C156.536 52.0647 156.723 51.995 156.913 51.951C157.111 51.8997 157.306 51.874 157.496 51.874C157.936 51.874 158.329 51.984 158.673 52.204C159.025 52.424 159.3 52.7283 159.498 53.117C159.696 53.5057 159.795 53.9567 159.795 54.47ZM163.593 54.8V53.975H165.793V54.8H163.593ZM169.366 55.46L173.634 49.3H174.019V57H173.084V55.064V54.943V51.379L170.906 54.635H173.469H173.656H175.229V55.46H169.366ZM176.604 56.56C176.604 56.3913 176.662 56.2483 176.78 56.131C176.904 56.0137 177.047 55.955 177.209 55.955C177.377 55.955 177.52 56.0137 177.638 56.131C177.755 56.2483 177.814 56.3913 177.814 56.56C177.814 56.7213 177.755 56.8643 177.638 56.989C177.52 57.1063 177.377 57.165 177.209 57.165C177.047 57.165 176.904 57.1063 176.78 56.989C176.662 56.8643 176.604 56.7213 176.604 56.56ZM176.604 52.38C176.604 52.2113 176.662 52.0683 176.78 51.951C176.904 51.8337 177.047 51.775 177.209 51.775C177.377 51.775 177.52 51.8337 177.638 51.951C177.755 52.0683 177.814 52.2113 177.814 52.38C177.814 52.5413 177.755 52.6843 177.638 52.809C177.52 52.9263 177.377 52.985 177.209 52.985C177.047 52.985 176.904 52.9263 176.78 52.809C176.662 52.6843 176.604 52.5413 176.604 52.38ZM179.736 50.818V49.85L182.376 49.19V57H181.441V50.312L179.736 50.818ZM184.139 50.18V49.3H189.529L185.844 57H184.865L188.132 50.18H184.139ZM193.766 49.3H194.701V57H193.766V49.3ZM194.283 50.18V49.3H195.856C196.354 49.3 196.798 49.3953 197.187 49.586C197.583 49.7693 197.894 50.0333 198.122 50.378C198.356 50.7227 198.474 51.1333 198.474 51.61C198.474 52.0793 198.356 52.49 198.122 52.842C197.894 53.1867 197.583 53.4543 197.187 53.645C196.798 53.8283 196.354 53.92 195.856 53.92H194.283V53.04H195.856C196.354 53.04 196.758 52.919 197.066 52.677C197.381 52.435 197.539 52.0793 197.539 51.61C197.539 51.1333 197.381 50.7777 197.066 50.543C196.758 50.301 196.354 50.18 195.856 50.18H194.283ZM200.859 51.797L200.287 57H199.352L200.287 48.915L203.367 54.492L206.447 48.915L207.382 57H206.447L205.875 51.797L203.367 56.285L200.859 51.797Z" fill="white"></path></svg> 