<svg width="44" height="44" viewBox="0 0 44 44" fill="none" xmlns="http://www.w3.org/2000/svg">
<rect x="0.5" y="0.5" width="43" height="43" rx="5.5" stroke="#2C2F35"/>
<path d="M16.6411 18.4066V20.2861H16.5161C15.729 20.2861 15.089 20.926 15.089 21.7131V29.5729C15.089 30.36 15.729 31 16.5161 31H27.4838C28.2709 31 28.9109 30.36 28.9109 29.5729V21.7094C28.9109 20.9224 28.2709 20.2824 27.4838 20.2824H27.447V18.4029C27.447 15.4238 25.0232 13 22.0441 13C19.0649 13.0037 16.6411 15.4275 16.6411 18.4066ZM22.8459 25.9906C22.7355 26.0715 22.7061 26.1488 22.7061 26.2775C22.7098 26.8549 22.7098 27.4287 22.7098 28.0061C22.7208 28.2452 22.5995 28.4806 22.3861 28.5872C21.8823 28.8447 21.3784 28.4843 21.3784 28.0061V28.0025C21.3784 27.425 21.3784 26.8476 21.382 26.2701C21.382 26.1524 21.3563 26.0752 21.2533 25.998C20.731 25.6118 20.5582 24.9534 20.8193 24.376C21.0731 23.8132 21.6947 23.4822 22.2795 23.5999C22.9305 23.7323 23.3829 24.2546 23.3902 24.9056C23.3902 25.358 23.21 25.7258 22.8459 25.9906ZM19.0061 18.4066C19.0061 16.7295 20.3706 15.3686 22.0441 15.3686C23.7212 15.3686 25.0821 16.7331 25.0821 18.4066V20.2861H19.0061V18.4066Z" fill="#9FA0A1"/>
</svg>
