<svg width="276" height="100" viewBox="0 0 276 100" fill="none" xmlns="http://www.w3.org/2000/svg">
<rect x="0.5" y="0.5" width="275" height="99" rx="7.5" fill="#16181D"/>
<rect x="0.5" y="0.5" width="275" height="99" rx="7.5" stroke="#2C2F35"/>
<rect x="16" y="36" width="12" height="12" rx="2" fill="#00C951"/>
<rect x="32" y="36" width="12" height="12" rx="2" fill="#00C951"/>
<rect x="48" y="36" width="12" height="12" rx="2" fill="#00C951"/>
<rect x="64" y="36" width="12" height="12" rx="2" fill="#00C951"/>
<rect x="80" y="36" width="12" height="12" rx="2" fill="#00C951"/>
<rect x="96" y="36" width="12" height="12" rx="2" fill="#00C951"/>
<rect x="112" y="36" width="12" height="12" rx="2" fill="#00C951"/>
<g filter="url(#filter0_d_12_28)">
<rect x="128" y="36" width="12" height="12" rx="2" fill="#FB2C36"/>
</g>
<g filter="url(#filter1_d_12_28)">
<rect x="144" y="36" width="12" height="12" rx="2" fill="#FB2C36"/>
</g>
<rect x="160" y="36" width="12" height="12" rx="2" fill="#00C951"/>
<rect x="176" y="36" width="12" height="12" rx="2" fill="#00C951"/>
<g filter="url(#filter2_d_12_28)">
<rect x="192" y="36" width="12" height="12" rx="2" fill="#FB2C36"/>
</g>
<rect x="208" y="36" width="12" height="12" rx="2" fill="#00C951"/>
<rect x="224" y="36" width="12" height="12" rx="2" fill="#00C951"/>
<rect x="240" y="36" width="12" height="12" rx="2" fill="#00C951"/>
<rect x="16" y="52" width="12" height="12" rx="2" fill="#00C951"/>
<rect x="32" y="52" width="12" height="12" rx="2" fill="#00C951"/>
<rect x="48" y="52" width="12" height="12" rx="2" fill="#00C951"/>
<rect x="64" y="52" width="12" height="12" rx="2" fill="#00C951"/>
<rect x="80" y="52" width="12" height="12" rx="2" fill="#00C951"/>
<rect x="96" y="52" width="12" height="12" rx="2" fill="#00C951"/>
<rect x="112" y="52" width="12" height="12" rx="2" fill="#00C951"/>
<rect x="128" y="52" width="12" height="12" rx="2" fill="#00C951"/>
<rect x="144" y="52" width="12" height="12" rx="2" fill="#00C951"/>
<g filter="url(#filter3_d_12_28)">
<rect x="160" y="52" width="12" height="12" rx="2" fill="#FB2C36"/>
</g>
<g filter="url(#filter4_d_12_28)">
<rect x="176" y="52" width="12" height="12" rx="2" fill="#FB2C36"/>
</g>
<rect x="192" y="52" width="12" height="12" rx="2" fill="#00C951"/>
<rect x="208" y="52" width="12" height="12" rx="2" fill="#00C951"/>
<rect x="224" y="52" width="12" height="12" rx="2" fill="#00C951"/>
<rect x="240" y="52" width="12" height="12" rx="2" fill="#00C951"/>
<rect x="16" y="68" width="12" height="12" rx="2" fill="#00C951"/>
<rect x="32" y="68" width="12" height="12" rx="2" fill="#00C951"/>
<rect x="48" y="68" width="12" height="12" rx="2" fill="#00C951"/>
<rect x="64" y="68" width="12" height="12" rx="2" fill="#00C951"/>
<rect x="80" y="68" width="12" height="12" rx="2" fill="#00C951"/>
<rect x="96" y="68" width="12" height="12" rx="2" fill="#00C951"/>
<rect x="112" y="68" width="12" height="12" rx="2" fill="#00C951"/>
<rect x="128" y="68" width="12" height="12" rx="2" fill="#00C951"/>
<rect x="144" y="68" width="12" height="12" rx="2" fill="#00C951"/>
<rect x="160" y="68" width="12" height="12" rx="2" fill="#00C951"/>
<rect x="176" y="68" width="12" height="12" rx="2" fill="#00C951"/>
<rect x="192" y="68" width="12" height="12" rx="2" fill="#00C951"/>
<rect x="208" y="68" width="12" height="12" rx="2" fill="#00C951"/>
<rect x="224" y="68" width="12" height="12" rx="2" fill="#00C951"/>
<rect x="240" y="68" width="12" height="12" rx="2" fill="#00C951"/>
<path d="M17.375 23.469V22.27H22.864V23.469H17.375ZM22.028 19.3H23.326V27H22.028V19.3ZM16.858 19.3H18.156V27H16.858V19.3ZM27.1445 27.11C26.6312 27.11 26.1765 27 25.7805 26.78C25.3919 26.56 25.0912 26.252 24.8785 25.856C24.6659 25.46 24.5595 24.998 24.5595 24.47C24.5595 23.9347 24.6659 23.469 24.8785 23.073C25.0985 22.677 25.4065 22.3727 25.8025 22.16C26.1985 21.94 26.6642 21.83 27.1995 21.83C27.7349 21.83 28.1895 21.9327 28.5635 22.138C28.9375 22.3433 29.2235 22.6403 29.4215 23.029C29.6269 23.4103 29.7295 23.8723 29.7295 24.415C29.7295 24.4737 29.7259 24.536 29.7185 24.602C29.7185 24.668 29.7149 24.7157 29.7075 24.745H25.2635V23.931H28.6955L28.3325 24.437C28.3545 24.393 28.3765 24.3343 28.3985 24.261C28.4279 24.1803 28.4425 24.1143 28.4425 24.063C28.4425 23.7917 28.3875 23.557 28.2775 23.359C28.1749 23.161 28.0282 23.007 27.8375 22.897C27.6542 22.787 27.4379 22.732 27.1885 22.732C26.8879 22.732 26.6312 22.798 26.4185 22.93C26.2059 23.062 26.0445 23.2527 25.9345 23.502C25.8245 23.7513 25.7659 24.0593 25.7585 24.426C25.7585 24.7927 25.8135 25.1043 25.9235 25.361C26.0335 25.6103 26.1949 25.801 26.4075 25.933C26.6275 26.065 26.8915 26.131 27.1995 26.131C27.5222 26.131 27.8045 26.065 28.0465 25.933C28.2885 25.801 28.4902 25.5993 28.6515 25.328L29.6745 25.746C29.4105 26.2007 29.0695 26.5417 28.6515 26.769C28.2335 26.9963 27.7312 27.11 27.1445 27.11ZM31.6115 25.427C31.6115 25.5957 31.6518 25.7423 31.7325 25.867C31.8132 25.9843 31.9232 26.0723 32.0625 26.131C32.2092 26.1897 32.3742 26.219 32.5575 26.219C32.7922 26.219 33.0048 26.1713 33.1955 26.076C33.3935 25.9807 33.5512 25.8413 33.6685 25.658C33.7932 25.4673 33.8555 25.2473 33.8555 24.998L34.0315 25.658C34.0315 25.9807 33.9362 26.252 33.7455 26.472C33.5622 26.6847 33.3275 26.846 33.0415 26.956C32.7628 27.0587 32.4768 27.11 32.1835 27.11C31.8682 27.11 31.5748 27.0477 31.3035 26.923C31.0322 26.7983 30.8158 26.615 30.6545 26.373C30.4932 26.131 30.4125 25.8377 30.4125 25.493C30.4125 25.0017 30.5848 24.613 30.9295 24.327C31.2742 24.0337 31.7618 23.887 32.3925 23.887C32.7298 23.887 33.0195 23.9237 33.2615 23.997C33.5108 24.0703 33.7162 24.1583 33.8775 24.261C34.0388 24.3563 34.1525 24.4443 34.2185 24.525V25.13C33.9912 24.9687 33.7492 24.8513 33.4925 24.778C33.2358 24.7047 32.9645 24.668 32.6785 24.668C32.4292 24.668 32.2275 24.701 32.0735 24.767C31.9195 24.8257 31.8022 24.91 31.7215 25.02C31.6482 25.13 31.6115 25.2657 31.6115 25.427ZM31.2375 23.26L30.7535 22.424C30.9808 22.2847 31.2742 22.149 31.6335 22.017C32.0002 21.885 32.4182 21.819 32.8875 21.819C33.3055 21.819 33.6722 21.8813 33.9875 22.006C34.3102 22.1307 34.5632 22.3103 34.7465 22.545C34.9298 22.7723 35.0215 23.0547 35.0215 23.392V27H33.8555V23.623C33.8555 23.4617 33.8262 23.3297 33.7675 23.227C33.7162 23.1243 33.6428 23.04 33.5475 22.974C33.4522 22.908 33.3385 22.8603 33.2065 22.831C33.0745 22.8017 32.9315 22.787 32.7775 22.787C32.5428 22.787 32.3192 22.8163 32.1065 22.875C31.9012 22.9263 31.7215 22.9923 31.5675 23.073C31.4208 23.1463 31.3108 23.2087 31.2375 23.26ZM36.4065 18.42H37.5945V27H36.4065V18.42ZM38.4095 21.94H41.2805V22.985H38.4095V21.94ZM39.2565 20.18H40.4335V27H39.2565V20.18ZM43.2878 18.42V27H42.0998V18.42H43.2878ZM45.3558 23.92C45.3558 23.546 45.2788 23.2637 45.1248 23.073C44.9782 22.8823 44.7398 22.787 44.4098 22.787C44.1898 22.787 43.9955 22.8347 43.8268 22.93C43.6582 23.0253 43.5262 23.1573 43.4308 23.326C43.3355 23.4947 43.2878 23.6927 43.2878 23.92H43.0018C43.0018 23.5167 43.0752 23.1573 43.2218 22.842C43.3685 22.5267 43.5738 22.2737 43.8378 22.083C44.1092 21.8923 44.4355 21.797 44.8168 21.797C45.1908 21.797 45.5062 21.8703 45.7628 22.017C46.0268 22.1637 46.2248 22.3837 46.3568 22.677C46.4888 22.963 46.5548 23.3223 46.5548 23.755V27H45.3558V23.92ZM48.8537 24.47C48.8537 24.7927 48.9234 25.075 49.0627 25.317C49.2021 25.5517 49.3891 25.7387 49.6237 25.878C49.8657 26.0173 50.1334 26.087 50.4267 26.087C50.6687 26.087 50.8997 26.0503 51.1197 25.977C51.3397 25.9037 51.5341 25.801 51.7027 25.669C51.8714 25.537 51.9961 25.3903 52.0767 25.229V26.538C51.9007 26.714 51.6624 26.8533 51.3617 26.956C51.0611 27.0587 50.7311 27.11 50.3717 27.11C49.8511 27.11 49.3817 27 48.9637 26.78C48.5531 26.5527 48.2267 26.241 47.9847 25.845C47.7501 25.4417 47.6327 24.9833 47.6327 24.47C47.6327 23.9493 47.7501 23.491 47.9847 23.095C48.2267 22.699 48.5531 22.391 48.9637 22.171C49.3817 21.9437 49.8511 21.83 50.3717 21.83C50.7311 21.83 51.0611 21.8813 51.3617 21.984C51.6624 22.0867 51.9007 22.226 52.0767 22.402V23.711C51.9961 23.5423 51.8677 23.3957 51.6917 23.271C51.5231 23.139 51.3287 23.0363 51.1087 22.963C50.8887 22.8897 50.6614 22.853 50.4267 22.853C50.1334 22.853 49.8657 22.9227 49.6237 23.062C49.3891 23.2013 49.2021 23.392 49.0627 23.634C48.9234 23.876 48.8537 24.1547 48.8537 24.47ZM54.5779 18.42V27H53.3899V18.42H54.5779ZM56.6459 23.92C56.6459 23.546 56.5689 23.2637 56.4149 23.073C56.2682 22.8823 56.0299 22.787 55.6999 22.787C55.4799 22.787 55.2855 22.8347 55.1169 22.93C54.9482 23.0253 54.8162 23.1573 54.7209 23.326C54.6255 23.4947 54.5779 23.6927 54.5779 23.92H54.2919C54.2919 23.5167 54.3652 23.1573 54.5119 22.842C54.6585 22.5267 54.8639 22.2737 55.1279 22.083C55.3992 21.8923 55.7255 21.797 56.1069 21.797C56.4809 21.797 56.7962 21.8703 57.0529 22.017C57.3169 22.1637 57.5149 22.3837 57.6469 22.677C57.7789 22.963 57.8449 23.3223 57.8449 23.755V27H56.6459V23.92ZM61.5518 27.11C61.0384 27.11 60.5838 27 60.1878 26.78C59.7991 26.56 59.4984 26.252 59.2858 25.856C59.0731 25.46 58.9668 24.998 58.9668 24.47C58.9668 23.9347 59.0731 23.469 59.2858 23.073C59.5058 22.677 59.8138 22.3727 60.2098 22.16C60.6058 21.94 61.0714 21.83 61.6068 21.83C62.1421 21.83 62.5968 21.9327 62.9708 22.138C63.3448 22.3433 63.6308 22.6403 63.8288 23.029C64.0341 23.4103 64.1368 23.8723 64.1368 24.415C64.1368 24.4737 64.1331 24.536 64.1258 24.602C64.1258 24.668 64.1221 24.7157 64.1148 24.745H59.6708V23.931H63.1028L62.7398 24.437C62.7618 24.393 62.7838 24.3343 62.8058 24.261C62.8351 24.1803 62.8498 24.1143 62.8498 24.063C62.8498 23.7917 62.7948 23.557 62.6848 23.359C62.5821 23.161 62.4354 23.007 62.2448 22.897C62.0614 22.787 61.8451 22.732 61.5958 22.732C61.2951 22.732 61.0384 22.798 60.8258 22.93C60.6131 23.062 60.4518 23.2527 60.3418 23.502C60.2318 23.7513 60.1731 24.0593 60.1658 24.426C60.1658 24.7927 60.2208 25.1043 60.3308 25.361C60.4408 25.6103 60.6021 25.801 60.8148 25.933C61.0348 26.065 61.2988 26.131 61.6068 26.131C61.9294 26.131 62.2118 26.065 62.4538 25.933C62.6958 25.801 62.8974 25.5993 63.0588 25.328L64.0818 25.746C63.8178 26.2007 63.4768 26.5417 63.0588 26.769C62.6408 26.9963 62.1384 27.11 61.5518 27.11ZM66.0627 24.47C66.0627 24.7927 66.1324 25.075 66.2717 25.317C66.4111 25.5517 66.5981 25.7387 66.8327 25.878C67.0747 26.0173 67.3424 26.087 67.6357 26.087C67.8777 26.087 68.1087 26.0503 68.3287 25.977C68.5487 25.9037 68.7431 25.801 68.9117 25.669C69.0804 25.537 69.2051 25.3903 69.2857 25.229V26.538C69.1097 26.714 68.8714 26.8533 68.5707 26.956C68.2701 27.0587 67.9401 27.11 67.5807 27.11C67.0601 27.11 66.5907 27 66.1727 26.78C65.7621 26.5527 65.4357 26.241 65.1937 25.845C64.9591 25.4417 64.8417 24.9833 64.8417 24.47C64.8417 23.9493 64.9591 23.491 65.1937 23.095C65.4357 22.699 65.7621 22.391 66.1727 22.171C66.5907 21.9437 67.0601 21.83 67.5807 21.83C67.9401 21.83 68.2701 21.8813 68.5707 21.984C68.8714 22.0867 69.1097 22.226 69.2857 22.402V23.711C69.2051 23.5423 69.0767 23.3957 68.9007 23.271C68.7321 23.139 68.5377 23.0363 68.3177 22.963C68.0977 22.8897 67.8704 22.853 67.6357 22.853C67.3424 22.853 67.0747 22.9227 66.8327 23.062C66.5981 23.2013 66.4111 23.392 66.2717 23.634C66.1324 23.876 66.0627 24.1547 66.0627 24.47ZM70.5548 18.42H71.7208V27H70.5548V18.42ZM73.5798 21.94H75.0318L72.8538 24.03L75.2518 27H73.8108L71.3908 24.03L73.5798 21.94ZM76.2761 25.339C76.4375 25.515 76.5988 25.669 76.7601 25.801C76.9288 25.9257 77.0975 26.021 77.2661 26.087C77.4348 26.1457 77.6035 26.175 77.7721 26.175C77.9848 26.175 78.1498 26.1273 78.2671 26.032C78.3918 25.9367 78.4541 25.8047 78.4541 25.636C78.4541 25.4893 78.4065 25.3647 78.3111 25.262C78.2158 25.152 78.0838 25.0603 77.9151 24.987C77.7465 24.9063 77.5485 24.8257 77.3211 24.745C77.0938 24.657 76.8665 24.5543 76.6391 24.437C76.4191 24.3123 76.2358 24.151 76.0891 23.953C75.9498 23.755 75.8801 23.5057 75.8801 23.205C75.8801 22.897 75.9571 22.6403 76.1111 22.435C76.2725 22.2297 76.4851 22.0793 76.7491 21.984C77.0205 21.8813 77.3101 21.83 77.6181 21.83C77.8968 21.83 78.1571 21.8703 78.3991 21.951C78.6485 22.0317 78.8721 22.138 79.0701 22.27C79.2681 22.402 79.4368 22.5523 79.5761 22.721L78.9161 23.425C78.7475 23.227 78.5458 23.0657 78.3111 22.941C78.0765 22.8163 77.8345 22.754 77.5851 22.754C77.4165 22.754 77.2771 22.7907 77.1671 22.864C77.0571 22.9373 77.0021 23.0437 77.0021 23.183C77.0021 23.3003 77.0498 23.4067 77.1451 23.502C77.2478 23.59 77.3798 23.6707 77.5411 23.744C77.7098 23.8173 77.8968 23.8943 78.1021 23.975C78.3808 24.085 78.6375 24.206 78.8721 24.338C79.1068 24.47 79.2938 24.6313 79.4331 24.822C79.5798 25.0127 79.6531 25.262 79.6531 25.57C79.6531 26.0467 79.4881 26.4317 79.1581 26.725C78.8355 27.011 78.3955 27.154 77.8381 27.154C77.4935 27.154 77.1745 27.1027 76.8811 27C76.5951 26.89 76.3421 26.7507 76.1221 26.582C75.9095 26.406 75.7298 26.2227 75.5831 26.032L76.2761 25.339Z" fill="white"/>
<path d="M181.476 54.9216L187.05 49.6716H175.902L181.476 54.9216Z" fill="#25272D" fill-opacity="0.95"/>
<rect x="121" y="31" width="122" height="19" rx="4" fill="#25272D" fill-opacity="0.95"/>
<path d="M127.22 44L130.861 40.117C131.03 39.9337 131.173 39.754 131.29 39.578C131.415 39.3947 131.506 39.2113 131.565 39.028C131.631 38.8373 131.664 38.6393 131.664 38.434C131.664 38.2653 131.631 38.1003 131.565 37.939C131.499 37.7777 131.4 37.631 131.268 37.499C131.143 37.367 130.989 37.2607 130.806 37.18C130.623 37.0993 130.414 37.059 130.179 37.059C129.849 37.059 129.563 37.136 129.321 37.29C129.086 37.4367 128.907 37.653 128.782 37.939C128.657 38.2177 128.595 38.5513 128.595 38.94H127.66C127.66 38.39 127.759 37.9097 127.957 37.499C128.155 37.081 128.441 36.7583 128.815 36.531C129.196 36.2963 129.651 36.179 130.179 36.179C130.604 36.179 130.971 36.2523 131.279 36.399C131.587 36.5383 131.84 36.7217 132.038 36.949C132.236 37.169 132.383 37.4073 132.478 37.664C132.573 37.9207 132.621 38.1663 132.621 38.401C132.621 38.797 132.526 39.1893 132.335 39.578C132.144 39.9667 131.899 40.315 131.598 40.623L129.145 43.12H132.654V44H127.22ZM134.143 37.818V36.85L136.783 36.19V44H135.848V37.312L134.143 37.818ZM143.13 41.69L143.46 40.81H146.87L147.2 41.69H143.13ZM145.143 38.038L143.845 41.096L143.757 41.294L142.613 44H141.568L145.143 35.915L148.718 44H147.673L146.551 41.36L146.463 41.14L145.143 38.038ZM150.265 42.02C150.265 42.4233 150.356 42.735 150.54 42.955C150.723 43.175 150.991 43.285 151.343 43.285C151.599 43.285 151.823 43.2337 152.014 43.131C152.212 43.021 152.362 42.8707 152.465 42.68C152.575 42.4893 152.63 42.2693 152.63 42.02V38.94H153.51V44H152.63V43.208C152.461 43.5087 152.252 43.736 152.003 43.89C151.753 44.0367 151.46 44.11 151.123 44.11C150.595 44.11 150.173 43.9303 149.858 43.571C149.542 43.2117 149.385 42.7313 149.385 42.13V38.94H150.265V42.02ZM154.823 44.33H155.714C155.714 44.572 155.78 44.7957 155.912 45.001C156.044 45.2137 156.231 45.3823 156.473 45.507C156.715 45.639 157.001 45.705 157.331 45.705C157.588 45.705 157.841 45.6427 158.09 45.518C158.339 45.3933 158.545 45.1953 158.706 44.924C158.875 44.66 158.959 44.3153 158.959 43.89V38.94H159.839V43.89C159.839 44.4693 159.718 44.9533 159.476 45.342C159.234 45.738 158.922 46.035 158.541 46.233C158.16 46.431 157.756 46.53 157.331 46.53C156.84 46.53 156.403 46.4383 156.022 46.255C155.648 46.0717 155.355 45.8113 155.142 45.474C154.929 45.144 154.823 44.7627 154.823 44.33ZM154.724 41.47C154.724 40.92 154.838 40.4507 155.065 40.062C155.292 39.666 155.597 39.3617 155.978 39.149C156.359 38.9363 156.777 38.83 157.232 38.83C157.657 38.83 158.028 38.9363 158.343 39.149C158.658 39.3617 158.904 39.666 159.08 40.062C159.263 40.4507 159.355 40.92 159.355 41.47C159.355 42.0127 159.263 42.482 159.08 42.878C158.904 43.274 158.658 43.5783 158.343 43.791C158.028 44.0037 157.657 44.11 157.232 44.11C156.777 44.11 156.359 44.0037 155.978 43.791C155.597 43.5783 155.292 43.274 155.065 42.878C154.838 42.482 154.724 42.0127 154.724 41.47ZM155.615 41.47C155.615 41.8587 155.692 42.1887 155.846 42.46C156.007 42.7313 156.22 42.9367 156.484 43.076C156.748 43.2153 157.034 43.285 157.342 43.285C157.599 43.285 157.852 43.2153 158.101 43.076C158.35 42.9367 158.556 42.7313 158.717 42.46C158.878 42.1887 158.959 41.8587 158.959 41.47C158.959 41.1767 158.911 40.92 158.816 40.7C158.721 40.4727 158.592 40.282 158.431 40.128C158.277 39.974 158.105 39.8567 157.914 39.776C157.723 39.6953 157.533 39.655 157.342 39.655C157.034 39.655 156.748 39.7247 156.484 39.864C156.22 40.0033 156.007 40.2087 155.846 40.48C155.692 40.7513 155.615 41.0813 155.615 41.47ZM164.13 44L167.771 40.117C167.94 39.9337 168.083 39.754 168.2 39.578C168.325 39.3947 168.416 39.2113 168.475 39.028C168.541 38.8373 168.574 38.6393 168.574 38.434C168.574 38.2653 168.541 38.1003 168.475 37.939C168.409 37.7777 168.31 37.631 168.178 37.499C168.053 37.367 167.899 37.2607 167.716 37.18C167.533 37.0993 167.324 37.059 167.089 37.059C166.759 37.059 166.473 37.136 166.231 37.29C165.996 37.4367 165.817 37.653 165.692 37.939C165.567 38.2177 165.505 38.5513 165.505 38.94H164.57C164.57 38.39 164.669 37.9097 164.867 37.499C165.065 37.081 165.351 36.7583 165.725 36.531C166.106 36.2963 166.561 36.179 167.089 36.179C167.514 36.179 167.881 36.2523 168.189 36.399C168.497 36.5383 168.75 36.7217 168.948 36.949C169.146 37.169 169.293 37.4073 169.388 37.664C169.483 37.9207 169.531 38.1663 169.531 38.401C169.531 38.797 169.436 39.1893 169.245 39.578C169.054 39.9667 168.809 40.315 168.508 40.623L166.055 43.12H169.564V44H164.13ZM171.548 40.15C171.548 40.5973 171.592 41.0117 171.68 41.393C171.768 41.767 171.896 42.0933 172.065 42.372C172.234 42.6433 172.435 42.856 172.67 43.01C172.912 43.1567 173.18 43.23 173.473 43.23C173.774 43.23 174.041 43.1567 174.276 43.01C174.511 42.856 174.712 42.6433 174.881 42.372C175.05 42.0933 175.178 41.767 175.266 41.393C175.354 41.0117 175.398 40.5973 175.398 40.15C175.398 39.7027 175.354 39.292 175.266 38.918C175.178 38.5367 175.05 38.2103 174.881 37.939C174.712 37.6603 174.511 37.4477 174.276 37.301C174.041 37.147 173.774 37.07 173.473 37.07C173.18 37.07 172.912 37.147 172.67 37.301C172.435 37.4477 172.234 37.6603 172.065 37.939C171.896 38.2103 171.768 38.5367 171.68 38.918C171.592 39.292 171.548 39.7027 171.548 40.15ZM170.613 40.15C170.613 39.38 170.734 38.698 170.976 38.104C171.218 37.51 171.552 37.0443 171.977 36.707C172.41 36.3623 172.908 36.19 173.473 36.19C174.038 36.19 174.533 36.3623 174.958 36.707C175.391 37.0443 175.728 37.51 175.97 38.104C176.212 38.698 176.333 39.38 176.333 40.15C176.333 40.92 176.212 41.602 175.97 42.196C175.728 42.79 175.391 43.2593 174.958 43.604C174.533 43.9413 174.038 44.11 173.473 44.11C172.908 44.11 172.41 43.9413 171.977 43.604C171.552 43.2593 171.218 42.79 170.976 42.196C170.734 41.602 170.613 40.92 170.613 40.15ZM176.989 44L180.63 40.117C180.798 39.9337 180.941 39.754 181.059 39.578C181.183 39.3947 181.275 39.2113 181.334 39.028C181.4 38.8373 181.433 38.6393 181.433 38.434C181.433 38.2653 181.4 38.1003 181.334 37.939C181.268 37.7777 181.169 37.631 181.037 37.499C180.912 37.367 180.758 37.2607 180.575 37.18C180.391 37.0993 180.182 37.059 179.948 37.059C179.618 37.059 179.332 37.136 179.09 37.29C178.855 37.4367 178.675 37.653 178.551 37.939C178.426 38.2177 178.364 38.5513 178.364 38.94H177.429C177.429 38.39 177.528 37.9097 177.726 37.499C177.924 37.081 178.21 36.7583 178.584 36.531C178.965 36.2963 179.42 36.179 179.948 36.179C180.373 36.179 180.74 36.2523 181.048 36.399C181.356 36.5383 181.609 36.7217 181.807 36.949C182.005 37.169 182.151 37.4073 182.247 37.664C182.342 37.9207 182.39 38.1663 182.39 38.401C182.39 38.797 182.294 39.1893 182.104 39.578C181.913 39.9667 181.667 40.315 181.367 40.623L178.914 43.12H182.423V44H176.989ZM188.795 41.47C188.795 41.91 188.726 42.295 188.586 42.625C188.447 42.955 188.253 43.23 188.003 43.45C187.754 43.67 187.468 43.835 187.145 43.945C186.823 44.055 186.474 44.11 186.1 44.11C185.631 44.11 185.22 44.0367 184.868 43.89C184.524 43.7433 184.227 43.549 183.977 43.307C183.735 43.0577 183.53 42.7863 183.361 42.493L184.153 41.954C184.271 42.174 184.425 42.383 184.615 42.581C184.813 42.7717 185.041 42.9293 185.297 43.054C185.554 43.1713 185.822 43.23 186.1 43.23C186.467 43.23 186.779 43.1567 187.035 43.01C187.292 42.8633 187.486 42.658 187.618 42.394C187.758 42.13 187.827 41.822 187.827 41.47C187.827 41.118 187.75 40.81 187.596 40.546C187.45 40.282 187.244 40.0767 186.98 39.93C186.724 39.7833 186.43 39.71 186.1 39.71C185.858 39.71 185.635 39.732 185.429 39.776C185.231 39.8127 185.03 39.8823 184.824 39.985C184.626 40.0803 184.395 40.2197 184.131 40.403L185.143 36.3H188.773V37.125H185.869L185.352 39.16C185.536 39.0647 185.723 38.995 185.913 38.951C186.111 38.8997 186.306 38.874 186.496 38.874C186.936 38.874 187.329 38.984 187.673 39.204C188.025 39.424 188.3 39.7283 188.498 40.117C188.696 40.5057 188.795 40.9567 188.795 41.47ZM192.593 41.8V40.975H194.793V41.8H192.593ZM198.366 42.46L202.634 36.3H203.019V44H202.084V42.064V41.943V38.379L199.906 41.635H202.469H202.656H204.229V42.46H198.366ZM205.604 43.56C205.604 43.3913 205.662 43.2483 205.78 43.131C205.904 43.0137 206.047 42.955 206.209 42.955C206.377 42.955 206.52 43.0137 206.638 43.131C206.755 43.2483 206.814 43.3913 206.814 43.56C206.814 43.7213 206.755 43.8643 206.638 43.989C206.52 44.1063 206.377 44.165 206.209 44.165C206.047 44.165 205.904 44.1063 205.78 43.989C205.662 43.8643 205.604 43.7213 205.604 43.56ZM205.604 39.38C205.604 39.2113 205.662 39.0683 205.78 38.951C205.904 38.8337 206.047 38.775 206.209 38.775C206.377 38.775 206.52 38.8337 206.638 38.951C206.755 39.0683 206.814 39.2113 206.814 39.38C206.814 39.5413 206.755 39.6843 206.638 39.809C206.52 39.9263 206.377 39.985 206.209 39.985C206.047 39.985 205.904 39.9263 205.78 39.809C205.662 39.6843 205.604 39.5413 205.604 39.38ZM208.736 37.818V36.85L211.376 36.19V44H210.441V37.312L208.736 37.818ZM213.139 37.18V36.3H218.529L214.844 44H213.865L217.132 37.18H213.139ZM222.766 36.3H223.701V44H222.766V36.3ZM223.283 37.18V36.3H224.856C225.354 36.3 225.798 36.3953 226.187 36.586C226.583 36.7693 226.894 37.0333 227.122 37.378C227.356 37.7227 227.474 38.1333 227.474 38.61C227.474 39.0793 227.356 39.49 227.122 39.842C226.894 40.1867 226.583 40.4543 226.187 40.645C225.798 40.8283 225.354 40.92 224.856 40.92H223.283V40.04H224.856C225.354 40.04 225.758 39.919 226.066 39.677C226.381 39.435 226.539 39.0793 226.539 38.61C226.539 38.1333 226.381 37.7777 226.066 37.543C225.758 37.301 225.354 37.18 224.856 37.18H223.283ZM229.859 38.797L229.287 44H228.352L229.287 35.915L232.367 41.492L235.447 35.915L236.382 44H235.447L234.875 38.797L232.367 43.285L229.859 38.797Z" fill="white"/>
<defs>
<filter id="filter0_d_12_28" x="124" y="32" width="20" height="20" filterUnits="userSpaceOnUse" color-interpolation-filters="sRGB">
<feFlood flood-opacity="0" result="BackgroundImageFix"/>
<feColorMatrix in="SourceAlpha" type="matrix" values="0 0 0 0 0 0 0 0 0 0 0 0 0 0 0 0 0 0 127 0" result="hardAlpha"/>
<feOffset/>
<feGaussianBlur stdDeviation="2"/>
<feComposite in2="hardAlpha" operator="out"/>
<feColorMatrix type="matrix" values="0 0 0 0 0.984314 0 0 0 0 0.172549 0 0 0 0 0.211765 0 0 0 0.2 0"/>
<feBlend mode="normal" in2="BackgroundImageFix" result="effect1_dropShadow_12_28"/>
<feBlend mode="normal" in="SourceGraphic" in2="effect1_dropShadow_12_28" result="shape"/>
</filter>
<filter id="filter1_d_12_28" x="140" y="32" width="20" height="20" filterUnits="userSpaceOnUse" color-interpolation-filters="sRGB">
<feFlood flood-opacity="0" result="BackgroundImageFix"/>
<feColorMatrix in="SourceAlpha" type="matrix" values="0 0 0 0 0 0 0 0 0 0 0 0 0 0 0 0 0 0 127 0" result="hardAlpha"/>
<feOffset/>
<feGaussianBlur stdDeviation="2"/>
<feComposite in2="hardAlpha" operator="out"/>
<feColorMatrix type="matrix" values="0 0 0 0 0.984314 0 0 0 0 0.172549 0 0 0 0 0.211765 0 0 0 0.2 0"/>
<feBlend mode="normal" in2="BackgroundImageFix" result="effect1_dropShadow_12_28"/>
<feBlend mode="normal" in="SourceGraphic" in2="effect1_dropShadow_12_28" result="shape"/>
</filter>
<filter id="filter2_d_12_28" x="188" y="32" width="20" height="20" filterUnits="userSpaceOnUse" color-interpolation-filters="sRGB">
<feFlood flood-opacity="0" result="BackgroundImageFix"/>
<feColorMatrix in="SourceAlpha" type="matrix" values="0 0 0 0 0 0 0 0 0 0 0 0 0 0 0 0 0 0 127 0" result="hardAlpha"/>
<feOffset/>
<feGaussianBlur stdDeviation="2"/>
<feComposite in2="hardAlpha" operator="out"/>
<feColorMatrix type="matrix" values="0 0 0 0 0.984314 0 0 0 0 0.172549 0 0 0 0 0.211765 0 0 0 0.2 0"/>
<feBlend mode="normal" in2="BackgroundImageFix" result="effect1_dropShadow_12_28"/>
<feBlend mode="normal" in="SourceGraphic" in2="effect1_dropShadow_12_28" result="shape"/>
</filter>
<filter id="filter3_d_12_28" x="156" y="48" width="20" height="20" filterUnits="userSpaceOnUse" color-interpolation-filters="sRGB">
<feFlood flood-opacity="0" result="BackgroundImageFix"/>
<feColorMatrix in="SourceAlpha" type="matrix" values="0 0 0 0 0 0 0 0 0 0 0 0 0 0 0 0 0 0 127 0" result="hardAlpha"/>
<feOffset/>
<feGaussianBlur stdDeviation="2"/>
<feComposite in2="hardAlpha" operator="out"/>
<feColorMatrix type="matrix" values="0 0 0 0 0.984314 0 0 0 0 0.172549 0 0 0 0 0.211765 0 0 0 0.2 0"/>
<feBlend mode="normal" in2="BackgroundImageFix" result="effect1_dropShadow_12_28"/>
<feBlend mode="normal" in="SourceGraphic" in2="effect1_dropShadow_12_28" result="shape"/>
</filter>
<filter id="filter4_d_12_28" x="172" y="48" width="20" height="20" filterUnits="userSpaceOnUse" color-interpolation-filters="sRGB">
<feFlood flood-opacity="0" result="BackgroundImageFix"/>
<feColorMatrix in="SourceAlpha" type="matrix" values="0 0 0 0 0 0 0 0 0 0 0 0 0 0 0 0 0 0 127 0" result="hardAlpha"/>
<feOffset/>
<feGaussianBlur stdDeviation="2"/>
<feComposite in2="hardAlpha" operator="out"/>
<feColorMatrix type="matrix" values="0 0 0 0 0.984314 0 0 0 0 0.172549 0 0 0 0 0.211765 0 0 0 0.2 0"/>
<feBlend mode="normal" in2="BackgroundImageFix" result="effect1_dropShadow_12_28"/>
<feBlend mode="normal" in="SourceGraphic" in2="effect1_dropShadow_12_28" result="shape"/>
</filter>
</defs>
</svg>
