<svg width="264" height="44" viewBox="0 0 264 44" fill="none" xmlns="http://www.w3.org/2000/svg">
<rect x="0.5" y="0.5" width="263" height="43" rx="5.5" stroke="#2C2F35"/>
<path d="M30.8788 20.9653C32.0689 20.9653 33.0336 20.0005 33.0336 18.8104C33.0336 17.6204 32.0688 16.6556 30.8787 16.6556C29.6886 16.6556 28.7236 17.6205 28.7236 18.8106V20.9653H30.8788ZM24.8446 20.9653C26.0348 20.9653 26.9996 20.0005 26.9996 18.8103V12.7766C26.9996 11.5864 26.0348 10.6216 24.8446 10.6216C23.6544 10.6216 22.6896 11.5864 22.6896 12.7766V18.8103C22.6896 20.0005 23.6544 20.9653 24.8446 20.9653Z" fill="#2EB67D"/>
<path d="M12.7764 22.6899C11.5863 22.6899 10.6216 23.6547 10.6216 24.8448C10.6216 26.0349 11.5864 26.9996 12.7765 26.9996C13.9666 26.9996 14.9316 26.0348 14.9316 24.8446V22.6899H12.7764ZM18.8106 22.6899C17.6204 22.6899 16.6556 23.6548 16.6556 24.845V30.8786C16.6556 32.0688 17.6204 33.0336 18.8106 33.0336C20.0007 33.0336 20.9656 32.0688 20.9656 30.8786V24.845C20.9656 23.6548 20.0007 22.6899 18.8106 22.6899Z" fill="#E01E5A"/>
<path d="M22.6899 30.8789C22.6899 32.069 23.6546 33.0337 24.8447 33.0337C26.0348 33.0337 26.9996 32.0689 26.9996 30.8788C26.9996 29.6886 26.0347 28.7237 24.8445 28.7237H22.6899V30.8789ZM22.6899 24.8447C22.6899 26.0349 23.6547 26.9997 24.8449 26.9997H30.8786C32.0687 26.9997 33.0336 26.0349 33.0336 24.8447C33.0336 23.6545 32.0687 22.6897 30.8786 22.6897H24.8449C23.6547 22.6897 22.6899 23.6545 22.6899 24.8447Z" fill="#ECB22E"/>
<path d="M20.9653 12.7764C20.9653 11.5863 20.0005 10.6216 18.8104 10.6216C17.6203 10.6216 16.6556 11.5864 16.6556 12.7765C16.6556 13.9667 17.6204 14.9316 18.8106 14.9316H20.9653V12.7764ZM20.9653 18.8106C20.9653 17.6205 20.0004 16.6556 18.8102 16.6556H12.7766C11.5864 16.6556 10.6216 17.6205 10.6216 18.8106C10.6216 20.0008 11.5864 20.9656 12.7766 20.9656H18.8102C20.0004 20.9656 20.9653 20.0008 20.9653 18.8106Z" fill="#36C5F0"/>
<line x1="44.5747" x2="44.5747" y2="44" stroke="#2C2F35" stroke-width="1.14934"/>
<path d="M66 8.20801C58.3827 8.20801 52.2079 14.3829 52.2079 22.0001C52.2079 29.6173 58.3827 35.7921 66 35.7921C73.6174 35.7921 79.7921 29.6173 79.7921 22.0001C79.7921 14.3829 73.6174 8.20801 66 8.20801Z" fill="#40B3E0"/>
<path d="M72.7111 16.1417L70.2479 28.5618C70.2479 28.5618 69.903 29.4231 68.9559 29.0097L63.2711 24.6514L61.2041 23.6523L57.7243 22.4809C57.7243 22.4809 57.1902 22.2914 57.1385 21.878C57.0868 21.4646 57.7416 21.2407 57.7416 21.2407L71.574 15.8143C71.574 15.8143 72.7111 15.3148 72.7111 16.1417Z" fill="white"/>
<path d="M62.834 28.4224C62.834 28.4224 62.6678 28.4069 62.4613 27.7521C62.2544 27.0976 61.2038 23.6524 61.2038 23.6524L69.5583 18.3467C69.5583 18.3467 70.0407 18.0538 70.0235 18.3467C70.0235 18.3467 70.1097 18.3983 69.8514 18.6395C69.5928 18.8807 63.2881 24.5481 63.2881 24.5481" fill="#D2E5F1"/>
<path d="M62.834 28.4224C62.834 28.4224 62.6678 28.4069 62.4613 27.7521C62.2544 27.0976 61.2038 23.6524 61.2038 23.6524L69.5583 18.3467C69.5583 18.3467 70.0407 18.0538 70.0235 18.3467C70.0235 18.3467 70.1097 18.3983 69.8514 18.6395C69.5928 18.8807 63.2881 24.5481 63.2881 24.5481L65.4508 26.3225L63.2023 28.3725C63.2023 28.3725 63.0264 28.506 62.834 28.4224Z" fill="#D2E5F1"/>
<line x1="88.5747" x2="88.5747" y2="44" stroke="#2C2F35" stroke-width="1.14934"/>
<path d="M114.456 18.8542H121.334C121.984 18.8542 122.511 19.3757 122.511 20.02V26.2325C122.511 26.7963 122.398 27.3544 122.181 27.8751C121.963 28.3957 121.644 28.8687 121.243 29.267C120.841 29.6652 120.364 29.981 119.84 30.1963C119.316 30.4116 118.754 30.5221 118.186 30.5216H118.167C117.6 30.5221 117.038 30.4116 116.513 30.1963C115.989 29.981 115.512 29.6652 115.11 29.267C114.709 28.8687 114.39 28.3957 114.172 27.8751C113.955 27.3544 113.842 26.7963 113.842 26.2325V19.4664C113.842 19.1282 114.118 18.8542 114.456 18.8542ZM119.107 17.626C120.643 17.626 121.891 16.3885 121.891 14.8637C121.891 13.337 120.643 12.0994 119.105 12.0994C117.566 12.0994 116.318 13.337 116.318 14.8637C116.318 16.3885 117.566 17.626 119.105 17.626H119.107Z" fill="#5059C9"/>
<path d="M110.886 17.6803C111.39 17.681 111.889 17.5814 112.355 17.3872C112.821 17.1929 113.245 16.9077 113.601 16.548C113.958 16.1884 114.241 15.7612 114.435 15.2909C114.628 14.8206 114.728 14.3164 114.728 13.8072C114.728 13.2976 114.628 12.7931 114.435 12.3224C114.242 11.8518 113.958 11.4243 113.601 11.0644C113.244 10.7045 112.82 10.4192 112.354 10.225C111.888 10.0307 111.388 9.93117 110.884 9.93214C110.38 9.93165 109.881 10.0315 109.416 10.2258C108.95 10.4202 108.527 10.7054 108.17 11.0651C107.814 11.4247 107.53 11.8518 107.337 12.322C107.144 12.7922 107.044 13.2962 107.044 13.8053C107.044 15.9455 108.762 17.6803 110.884 17.6803H110.886ZM116.008 18.8724H105.172C104.879 18.8796 104.6 19.0043 104.397 19.2193C104.194 19.4342 104.084 19.7216 104.091 20.0185V26.8956C104.051 28.6781 104.713 30.4035 105.932 31.6929C107.151 32.9824 108.826 33.7304 110.59 33.7727C112.355 33.7309 114.03 32.983 115.249 31.6936C116.468 30.4041 117.131 28.6784 117.091 26.8956V20.0185C117.095 19.8714 117.069 19.725 117.017 19.5877C116.964 19.4505 116.885 19.325 116.785 19.2186C116.684 19.1122 116.564 19.0268 116.43 18.9674C116.297 18.908 116.153 18.8757 116.008 18.8724Z" fill="#7B83EB"/>
<path opacity="0.1" d="M110.59 18.6028C110.59 18.6023 110.591 18.6026 110.591 18.6034V28.3357C110.59 28.6278 110.485 28.9076 110.299 29.1141C110.113 29.3205 109.862 29.4369 109.6 29.4379H107.356C105.682 29.4379 104.09 28.378 104.089 26.7037V19.759C104.086 19.6105 104.109 19.4627 104.158 19.3241C104.206 19.1856 104.278 19.059 104.371 18.9516C104.463 18.8443 104.573 18.7582 104.696 18.6984C104.818 18.6386 104.949 18.6062 105.082 18.6031H110.589L110.59 18.6028Z" fill="black"/>
<path opacity="0.2" d="M110.59 18.603L110.589 18.6037V29.3732C110.587 29.6773 110.472 29.9682 110.27 30.1831C110.067 30.398 109.793 30.5196 109.507 30.5216H106.234C105.407 30.5216 104.618 30.0654 104.402 29.2671C104.195 28.5476 104.09 27.7996 104.089 27.0474V19.8057C104.086 19.6511 104.111 19.4973 104.164 19.3531C104.216 19.2088 104.295 19.077 104.396 18.9652C104.496 18.8533 104.617 18.7637 104.75 18.7012C104.883 18.6388 105.026 18.6048 105.171 18.6013H110.589C110.59 18.6013 110.59 18.6024 110.59 18.603Z" fill="black"/>
<path opacity="0.2" d="M110.59 18.603L110.589 18.6037V28.2711C110.587 28.5801 110.472 28.8757 110.27 29.094C110.067 29.3124 109.793 29.4359 109.507 29.4379H106.685C105.334 29.4379 104.09 28.5338 104.089 27.1828V19.825C104.086 19.6679 104.111 19.5116 104.164 19.3651C104.216 19.2186 104.295 19.0847 104.396 18.971C104.496 18.8574 104.617 18.7662 104.75 18.7028C104.883 18.6394 105.026 18.6049 105.171 18.6013H110.589C110.59 18.6013 110.59 18.6024 110.59 18.603Z" fill="black"/>
<path opacity="0.2" d="M105.081 18.6013C107.526 18.6024 109.507 20.5847 109.507 23.0296V28.2711C109.505 28.5801 109.4 28.8757 109.214 29.094C109.029 29.3124 108.778 29.4359 108.516 29.4379H106.655C105.313 29.4379 104.09 28.5248 104.089 27.1828V19.825C104.086 19.6679 104.109 19.5116 104.158 19.3651C104.206 19.2186 104.278 19.0847 104.37 18.971C104.462 18.8574 104.572 18.7662 104.694 18.7028C104.816 18.6394 104.948 18.6049 105.081 18.6013Z" fill="black"/>
<path opacity="0.1" d="M110.591 16.1439V17.2709C110.591 17.4046 110.486 17.5177 110.352 17.5177C110.272 17.5177 110.196 17.5137 110.114 17.5097C109.46 17.4637 108.839 17.2299 108.341 16.8418C107.611 16.2737 108.244 15.3503 109.169 15.3503H109.719C109.949 15.351 110.17 15.4346 110.334 15.583C110.497 15.7313 110.59 15.9324 110.591 16.1426V16.1439Z" fill="black"/>
<path opacity="0.2" d="M110.591 16.346C110.591 16.9793 110.043 17.4921 109.45 17.2715C109.162 17.1647 108.888 17.0257 108.635 16.8566C107.85 16.3336 108.409 15.3503 109.352 15.3503H109.51C109.796 15.3517 110.07 15.4569 110.272 15.6433C110.475 15.8297 110.589 16.0822 110.591 16.346Z" fill="black"/>
<path opacity="0.2" d="M110.591 16.346C110.591 16.9793 110.043 17.4921 109.45 17.2715C109.162 17.1647 108.888 17.0257 108.635 16.8566C107.85 16.3336 108.409 15.3503 109.352 15.3503H109.51C109.796 15.3517 110.07 15.4569 110.272 15.6433C110.475 15.8297 110.589 16.0822 110.591 16.346Z" fill="black"/>
<path opacity="0.2" d="M109.508 16.3886C109.508 16.956 108.956 17.3571 108.507 17.0093C108.402 16.9274 108.3 16.8378 108.203 16.7409C108.118 16.6559 108.037 16.5657 107.961 16.4709C107.566 15.9824 107.999 15.3503 108.627 15.3503C108.86 15.3517 109.084 15.4615 109.248 15.6559C109.413 15.8504 109.506 16.1137 109.508 16.3886Z" fill="black"/>
<path d="M98.5807 15.3503H108.514C109.063 15.3503 109.507 15.8359 109.507 16.4343V27.2703C109.507 27.4128 109.482 27.5539 109.432 27.6855C109.382 27.8172 109.309 27.9367 109.216 28.0374C109.124 28.1381 109.014 28.2179 108.894 28.2723C108.773 28.3266 108.644 28.3545 108.514 28.3542H98.579C98.4487 28.3542 98.3197 28.3262 98.1994 28.2717C98.079 28.2173 97.9697 28.1374 97.8777 28.0368C97.7856 27.9361 97.7125 27.8166 97.6625 27.6851C97.6129 27.5536 97.587 27.4126 97.587 27.2703V16.4343C97.587 15.8341 98.0315 15.3503 98.5807 15.3503Z" fill="#3F46B1"/>
<path d="M106.256 19.2174C106.256 19.5585 105.98 19.8353 105.638 19.8353H105.227C104.659 19.8353 104.199 20.2955 104.199 20.8632V25.5317C104.199 25.8936 103.906 26.187 103.544 26.187C103.182 26.187 102.889 25.8936 102.889 25.5317V20.8605C102.889 20.2943 102.429 19.8353 101.863 19.8353H101.455C101.114 19.8353 100.838 19.559 100.838 19.2183C100.838 18.8775 101.114 18.6013 101.455 18.6013H105.638C105.979 18.6013 106.255 18.877 106.256 19.2174Z" fill="white"/>
<line x1="132.575" x2="132.575" y2="44" stroke="#2C2F35" stroke-width="1.14934"/>
<path d="M141.915 17.7242C143.483 13.0925 147.465 9.9607 151.984 9.25558C152.896 9.11352 153.384 10.1541 152.787 10.8586C152.622 11.0537 152.394 11.183 152.145 11.2389C149.098 11.9202 146.501 14.0652 145.455 17.1557C143.833 21.9474 146.552 27.1973 151.528 28.882C156.504 30.5664 161.853 28.0473 163.475 23.2559C164.518 20.1758 163.766 16.9064 161.775 14.5162C161.612 14.3207 161.51 14.0797 161.497 13.8252C161.451 12.9005 162.475 12.3698 163.113 13.0408C166.256 16.3454 167.505 21.2385 165.942 25.8574C163.696 32.4921 156.496 36.0498 149.862 33.8041C143.227 31.5577 139.669 24.3586 141.915 17.7242ZM157.614 10.2865C157.679 10.2586 157.754 10.2524 157.826 10.2769C157.896 10.301 157.951 10.3496 157.986 10.4093L157.993 10.4207L157.999 10.4341C158.016 10.4658 158.03 10.5024 158.037 10.5472C158.05 10.6355 158.056 10.843 158.058 11.0554L158.059 11.1134C158.059 11.1813 158.059 11.2482 158.059 11.3113V11.364C158.059 11.5358 158.058 11.6647 158.058 11.6647L158.108 13.5411L158.181 15.7072L158.273 19.4714C158.273 19.4714 158.273 19.472 158.273 19.4734L158.273 19.4796C158.273 19.481 158.273 19.4824 158.273 19.4841V19.4962C158.273 19.711 158.229 21.285 157.112 22.3787C155.912 23.5548 154.437 23.4473 153.478 23.1225C152.518 22.7977 151.282 21.9874 151.042 20.3237C150.839 18.91 151.591 17.7215 151.821 17.3967L151.836 17.3753C151.868 17.3319 151.886 17.3091 151.886 17.3091L154.245 14.3748L155.62 12.6991L156.799 11.2385C156.799 11.2385 156.973 11.0061 157.151 10.7775L157.187 10.7317C157.246 10.6558 157.305 10.5824 157.357 10.5196L157.387 10.4834C157.431 10.431 157.469 10.3889 157.495 10.3634C157.525 10.3338 157.557 10.3145 157.588 10.2996L157.61 10.2883L157.614 10.2865Z" fill="#0058CC"/>
<line x1="176.575" x2="176.575" y2="44" stroke="#2C2F35" stroke-width="1.14934"/>
<path d="M208.344 12.6904H187.656C186.518 12.6904 185.587 13.6214 185.587 14.7592V29.2409C185.587 30.3787 186.518 31.3097 187.656 31.3097H208.344C209.482 31.3097 210.413 30.3787 210.413 29.2409V14.7592C210.413 13.6214 209.482 12.6904 208.344 12.6904ZM207.103 16.828L198.724 23.4482C198.31 23.7586 197.69 23.7586 197.172 23.4482L188.897 16.9315C188.587 16.7246 188.483 16.2074 188.794 15.7936C189.104 15.4833 189.518 15.3799 189.932 15.5868L198 20.9657L206.172 15.5868C206.585 15.3799 207.103 15.4833 207.31 15.7936C207.516 16.104 207.413 16.6212 207.103 16.828Z" fill="#FFDF1D"/>
<line x1="220.575" x2="220.575" y2="44" stroke="#2C2F35" stroke-width="1.14934"/>
<path d="M238.5 24.3333H232.667C231.967 24.3333 231.5 23.8667 231.5 23.1667C231.5 22.4667 231.967 22 232.667 22H238.5C239.2 22 239.667 22.4667 239.667 23.1667C239.667 23.8667 239.2 24.3333 238.5 24.3333Z" fill="#9FA0A1"/>
<path d="M242 27.8334C241.3 27.8334 240.833 27.3667 240.833 26.6667V17.3334C240.833 16.6334 241.3 16.1667 242 16.1667H245.5C246.433 16.1667 247.367 16.5167 247.95 17.2167C248.65 17.8001 249 18.7334 249 19.6667V20.8334C249 21.7667 248.65 22.7001 247.95 23.2834C247.25 23.8667 246.433 24.3334 245.5 24.3334H243.167V26.6667C243.167 27.3667 242.7 27.8334 242 27.8334ZM243.167 22.0001H245.5C245.85 22.0001 246.083 21.8834 246.317 21.6501C246.55 21.4167 246.667 21.1834 246.667 20.8334V19.6667C246.667 19.3167 246.55 19.0834 246.317 18.8501C246.083 18.6167 245.85 18.5001 245.5 18.5001H243.167V22.0001Z" fill="#9FA0A1"/>
<path d="M251.333 27.8334C250.633 27.8334 250.167 27.3667 250.167 26.6667V17.3334C250.167 16.6334 250.633 16.1667 251.333 16.1667C252.033 16.1667 252.5 16.6334 252.5 17.3334V26.6667C252.5 27.3667 252.033 27.8334 251.333 27.8334Z" fill="#9FA0A1"/>
<path d="M238.5 27.8333C237.8 27.8333 237.333 27.3666 237.333 26.6666V20.25C237.333 19.7833 237.1 19.3166 236.867 18.9666C236.167 18.3833 235 18.3833 234.3 18.9666C234.067 19.3166 233.833 19.7833 233.833 20.25V26.6666C233.833 27.3666 233.367 27.8333 232.667 27.8333C231.967 27.8333 231.5 27.3666 231.5 26.6666V20.25C231.5 19.2 231.967 18.15 232.667 17.3333C234.183 15.8166 236.983 15.8166 238.5 17.3333C239.317 18.15 239.667 19.0833 239.667 20.25V26.6666C239.667 27.3666 239.2 27.8333 238.5 27.8333Z" fill="#9FA0A1"/>
</svg>
