<svg width="260" height="192" viewBox="0 0 260 192" fill="none" xmlns="http://www.w3.org/2000/svg">
<rect x="131.5" y="0.5" width="96" height="27" rx="7.5" stroke="#2C2F35"/>
<rect x="140" y="11.5" width="5" height="5" rx="2.5" fill="#155DFC"/>
<g clip-path="url(#clip0_12_83)">
<path d="M151.96 9.6H152.98V17.04H156.28V18H151.96V9.6ZM156.822 15.24C156.822 14.68 156.946 14.184 157.194 13.752C157.45 13.32 157.794 12.98 158.226 12.732C158.658 12.484 159.142 12.36 159.678 12.36C160.222 12.36 160.706 12.484 161.13 12.732C161.562 12.98 161.902 13.32 162.15 13.752C162.406 14.184 162.534 14.68 162.534 15.24C162.534 15.792 162.406 16.288 162.15 16.728C161.902 17.16 161.562 17.5 161.13 17.748C160.706 17.996 160.222 18.12 159.678 18.12C159.142 18.12 158.658 17.996 158.226 17.748C157.794 17.5 157.45 17.16 157.194 16.728C156.946 16.288 156.822 15.792 156.822 15.24ZM157.794 15.24C157.794 15.624 157.874 15.964 158.034 16.26C158.202 16.556 158.426 16.792 158.706 16.968C158.994 17.136 159.318 17.22 159.678 17.22C160.038 17.22 160.358 17.136 160.638 16.968C160.926 16.792 161.15 16.556 161.31 16.26C161.478 15.964 161.562 15.624 161.562 15.24C161.562 14.856 161.478 14.516 161.31 14.22C161.15 13.916 160.926 13.68 160.638 13.512C160.358 13.344 160.038 13.26 159.678 13.26C159.318 13.26 158.994 13.344 158.706 13.512C158.426 13.68 158.202 13.916 158.034 14.22C157.874 14.516 157.794 14.856 157.794 15.24ZM164.285 15.24C164.285 15.624 164.365 15.964 164.525 16.26C164.693 16.556 164.917 16.792 165.197 16.968C165.485 17.136 165.809 17.22 166.169 17.22C166.465 17.22 166.741 17.176 166.997 17.088C167.261 16.992 167.489 16.868 167.681 16.716C167.873 16.556 168.009 16.388 168.089 16.212V17.412C167.897 17.636 167.621 17.812 167.261 17.94C166.909 18.06 166.545 18.12 166.169 18.12C165.633 18.12 165.149 17.996 164.717 17.748C164.285 17.5 163.941 17.16 163.685 16.728C163.437 16.288 163.313 15.792 163.313 15.24C163.313 14.68 163.437 14.184 163.685 13.752C163.941 13.32 164.285 12.98 164.717 12.732C165.149 12.484 165.633 12.36 166.169 12.36C166.545 12.36 166.909 12.424 167.261 12.552C167.621 12.672 167.897 12.844 168.089 13.068V14.268C168.009 14.084 167.873 13.916 167.681 13.764C167.489 13.612 167.261 13.492 166.997 13.404C166.741 13.308 166.465 13.26 166.169 13.26C165.809 13.26 165.485 13.344 165.197 13.512C164.917 13.68 164.693 13.916 164.525 14.22C164.365 14.516 164.285 14.856 164.285 15.24ZM170.016 16.296C170.016 16.504 170.064 16.684 170.16 16.836C170.264 16.988 170.404 17.104 170.58 17.184C170.764 17.256 170.972 17.292 171.204 17.292C171.5 17.292 171.764 17.232 171.996 17.112C172.236 16.992 172.424 16.824 172.56 16.608C172.704 16.384 172.776 16.128 172.776 15.84L172.968 16.56C172.968 16.912 172.86 17.204 172.644 17.436C172.436 17.668 172.176 17.84 171.864 17.952C171.56 18.064 171.256 18.12 170.952 18.12C170.616 18.12 170.3 18.052 170.004 17.916C169.716 17.772 169.484 17.568 169.308 17.304C169.132 17.04 169.044 16.72 169.044 16.344C169.044 15.808 169.232 15.38 169.608 15.06C169.992 14.732 170.524 14.568 171.204 14.568C171.604 14.568 171.936 14.616 172.2 14.712C172.472 14.8 172.688 14.904 172.848 15.024C173.008 15.136 173.116 15.228 173.172 15.3V15.864C172.892 15.672 172.604 15.536 172.308 15.456C172.012 15.368 171.696 15.324 171.36 15.324C171.048 15.324 170.792 15.364 170.592 15.444C170.4 15.524 170.256 15.636 170.16 15.78C170.064 15.924 170.016 16.096 170.016 16.296ZM169.872 13.752L169.404 13.044C169.612 12.892 169.896 12.74 170.256 12.588C170.624 12.436 171.064 12.36 171.576 12.36C172.008 12.36 172.384 12.428 172.704 12.564C173.032 12.692 173.284 12.88 173.46 13.128C173.644 13.376 173.736 13.68 173.736 14.04V18H172.776V14.172C172.776 13.98 172.744 13.824 172.68 13.704C172.616 13.576 172.524 13.476 172.404 13.404C172.292 13.332 172.16 13.28 172.008 13.248C171.856 13.216 171.696 13.2 171.528 13.2C171.256 13.2 171.008 13.232 170.784 13.296C170.568 13.36 170.384 13.436 170.232 13.524C170.08 13.612 169.96 13.688 169.872 13.752ZM175.361 8.64H176.321V18H175.361V8.64ZM181.952 16.308C182.064 16.476 182.192 16.632 182.336 16.776C182.48 16.92 182.644 17.036 182.828 17.124C183.02 17.204 183.228 17.244 183.452 17.244C183.724 17.244 183.936 17.184 184.088 17.064C184.248 16.936 184.328 16.764 184.328 16.548C184.328 16.356 184.264 16.196 184.136 16.068C184.016 15.932 183.86 15.82 183.668 15.732C183.476 15.636 183.272 15.548 183.056 15.468C182.816 15.372 182.572 15.26 182.324 15.132C182.084 14.996 181.88 14.824 181.712 14.616C181.552 14.4 181.472 14.132 181.472 13.812C181.472 13.484 181.556 13.212 181.724 12.996C181.9 12.78 182.124 12.62 182.396 12.516C182.676 12.412 182.964 12.36 183.26 12.36C183.556 12.36 183.832 12.408 184.088 12.504C184.352 12.6 184.584 12.728 184.784 12.888C184.984 13.048 185.14 13.232 185.252 13.44L184.484 13.932C184.332 13.724 184.14 13.552 183.908 13.416C183.684 13.28 183.428 13.212 183.14 13.212C182.94 13.212 182.768 13.256 182.624 13.344C182.48 13.432 182.408 13.568 182.408 13.752C182.408 13.896 182.464 14.024 182.576 14.136C182.688 14.248 182.832 14.348 183.008 14.436C183.184 14.524 183.368 14.608 183.56 14.688C183.88 14.816 184.172 14.956 184.436 15.108C184.7 15.252 184.908 15.428 185.06 15.636C185.22 15.844 185.3 16.112 185.3 16.44C185.3 16.92 185.124 17.32 184.772 17.64C184.428 17.96 183.972 18.12 183.404 18.12C183.036 18.12 182.704 18.056 182.408 17.928C182.112 17.792 181.86 17.62 181.652 17.412C181.452 17.204 181.3 16.992 181.196 16.776L181.952 16.308ZM185.724 12.48H188.484V13.38H185.724V12.48ZM186.624 10.56H187.584V18H186.624V10.56ZM188.967 15.24C188.967 14.68 189.091 14.184 189.339 13.752C189.595 13.32 189.939 12.98 190.371 12.732C190.803 12.484 191.287 12.36 191.823 12.36C192.367 12.36 192.851 12.484 193.275 12.732C193.707 12.98 194.047 13.32 194.295 13.752C194.551 14.184 194.679 14.68 194.679 15.24C194.679 15.792 194.551 16.288 194.295 16.728C194.047 17.16 193.707 17.5 193.275 17.748C192.851 17.996 192.367 18.12 191.823 18.12C191.287 18.12 190.803 17.996 190.371 17.748C189.939 17.5 189.595 17.16 189.339 16.728C189.091 16.288 188.967 15.792 188.967 15.24ZM189.939 15.24C189.939 15.624 190.019 15.964 190.179 16.26C190.347 16.556 190.571 16.792 190.851 16.968C191.139 17.136 191.463 17.22 191.823 17.22C192.183 17.22 192.503 17.136 192.783 16.968C193.071 16.792 193.295 16.556 193.455 16.26C193.623 15.964 193.707 15.624 193.707 15.24C193.707 14.856 193.623 14.516 193.455 14.22C193.295 13.916 193.071 13.68 192.783 13.512C192.503 13.344 192.183 13.26 191.823 13.26C191.463 13.26 191.139 13.344 190.851 13.512C190.571 13.68 190.347 13.916 190.179 14.22C190.019 14.516 189.939 14.856 189.939 15.24ZM196.958 12.48V18H195.998V12.48H196.958ZM198.626 13.536C198.498 13.44 198.382 13.372 198.278 13.332C198.174 13.284 198.042 13.26 197.882 13.26C197.642 13.26 197.454 13.32 197.318 13.44C197.182 13.56 197.086 13.724 197.03 13.932C196.982 14.14 196.958 14.376 196.958 14.64H196.526C196.526 14.2 196.602 13.812 196.754 13.476C196.914 13.132 197.118 12.86 197.366 12.66C197.614 12.46 197.866 12.36 198.122 12.36C198.322 12.36 198.506 12.388 198.674 12.444C198.85 12.492 199.01 12.592 199.154 12.744L198.626 13.536ZM200.543 16.296C200.543 16.504 200.591 16.684 200.687 16.836C200.791 16.988 200.931 17.104 201.107 17.184C201.291 17.256 201.499 17.292 201.731 17.292C202.027 17.292 202.291 17.232 202.523 17.112C202.763 16.992 202.951 16.824 203.087 16.608C203.231 16.384 203.303 16.128 203.303 15.84L203.495 16.56C203.495 16.912 203.387 17.204 203.171 17.436C202.963 17.668 202.703 17.84 202.391 17.952C202.087 18.064 201.783 18.12 201.479 18.12C201.143 18.12 200.827 18.052 200.531 17.916C200.243 17.772 200.011 17.568 199.835 17.304C199.659 17.04 199.571 16.72 199.571 16.344C199.571 15.808 199.759 15.38 200.135 15.06C200.519 14.732 201.051 14.568 201.731 14.568C202.131 14.568 202.463 14.616 202.727 14.712C202.999 14.8 203.215 14.904 203.375 15.024C203.535 15.136 203.643 15.228 203.699 15.3V15.864C203.419 15.672 203.131 15.536 202.835 15.456C202.539 15.368 202.223 15.324 201.887 15.324C201.575 15.324 201.319 15.364 201.119 15.444C200.927 15.524 200.783 15.636 200.687 15.78C200.591 15.924 200.543 16.096 200.543 16.296ZM200.399 13.752L199.931 13.044C200.139 12.892 200.423 12.74 200.783 12.588C201.151 12.436 201.591 12.36 202.103 12.36C202.535 12.36 202.911 12.428 203.231 12.564C203.559 12.692 203.811 12.88 203.987 13.128C204.171 13.376 204.263 13.68 204.263 14.04V18H203.303V14.172C203.303 13.98 203.271 13.824 203.207 13.704C203.143 13.576 203.051 13.476 202.931 13.404C202.819 13.332 202.687 13.28 202.535 13.248C202.383 13.216 202.223 13.2 202.055 13.2C201.783 13.2 201.535 13.232 201.311 13.296C201.095 13.36 200.911 13.436 200.759 13.524C200.607 13.612 200.487 13.688 200.399 13.752ZM205.516 18.36H206.488C206.488 18.624 206.56 18.868 206.704 19.092C206.848 19.324 207.052 19.508 207.316 19.644C207.58 19.788 207.892 19.86 208.252 19.86C208.532 19.86 208.808 19.792 209.08 19.656C209.352 19.52 209.576 19.304 209.752 19.008C209.936 18.72 210.028 18.344 210.028 17.88V12.48H210.988V17.88C210.988 18.512 210.856 19.04 210.592 19.464C210.328 19.896 209.988 20.22 209.572 20.436C209.156 20.652 208.716 20.76 208.252 20.76C207.716 20.76 207.24 20.66 206.824 20.46C206.416 20.26 206.096 19.976 205.864 19.608C205.632 19.248 205.516 18.832 205.516 18.36ZM205.408 15.24C205.408 14.64 205.532 14.128 205.78 13.704C206.028 13.272 206.36 12.94 206.776 12.708C207.192 12.476 207.648 12.36 208.144 12.36C208.608 12.36 209.012 12.476 209.356 12.708C209.7 12.94 209.968 13.272 210.16 13.704C210.36 14.128 210.46 14.64 210.46 15.24C210.46 15.832 210.36 16.344 210.16 16.776C209.968 17.208 209.7 17.54 209.356 17.772C209.012 18.004 208.608 18.12 208.144 18.12C207.648 18.12 207.192 18.004 206.776 17.772C206.36 17.54 206.028 17.208 205.78 16.776C205.532 16.344 205.408 15.832 205.408 15.24ZM206.38 15.24C206.38 15.664 206.464 16.024 206.632 16.32C206.808 16.616 207.04 16.84 207.328 16.992C207.616 17.144 207.928 17.22 208.264 17.22C208.544 17.22 208.82 17.144 209.092 16.992C209.364 16.84 209.588 16.616 209.764 16.32C209.94 16.024 210.028 15.664 210.028 15.24C210.028 14.92 209.976 14.64 209.872 14.4C209.768 14.152 209.628 13.944 209.452 13.776C209.284 13.608 209.096 13.48 208.888 13.392C208.68 13.304 208.472 13.26 208.264 13.26C207.928 13.26 207.616 13.336 207.328 13.488C207.04 13.64 206.808 13.864 206.632 14.16C206.464 14.456 206.38 14.816 206.38 15.24ZM214.868 18.12C214.356 18.12 213.9 18 213.5 17.76C213.108 17.512 212.8 17.172 212.576 16.74C212.36 16.308 212.252 15.808 212.252 15.24C212.252 14.664 212.364 14.16 212.588 13.728C212.82 13.296 213.14 12.96 213.548 12.72C213.964 12.48 214.444 12.36 214.988 12.36C215.532 12.36 215.996 12.476 216.38 12.708C216.772 12.932 217.072 13.256 217.28 13.68C217.488 14.104 217.592 14.608 217.592 15.192C217.592 15.248 217.588 15.308 217.58 15.372C217.58 15.428 217.58 15.464 217.58 15.48H212.864V14.664H216.824L216.44 15.216C216.464 15.176 216.488 15.116 216.512 15.036C216.536 14.948 216.548 14.876 216.548 14.82C216.548 14.492 216.48 14.208 216.344 13.968C216.216 13.728 216.036 13.54 215.804 13.404C215.572 13.268 215.3 13.2 214.988 13.2C214.62 13.2 214.304 13.28 214.04 13.44C213.784 13.592 213.584 13.816 213.44 14.112C213.304 14.4 213.232 14.756 213.224 15.18C213.224 15.612 213.292 15.98 213.428 16.284C213.564 16.588 213.764 16.82 214.028 16.98C214.292 17.14 214.612 17.22 214.988 17.22C215.364 17.22 215.696 17.14 215.984 16.98C216.272 16.812 216.516 16.56 216.716 16.224L217.496 16.716C217.208 17.18 216.844 17.532 216.404 17.772C215.972 18.004 215.46 18.12 214.868 18.12Z" fill="#9FA1A3"/>
</g>
<rect x="131.5" y="32.5" width="42" height="27" rx="7.5" stroke="#2C2F35"/>
<rect x="140" y="43.5" width="5" height="5" rx="2.5" fill="#00C951"/>
<g clip-path="url(#clip1_12_83)">
<path d="M152.272 47.456C152.464 47.792 152.664 48.088 152.872 48.344C153.088 48.6 153.328 48.8 153.592 48.944C153.856 49.088 154.156 49.16 154.492 49.16C154.94 49.16 155.3 49.036 155.572 48.788C155.844 48.54 155.98 48.224 155.98 47.84C155.98 47.464 155.892 47.164 155.716 46.94C155.54 46.716 155.308 46.536 155.02 46.4C154.74 46.256 154.44 46.128 154.12 46.016C153.912 45.944 153.68 45.852 153.424 45.74C153.168 45.62 152.924 45.472 152.692 45.296C152.46 45.112 152.268 44.888 152.116 44.624C151.972 44.36 151.9 44.036 151.9 43.652C151.9 43.236 152.004 42.864 152.212 42.536C152.42 42.208 152.708 41.952 153.076 41.768C153.444 41.576 153.864 41.48 154.336 41.48C154.792 41.48 155.188 41.568 155.524 41.744C155.868 41.912 156.16 42.132 156.4 42.404C156.64 42.668 156.828 42.948 156.964 43.244L156.088 43.748C155.984 43.54 155.852 43.336 155.692 43.136C155.532 42.936 155.336 42.772 155.104 42.644C154.88 42.516 154.604 42.452 154.276 42.452C153.82 42.452 153.488 42.564 153.28 42.788C153.072 43.004 152.968 43.248 152.968 43.52C152.968 43.752 153.028 43.968 153.148 44.168C153.268 44.36 153.468 44.544 153.748 44.72C154.036 44.888 154.424 45.056 154.912 45.224C155.136 45.304 155.372 45.408 155.62 45.536C155.868 45.664 156.096 45.828 156.304 46.028C156.52 46.22 156.696 46.456 156.832 46.736C156.968 47.008 157.036 47.336 157.036 47.72C157.036 48.088 156.964 48.42 156.82 48.716C156.684 49.012 156.492 49.264 156.244 49.472C156.004 49.68 155.728 49.84 155.416 49.952C155.112 50.064 154.792 50.12 154.456 50.12C154 50.12 153.576 50.024 153.184 49.832C152.8 49.632 152.46 49.372 152.164 49.052C151.876 48.724 151.64 48.376 151.456 48.008L152.272 47.456ZM160.61 45.86V45.2C160.882 45.2 161.122 45.164 161.33 45.092C161.538 45.012 161.714 44.908 161.858 44.78C162.002 44.644 162.11 44.488 162.182 44.312C162.262 44.136 162.302 43.948 162.302 43.748C162.302 43.484 162.254 43.252 162.158 43.052C162.062 42.844 161.918 42.684 161.726 42.572C161.542 42.46 161.31 42.404 161.03 42.404C160.638 42.404 160.306 42.528 160.034 42.776C159.762 43.016 159.626 43.32 159.626 43.688H158.654C158.654 43.248 158.754 42.864 158.954 42.536C159.162 42.208 159.442 41.952 159.794 41.768C160.154 41.576 160.562 41.48 161.018 41.48C161.498 41.48 161.91 41.584 162.254 41.792C162.606 42 162.874 42.272 163.058 42.608C163.25 42.944 163.346 43.312 163.346 43.712C163.346 44.104 163.23 44.464 162.998 44.792C162.766 45.12 162.446 45.38 162.038 45.572C161.63 45.764 161.154 45.86 160.61 45.86ZM160.97 50.12C160.562 50.12 160.194 50.06 159.866 49.94C159.538 49.82 159.258 49.656 159.026 49.448C158.794 49.232 158.614 48.984 158.486 48.704C158.358 48.416 158.294 48.108 158.294 47.78H159.326C159.326 48.044 159.394 48.28 159.53 48.488C159.674 48.696 159.87 48.86 160.118 48.98C160.366 49.1 160.65 49.16 160.97 49.16C161.29 49.16 161.566 49.1 161.798 48.98C162.038 48.852 162.222 48.676 162.35 48.452C162.478 48.228 162.542 47.964 162.542 47.66C162.542 47.404 162.49 47.18 162.386 46.988C162.29 46.788 162.154 46.624 161.978 46.496C161.802 46.36 161.598 46.26 161.366 46.196C161.134 46.132 160.882 46.1 160.61 46.1V45.44C161.018 45.44 161.398 45.484 161.75 45.572C162.11 45.66 162.426 45.8 162.698 45.992C162.978 46.176 163.194 46.416 163.346 46.712C163.506 47.008 163.586 47.364 163.586 47.78C163.586 48.252 163.47 48.664 163.238 49.016C163.014 49.368 162.706 49.64 162.314 49.832C161.922 50.024 161.474 50.12 160.97 50.12Z" fill="#9FA1A3"/>
</g>
<rect x="131.5" y="64.5" width="98" height="27" rx="7.5" stroke="#2C2F35"/>
<rect x="140" y="75.5" width="5" height="5" rx="2.5" fill="#155DFC"/>
<g clip-path="url(#clip2_12_83)">
<path d="M152.56 77.8C152.56 78.448 152.704 79.02 152.992 79.516C153.288 80.012 153.672 80.4 154.144 80.68C154.616 80.96 155.128 81.1 155.68 81.1C156.08 81.1 156.444 81.048 156.772 80.944C157.108 80.84 157.412 80.696 157.684 80.512C157.956 80.32 158.188 80.1 158.38 79.852V81.196C158.028 81.508 157.644 81.74 157.228 81.892C156.812 82.044 156.296 82.12 155.68 82.12C155.096 82.12 154.548 82.016 154.036 81.808C153.532 81.592 153.088 81.292 152.704 80.908C152.32 80.516 152.02 80.056 151.804 79.528C151.588 79 151.48 78.424 151.48 77.8C151.48 77.176 151.588 76.6 151.804 76.072C152.02 75.544 152.32 75.088 152.704 74.704C153.088 74.312 153.532 74.012 154.036 73.804C154.548 73.588 155.096 73.48 155.68 73.48C156.296 73.48 156.812 73.556 157.228 73.708C157.644 73.86 158.028 74.092 158.38 74.404V75.748C158.188 75.5 157.956 75.284 157.684 75.1C157.412 74.908 157.108 74.76 156.772 74.656C156.444 74.552 156.08 74.5 155.68 74.5C155.128 74.5 154.616 74.64 154.144 74.92C153.672 75.2 153.288 75.588 152.992 76.084C152.704 76.572 152.56 77.144 152.56 77.8ZM160.115 72.64H161.075V82H160.115V72.64ZM162.4 79.24C162.4 78.68 162.524 78.184 162.772 77.752C163.028 77.32 163.372 76.98 163.804 76.732C164.236 76.484 164.72 76.36 165.256 76.36C165.8 76.36 166.284 76.484 166.708 76.732C167.14 76.98 167.48 77.32 167.728 77.752C167.984 78.184 168.112 78.68 168.112 79.24C168.112 79.792 167.984 80.288 167.728 80.728C167.48 81.16 167.14 81.5 166.708 81.748C166.284 81.996 165.8 82.12 165.256 82.12C164.72 82.12 164.236 81.996 163.804 81.748C163.372 81.5 163.028 81.16 162.772 80.728C162.524 80.288 162.4 79.792 162.4 79.24ZM163.372 79.24C163.372 79.624 163.452 79.964 163.612 80.26C163.78 80.556 164.004 80.792 164.284 80.968C164.572 81.136 164.896 81.22 165.256 81.22C165.616 81.22 165.936 81.136 166.216 80.968C166.504 80.792 166.728 80.556 166.888 80.26C167.056 79.964 167.14 79.624 167.14 79.24C167.14 78.856 167.056 78.516 166.888 78.22C166.728 77.916 166.504 77.68 166.216 77.512C165.936 77.344 165.616 77.26 165.256 77.26C164.896 77.26 164.572 77.344 164.284 77.512C164.004 77.68 163.78 77.916 163.612 78.22C163.452 78.516 163.372 78.856 163.372 79.24ZM170.391 79.84C170.391 80.28 170.491 80.62 170.691 80.86C170.891 81.1 171.183 81.22 171.567 81.22C171.847 81.22 172.091 81.164 172.299 81.052C172.515 80.932 172.679 80.768 172.791 80.56C172.911 80.352 172.971 80.112 172.971 79.84V76.48H173.931V82H172.971V81.136C172.787 81.464 172.559 81.712 172.287 81.88C172.015 82.04 171.695 82.12 171.327 82.12C170.751 82.12 170.291 81.924 169.947 81.532C169.603 81.14 169.431 80.616 169.431 79.96V76.48H170.391V79.84ZM179.876 72.64H180.836V82H179.876V72.64ZM175.256 79.24C175.256 78.64 175.38 78.128 175.628 77.704C175.876 77.272 176.208 76.94 176.624 76.708C177.04 76.476 177.496 76.36 177.992 76.36C178.456 76.36 178.86 76.476 179.204 76.708C179.548 76.94 179.816 77.272 180.008 77.704C180.208 78.128 180.308 78.64 180.308 79.24C180.308 79.832 180.208 80.344 180.008 80.776C179.816 81.208 179.548 81.54 179.204 81.772C178.86 82.004 178.456 82.12 177.992 82.12C177.496 82.12 177.04 82.004 176.624 81.772C176.208 81.54 175.876 81.208 175.628 80.776C175.38 80.344 175.256 79.832 175.256 79.24ZM176.228 79.24C176.228 79.664 176.312 80.024 176.48 80.32C176.656 80.616 176.888 80.84 177.176 80.992C177.464 81.144 177.776 81.22 178.112 81.22C178.392 81.22 178.668 81.144 178.94 80.992C179.212 80.84 179.436 80.616 179.612 80.32C179.788 80.024 179.876 79.664 179.876 79.24C179.876 78.816 179.788 78.456 179.612 78.16C179.436 77.864 179.212 77.64 178.94 77.488C178.668 77.336 178.392 77.26 178.112 77.26C177.776 77.26 177.464 77.336 177.176 77.488C176.888 77.64 176.656 77.864 176.48 78.16C176.312 78.456 176.228 78.816 176.228 79.24ZM182.16 76.48H184.92V77.38H182.16V76.48ZM184.824 73.792C184.744 73.656 184.648 73.572 184.536 73.54C184.432 73.5 184.332 73.48 184.236 73.48C184.116 73.48 184.012 73.516 183.924 73.588C183.844 73.652 183.78 73.764 183.732 73.924C183.684 74.084 183.66 74.296 183.66 74.56V82H182.7V74.44C182.7 74 182.764 73.64 182.892 73.36C183.02 73.08 183.2 72.872 183.432 72.736C183.672 72.592 183.96 72.52 184.296 72.52C184.472 72.52 184.628 72.544 184.764 72.592C184.9 72.64 185.016 72.7 185.112 72.772C185.216 72.844 185.296 72.92 185.352 73L184.824 73.792ZM186.013 72.64H186.973V82H186.013V72.64ZM189.211 80.296C189.211 80.504 189.259 80.684 189.355 80.836C189.459 80.988 189.599 81.104 189.775 81.184C189.959 81.256 190.167 81.292 190.399 81.292C190.695 81.292 190.959 81.232 191.191 81.112C191.431 80.992 191.619 80.824 191.755 80.608C191.899 80.384 191.971 80.128 191.971 79.84L192.163 80.56C192.163 80.912 192.055 81.204 191.839 81.436C191.631 81.668 191.371 81.84 191.059 81.952C190.755 82.064 190.451 82.12 190.147 82.12C189.811 82.12 189.495 82.052 189.199 81.916C188.911 81.772 188.679 81.568 188.503 81.304C188.327 81.04 188.239 80.72 188.239 80.344C188.239 79.808 188.427 79.38 188.803 79.06C189.187 78.732 189.719 78.568 190.399 78.568C190.799 78.568 191.131 78.616 191.395 78.712C191.667 78.8 191.883 78.904 192.043 79.024C192.203 79.136 192.311 79.228 192.367 79.3V79.864C192.087 79.672 191.799 79.536 191.503 79.456C191.207 79.368 190.891 79.324 190.555 79.324C190.243 79.324 189.987 79.364 189.787 79.444C189.595 79.524 189.451 79.636 189.355 79.78C189.259 79.924 189.211 80.096 189.211 80.296ZM189.067 77.752L188.599 77.044C188.807 76.892 189.091 76.74 189.451 76.588C189.819 76.436 190.259 76.36 190.771 76.36C191.203 76.36 191.579 76.428 191.899 76.564C192.227 76.692 192.479 76.88 192.655 77.128C192.839 77.376 192.931 77.68 192.931 78.04V82H191.971V78.172C191.971 77.98 191.939 77.824 191.875 77.704C191.811 77.576 191.719 77.476 191.599 77.404C191.487 77.332 191.355 77.28 191.203 77.248C191.051 77.216 190.891 77.2 190.723 77.2C190.451 77.2 190.203 77.232 189.979 77.296C189.763 77.36 189.579 77.436 189.427 77.524C189.275 77.612 189.155 77.688 189.067 77.752ZM195.516 76.48V82H194.556V76.48H195.516ZM197.184 77.536C197.056 77.44 196.94 77.372 196.836 77.332C196.732 77.284 196.6 77.26 196.44 77.26C196.2 77.26 196.012 77.32 195.876 77.44C195.74 77.56 195.644 77.724 195.588 77.932C195.54 78.14 195.516 78.376 195.516 78.64H195.084C195.084 78.2 195.16 77.812 195.312 77.476C195.472 77.132 195.676 76.86 195.924 76.66C196.172 76.46 196.424 76.36 196.68 76.36C196.88 76.36 197.064 76.388 197.232 76.444C197.408 76.492 197.568 76.592 197.712 76.744L197.184 77.536ZM200.63 82.12C200.118 82.12 199.662 82 199.262 81.76C198.87 81.512 198.562 81.172 198.338 80.74C198.122 80.308 198.014 79.808 198.014 79.24C198.014 78.664 198.126 78.16 198.35 77.728C198.582 77.296 198.902 76.96 199.31 76.72C199.726 76.48 200.206 76.36 200.75 76.36C201.294 76.36 201.758 76.476 202.142 76.708C202.534 76.932 202.834 77.256 203.042 77.68C203.25 78.104 203.354 78.608 203.354 79.192C203.354 79.248 203.35 79.308 203.342 79.372C203.342 79.428 203.342 79.464 203.342 79.48H198.626V78.664H202.586L202.202 79.216C202.226 79.176 202.25 79.116 202.274 79.036C202.298 78.948 202.31 78.876 202.31 78.82C202.31 78.492 202.242 78.208 202.106 77.968C201.978 77.728 201.798 77.54 201.566 77.404C201.334 77.268 201.062 77.2 200.75 77.2C200.382 77.2 200.066 77.28 199.802 77.44C199.546 77.592 199.346 77.816 199.202 78.112C199.066 78.4 198.994 78.756 198.986 79.18C198.986 79.612 199.054 79.98 199.19 80.284C199.326 80.588 199.526 80.82 199.79 80.98C200.054 81.14 200.374 81.22 200.75 81.22C201.126 81.22 201.458 81.14 201.746 80.98C202.034 80.812 202.278 80.56 202.478 80.224L203.258 80.716C202.97 81.18 202.606 81.532 202.166 81.772C201.734 82.004 201.222 82.12 200.63 82.12ZM209.827 77.86H210.967L213.967 82H212.707L209.827 77.86ZM208.327 73.6H209.347V82H208.327V73.6ZM208.891 74.5V73.6H210.607C211.151 73.6 211.635 73.704 212.059 73.912C212.491 74.112 212.831 74.4 213.079 74.776C213.335 75.152 213.463 75.6 213.463 76.12C213.463 76.632 213.335 77.08 213.079 77.464C212.831 77.84 212.491 78.132 212.059 78.34C211.635 78.54 211.151 78.64 210.607 78.64H208.891V77.74H210.607C210.967 77.74 211.283 77.676 211.555 77.548C211.835 77.42 212.051 77.236 212.203 76.996C212.363 76.756 212.443 76.464 212.443 76.12C212.443 75.776 212.363 75.484 212.203 75.244C212.051 75.004 211.835 74.82 211.555 74.692C211.283 74.564 210.967 74.5 210.607 74.5H208.891ZM214.322 82L218.294 77.764C218.478 77.564 218.634 77.368 218.762 77.176C218.898 76.976 218.998 76.776 219.062 76.576C219.134 76.368 219.17 76.152 219.17 75.928C219.17 75.744 219.134 75.564 219.062 75.388C218.99 75.212 218.882 75.052 218.738 74.908C218.602 74.764 218.434 74.648 218.234 74.56C218.034 74.472 217.806 74.428 217.55 74.428C217.19 74.428 216.878 74.512 216.614 74.68C216.358 74.84 216.162 75.076 216.026 75.388C215.89 75.692 215.822 76.056 215.822 76.48H214.802C214.802 75.88 214.91 75.356 215.126 74.908C215.342 74.452 215.654 74.1 216.062 73.852C216.478 73.596 216.974 73.468 217.55 73.468C218.014 73.468 218.414 73.548 218.75 73.708C219.086 73.86 219.362 74.06 219.578 74.308C219.794 74.548 219.954 74.808 220.058 75.088C220.162 75.368 220.214 75.636 220.214 75.892C220.214 76.324 220.11 76.752 219.902 77.176C219.694 77.6 219.426 77.98 219.098 78.316L216.422 81.04H220.25V82H214.322Z" fill="#9FA1A3"/>
</g>
<rect x="131.5" y="96.5" width="97" height="27" rx="7.5" stroke="#2C2F35"/>
<rect x="140" y="107.5" width="5" height="5" rx="2.5" fill="#155DFC"/>
<g clip-path="url(#clip3_12_83)">
<path d="M155.86 110.7V109.74H159.76C159.76 110.324 159.672 110.88 159.496 111.408C159.32 111.928 159.06 112.392 158.716 112.8C158.372 113.208 157.948 113.532 157.444 113.772C156.948 114.004 156.38 114.12 155.74 114.12C155.132 114.12 154.568 114.016 154.048 113.808C153.528 113.592 153.076 113.292 152.692 112.908C152.308 112.516 152.008 112.056 151.792 111.528C151.584 111 151.48 110.424 151.48 109.8C151.48 109.176 151.584 108.6 151.792 108.072C152.008 107.544 152.308 107.088 152.692 106.704C153.076 106.312 153.528 106.012 154.048 105.804C154.568 105.588 155.132 105.48 155.74 105.48C156.26 105.48 156.736 105.548 157.168 105.684C157.608 105.82 158 106.02 158.344 106.284C158.696 106.548 158.992 106.876 159.232 107.268L158.512 107.928C158.248 107.48 157.88 107.132 157.408 106.884C156.936 106.628 156.38 106.5 155.74 106.5C155.148 106.5 154.612 106.64 154.132 106.92C153.652 107.2 153.268 107.588 152.98 108.084C152.7 108.572 152.56 109.144 152.56 109.8C152.56 110.448 152.7 111.02 152.98 111.516C153.268 112.012 153.652 112.4 154.132 112.68C154.612 112.96 155.148 113.1 155.74 113.1C156.156 113.1 156.528 113.04 156.856 112.92C157.192 112.792 157.48 112.616 157.72 112.392C157.96 112.168 158.156 111.912 158.308 111.624C158.468 111.336 158.584 111.028 158.656 110.7H155.86ZM160.725 111.24C160.725 110.68 160.849 110.184 161.097 109.752C161.353 109.32 161.697 108.98 162.129 108.732C162.561 108.484 163.045 108.36 163.581 108.36C164.125 108.36 164.609 108.484 165.033 108.732C165.465 108.98 165.805 109.32 166.053 109.752C166.309 110.184 166.437 110.68 166.437 111.24C166.437 111.792 166.309 112.288 166.053 112.728C165.805 113.16 165.465 113.5 165.033 113.748C164.609 113.996 164.125 114.12 163.581 114.12C163.045 114.12 162.561 113.996 162.129 113.748C161.697 113.5 161.353 113.16 161.097 112.728C160.849 112.288 160.725 111.792 160.725 111.24ZM161.697 111.24C161.697 111.624 161.777 111.964 161.937 112.26C162.105 112.556 162.329 112.792 162.609 112.968C162.897 113.136 163.221 113.22 163.581 113.22C163.941 113.22 164.261 113.136 164.541 112.968C164.829 112.792 165.053 112.556 165.213 112.26C165.381 111.964 165.465 111.624 165.465 111.24C165.465 110.856 165.381 110.516 165.213 110.22C165.053 109.916 164.829 109.68 164.541 109.512C164.261 109.344 163.941 109.26 163.581 109.26C163.221 109.26 162.897 109.344 162.609 109.512C162.329 109.68 162.105 109.916 161.937 110.22C161.777 110.516 161.697 110.856 161.697 111.24ZM167.275 111.24C167.275 110.68 167.399 110.184 167.647 109.752C167.903 109.32 168.247 108.98 168.679 108.732C169.111 108.484 169.595 108.36 170.131 108.36C170.675 108.36 171.159 108.484 171.583 108.732C172.015 108.98 172.355 109.32 172.603 109.752C172.859 110.184 172.987 110.68 172.987 111.24C172.987 111.792 172.859 112.288 172.603 112.728C172.355 113.16 172.015 113.5 171.583 113.748C171.159 113.996 170.675 114.12 170.131 114.12C169.595 114.12 169.111 113.996 168.679 113.748C168.247 113.5 167.903 113.16 167.647 112.728C167.399 112.288 167.275 111.792 167.275 111.24ZM168.247 111.24C168.247 111.624 168.327 111.964 168.487 112.26C168.655 112.556 168.879 112.792 169.159 112.968C169.447 113.136 169.771 113.22 170.131 113.22C170.491 113.22 170.811 113.136 171.091 112.968C171.379 112.792 171.603 112.556 171.763 112.26C171.931 111.964 172.015 111.624 172.015 111.24C172.015 110.856 171.931 110.516 171.763 110.22C171.603 109.916 171.379 109.68 171.091 109.512C170.811 109.344 170.491 109.26 170.131 109.26C169.771 109.26 169.447 109.344 169.159 109.512C168.879 109.68 168.655 109.916 168.487 110.22C168.327 110.516 168.247 110.856 168.247 111.24ZM173.934 114.36H174.906C174.906 114.624 174.978 114.868 175.122 115.092C175.266 115.324 175.47 115.508 175.734 115.644C175.998 115.788 176.31 115.86 176.67 115.86C176.95 115.86 177.226 115.792 177.498 115.656C177.77 115.52 177.994 115.304 178.17 115.008C178.354 114.72 178.446 114.344 178.446 113.88V108.48H179.406V113.88C179.406 114.512 179.274 115.04 179.01 115.464C178.746 115.896 178.406 116.22 177.99 116.436C177.574 116.652 177.134 116.76 176.67 116.76C176.134 116.76 175.658 116.66 175.242 116.46C174.834 116.26 174.514 115.976 174.282 115.608C174.05 115.248 173.934 114.832 173.934 114.36ZM173.826 111.24C173.826 110.64 173.95 110.128 174.198 109.704C174.446 109.272 174.778 108.94 175.194 108.708C175.61 108.476 176.066 108.36 176.562 108.36C177.026 108.36 177.43 108.476 177.774 108.708C178.118 108.94 178.386 109.272 178.578 109.704C178.778 110.128 178.878 110.64 178.878 111.24C178.878 111.832 178.778 112.344 178.578 112.776C178.386 113.208 178.118 113.54 177.774 113.772C177.43 114.004 177.026 114.12 176.562 114.12C176.066 114.12 175.61 114.004 175.194 113.772C174.778 113.54 174.446 113.208 174.198 112.776C173.95 112.344 173.826 111.832 173.826 111.24ZM174.798 111.24C174.798 111.664 174.882 112.024 175.05 112.32C175.226 112.616 175.458 112.84 175.746 112.992C176.034 113.144 176.346 113.22 176.682 113.22C176.962 113.22 177.238 113.144 177.51 112.992C177.782 112.84 178.006 112.616 178.182 112.32C178.358 112.024 178.446 111.664 178.446 111.24C178.446 110.92 178.394 110.64 178.29 110.4C178.186 110.152 178.046 109.944 177.87 109.776C177.702 109.608 177.514 109.48 177.306 109.392C177.098 109.304 176.89 109.26 176.682 109.26C176.346 109.26 176.034 109.336 175.746 109.488C175.458 109.64 175.226 109.864 175.05 110.16C174.882 110.456 174.798 110.816 174.798 111.24ZM181.15 104.64H182.11V114H181.15V104.64ZM186.052 114.12C185.54 114.12 185.084 114 184.684 113.76C184.292 113.512 183.984 113.172 183.76 112.74C183.544 112.308 183.436 111.808 183.436 111.24C183.436 110.664 183.548 110.16 183.772 109.728C184.004 109.296 184.324 108.96 184.732 108.72C185.148 108.48 185.628 108.36 186.172 108.36C186.716 108.36 187.18 108.476 187.564 108.708C187.956 108.932 188.256 109.256 188.464 109.68C188.672 110.104 188.776 110.608 188.776 111.192C188.776 111.248 188.772 111.308 188.764 111.372C188.764 111.428 188.764 111.464 188.764 111.48H184.048V110.664H188.008L187.624 111.216C187.648 111.176 187.672 111.116 187.696 111.036C187.72 110.948 187.732 110.876 187.732 110.82C187.732 110.492 187.664 110.208 187.528 109.968C187.4 109.728 187.22 109.54 186.988 109.404C186.756 109.268 186.484 109.2 186.172 109.2C185.804 109.2 185.488 109.28 185.224 109.44C184.968 109.592 184.768 109.816 184.624 110.112C184.488 110.4 184.416 110.756 184.408 111.18C184.408 111.612 184.476 111.98 184.612 112.284C184.748 112.588 184.948 112.82 185.212 112.98C185.476 113.14 185.796 113.22 186.172 113.22C186.548 113.22 186.88 113.14 187.168 112.98C187.456 112.812 187.7 112.56 187.9 112.224L188.68 112.716C188.392 113.18 188.028 113.532 187.588 113.772C187.156 114.004 186.644 114.12 186.052 114.12ZM193.749 105.6H194.769V114H193.749V105.6ZM196.269 114H194.313V112.98H196.269C196.741 112.98 197.173 112.908 197.565 112.764C197.957 112.612 198.293 112.4 198.573 112.128C198.853 111.848 199.069 111.512 199.221 111.12C199.373 110.728 199.449 110.288 199.449 109.8C199.449 109.312 199.373 108.872 199.221 108.48C199.069 108.088 198.853 107.756 198.573 107.484C198.293 107.204 197.957 106.992 197.565 106.848C197.173 106.696 196.741 106.62 196.269 106.62H194.313V105.6H196.269C197.085 105.6 197.809 105.776 198.441 106.128C199.073 106.48 199.569 106.972 199.929 107.604C200.289 108.228 200.469 108.96 200.469 109.8C200.469 110.64 200.289 111.376 199.929 112.008C199.569 112.632 199.073 113.12 198.441 113.472C197.809 113.824 197.085 114 196.269 114ZM202.805 108.48V114H201.845V108.48H202.805ZM204.473 109.536C204.345 109.44 204.229 109.372 204.125 109.332C204.021 109.284 203.889 109.26 203.729 109.26C203.489 109.26 203.301 109.32 203.165 109.44C203.029 109.56 202.933 109.724 202.877 109.932C202.829 110.14 202.805 110.376 202.805 110.64H202.373C202.373 110.2 202.449 109.812 202.601 109.476C202.761 109.132 202.965 108.86 203.213 108.66C203.461 108.46 203.713 108.36 203.969 108.36C204.169 108.36 204.353 108.388 204.521 108.444C204.697 108.492 204.857 108.592 205.001 108.744L204.473 109.536ZM205.959 106.2C205.959 106.016 206.023 105.86 206.151 105.732C206.287 105.604 206.443 105.54 206.619 105.54C206.803 105.54 206.959 105.604 207.087 105.732C207.215 105.86 207.279 106.016 207.279 106.2C207.279 106.376 207.215 106.532 207.087 106.668C206.959 106.796 206.803 106.86 206.619 106.86C206.443 106.86 206.287 106.796 206.151 106.668C206.023 106.532 205.959 106.376 205.959 106.2ZM206.139 108.48H207.099V114H206.139V108.48ZM208.176 108.48H209.256L210.816 112.38L212.376 108.48H213.456L210.816 114.42L208.176 108.48ZM216.321 114.12C215.809 114.12 215.353 114 214.953 113.76C214.561 113.512 214.253 113.172 214.029 112.74C213.813 112.308 213.705 111.808 213.705 111.24C213.705 110.664 213.817 110.16 214.041 109.728C214.273 109.296 214.593 108.96 215.001 108.72C215.417 108.48 215.897 108.36 216.441 108.36C216.985 108.36 217.449 108.476 217.833 108.708C218.225 108.932 218.525 109.256 218.733 109.68C218.941 110.104 219.045 110.608 219.045 111.192C219.045 111.248 219.041 111.308 219.033 111.372C219.033 111.428 219.033 111.464 219.033 111.48H214.317V110.664H218.277L217.893 111.216C217.917 111.176 217.941 111.116 217.965 111.036C217.989 110.948 218.001 110.876 218.001 110.82C218.001 110.492 217.933 110.208 217.797 109.968C217.669 109.728 217.489 109.54 217.257 109.404C217.025 109.268 216.753 109.2 216.441 109.2C216.073 109.2 215.757 109.28 215.493 109.44C215.237 109.592 215.037 109.816 214.893 110.112C214.757 110.4 214.685 110.756 214.677 111.18C214.677 111.612 214.745 111.98 214.881 112.284C215.017 112.588 215.217 112.82 215.481 112.98C215.745 113.14 216.065 113.22 216.441 113.22C216.817 113.22 217.149 113.14 217.437 112.98C217.725 112.812 217.969 112.56 218.169 112.224L218.949 112.716C218.661 113.18 218.297 113.532 217.857 113.772C217.425 114.004 216.913 114.12 216.321 114.12Z" fill="#9FA1A3"/>
</g>
<rect x="131.5" y="128.5" width="128" height="27" rx="7.5" stroke="#2C2F35"/>
<rect x="140" y="139.5" width="5" height="5" rx="2.5" fill="#155DFC"/>
<g clip-path="url(#clip4_12_83)">
<path d="M152.764 143.48L153.124 142.52H156.844L157.204 143.48H152.764ZM154.96 139.496L153.544 142.832L153.448 143.048L152.2 146H151.06L154.96 137.18L158.86 146H157.72L156.496 143.12L156.4 142.88L154.96 139.496ZM163.12 141.38H160.06V140.48H164.86L161.44 145.1H164.62V146H159.7L163.12 141.38ZM166.782 143.84C166.782 144.28 166.882 144.62 167.082 144.86C167.282 145.1 167.574 145.22 167.958 145.22C168.238 145.22 168.482 145.164 168.69 145.052C168.906 144.932 169.07 144.768 169.182 144.56C169.302 144.352 169.362 144.112 169.362 143.84V140.48H170.322V146H169.362V145.136C169.178 145.464 168.95 145.712 168.678 145.88C168.406 146.04 168.086 146.12 167.718 146.12C167.142 146.12 166.682 145.924 166.338 145.532C165.994 145.14 165.822 144.616 165.822 143.96V140.48H166.782V143.84ZM173.087 140.48V146H172.127V140.48H173.087ZM174.755 141.536C174.627 141.44 174.511 141.372 174.407 141.332C174.303 141.284 174.171 141.26 174.011 141.26C173.771 141.26 173.583 141.32 173.447 141.44C173.311 141.56 173.215 141.724 173.159 141.932C173.111 142.14 173.087 142.376 173.087 142.64H172.655C172.655 142.2 172.731 141.812 172.883 141.476C173.043 141.132 173.247 140.86 173.495 140.66C173.743 140.46 173.995 140.36 174.251 140.36C174.451 140.36 174.635 140.388 174.803 140.444C174.979 140.492 175.139 140.592 175.283 140.744L174.755 141.536ZM178.2 146.12C177.688 146.12 177.232 146 176.832 145.76C176.44 145.512 176.132 145.172 175.908 144.74C175.692 144.308 175.584 143.808 175.584 143.24C175.584 142.664 175.696 142.16 175.92 141.728C176.152 141.296 176.472 140.96 176.88 140.72C177.296 140.48 177.776 140.36 178.32 140.36C178.864 140.36 179.328 140.476 179.712 140.708C180.104 140.932 180.404 141.256 180.612 141.68C180.82 142.104 180.924 142.608 180.924 143.192C180.924 143.248 180.92 143.308 180.912 143.372C180.912 143.428 180.912 143.464 180.912 143.48H176.196V142.664H180.156L179.772 143.216C179.796 143.176 179.82 143.116 179.844 143.036C179.868 142.948 179.88 142.876 179.88 142.82C179.88 142.492 179.812 142.208 179.676 141.968C179.548 141.728 179.368 141.54 179.136 141.404C178.904 141.268 178.632 141.2 178.32 141.2C177.952 141.2 177.636 141.28 177.372 141.44C177.116 141.592 176.916 141.816 176.772 142.112C176.636 142.4 176.564 142.756 176.556 143.18C176.556 143.612 176.624 143.98 176.76 144.284C176.896 144.588 177.096 144.82 177.36 144.98C177.624 145.14 177.944 145.22 178.32 145.22C178.696 145.22 179.028 145.14 179.316 144.98C179.604 144.812 179.848 144.56 180.048 144.224L180.828 144.716C180.54 145.18 180.176 145.532 179.736 145.772C179.304 146.004 178.792 146.12 178.2 146.12ZM186.701 141.56V140.996H188.058C188.338 140.996 188.59 140.948 188.814 140.852C189.038 140.756 189.214 140.616 189.342 140.432C189.47 140.248 189.534 140.024 189.534 139.76C189.534 139.36 189.394 139.052 189.114 138.836C188.834 138.612 188.482 138.5 188.058 138.5H186.918V145.1H188.178C188.538 145.1 188.854 145.036 189.126 144.908C189.406 144.78 189.622 144.596 189.774 144.356C189.934 144.116 190.014 143.824 190.014 143.48C190.014 143.224 189.97 142.996 189.882 142.796C189.794 142.596 189.666 142.428 189.498 142.292C189.338 142.156 189.146 142.056 188.922 141.992C188.698 141.92 188.45 141.884 188.178 141.884H186.701V141.32H188.178C188.586 141.32 188.962 141.364 189.306 141.452C189.65 141.54 189.95 141.676 190.206 141.86C190.47 142.036 190.674 142.264 190.818 142.544C190.962 142.824 191.034 143.156 191.034 143.54C191.034 144.092 190.906 144.552 190.65 144.92C190.402 145.28 190.062 145.552 189.63 145.736C189.206 145.912 188.722 146 188.178 146H185.898V137.6H188.058C188.562 137.6 188.998 137.676 189.366 137.828C189.742 137.98 190.034 138.212 190.242 138.524C190.45 138.828 190.554 139.22 190.554 139.7C190.554 140.092 190.45 140.428 190.242 140.708C190.034 140.988 189.742 141.2 189.366 141.344C188.998 141.488 188.562 141.56 188.058 141.56H186.701ZM192.529 136.64H193.489V146H192.529V136.64ZM194.815 143.24C194.815 142.68 194.939 142.184 195.187 141.752C195.443 141.32 195.787 140.98 196.219 140.732C196.651 140.484 197.135 140.36 197.671 140.36C198.215 140.36 198.699 140.484 199.123 140.732C199.555 140.98 199.895 141.32 200.143 141.752C200.399 142.184 200.527 142.68 200.527 143.24C200.527 143.792 200.399 144.288 200.143 144.728C199.895 145.16 199.555 145.5 199.123 145.748C198.699 145.996 198.215 146.12 197.671 146.12C197.135 146.12 196.651 145.996 196.219 145.748C195.787 145.5 195.443 145.16 195.187 144.728C194.939 144.288 194.815 143.792 194.815 143.24ZM195.787 143.24C195.787 143.624 195.867 143.964 196.027 144.26C196.195 144.556 196.419 144.792 196.699 144.968C196.987 145.136 197.311 145.22 197.671 145.22C198.031 145.22 198.351 145.136 198.631 144.968C198.919 144.792 199.143 144.556 199.303 144.26C199.471 143.964 199.555 143.624 199.555 143.24C199.555 142.856 199.471 142.516 199.303 142.22C199.143 141.916 198.919 141.68 198.631 141.512C198.351 141.344 198.031 141.26 197.671 141.26C197.311 141.26 196.987 141.344 196.699 141.512C196.419 141.68 196.195 141.916 196.027 142.22C195.867 142.516 195.787 142.856 195.787 143.24ZM202.745 136.64V146H201.785V136.64H202.745ZM207.365 143.24C207.365 143.832 207.241 144.344 206.993 144.776C206.745 145.208 206.413 145.54 205.997 145.772C205.589 146.004 205.133 146.12 204.629 146.12C204.173 146.12 203.769 146.004 203.417 145.772C203.073 145.54 202.801 145.208 202.601 144.776C202.409 144.344 202.313 143.832 202.313 143.24C202.313 142.64 202.409 142.128 202.601 141.704C202.801 141.272 203.073 140.94 203.417 140.708C203.769 140.476 204.173 140.36 204.629 140.36C205.133 140.36 205.589 140.476 205.997 140.708C206.413 140.94 206.745 141.272 206.993 141.704C207.241 142.128 207.365 142.64 207.365 143.24ZM206.393 143.24C206.393 142.816 206.305 142.456 206.129 142.16C205.961 141.864 205.733 141.64 205.445 141.488C205.165 141.336 204.853 141.26 204.509 141.26C204.229 141.26 203.953 141.336 203.681 141.488C203.409 141.64 203.185 141.864 203.009 142.16C202.833 142.456 202.745 142.816 202.745 143.24C202.745 143.664 202.833 144.024 203.009 144.32C203.185 144.616 203.409 144.84 203.681 144.992C203.953 145.144 204.229 145.22 204.509 145.22C204.853 145.22 205.165 145.144 205.445 144.992C205.733 144.84 205.961 144.616 206.129 144.32C206.305 144.024 206.393 143.664 206.393 143.24ZM212.659 143.456C212.851 143.792 213.051 144.088 213.259 144.344C213.475 144.6 213.715 144.8 213.979 144.944C214.243 145.088 214.543 145.16 214.879 145.16C215.327 145.16 215.687 145.036 215.959 144.788C216.231 144.54 216.367 144.224 216.367 143.84C216.367 143.464 216.279 143.164 216.103 142.94C215.927 142.716 215.695 142.536 215.407 142.4C215.127 142.256 214.827 142.128 214.507 142.016C214.299 141.944 214.067 141.852 213.811 141.74C213.555 141.62 213.311 141.472 213.079 141.296C212.847 141.112 212.655 140.888 212.503 140.624C212.359 140.36 212.287 140.036 212.287 139.652C212.287 139.236 212.391 138.864 212.599 138.536C212.807 138.208 213.095 137.952 213.463 137.768C213.831 137.576 214.251 137.48 214.723 137.48C215.179 137.48 215.575 137.568 215.911 137.744C216.255 137.912 216.547 138.132 216.787 138.404C217.027 138.668 217.215 138.948 217.351 139.244L216.475 139.748C216.371 139.54 216.239 139.336 216.079 139.136C215.919 138.936 215.723 138.772 215.491 138.644C215.267 138.516 214.991 138.452 214.663 138.452C214.207 138.452 213.875 138.564 213.667 138.788C213.459 139.004 213.355 139.248 213.355 139.52C213.355 139.752 213.415 139.968 213.535 140.168C213.655 140.36 213.855 140.544 214.135 140.72C214.423 140.888 214.811 141.056 215.299 141.224C215.523 141.304 215.759 141.408 216.007 141.536C216.255 141.664 216.483 141.828 216.691 142.028C216.907 142.22 217.083 142.456 217.219 142.736C217.355 143.008 217.423 143.336 217.423 143.72C217.423 144.088 217.351 144.42 217.207 144.716C217.071 145.012 216.879 145.264 216.631 145.472C216.391 145.68 216.115 145.84 215.803 145.952C215.499 146.064 215.179 146.12 214.843 146.12C214.387 146.12 213.963 146.024 213.571 145.832C213.187 145.632 212.847 145.372 212.551 145.052C212.263 144.724 212.027 144.376 211.843 144.008L212.659 143.456ZM218.021 140.48H220.781V141.38H218.021V140.48ZM218.921 138.56H219.881V146H218.921V138.56ZM221.264 143.24C221.264 142.68 221.388 142.184 221.636 141.752C221.892 141.32 222.236 140.98 222.668 140.732C223.1 140.484 223.584 140.36 224.12 140.36C224.664 140.36 225.148 140.484 225.572 140.732C226.004 140.98 226.344 141.32 226.592 141.752C226.848 142.184 226.976 142.68 226.976 143.24C226.976 143.792 226.848 144.288 226.592 144.728C226.344 145.16 226.004 145.5 225.572 145.748C225.148 145.996 224.664 146.12 224.12 146.12C223.584 146.12 223.1 145.996 222.668 145.748C222.236 145.5 221.892 145.16 221.636 144.728C221.388 144.288 221.264 143.792 221.264 143.24ZM222.236 143.24C222.236 143.624 222.316 143.964 222.476 144.26C222.644 144.556 222.868 144.792 223.148 144.968C223.436 145.136 223.76 145.22 224.12 145.22C224.48 145.22 224.8 145.136 225.08 144.968C225.368 144.792 225.592 144.556 225.752 144.26C225.92 143.964 226.004 143.624 226.004 143.24C226.004 142.856 225.92 142.516 225.752 142.22C225.592 141.916 225.368 141.68 225.08 141.512C224.8 141.344 224.48 141.26 224.12 141.26C223.76 141.26 223.436 141.344 223.148 141.512C222.868 141.68 222.644 141.916 222.476 142.22C222.316 142.516 222.236 142.856 222.236 143.24ZM229.255 140.48V146H228.295V140.48H229.255ZM230.923 141.536C230.795 141.44 230.679 141.372 230.575 141.332C230.471 141.284 230.339 141.26 230.179 141.26C229.939 141.26 229.751 141.32 229.615 141.44C229.479 141.56 229.383 141.724 229.327 141.932C229.279 142.14 229.255 142.376 229.255 142.64H228.823C228.823 142.2 228.899 141.812 229.051 141.476C229.211 141.132 229.415 140.86 229.663 140.66C229.911 140.46 230.163 140.36 230.419 140.36C230.619 140.36 230.803 140.388 230.971 140.444C231.147 140.492 231.307 140.592 231.451 140.744L230.923 141.536ZM232.84 144.296C232.84 144.504 232.888 144.684 232.984 144.836C233.088 144.988 233.228 145.104 233.404 145.184C233.588 145.256 233.796 145.292 234.028 145.292C234.324 145.292 234.588 145.232 234.82 145.112C235.06 144.992 235.248 144.824 235.384 144.608C235.528 144.384 235.6 144.128 235.6 143.84L235.792 144.56C235.792 144.912 235.684 145.204 235.468 145.436C235.26 145.668 235 145.84 234.688 145.952C234.384 146.064 234.08 146.12 233.776 146.12C233.44 146.12 233.124 146.052 232.828 145.916C232.54 145.772 232.308 145.568 232.132 145.304C231.956 145.04 231.868 144.72 231.868 144.344C231.868 143.808 232.056 143.38 232.432 143.06C232.816 142.732 233.348 142.568 234.028 142.568C234.428 142.568 234.76 142.616 235.024 142.712C235.296 142.8 235.512 142.904 235.672 143.024C235.832 143.136 235.94 143.228 235.996 143.3V143.864C235.716 143.672 235.428 143.536 235.132 143.456C234.836 143.368 234.52 143.324 234.184 143.324C233.872 143.324 233.616 143.364 233.416 143.444C233.224 143.524 233.08 143.636 232.984 143.78C232.888 143.924 232.84 144.096 232.84 144.296ZM232.696 141.752L232.228 141.044C232.436 140.892 232.72 140.74 233.08 140.588C233.448 140.436 233.888 140.36 234.4 140.36C234.832 140.36 235.208 140.428 235.528 140.564C235.856 140.692 236.108 140.88 236.284 141.128C236.468 141.376 236.56 141.68 236.56 142.04V146H235.6V142.172C235.6 141.98 235.568 141.824 235.504 141.704C235.44 141.576 235.348 141.476 235.228 141.404C235.116 141.332 234.984 141.28 234.832 141.248C234.68 141.216 234.52 141.2 234.352 141.2C234.08 141.2 233.832 141.232 233.608 141.296C233.392 141.36 233.208 141.436 233.056 141.524C232.904 141.612 232.784 141.688 232.696 141.752ZM237.813 146.36H238.785C238.785 146.624 238.857 146.868 239.001 147.092C239.145 147.324 239.349 147.508 239.613 147.644C239.877 147.788 240.189 147.86 240.549 147.86C240.829 147.86 241.105 147.792 241.377 147.656C241.649 147.52 241.873 147.304 242.049 147.008C242.233 146.72 242.325 146.344 242.325 145.88V140.48H243.285V145.88C243.285 146.512 243.153 147.04 242.889 147.464C242.625 147.896 242.285 148.22 241.869 148.436C241.453 148.652 241.013 148.76 240.549 148.76C240.013 148.76 239.537 148.66 239.121 148.46C238.713 148.26 238.393 147.976 238.161 147.608C237.929 147.248 237.813 146.832 237.813 146.36ZM237.705 143.24C237.705 142.64 237.829 142.128 238.077 141.704C238.325 141.272 238.657 140.94 239.073 140.708C239.489 140.476 239.945 140.36 240.441 140.36C240.905 140.36 241.309 140.476 241.653 140.708C241.997 140.94 242.265 141.272 242.457 141.704C242.657 142.128 242.757 142.64 242.757 143.24C242.757 143.832 242.657 144.344 242.457 144.776C242.265 145.208 241.997 145.54 241.653 145.772C241.309 146.004 240.905 146.12 240.441 146.12C239.945 146.12 239.489 146.004 239.073 145.772C238.657 145.54 238.325 145.208 238.077 144.776C237.829 144.344 237.705 143.832 237.705 143.24ZM238.677 143.24C238.677 143.664 238.761 144.024 238.929 144.32C239.105 144.616 239.337 144.84 239.625 144.992C239.913 145.144 240.225 145.22 240.561 145.22C240.841 145.22 241.117 145.144 241.389 144.992C241.661 144.84 241.885 144.616 242.061 144.32C242.237 144.024 242.325 143.664 242.325 143.24C242.325 142.92 242.273 142.64 242.169 142.4C242.065 142.152 241.925 141.944 241.749 141.776C241.581 141.608 241.393 141.48 241.185 141.392C240.977 141.304 240.769 141.26 240.561 141.26C240.225 141.26 239.913 141.336 239.625 141.488C239.337 141.64 239.105 141.864 238.929 142.16C238.761 142.456 238.677 142.816 238.677 143.24ZM247.165 146.12C246.653 146.12 246.197 146 245.797 145.76C245.405 145.512 245.097 145.172 244.873 144.74C244.657 144.308 244.549 143.808 244.549 143.24C244.549 142.664 244.661 142.16 244.885 141.728C245.117 141.296 245.437 140.96 245.845 140.72C246.261 140.48 246.741 140.36 247.285 140.36C247.829 140.36 248.293 140.476 248.677 140.708C249.069 140.932 249.369 141.256 249.577 141.68C249.785 142.104 249.889 142.608 249.889 143.192C249.889 143.248 249.885 143.308 249.877 143.372C249.877 143.428 249.877 143.464 249.877 143.48H245.161V142.664H249.121L248.737 143.216C248.761 143.176 248.785 143.116 248.809 143.036C248.833 142.948 248.845 142.876 248.845 142.82C248.845 142.492 248.777 142.208 248.641 141.968C248.513 141.728 248.333 141.54 248.101 141.404C247.869 141.268 247.597 141.2 247.285 141.2C246.917 141.2 246.601 141.28 246.337 141.44C246.081 141.592 245.881 141.816 245.737 142.112C245.601 142.4 245.529 142.756 245.521 143.18C245.521 143.612 245.589 143.98 245.725 144.284C245.861 144.588 246.061 144.82 246.325 144.98C246.589 145.14 246.909 145.22 247.285 145.22C247.661 145.22 247.993 145.14 248.281 144.98C248.569 144.812 248.813 144.56 249.013 144.224L249.793 144.716C249.505 145.18 249.141 145.532 248.701 145.772C248.269 146.004 247.757 146.12 247.165 146.12Z" fill="#9FA1A3"/>
</g>
<rect x="131.5" y="160.5" width="52" height="27" rx="7.5" stroke="#2C2F35"/>
<rect x="140" y="171.5" width="5" height="5" rx="2.5" fill="#155DFC"/>
<g clip-path="url(#clip5_12_83)">
<path d="M158.32 169.6H159.34V178.42L152.98 171.748V178H151.96V169.18L158.32 175.852V169.6ZM162.069 175.48L162.429 174.52H166.149L166.509 175.48H162.069ZM164.265 171.496L162.849 174.832L162.753 175.048L161.505 178H160.365L164.265 169.18L168.165 178H167.025L165.801 175.12L165.705 174.88L164.265 171.496ZM169.499 175.456C169.691 175.792 169.891 176.088 170.099 176.344C170.315 176.6 170.555 176.8 170.819 176.944C171.083 177.088 171.383 177.16 171.719 177.16C172.167 177.16 172.527 177.036 172.799 176.788C173.071 176.54 173.207 176.224 173.207 175.84C173.207 175.464 173.119 175.164 172.943 174.94C172.767 174.716 172.535 174.536 172.247 174.4C171.967 174.256 171.667 174.128 171.347 174.016C171.139 173.944 170.907 173.852 170.651 173.74C170.395 173.62 170.151 173.472 169.919 173.296C169.687 173.112 169.495 172.888 169.343 172.624C169.199 172.36 169.127 172.036 169.127 171.652C169.127 171.236 169.231 170.864 169.439 170.536C169.647 170.208 169.935 169.952 170.303 169.768C170.671 169.576 171.091 169.48 171.563 169.48C172.019 169.48 172.415 169.568 172.751 169.744C173.095 169.912 173.387 170.132 173.627 170.404C173.867 170.668 174.055 170.948 174.191 171.244L173.315 171.748C173.211 171.54 173.079 171.336 172.919 171.136C172.759 170.936 172.563 170.772 172.331 170.644C172.107 170.516 171.831 170.452 171.503 170.452C171.047 170.452 170.715 170.564 170.507 170.788C170.299 171.004 170.195 171.248 170.195 171.52C170.195 171.752 170.255 171.968 170.375 172.168C170.495 172.36 170.695 172.544 170.975 172.72C171.263 172.888 171.651 173.056 172.139 173.224C172.363 173.304 172.599 173.408 172.847 173.536C173.095 173.664 173.323 173.828 173.531 174.028C173.747 174.22 173.923 174.456 174.059 174.736C174.195 175.008 174.263 175.336 174.263 175.72C174.263 176.088 174.191 176.42 174.047 176.716C173.911 177.012 173.719 177.264 173.471 177.472C173.231 177.68 172.955 177.84 172.643 177.952C172.339 178.064 172.019 178.12 171.683 178.12C171.227 178.12 170.803 178.024 170.411 177.832C170.027 177.632 169.687 177.372 169.391 177.052C169.103 176.724 168.867 176.376 168.683 176.008L169.499 175.456Z" fill="#9FA1A3"/>
</g>
<g clip-path="url(#clip6_12_83)">
<path d="M12.538 28.7972C12.538 30.2972 14.2891 30.2983 14.75 29.5C15.0387 29 15.25 28.5 15.25 27C15.25 25.5 14.5261 24.2385 13.8298 22.8794C13.6506 22.5297 13.4581 22.1538 13.2532 21.7309C12.9018 21.0057 12.4717 20.3368 11.8471 19.8035C11.7513 19.7217 11.7234 19.5024 11.7406 19.3556C11.8088 18.776 11.8829 18.197 11.9571 17.618C12.0796 16.661 12.2022 15.704 12.2977 14.7442C12.3648 14.0719 12.3635 13.378 12.2789 12.7083C12.0958 11.2587 11.2823 10.1946 10.0338 9.47792C9.67045 9.26932 9.56332 9.03643 9.60868 8.64638C9.73505 7.56189 10.1638 6.58271 10.7086 5.66611C11.2089 4.82431 11.7759 4.0215 12.3419 3.22016C12.4144 3.11753 12.4869 3.01492 12.5592 2.91226C12.6517 2.78083 12.8808 2.68119 13.0493 2.67693C15.1032 2.6255 17.1576 2.59127 19.2119 2.56595C19.3531 2.56413 19.5396 2.62995 19.6305 2.73121C20.9121 4.15856 22.0571 5.67806 22.7445 7.49465C22.7914 7.619 22.8305 7.74679 22.8664 7.87498C23.1244 8.79213 23.1201 8.79514 22.385 9.31253L22.3518 9.33595C20.9676 10.3109 20.4615 11.705 20.523 13.3373C20.5935 15.2139 21.0155 17.0329 21.4967 18.8385C21.5946 19.2055 21.6579 19.4769 21.3052 19.8153C20.5988 20.4925 20.3049 21.4219 20.1644 22.3672C20.0181 23.3521 19.8997 24.341 19.7814 25.33C19.7157 25.8788 19.7124 26.3421 19.5795 26.9759C19.0705 29.4029 17.75 32 15.75 32H12.538C11.25 32 10.25 30.7972 10.25 28.7972H12.538Z" fill="#155DFC"/>
<path d="M11.5607 1.64008C10.8347 2.775 10.091 3.85078 9.44034 4.98022C8.85324 5.9991 8.46218 7.10566 8.27283 8.28027C8.02494 9.8182 8.4235 11.1797 9.51913 12.2444C10.4211 13.1209 10.6538 14.1118 10.538 15.2919C10.2857 17.8647 9.77936 20.385 9.05131 22.863C9.04422 22.8869 9.02214 22.9064 8.97435 22.9744C8.53792 22.8381 8.07901 22.7111 7.63165 22.5524C1.38253 20.3344 -3.18062 16.2382 -6.04606 10.2575C-6.29374 9.74063 -6.51975 9.21246 -6.73158 8.68004C-6.77189 8.57878 -6.74374 8.38234 -6.66961 8.31328C-4.28698 6.09307 -1.91002 3.86617 0.50117 1.67735C2.16142 0.170403 4.14529 -0.303895 6.31143 0.184986C7.98444 0.562481 9.62828 1.06959 11.2841 1.52262C11.3961 1.5532 11.5 1.61376 11.5607 1.64008Z" fill="#155DFC"/>
<path d="M24.2397 22.3315C23.8972 21.1865 23.5199 20.1003 23.2528 18.9879C22.9016 17.5245 22.6171 16.0439 22.3435 14.5633C22.1888 13.7265 22.35 12.9545 22.9725 12.3028C24.5667 10.634 24.5983 8.69935 23.8328 6.67598C23.1868 4.96855 22.1482 3.49765 20.9256 2.15232C20.7825 1.99476 20.6423 1.83416 20.4795 1.65129C20.5718 1.60066 20.6427 1.54699 20.7227 1.52006C22.532 0.910273 24.3624 0.387167 26.2602 0.122272C28.1953 -0.147888 29.8448 0.454605 31.2612 1.74404C32.5042 2.87551 33.7011 4.05822 34.9529 5.17977C35.9556 6.07794 37.0032 6.9267 38.0476 7.77687C38.2361 7.93018 38.2841 8.05392 38.2282 8.27608C37.2647 12.1148 35.328 15.3721 32.3643 17.997C30.0283 20.0657 27.3376 21.4947 24.2397 22.3317V22.3315Z" fill="#155DFC"/>
</g>
<path d="M32 13.5H131.5" stroke="#2C2F35"/>
<path d="M32 13.5H104.738C113.989 13.5 121.488 20.9992 121.488 30.25V36.4881C121.488 42.2937 126.194 47 132 47" stroke="#2C2F35" stroke-dasharray="2 2"/>
<path d="M32 13.5H91.4881C102.534 13.5 111.488 22.4543 111.488 33.5V58C111.488 69.0457 120.442 78 131.488 78H132" stroke="#2C2F35" stroke-dasharray="2 2"/>
<path d="M32 13.5H81.4881C92.5338 13.5 101.488 22.4543 101.488 33.5V91C101.488 102.046 110.442 111 121.488 111H132" stroke="#2C2F35" stroke-dasharray="2 2"/>
<path d="M32 13.5H71.4882C82.5338 13.5 91.4881 22.4543 91.4881 33.5V123C91.4881 134.046 100.442 143 111.488 143H132" stroke="#2C2F35" stroke-dasharray="2 2"/>
<path d="M32 13.5H61.4881C72.5338 13.5 81.4881 22.4543 81.4881 33.5V153.5C81.4881 164.546 90.4425 173.5 101.488 173.5H132" stroke="#2C2F35" stroke-dasharray="2 2"/>
<defs>
<clipPath id="clip0_12_83">
<rect width="68" height="24" fill="white" transform="translate(151 2)"/>
</clipPath>
<clipPath id="clip1_12_83">
<rect width="14" height="24" fill="white" transform="translate(151 34)"/>
</clipPath>
<clipPath id="clip2_12_83">
<rect width="70" height="24" fill="white" transform="translate(151 66)"/>
</clipPath>
<clipPath id="clip3_12_83">
<rect width="69" height="24" fill="white" transform="translate(151 98)"/>
</clipPath>
<clipPath id="clip4_12_83">
<rect width="100" height="24" fill="white" transform="translate(151 130)"/>
</clipPath>
<clipPath id="clip5_12_83">
<rect width="24" height="24" fill="white" transform="translate(151 162)"/>
</clipPath>
<clipPath id="clip6_12_83">
<rect width="32" height="32" rx="6" fill="white"/>
</clipPath>
</defs>
</svg>
