<svg width="44" height="44" viewBox="0 0 44 44" fill="none" xmlns="http://www.w3.org/2000/svg">
<rect x="0.5" y="0.5" width="43" height="43" rx="5.5" stroke="#2C2F35"/>
<path fill-rule="evenodd" clip-rule="evenodd" d="M22.0098 10C15.4437 10 10.1356 15.3472 10.1356 21.9624C10.1356 27.2503 13.5367 31.7264 18.2549 33.3106C18.8448 33.4297 19.0608 33.0532 19.0608 32.7365C19.0608 32.4592 19.0414 31.5086 19.0414 30.5182C15.7383 31.2313 15.0504 29.0922 15.0504 29.0922C14.5196 27.7058 13.7331 27.3495 13.7331 27.3495C12.652 26.6167 13.8118 26.6167 13.8118 26.6167C15.0111 26.6959 15.6403 27.8446 15.6403 27.8446C16.7017 29.6665 18.4121 29.1517 19.1002 28.8348C19.1984 28.0624 19.5132 27.5276 19.8474 27.2306C17.2129 26.9533 14.4411 25.9235 14.4411 21.3285C14.4411 20.0214 14.9126 18.9519 15.6598 18.1202C15.5419 17.8232 15.1289 16.595 15.7779 14.9513C15.7779 14.9513 16.7805 14.6343 19.0411 16.1792C20.009 15.9173 21.0071 15.7841 22.0098 15.783C23.0124 15.783 24.0345 15.9218 24.9782 16.1792C27.2391 14.6343 28.2417 14.9513 28.2417 14.9513C28.8907 16.595 28.4775 17.8232 28.3596 18.1202C29.1264 18.9519 29.5785 20.0214 29.5785 21.3285C29.5785 25.9235 26.8067 26.9334 24.1526 27.2306C24.5852 27.6069 24.9585 28.3197 24.9585 29.4487C24.9585 31.0529 24.9391 32.3404 24.9391 32.7363C24.9391 33.0532 25.1554 33.4297 25.7451 33.3109C30.4632 31.7262 33.8643 27.2503 33.8643 21.9624C33.8837 15.3472 28.5562 10 22.0098 10Z" fill="white"/>
</svg>
