<svg width="44" height="44" viewBox="0 0 44 44" fill="none" xmlns="http://www.w3.org/2000/svg">
<rect x="0.5" y="0.5" width="43" height="43" rx="5.5" stroke="#2C2F35"/>
<g clip-path="url(#clip0_1_1033)">
<path d="M28.945 28.3833C29.1286 26.8996 29.0736 26.682 30.2128 26.9224L30.502 26.947C31.378 26.9857 32.5238 26.8103 33.197 26.5069C34.6462 25.8546 35.5055 24.7655 34.0765 25.0517C30.8171 25.704 30.593 24.6333 30.593 24.6333C34.0348 19.6792 35.4736 13.3904 34.2317 11.851C30.8444 7.65216 24.981 9.6377 24.8829 9.68925L24.8517 9.69485C24.2076 9.56521 23.4869 9.48776 22.6772 9.47506C21.2022 9.45155 20.083 9.85019 19.234 10.4749C19.234 10.4749 8.77407 6.29436 9.26068 15.7324C9.36418 17.7401 12.2272 30.9245 15.642 26.9422C16.89 25.486 18.0961 24.2548 18.0961 24.2548C18.6951 24.6408 19.4121 24.8377 20.1642 24.767L20.2223 24.7189C20.2041 24.8997 20.2121 25.0765 20.2456 25.2859C19.3661 26.2394 19.6245 26.4068 17.8658 26.758C16.0864 27.1137 17.1318 27.7471 17.8141 27.9126C18.6415 28.1134 20.5557 28.3977 21.8493 26.6412L21.7978 26.8416C22.1429 27.1095 22.1196 28.7666 22.1685 29.9505C22.2175 31.1346 22.2992 32.2395 22.548 32.8909C22.7968 33.5422 23.0903 35.2201 25.4017 34.7396C27.3335 34.338 28.8104 33.76 28.945 28.3833Z" fill="black" stroke="black" stroke-width="2.42337"/>
<path d="M34.0769 25.0516C30.8171 25.704 30.593 24.6333 30.593 24.6333C34.0348 19.6788 35.4736 13.3899 34.232 11.8507C30.8446 7.65213 24.981 9.63779 24.8832 9.68934L24.8517 9.69481C24.2077 9.56512 23.4869 9.48785 22.6769 9.47503C21.2018 9.45158 20.083 9.85016 19.234 10.4747C19.234 10.4747 8.7739 6.29438 9.26039 15.7323C9.36388 17.7402 12.2269 30.9246 15.6417 26.9423C16.8898 25.4861 18.0958 24.2549 18.0958 24.2549C18.6948 24.6409 19.4118 24.8378 20.1636 24.767L20.2219 24.719C20.2038 24.8998 20.2121 25.0766 20.2453 25.286C19.3656 26.2395 19.6241 26.4069 17.8655 26.7581C16.0861 27.1138 17.1314 27.7472 17.814 27.9127C18.6414 28.1135 20.5556 28.3978 21.849 26.6413L21.7975 26.8417C22.1422 27.1095 22.3842 28.5838 22.3436 29.9203C22.3031 31.2568 22.276 32.1743 22.5476 32.891C22.8192 33.6077 23.0899 35.2202 25.4017 34.7397C27.3334 34.3381 28.3345 33.2974 28.4737 31.5614C28.5725 30.3273 28.7962 30.5097 28.8103 29.4063L28.9897 28.884C29.1965 27.211 29.0225 26.6713 30.2127 26.9223L30.5019 26.947C31.3779 26.9856 32.5243 26.8103 33.1972 26.5069C34.6461 25.8546 35.5054 24.7655 34.0768 25.0516H34.0769Z" fill="#336791"/>
<path d="M21.989 26.0105C21.8992 29.1234 22.0115 32.2581 22.3255 33.0199C22.6397 33.7817 23.312 35.2635 25.624 34.783C27.5556 34.3813 28.2584 33.6039 28.5634 31.8879C28.788 30.6254 29.221 27.1192 29.2765 26.4008" stroke="white" stroke-width="0.807791" stroke-linecap="round" stroke-linejoin="round"/>
<path d="M19.2179 10.4051C19.2179 10.4051 8.7507 6.25486 9.23731 15.6928C9.3408 17.7007 12.204 30.8856 15.6188 26.903C16.8666 25.4467 17.9952 24.3044 17.9952 24.3044" stroke="white" stroke-width="0.807791" stroke-linecap="round" stroke-linejoin="round"/>
<path d="M24.8719 9.64763C24.5096 9.75783 30.6944 7.45425 34.2093 11.8113C35.4509 13.3506 34.0121 19.6395 30.5704 24.5941" stroke="white" stroke-width="0.807791" stroke-linecap="round" stroke-linejoin="round"/>
<path d="M30.5701 24.5941C30.5701 24.5941 30.7944 25.6651 34.0542 25.0124C35.4825 24.7262 34.6229 25.8154 33.1744 26.468C31.9855 27.0033 29.3202 27.1405 29.2767 26.4008C29.1646 24.4925 30.6794 25.0723 30.5701 24.5941ZM30.5701 24.5941C30.4713 24.1635 29.7939 23.7408 29.3457 22.6868C28.9545 21.7669 23.9802 14.7122 30.7252 15.7599C30.9723 15.7103 28.966 9.53595 22.6537 9.43555C16.3427 9.33515 16.5498 16.9647 16.5498 16.9647" stroke="white" stroke-width="0.807791" stroke-linecap="round" stroke-linejoin="bevel"/>
<path d="M20.2222 25.2467C19.3424 26.2001 19.6012 26.3676 17.8424 26.7189C16.063 27.0747 17.1085 27.7079 17.7908 27.8734C18.6182 28.0743 20.5325 28.3586 21.8259 26.6017C22.2198 26.0667 21.8236 25.2132 21.2825 24.9956C21.0211 24.8905 20.6715 24.7589 20.2222 25.2467Z" stroke="white" stroke-width="0.807791" stroke-linecap="round" stroke-linejoin="round"/>
<path d="M20.1646 25.2299C20.076 24.6693 20.3545 24.0023 20.653 23.2218C21.1016 22.0509 22.1366 20.8797 21.3086 17.1652C20.6915 14.3973 16.5523 16.5892 16.5497 16.9645C16.5471 17.3397 16.7369 18.8669 16.4805 20.6453C16.146 22.9659 18.0026 24.9285 20.1406 24.7277" stroke="white" stroke-width="0.807791" stroke-linecap="round" stroke-linejoin="round"/>
<path d="M19.1798 16.9084C19.1611 17.0366 19.4217 17.3787 19.7615 17.4244C20.1006 17.4703 20.391 17.203 20.4094 17.0749C20.4278 16.9467 20.1675 16.8055 19.8276 16.7596C19.4882 16.7137 19.1978 16.7806 19.1798 16.9084H19.1798Z" fill="white" stroke="white" stroke-width="0.269261"/>
<path d="M29.5112 16.6469C29.5296 16.7751 29.2694 17.1172 28.9295 17.1629C28.5901 17.2088 28.2998 16.9415 28.2812 16.8134C28.2632 16.6852 28.5235 16.544 28.8631 16.4981C29.2026 16.4522 29.4928 16.5191 29.5112 16.647V16.6469Z" fill="white" stroke="white" stroke-width="0.134631"/>
<path d="M30.7254 15.7598C30.7813 16.7653 30.5022 17.4501 30.467 18.5205C30.4149 20.0764 31.2316 21.8571 30.001 23.6401" stroke="white" stroke-width="0.807791" stroke-linecap="round" stroke-linejoin="round"/>
</g>
<defs>
<clipPath id="clip0_1_1033">
<rect width="28" height="28" fill="white" transform="translate(8 8)"/>
</clipPath>
</defs>
</svg>
