<svg width="448" height="254" viewBox="0 0 448 254" fill="none" xmlns="http://www.w3.org/2000/svg">
<g clip-path="url(#clip0_25_64)">
<rect width="448" height="254" rx="8" fill="#16181D"/>
<path d="M429.678 521.5C186.571 521.497 -13.2755 379.428 -89.6582 139.481C-109.243 77.9573 -115.5 38.631 -115.5 -27.2783C-115.5 -101.899 -96.3771 -177.733 -60.2549 -234.895C-24.1373 -292.049 28.9443 -330.499 96.8906 -330.5H205.019L178.42 -290.594H110.523C89.8838 -290.594 76.1218 -280.264 67.5371 -269.961C63.2463 -264.811 60.2441 -259.663 58.3145 -255.803C57.3494 -253.872 56.6513 -252.262 56.1943 -251.133C55.9659 -250.568 55.7981 -250.124 55.6865 -249.819C55.6308 -249.667 55.5884 -249.55 55.5605 -249.471L55.5293 -249.379C55.5253 -249.371 55.5203 -249.36 55.5146 -249.349C55.4968 -249.311 55.471 -249.255 55.4375 -249.182C55.3704 -249.035 55.2729 -248.817 55.1494 -248.526C54.9021 -247.945 54.55 -247.074 54.1289 -245.91C53.2867 -243.583 52.1668 -240.082 51.0479 -235.374C48.8098 -225.958 46.5762 -211.713 46.5762 -192.363C46.5762 -172.975 52.735 -142.171 63.3916 -111.261C74.024 -80.4209 89.1618 -49.3957 107.202 -29.4512L107.225 -28.9014L107.232 -28.7109L107.364 -28.5742L112.477 -23.2783L112.481 -23.2734L112.487 -23.2686L123.686 -12.3418L123.69 -12.3369L123.696 -12.332L124.96 -11.1748C150.726 12.2755 180.788 31.1077 211.679 48.2393L214.72 49.9189L238.973 63.2803L239.581 63.6162L239.706 62.9316H239.707C246.973 66.7383 254.238 70.503 261.472 74.2441L261.611 74.3164H261.612C290.269 89.1382 318.574 103.778 345.774 120.862L348.403 122.523L362.88 132.166C422.833 173.208 470.423 231.212 498.8 299.321L498.68 299.351L498.9 299.887C517.386 344.636 527.741 394.015 527.741 445.636C527.741 447.645 527.691 449.691 527.65 451.896V452.566C527.606 454.959 527.559 457.579 527.559 460.215V462.437C526.774 479.901 524.852 497.042 521.816 513.715C491.869 518.874 461.11 521.5 429.678 521.5ZM567.704 433.919C563.955 294.663 492.548 172.355 385.479 99.041L385.448 99.0098L385.409 98.9834C380.052 95.3221 374.581 91.7971 369.084 88.3213C334.297 65.6297 306.354 51.003 274.439 35.0674C277.945 32.0614 281.201 28.7413 284.124 25.0791C297.427 8.40837 303.587 -13.3966 303.587 -35.7393V-330.499H517.729V-192.181C517.729 -51.8237 602.545 68.8063 723.5 120.331V352.562C677.554 388.685 624.886 416.54 567.704 433.919ZM723.5 76.3105C648.47 38.9923 591.32 -29.3615 568.544 -112.12C579.843 -106.772 592.427 -103.691 605.747 -103.69H605.748C654.403 -103.695 693.766 -143.516 693.766 -192.181V-330.499H723.5V76.3105Z" stroke="#2C2F35"/>
<rect x="24.5" y="157.5" width="100" height="23" rx="7.5" stroke="white" stroke-opacity="0.1"/>
<path d="M32.24 173.5L36.128 169.408C36.328 169.192 36.5 168.984 36.644 168.784C36.788 168.584 36.896 168.384 36.968 168.184C37.04 167.984 37.076 167.772 37.076 167.548C37.076 167.388 37.044 167.232 36.98 167.08C36.924 166.92 36.832 166.776 36.704 166.648C36.584 166.52 36.436 166.42 36.26 166.348C36.084 166.268 35.88 166.228 35.648 166.228C35.328 166.228 35.052 166.304 34.82 166.456C34.588 166.6 34.408 166.812 34.28 167.092C34.16 167.372 34.1 167.696 34.1 168.064H32.696C32.696 167.464 32.808 166.932 33.032 166.468C33.264 165.996 33.6 165.628 34.04 165.364C34.488 165.092 35.032 164.956 35.672 164.956C36.16 164.956 36.584 165.036 36.944 165.196C37.304 165.348 37.6 165.548 37.832 165.796C38.072 166.044 38.248 166.316 38.36 166.612C38.48 166.908 38.54 167.196 38.54 167.476C38.54 167.916 38.432 168.34 38.216 168.748C38.008 169.156 37.732 169.52 37.388 169.84L35 172.18H38.648V173.5H32.24ZM39.3022 171.232V170.068H41.7622V171.232H39.3022ZM50.5443 169.996V173.5H49.2483V170.14C49.2483 169.724 49.1723 169.416 49.0203 169.216C48.8763 169.008 48.6443 168.904 48.3243 168.904C48.1083 168.904 47.9163 168.952 47.7483 169.048C47.5883 169.144 47.4603 169.284 47.3643 169.468C47.2763 169.652 47.2323 169.876 47.2323 170.14V173.5H45.9363V170.14C45.9363 169.724 45.8603 169.416 45.7083 169.216C45.5643 169.008 45.3323 168.904 45.0123 168.904C44.7883 168.904 44.5923 168.952 44.4243 169.048C44.2643 169.144 44.1403 169.284 44.0523 169.468C43.9643 169.652 43.9203 169.876 43.9203 170.14V173.5H42.6483V167.98H43.9203V168.784C44.0803 168.48 44.2883 168.252 44.5443 168.1C44.8083 167.94 45.1163 167.86 45.4683 167.86C45.8763 167.86 46.2123 167.944 46.4763 168.112C46.7483 168.28 46.9443 168.524 47.0643 168.844C47.2563 168.524 47.4963 168.28 47.7843 168.112C48.0803 167.944 48.4163 167.86 48.7923 167.86C49.1843 167.86 49.5083 167.944 49.7643 168.112C50.0283 168.272 50.2243 168.512 50.3523 168.832C50.4803 169.152 50.5443 169.54 50.5443 169.996ZM52.1511 165.784C52.1511 165.56 52.2311 165.372 52.3911 165.22C52.5591 165.068 52.7511 164.992 52.9671 164.992C53.1991 164.992 53.3911 165.068 53.5431 165.22C53.7031 165.372 53.7831 165.56 53.7831 165.784C53.7831 166 53.7031 166.188 53.5431 166.348C53.3911 166.5 53.1991 166.576 52.9671 166.576C52.7511 166.576 52.5591 166.5 52.3911 166.348C52.2311 166.188 52.1511 166 52.1511 165.784ZM52.3311 167.98H53.6031V173.5H52.3311V167.98ZM58.9386 170.14C58.9386 169.732 58.8546 169.424 58.6866 169.216C58.5186 169.008 58.2586 168.904 57.9066 168.904C57.6666 168.904 57.4546 168.956 57.2706 169.06C57.0866 169.156 56.9426 169.3 56.8386 169.492C56.7346 169.676 56.6826 169.892 56.6826 170.14V173.5H55.3866V167.98H56.6826V168.832C56.8586 168.504 57.0826 168.26 57.3546 168.1C57.6346 167.94 57.9666 167.86 58.3506 167.86C58.9746 167.86 59.4506 168.052 59.7786 168.436C60.1066 168.812 60.2706 169.332 60.2706 169.996V173.5H58.9386V170.14ZM63.2577 171.34C63.2577 171.732 63.3417 172.036 63.5097 172.252C63.6777 172.468 63.9337 172.576 64.2777 172.576C64.5257 172.576 64.7417 172.528 64.9257 172.432C65.1097 172.328 65.2537 172.184 65.3577 172C65.4617 171.808 65.5137 171.588 65.5137 171.34V167.98H66.8097V173.5H65.5137V172.648C65.3377 172.968 65.1097 173.212 64.8297 173.38C64.5577 173.54 64.2297 173.62 63.8457 173.62C63.2297 173.62 62.7537 173.428 62.4177 173.044C62.0897 172.66 61.9257 172.14 61.9257 171.484V167.98H63.2577V171.34ZM67.6967 167.98H70.8287V169.12H67.6967V167.98ZM68.6207 166.06H69.9047V173.5H68.6207V166.06ZM74.1225 173.62C73.5625 173.62 73.0665 173.5 72.6345 173.26C72.2105 173.02 71.8825 172.684 71.6505 172.252C71.4185 171.82 71.3025 171.316 71.3025 170.74C71.3025 170.156 71.4185 169.648 71.6505 169.216C71.8905 168.784 72.2265 168.452 72.6585 168.22C73.0905 167.98 73.5985 167.86 74.1825 167.86C74.7665 167.86 75.2625 167.972 75.6705 168.196C76.0785 168.42 76.3905 168.744 76.6065 169.168C76.8305 169.584 76.9425 170.088 76.9425 170.68C76.9425 170.744 76.9385 170.812 76.9305 170.884C76.9305 170.956 76.9265 171.008 76.9185 171.04H72.0705V170.152H75.8145L75.4185 170.704C75.4425 170.656 75.4665 170.592 75.4905 170.512C75.5225 170.424 75.5385 170.352 75.5385 170.296C75.5385 170 75.4785 169.744 75.3585 169.528C75.2465 169.312 75.0865 169.144 74.8785 169.024C74.6785 168.904 74.4425 168.844 74.1705 168.844C73.8425 168.844 73.5625 168.916 73.3305 169.06C73.0985 169.204 72.9225 169.412 72.8025 169.684C72.6825 169.956 72.6185 170.292 72.6105 170.692C72.6105 171.092 72.6705 171.432 72.7905 171.712C72.9105 171.984 73.0865 172.192 73.3185 172.336C73.5585 172.48 73.8465 172.552 74.1825 172.552C74.5345 172.552 74.8425 172.48 75.1065 172.336C75.3705 172.192 75.5905 171.972 75.7665 171.676L76.8825 172.132C76.5945 172.628 76.2225 173 75.7665 173.248C75.3105 173.496 74.7625 173.62 74.1225 173.62ZM78.4316 171.688C78.6076 171.88 78.7836 172.048 78.9596 172.192C79.1436 172.328 79.3276 172.432 79.5116 172.504C79.6956 172.568 79.8796 172.6 80.0636 172.6C80.2956 172.6 80.4756 172.548 80.6036 172.444C80.7396 172.34 80.8076 172.196 80.8076 172.012C80.8076 171.852 80.7556 171.716 80.6516 171.604C80.5476 171.484 80.4036 171.384 80.2196 171.304C80.0356 171.216 79.8196 171.128 79.5716 171.04C79.3236 170.944 79.0756 170.832 78.8276 170.704C78.5876 170.568 78.3876 170.392 78.2276 170.176C78.0756 169.96 77.9996 169.688 77.9996 169.36C77.9996 169.024 78.0836 168.744 78.2516 168.52C78.4276 168.296 78.6596 168.132 78.9476 168.028C79.2436 167.916 79.5596 167.86 79.8956 167.86C80.1996 167.86 80.4836 167.904 80.7476 167.992C81.0196 168.08 81.2636 168.196 81.4796 168.34C81.6956 168.484 81.8796 168.648 82.0316 168.832L81.3116 169.6C81.1276 169.384 80.9076 169.208 80.6516 169.072C80.3956 168.936 80.1316 168.868 79.8596 168.868C79.6756 168.868 79.5236 168.908 79.4036 168.988C79.2836 169.068 79.2236 169.184 79.2236 169.336C79.2236 169.464 79.2756 169.58 79.3796 169.684C79.4916 169.78 79.6356 169.868 79.8116 169.948C79.9956 170.028 80.1996 170.112 80.4236 170.2C80.7276 170.32 81.0076 170.452 81.2636 170.596C81.5196 170.74 81.7236 170.916 81.8756 171.124C82.0356 171.332 82.1156 171.604 82.1156 171.94C82.1156 172.46 81.9356 172.88 81.5756 173.2C81.2236 173.512 80.7436 173.668 80.1356 173.668C79.7596 173.668 79.4116 173.612 79.0916 173.5C78.7796 173.38 78.5036 173.228 78.2636 173.044C78.0316 172.852 77.8356 172.652 77.6756 172.444L78.4316 171.688ZM86.5512 173.872H87.8352C87.8432 174.12 87.9112 174.344 88.0392 174.544C88.1752 174.744 88.3592 174.9 88.5912 175.012C88.8232 175.124 89.0912 175.18 89.3952 175.18C89.6672 175.18 89.9272 175.116 90.1752 174.988C90.4232 174.86 90.6232 174.664 90.7752 174.4C90.9352 174.136 91.0152 173.796 91.0152 173.38V167.98H92.2872V173.38C92.2872 174.044 92.1512 174.592 91.8792 175.024C91.6152 175.456 91.2672 175.776 90.8352 175.984C90.4032 176.2 89.9352 176.308 89.4312 176.308C88.8312 176.308 88.3192 176.204 87.8952 175.996C87.4712 175.796 87.1432 175.512 86.9112 175.144C86.6872 174.776 86.5672 174.352 86.5512 173.872ZM86.4432 170.716C86.4432 170.1 86.5672 169.584 86.8152 169.168C87.0632 168.744 87.3912 168.42 87.7992 168.196C88.2152 167.972 88.6592 167.86 89.1312 167.86C89.5952 167.86 89.9992 167.976 90.3432 168.208C90.6952 168.432 90.9712 168.756 91.1712 169.18C91.3792 169.604 91.4832 170.116 91.4832 170.716C91.4832 171.308 91.3792 171.816 91.1712 172.24C90.9712 172.664 90.6952 172.992 90.3432 173.224C89.9992 173.448 89.5952 173.56 89.1312 173.56C88.6592 173.56 88.2152 173.448 87.7992 173.224C87.3912 173 87.0632 172.676 86.8152 172.252C86.5672 171.828 86.4432 171.316 86.4432 170.716ZM87.7872 170.716C87.7872 171.084 87.8632 171.396 88.0152 171.652C88.1672 171.908 88.3672 172.104 88.6152 172.24C88.8712 172.368 89.1472 172.432 89.4432 172.432C89.6912 172.432 89.9352 172.368 90.1752 172.24C90.4232 172.112 90.6232 171.92 90.7752 171.664C90.9352 171.4 91.0152 171.084 91.0152 170.716C91.0152 170.428 90.9672 170.18 90.8712 169.972C90.7832 169.756 90.6632 169.576 90.5112 169.432C90.3592 169.28 90.1872 169.168 89.9952 169.096C89.8112 169.024 89.6272 168.988 89.4432 168.988C89.1472 168.988 88.8712 169.056 88.6152 169.192C88.3672 169.32 88.1672 169.512 88.0152 169.768C87.8632 170.024 87.7872 170.34 87.7872 170.716ZM95.2264 171.34C95.2264 171.732 95.3104 172.036 95.4784 172.252C95.6464 172.468 95.9024 172.576 96.2464 172.576C96.4944 172.576 96.7104 172.528 96.8944 172.432C97.0784 172.328 97.2224 172.184 97.3264 172C97.4304 171.808 97.4824 171.588 97.4824 171.34V167.98H98.7784V173.5H97.4824V172.648C97.3064 172.968 97.0784 173.212 96.7984 173.38C96.5264 173.54 96.1984 173.62 95.8144 173.62C95.1984 173.62 94.7224 173.428 94.3864 173.044C94.0584 172.66 93.8944 172.14 93.8944 171.484V167.98H95.2264V171.34ZM100.385 165.784C100.385 165.56 100.465 165.372 100.625 165.22C100.793 165.068 100.985 164.992 101.201 164.992C101.433 164.992 101.625 165.068 101.777 165.22C101.937 165.372 102.017 165.56 102.017 165.784C102.017 166 101.937 166.188 101.777 166.348C101.625 166.5 101.433 166.576 101.201 166.576C100.985 166.576 100.793 166.5 100.625 166.348C100.465 166.188 100.385 166 100.385 165.784ZM100.565 167.98H101.837V173.5H100.565V167.98ZM107.773 164.14H109.081V173.5H107.773V164.14ZM103.201 170.74C103.201 170.132 103.325 169.616 103.573 169.192C103.821 168.76 104.149 168.432 104.557 168.208C104.973 167.976 105.417 167.86 105.889 167.86C106.353 167.86 106.757 167.976 107.101 168.208C107.453 168.44 107.729 168.772 107.929 169.204C108.137 169.628 108.241 170.14 108.241 170.74C108.241 171.332 108.137 171.844 107.929 172.276C107.729 172.708 107.453 173.04 107.101 173.272C106.757 173.504 106.353 173.62 105.889 173.62C105.417 173.62 104.973 173.508 104.557 173.284C104.149 173.052 103.821 172.72 103.573 172.288C103.325 171.856 103.201 171.34 103.201 170.74ZM104.545 170.74C104.545 171.108 104.621 171.424 104.773 171.688C104.925 171.952 105.125 172.152 105.373 172.288C105.629 172.424 105.905 172.492 106.201 172.492C106.449 172.492 106.693 172.424 106.933 172.288C107.181 172.152 107.381 171.956 107.533 171.7C107.693 171.436 107.773 171.116 107.773 170.74C107.773 170.364 107.693 170.048 107.533 169.792C107.381 169.528 107.181 169.328 106.933 169.192C106.693 169.056 106.449 168.988 106.201 168.988C105.905 168.988 105.629 169.056 105.373 169.192C105.125 169.328 104.925 169.528 104.773 169.792C104.621 170.056 104.545 170.372 104.545 170.74ZM113.087 173.62C112.527 173.62 112.031 173.5 111.599 173.26C111.175 173.02 110.847 172.684 110.615 172.252C110.383 171.82 110.267 171.316 110.267 170.74C110.267 170.156 110.383 169.648 110.615 169.216C110.855 168.784 111.191 168.452 111.623 168.22C112.055 167.98 112.563 167.86 113.147 167.86C113.731 167.86 114.227 167.972 114.635 168.196C115.043 168.42 115.355 168.744 115.571 169.168C115.795 169.584 115.907 170.088 115.907 170.68C115.907 170.744 115.903 170.812 115.895 170.884C115.895 170.956 115.891 171.008 115.883 171.04H111.035V170.152H114.779L114.383 170.704C114.407 170.656 114.431 170.592 114.455 170.512C114.487 170.424 114.503 170.352 114.503 170.296C114.503 170 114.443 169.744 114.323 169.528C114.211 169.312 114.051 169.144 113.843 169.024C113.643 168.904 113.407 168.844 113.135 168.844C112.807 168.844 112.527 168.916 112.295 169.06C112.063 169.204 111.887 169.412 111.767 169.684C111.647 169.956 111.583 170.292 111.575 170.692C111.575 171.092 111.635 171.432 111.755 171.712C111.875 171.984 112.051 172.192 112.283 172.336C112.523 172.48 112.811 172.552 113.147 172.552C113.499 172.552 113.807 172.48 114.071 172.336C114.335 172.192 114.555 171.972 114.731 171.676L115.847 172.132C115.559 172.628 115.187 173 114.731 173.248C114.275 173.496 113.727 173.62 113.087 173.62Z" fill="white"/>
<path d="M26.952 212.608V209.512H39.288V212.608H26.952ZM37.104 203.2H40.536V220H37.104V203.2ZM25.824 203.2H29.256V220H25.824V203.2ZM43.1201 214.48C43.1201 213.328 43.3841 212.32 43.9121 211.456C44.4561 210.592 45.1841 209.92 46.0961 209.44C47.0241 208.96 48.0721 208.72 49.2401 208.72C50.4081 208.72 51.4481 208.96 52.3601 209.44C53.2881 209.92 54.0161 210.592 54.5441 211.456C55.0881 212.32 55.3601 213.328 55.3601 214.48C55.3601 215.616 55.0881 216.624 54.5441 217.504C54.0161 218.368 53.2881 219.04 52.3601 219.52C51.4481 220 50.4081 220.24 49.2401 220.24C48.0721 220.24 47.0241 220 46.0961 219.52C45.1841 219.04 44.4561 218.368 43.9121 217.504C43.3841 216.624 43.1201 215.616 43.1201 214.48ZM46.2881 214.48C46.2881 215.104 46.4161 215.656 46.6721 216.136C46.9441 216.6 47.3041 216.968 47.7521 217.24C48.2001 217.496 48.6961 217.624 49.2401 217.624C49.7841 217.624 50.2801 217.496 50.7281 217.24C51.1761 216.968 51.5281 216.6 51.7841 216.136C52.0561 215.656 52.1921 215.104 52.1921 214.48C52.1921 213.856 52.0561 213.304 51.7841 212.824C51.5281 212.344 51.1761 211.976 50.7281 211.72C50.2801 211.464 49.7841 211.336 49.2401 211.336C48.6961 211.336 48.2001 211.464 47.7521 211.72C47.3041 211.976 46.9441 212.344 46.6721 212.824C46.4161 213.304 46.2881 213.856 46.2881 214.48ZM55.7087 208.96H59.0207L61.4447 215.08L64.5647 208.12L67.8047 215.104L70.2527 208.96H73.5407L68.1407 220.744L64.5887 213.712L61.1327 220.744L55.7087 208.96ZM80.7919 208.96H87.6079V211.576H80.7919V208.96ZM82.6879 205.12H85.6879V220H82.6879V205.12ZM88.5186 214.48C88.5186 213.328 88.7826 212.32 89.3106 211.456C89.8546 210.592 90.5826 209.92 91.4946 209.44C92.4226 208.96 93.4706 208.72 94.6386 208.72C95.8066 208.72 96.8466 208.96 97.7586 209.44C98.6866 209.92 99.4146 210.592 99.9426 211.456C100.487 212.32 100.759 213.328 100.759 214.48C100.759 215.616 100.487 216.624 99.9426 217.504C99.4146 218.368 98.6866 219.04 97.7586 219.52C96.8466 220 95.8066 220.24 94.6386 220.24C93.4706 220.24 92.4226 220 91.4946 219.52C90.5826 219.04 89.8546 218.368 89.3106 217.504C88.7826 216.624 88.5186 215.616 88.5186 214.48ZM91.6866 214.48C91.6866 215.104 91.8146 215.656 92.0706 216.136C92.3426 216.6 92.7026 216.968 93.1506 217.24C93.5986 217.496 94.0946 217.624 94.6386 217.624C95.1826 217.624 95.6786 217.496 96.1266 217.24C96.5746 216.968 96.9266 216.6 97.1826 216.136C97.4546 215.656 97.5906 215.104 97.5906 214.48C97.5906 213.856 97.4546 213.304 97.1826 212.824C96.9266 212.344 96.5746 211.976 96.1266 211.72C95.6786 211.464 95.1826 211.336 94.6386 211.336C94.0946 211.336 93.5986 211.464 93.1506 211.72C92.7026 211.976 92.3426 212.344 92.0706 212.824C91.8146 213.304 91.6866 213.856 91.6866 214.48ZM110.142 204.688C110.142 204.176 110.326 203.76 110.694 203.44C111.062 203.104 111.502 202.936 112.014 202.936C112.526 202.936 112.958 203.104 113.31 203.44C113.678 203.76 113.862 204.176 113.862 204.688C113.862 205.184 113.678 205.6 113.31 205.936C112.958 206.272 112.526 206.44 112.014 206.44C111.502 206.44 111.062 206.272 110.694 205.936C110.326 205.6 110.142 205.184 110.142 204.688ZM110.478 208.96H113.502V220H110.478V208.96ZM123.93 213.28C123.93 212.544 123.786 211.984 123.498 211.6C123.21 211.216 122.746 211.024 122.106 211.024C121.674 211.024 121.29 211.12 120.954 211.312C120.618 211.488 120.362 211.744 120.186 212.08C120.01 212.416 119.922 212.816 119.922 213.28V220H116.802V208.96H119.922V210.64C120.258 210.016 120.698 209.544 121.242 209.224C121.802 208.888 122.474 208.72 123.258 208.72C124.57 208.72 125.546 209.096 126.186 209.848C126.826 210.584 127.146 211.616 127.146 212.944V220H123.93V213.28ZM130.76 216.184C131.224 216.616 131.656 216.968 132.056 217.24C132.456 217.496 132.832 217.688 133.184 217.816C133.552 217.944 133.896 218.008 134.216 218.008C134.632 218.008 134.952 217.92 135.176 217.744C135.4 217.552 135.512 217.296 135.512 216.976C135.512 216.688 135.416 216.448 135.224 216.256C135.048 216.048 134.784 215.864 134.432 215.704C134.08 215.544 133.632 215.376 133.088 215.2C132.576 215.008 132.08 214.784 131.6 214.528C131.12 214.256 130.72 213.904 130.4 213.472C130.096 213.024 129.944 212.456 129.944 211.768C129.944 211.112 130.12 210.56 130.472 210.112C130.824 209.648 131.296 209.304 131.888 209.08C132.496 208.84 133.168 208.72 133.904 208.72C134.528 208.72 135.112 208.8 135.656 208.96C136.2 209.12 136.704 209.336 137.168 209.608C137.632 209.864 138.04 210.168 138.392 210.52L137.024 212.44C136.624 212.008 136.144 211.656 135.584 211.384C135.04 211.112 134.504 210.976 133.976 210.976C133.624 210.976 133.344 211.048 133.136 211.192C132.944 211.32 132.848 211.52 132.848 211.792C132.848 212.032 132.944 212.248 133.136 212.44C133.344 212.616 133.632 212.776 134 212.92C134.384 213.064 134.816 213.24 135.296 213.448C135.888 213.672 136.432 213.928 136.928 214.216C137.44 214.488 137.848 214.832 138.152 215.248C138.456 215.664 138.608 216.208 138.608 216.88C138.608 217.984 138.248 218.848 137.528 219.472C136.808 220.08 135.816 220.384 134.552 220.384C133.768 220.384 133.048 220.28 132.392 220.072C131.752 219.864 131.168 219.592 130.64 219.256C130.128 218.904 129.664 218.528 129.248 218.128L130.76 216.184ZM139.339 208.96H146.155V211.576H139.339V208.96ZM141.235 205.12H144.235V220H141.235V205.12ZM150.017 216.568C150.017 216.888 150.097 217.168 150.257 217.408C150.417 217.632 150.633 217.808 150.905 217.936C151.193 218.048 151.505 218.104 151.841 218.104C152.321 218.104 152.753 218.008 153.137 217.816C153.521 217.608 153.833 217.32 154.073 216.952C154.313 216.568 154.433 216.112 154.433 215.584L154.817 217.024C154.817 217.728 154.617 218.32 154.217 218.8C153.833 219.28 153.329 219.64 152.705 219.88C152.097 220.12 151.457 220.24 150.785 220.24C150.097 220.24 149.457 220.104 148.865 219.832C148.273 219.56 147.793 219.168 147.425 218.656C147.073 218.128 146.897 217.488 146.897 216.736C146.897 215.664 147.273 214.816 148.025 214.192C148.777 213.568 149.841 213.256 151.217 213.256C151.921 213.256 152.537 213.328 153.065 213.472C153.609 213.616 154.065 213.792 154.433 214C154.801 214.208 155.065 214.408 155.225 214.6V216.04C154.793 215.72 154.305 215.48 153.761 215.32C153.233 215.16 152.673 215.08 152.081 215.08C151.601 215.08 151.209 215.144 150.905 215.272C150.601 215.384 150.377 215.552 150.233 215.776C150.089 215.984 150.017 216.248 150.017 216.568ZM148.817 212.08L147.665 209.968C148.241 209.664 148.945 209.376 149.777 209.104C150.609 208.816 151.537 208.672 152.561 208.672C153.505 208.672 154.345 208.808 155.081 209.08C155.817 209.352 156.393 209.752 156.809 210.28C157.225 210.792 157.433 211.424 157.433 212.176V220H154.433V212.824C154.433 212.52 154.385 212.264 154.289 212.056C154.193 211.832 154.041 211.648 153.833 211.504C153.641 211.36 153.409 211.256 153.137 211.192C152.865 211.128 152.561 211.096 152.225 211.096C151.713 211.096 151.225 211.152 150.761 211.264C150.297 211.376 149.897 211.512 149.561 211.672C149.225 211.832 148.977 211.968 148.817 212.08ZM160.325 201.28H163.445V220H160.325V201.28ZM166.513 201.28H169.633V220H166.513V201.28ZM180.183 203.2H183.615V220H180.183V203.2ZM182.271 206.104V203.2H185.607C186.935 203.2 188.063 203.416 188.991 203.848C189.935 204.28 190.655 204.896 191.151 205.696C191.647 206.496 191.895 207.448 191.895 208.552C191.895 209.64 191.647 210.592 191.151 211.408C190.655 212.208 189.935 212.824 188.991 213.256C188.063 213.688 186.935 213.904 185.607 213.904H182.271V211H185.607C186.519 211 187.239 210.792 187.767 210.376C188.295 209.96 188.559 209.352 188.559 208.552C188.559 207.736 188.295 207.128 187.767 206.728C187.239 206.312 186.519 206.104 185.607 206.104H182.271ZM192.792 214.48C192.792 213.328 193.056 212.32 193.584 211.456C194.128 210.592 194.856 209.92 195.768 209.44C196.696 208.96 197.744 208.72 198.912 208.72C200.08 208.72 201.12 208.96 202.032 209.44C202.96 209.92 203.688 210.592 204.216 211.456C204.76 212.32 205.032 213.328 205.032 214.48C205.032 215.616 204.76 216.624 204.216 217.504C203.688 218.368 202.96 219.04 202.032 219.52C201.12 220 200.08 220.24 198.912 220.24C197.744 220.24 196.696 220 195.768 219.52C194.856 219.04 194.128 218.368 193.584 217.504C193.056 216.624 192.792 215.616 192.792 214.48ZM195.96 214.48C195.96 215.104 196.088 215.656 196.344 216.136C196.616 216.6 196.976 216.968 197.424 217.24C197.872 217.496 198.368 217.624 198.912 217.624C199.456 217.624 199.952 217.496 200.4 217.24C200.848 216.968 201.2 216.6 201.456 216.136C201.728 215.656 201.864 215.104 201.864 214.48C201.864 213.856 201.728 213.304 201.456 212.824C201.2 212.344 200.848 211.976 200.4 211.72C199.952 211.464 199.456 211.336 198.912 211.336C198.368 211.336 197.872 211.464 197.424 211.72C196.976 211.976 196.616 212.344 196.344 212.824C196.088 213.304 195.96 213.856 195.96 214.48ZM207.916 216.184C208.38 216.616 208.812 216.968 209.212 217.24C209.612 217.496 209.988 217.688 210.34 217.816C210.708 217.944 211.052 218.008 211.372 218.008C211.788 218.008 212.108 217.92 212.332 217.744C212.556 217.552 212.668 217.296 212.668 216.976C212.668 216.688 212.572 216.448 212.38 216.256C212.204 216.048 211.94 215.864 211.588 215.704C211.236 215.544 210.788 215.376 210.244 215.2C209.732 215.008 209.236 214.784 208.756 214.528C208.276 214.256 207.876 213.904 207.556 213.472C207.252 213.024 207.1 212.456 207.1 211.768C207.1 211.112 207.276 210.56 207.628 210.112C207.98 209.648 208.452 209.304 209.044 209.08C209.652 208.84 210.324 208.72 211.06 208.72C211.684 208.72 212.268 208.8 212.812 208.96C213.356 209.12 213.86 209.336 214.324 209.608C214.788 209.864 215.196 210.168 215.548 210.52L214.18 212.44C213.78 212.008 213.3 211.656 212.74 211.384C212.196 211.112 211.66 210.976 211.132 210.976C210.78 210.976 210.5 211.048 210.292 211.192C210.1 211.32 210.004 211.52 210.004 211.792C210.004 212.032 210.1 212.248 210.292 212.44C210.5 212.616 210.788 212.776 211.156 212.92C211.54 213.064 211.972 213.24 212.452 213.448C213.044 213.672 213.588 213.928 214.084 214.216C214.596 214.488 215.004 214.832 215.308 215.248C215.612 215.664 215.764 216.208 215.764 216.88C215.764 217.984 215.404 218.848 214.684 219.472C213.964 220.08 212.972 220.384 211.708 220.384C210.924 220.384 210.204 220.28 209.548 220.072C208.908 219.864 208.324 219.592 207.796 219.256C207.284 218.904 206.82 218.528 206.404 218.128L207.916 216.184ZM216.495 208.96H223.311V211.576H216.495V208.96ZM218.391 205.12H221.391V220H218.391V205.12ZM224.438 220.768H227.486C227.502 221.248 227.63 221.656 227.87 221.992C228.11 222.344 228.438 222.616 228.854 222.808C229.27 223 229.758 223.096 230.318 223.096C230.83 223.096 231.31 222.976 231.758 222.736C232.222 222.496 232.59 222.128 232.862 221.632C233.15 221.136 233.294 220.512 233.294 219.76V208.96H236.294V219.76C236.294 221.12 236.022 222.24 235.478 223.12C234.95 224 234.238 224.64 233.342 225.04C232.446 225.456 231.47 225.664 230.414 225.664C229.134 225.664 228.062 225.456 227.198 225.04C226.334 224.64 225.67 224.064 225.206 223.312C224.758 222.576 224.502 221.728 224.438 220.768ZM224.222 214.384C224.222 213.152 224.47 212.12 224.966 211.288C225.462 210.44 226.118 209.8 226.934 209.368C227.75 208.936 228.614 208.72 229.526 208.72C230.454 208.72 231.27 208.944 231.974 209.392C232.694 209.84 233.254 210.488 233.654 211.336C234.07 212.168 234.278 213.184 234.278 214.384C234.278 215.568 234.07 216.584 233.654 217.432C233.254 218.28 232.694 218.928 231.974 219.376C231.27 219.808 230.454 220.024 229.526 220.024C228.614 220.024 227.75 219.808 226.934 219.376C226.118 218.944 225.462 218.312 224.966 217.48C224.47 216.632 224.222 215.6 224.222 214.384ZM227.438 214.384C227.438 215.04 227.574 215.6 227.846 216.064C228.118 216.512 228.486 216.856 228.95 217.096C229.414 217.336 229.91 217.456 230.438 217.456C230.902 217.456 231.35 217.344 231.782 217.12C232.23 216.88 232.59 216.536 232.862 216.088C233.15 215.624 233.294 215.056 233.294 214.384C233.294 213.872 233.214 213.424 233.054 213.04C232.894 212.656 232.67 212.336 232.382 212.08C232.11 211.824 231.806 211.632 231.47 211.504C231.134 211.36 230.79 211.288 230.438 211.288C229.91 211.288 229.414 211.408 228.95 211.648C228.486 211.888 228.118 212.24 227.846 212.704C227.574 213.152 227.438 213.712 227.438 214.384ZM242.357 208.96V220H239.309V208.96H242.357ZM245.597 212.2C245.389 212.008 245.173 211.864 244.949 211.768C244.741 211.656 244.477 211.6 244.157 211.6C243.773 211.6 243.445 211.704 243.173 211.912C242.901 212.12 242.693 212.416 242.549 212.8C242.421 213.168 242.357 213.616 242.357 214.144L241.493 213.28C241.493 212.4 241.661 211.624 241.997 210.952C242.333 210.264 242.773 209.72 243.317 209.32C243.861 208.904 244.421 208.696 244.997 208.696C245.397 208.696 245.773 208.768 246.125 208.912C246.493 209.056 246.789 209.272 247.013 209.56L245.597 212.2ZM253.517 220.24C252.317 220.24 251.269 220 250.373 219.52C249.477 219.04 248.781 218.376 248.285 217.528C247.805 216.664 247.565 215.648 247.565 214.48C247.565 213.296 247.805 212.28 248.285 211.432C248.781 210.568 249.477 209.904 250.373 209.44C251.269 208.96 252.325 208.72 253.541 208.72C254.757 208.72 255.789 208.944 256.637 209.392C257.501 209.824 258.157 210.464 258.605 211.312C259.053 212.144 259.277 213.152 259.277 214.336C259.277 214.48 259.269 214.632 259.253 214.792C259.253 214.952 259.245 215.08 259.229 215.176H249.341V213.256H256.517L255.677 214.36C255.741 214.264 255.797 214.136 255.845 213.976C255.909 213.8 255.941 213.656 255.941 213.544C255.941 213 255.837 212.536 255.629 212.152C255.437 211.768 255.157 211.464 254.789 211.24C254.421 211.016 253.989 210.904 253.493 210.904C252.885 210.904 252.373 211.04 251.957 211.312C251.557 211.568 251.245 211.96 251.021 212.488C250.813 213 250.701 213.64 250.685 214.408C250.685 215.144 250.789 215.768 250.997 216.28C251.221 216.792 251.549 217.184 251.981 217.456C252.413 217.728 252.933 217.864 253.541 217.864C254.229 217.864 254.813 217.736 255.293 217.48C255.789 217.208 256.197 216.808 256.517 216.28L259.229 217.12C258.653 218.16 257.885 218.944 256.925 219.472C255.981 219.984 254.845 220.24 253.517 220.24ZM262.174 216.184C262.638 216.616 263.07 216.968 263.47 217.24C263.87 217.496 264.246 217.688 264.598 217.816C264.966 217.944 265.31 218.008 265.63 218.008C266.046 218.008 266.366 217.92 266.59 217.744C266.814 217.552 266.926 217.296 266.926 216.976C266.926 216.688 266.83 216.448 266.638 216.256C266.462 216.048 266.198 215.864 265.846 215.704C265.494 215.544 265.046 215.376 264.502 215.2C263.99 215.008 263.494 214.784 263.014 214.528C262.534 214.256 262.134 213.904 261.814 213.472C261.51 213.024 261.358 212.456 261.358 211.768C261.358 211.112 261.534 210.56 261.886 210.112C262.238 209.648 262.71 209.304 263.302 209.08C263.91 208.84 264.582 208.72 265.318 208.72C265.942 208.72 266.526 208.8 267.07 208.96C267.614 209.12 268.118 209.336 268.582 209.608C269.046 209.864 269.454 210.168 269.806 210.52L268.438 212.44C268.038 212.008 267.558 211.656 266.998 211.384C266.454 211.112 265.918 210.976 265.39 210.976C265.038 210.976 264.758 211.048 264.55 211.192C264.358 211.32 264.262 211.52 264.262 211.792C264.262 212.032 264.358 212.248 264.55 212.44C264.758 212.616 265.046 212.776 265.414 212.92C265.798 213.064 266.23 213.24 266.71 213.448C267.302 213.672 267.846 213.928 268.342 214.216C268.854 214.488 269.262 214.832 269.566 215.248C269.87 215.664 270.022 216.208 270.022 216.88C270.022 217.984 269.662 218.848 268.942 219.472C268.222 220.08 267.23 220.384 265.966 220.384C265.182 220.384 264.462 220.28 263.806 220.072C263.166 219.864 262.582 219.592 262.054 219.256C261.542 218.904 261.078 218.528 260.662 218.128L262.174 216.184ZM275.385 215.68C275.385 216.4 275.529 216.96 275.817 217.36C276.105 217.744 276.569 217.936 277.209 217.936C277.657 217.936 278.041 217.848 278.361 217.672C278.697 217.48 278.953 217.216 279.129 216.88C279.321 216.544 279.417 216.144 279.417 215.68V208.96H282.513V220H279.417V218.32C279.065 218.944 278.617 219.424 278.073 219.76C277.529 220.08 276.865 220.24 276.081 220.24C274.769 220.24 273.785 219.864 273.129 219.112C272.489 218.36 272.169 217.328 272.169 216.016V208.96H275.385V215.68ZM286.127 216.184C286.591 216.616 287.023 216.968 287.423 217.24C287.823 217.496 288.199 217.688 288.551 217.816C288.919 217.944 289.263 218.008 289.583 218.008C289.999 218.008 290.319 217.92 290.543 217.744C290.767 217.552 290.879 217.296 290.879 216.976C290.879 216.688 290.783 216.448 290.591 216.256C290.415 216.048 290.151 215.864 289.799 215.704C289.447 215.544 288.999 215.376 288.455 215.2C287.943 215.008 287.447 214.784 286.967 214.528C286.487 214.256 286.087 213.904 285.767 213.472C285.463 213.024 285.311 212.456 285.311 211.768C285.311 211.112 285.487 210.56 285.839 210.112C286.191 209.648 286.663 209.304 287.255 209.08C287.863 208.84 288.535 208.72 289.271 208.72C289.895 208.72 290.479 208.8 291.023 208.96C291.567 209.12 292.071 209.336 292.535 209.608C292.999 209.864 293.407 210.168 293.759 210.52L292.391 212.44C291.991 212.008 291.511 211.656 290.951 211.384C290.407 211.112 289.871 210.976 289.343 210.976C288.991 210.976 288.711 211.048 288.503 211.192C288.311 211.32 288.215 211.52 288.215 211.792C288.215 212.032 288.311 212.248 288.503 212.44C288.711 212.616 288.999 212.776 289.367 212.92C289.751 213.064 290.183 213.24 290.663 213.448C291.255 213.672 291.799 213.928 292.295 214.216C292.807 214.488 293.215 214.832 293.519 215.248C293.823 215.664 293.975 216.208 293.975 216.88C293.975 217.984 293.615 218.848 292.895 219.472C292.175 220.08 291.183 220.384 289.919 220.384C289.135 220.384 288.415 220.28 287.759 220.072C287.119 219.864 286.535 219.592 286.007 219.256C285.495 218.904 285.031 218.528 284.615 218.128L286.127 216.184Z" fill="white"/>
</g>
<rect x="0.5" y="0.5" width="447" height="253" rx="7.5" stroke="#2C2F35"/>
<defs>
<clipPath id="clip0_25_64">
<rect width="448" height="254" rx="8" fill="white"/>
</clipPath>
</defs>
</svg>
