<?xml version="1.0" encoding="UTF-8"?> <svg xmlns="http://www.w3.org/2000/svg" width="400" height="100" viewBox="0 0 400 100" fill="none"><rect x="300" width="100" height="100" rx="50" fill="#5865F2" fill-opacity="0.1"></rect><path d="M372.719 30.3227C368.482 28.4732 363.951 27.129 359.215 26.3636C358.633 27.3448 357.954 28.6645 357.485 29.7143C352.45 29.0079 347.462 29.0079 342.519 29.7143C342.051 28.6645 341.356 27.3448 340.769 26.3636C336.028 27.129 331.492 28.4781 327.255 30.3325C318.709 42.3811 316.392 54.1308 317.551 65.7135C323.219 69.6628 328.712 72.0616 334.112 73.6314C335.446 71.9195 336.635 70.0995 337.66 68.1811C335.708 67.4894 333.84 66.6359 332.074 65.6446C332.542 65.3211 333.001 64.9825 333.443 64.6342C344.214 69.334 355.915 69.334 366.557 64.6342C367.004 64.9825 367.463 65.3211 367.926 65.6446C366.155 66.6406 364.281 67.4942 362.33 68.1861C363.354 70.0995 364.538 71.9242 365.877 73.6364C371.283 72.0666 376.781 69.6675 382.449 65.7135C383.808 52.2862 380.127 40.6444 372.719 30.3227ZM339.127 58.5904C335.894 58.5904 333.242 55.7741 333.242 52.345C333.242 48.916 335.837 46.095 339.127 46.095C342.416 46.095 345.068 48.911 345.011 52.345C345.017 55.7741 342.416 58.5904 339.127 58.5904ZM360.873 58.5904C357.64 58.5904 354.989 55.7741 354.989 52.345C354.989 48.916 357.583 46.095 360.873 46.095C364.163 46.095 366.814 48.911 366.757 52.345C366.757 55.7741 364.163 58.5904 360.873 58.5904Z" fill="#5865F2"></path><path d="M333 50C333 22.3858 310.614 0 283 0C255.386 0 233 22.3858 233 50C233 77.6142 255.386 100 283 100C310.614 100 333 77.6142 333 50Z" fill="#E5F0FF"></path><path d="M252.275 38.3623C256.409 26.1506 266.907 17.8932 278.82 16.0348C281.225 15.6597 282.512 18.4033 280.939 20.2611C280.504 20.7753 279.902 21.116 279.244 21.2631C271.212 23.0603 264.366 28.7153 261.608 36.8633C257.331 49.4972 264.499 63.3388 277.619 67.7806C290.739 72.2215 304.841 65.58 309.118 52.947C311.867 44.826 309.886 36.2064 304.636 29.9047C304.206 29.3887 303.937 28.7539 303.904 28.0831C303.783 25.6446 306.481 24.2455 308.164 26.0146C316.45 34.727 319.744 47.6277 315.621 59.8067C309.699 77.2993 290.719 86.6792 273.226 80.7577C255.733 74.8357 246.353 55.8548 252.275 38.3623ZM293.665 18.753C293.836 18.6789 294.033 18.663 294.223 18.7274C294.41 18.7905 294.554 18.9188 294.645 19.0759L294.664 19.1065L294.681 19.1415C294.725 19.2254 294.762 19.3215 294.78 19.4396C294.814 19.6723 294.83 20.2195 294.836 20.7801L294.837 20.933C294.839 21.1114 294.84 21.2883 294.84 21.454V21.5932C294.839 22.0464 294.835 22.3861 294.835 22.3861L294.967 27.3336L295.161 33.0446L295.403 42.9693C295.403 42.9693 295.403 42.9712 295.404 42.9748V42.9909C295.404 42.9944 295.404 42.9984 295.404 43.0028V43.0344C295.402 43.6012 295.286 47.7507 292.342 50.6345C289.177 53.7354 285.289 53.4515 282.759 52.5956C280.23 51.7388 276.969 49.6027 276.339 45.2167C275.803 41.489 277.784 38.3555 278.391 37.4994L278.432 37.4427C278.514 37.3283 278.562 37.2681 278.562 37.2681L284.784 29.5317L288.407 25.1131L291.517 21.2626C291.517 21.2626 291.974 20.6501 292.445 20.0468L292.539 19.9265C292.696 19.7267 292.851 19.5326 292.988 19.3671L293.068 19.2715C293.184 19.1337 293.282 19.0229 293.351 18.9558C293.432 18.8776 293.514 18.8267 293.595 18.7872L293.655 18.7571L293.665 18.753Z" fill="#0058CC"></path><path d="M253 50C253 22.3858 230.614 0 203 0C175.386 0 153 22.3858 153 50C153 77.6142 175.386 100 203 100C230.614 100 253 77.6142 253 50Z" fill="#EBFAFF"></path><path d="M243 49C243 26.9086 225.091 9 203 9C180.909 9 163 26.9086 163 49C163 71.0914 180.909 89 203 89C225.091 89 243 71.0914 243 49Z" fill="#EBFAFF"></path><path d="M229.251 46.499C232.702 46.499 235.5 43.701 235.5 40.2495C235.5 36.798 232.702 34 229.25 34C225.798 34 223 36.7983 223 40.25V46.499H229.251ZM211.75 46.499C215.202 46.499 218 43.7008 218 40.249V22.75C218 19.2982 215.202 16.5 211.75 16.5C208.298 16.5 205.5 19.2982 205.5 22.75V40.249C205.5 43.7008 208.298 46.499 211.75 46.499Z" fill="#2EB67D"></path><path d="M176.749 51.501C173.298 51.501 170.5 54.299 170.5 57.7505C170.5 61.202 173.298 64 176.75 64C180.201 64 183 61.2017 183 57.75V51.501H176.749ZM194.25 51.501C190.798 51.501 188 54.2992 188 57.751V75.25C188 78.7017 190.798 81.5 194.25 81.5C197.702 81.5 200.5 78.7017 200.5 75.25V57.751C200.5 54.2992 197.702 51.501 194.25 51.501Z" fill="#E01E5A"></path><path d="M205.501 75.2505C205.501 78.702 208.299 81.5 211.75 81.5C215.202 81.5 218 78.7017 218 75.2502C218 71.7985 215.202 69 211.75 69H205.501V75.2505ZM205.501 57.75C205.501 61.2017 208.299 64 211.751 64H229.25C232.702 64 235.5 61.2017 235.5 57.75C235.5 54.2983 232.702 51.5 229.25 51.5H211.751C208.299 51.5 205.501 54.2983 205.501 57.75Z" fill="#ECB22E"></path><path d="M200.499 22.7495C200.499 19.298 197.701 16.5 194.249 16.5C190.798 16.5 188 19.2982 188 22.7497C188 26.2015 190.798 29 194.25 29H200.499V22.7495ZM200.499 40.25C200.499 36.7983 197.701 34 194.249 34H176.75C173.298 34 170.5 36.7983 170.5 40.25C170.5 43.7017 173.298 46.5 176.75 46.5H194.249C197.701 46.5 200.499 43.7017 200.499 40.25Z" fill="#36C5F0"></path><path d="M177 50C177 22.3858 154.614 0 127 0C99.3858 0 77 22.3858 77 50C77 77.6142 99.3858 100 127 100C154.614 100 177 77.6142 177 50Z" fill="#E9EBFF"></path><path d="M138.62 42.8096H156.753C158.468 42.8096 159.857 44.1845 159.857 45.8833V62.263C159.856 63.7494 159.56 65.2209 158.986 66.5936C158.412 67.9663 157.572 69.2133 156.513 70.2634C155.454 71.3135 154.197 72.1461 152.814 72.7137C151.432 73.2813 149.95 73.5728 148.454 73.5715H148.403C146.907 73.5728 145.425 73.2813 144.043 72.7137C142.66 72.1461 141.403 71.3135 140.344 70.2634C139.285 69.2133 138.445 67.9663 137.871 66.5936C137.297 65.2209 137.001 63.7494 137 62.263V44.4236C137 43.5319 137.727 42.8096 138.62 42.8096ZM150.881 39.5715C154.933 39.5715 158.222 36.3085 158.222 32.2882C158.222 28.263 154.933 25 150.876 25C146.819 25 143.529 28.263 143.529 32.2882C143.529 36.3085 146.819 39.5715 150.876 39.5715H150.881Z" fill="#5059C9"></path><path d="M129.206 38.4286C130.535 38.4305 131.851 38.1678 133.08 37.6556C134.308 37.1434 135.424 36.3916 136.365 35.4433C137.306 34.495 138.053 33.3687 138.562 32.1287C139.072 30.8888 139.335 29.5594 139.337 28.2167C139.336 26.8732 139.073 25.543 138.563 24.3021C138.053 23.0613 137.306 21.9342 136.365 20.9853C135.424 20.0364 134.307 19.2843 133.077 18.7721C131.848 18.2598 130.531 17.9975 129.201 18C127.873 17.9987 126.557 18.2619 125.329 18.7744C124.102 19.2869 122.986 20.0387 122.045 20.987C121.105 21.9353 120.359 23.0614 119.849 24.301C119.34 25.5407 119.077 26.8696 119.076 28.2119C119.076 33.8545 123.607 38.4286 129.201 38.4286H129.206ZM142.71 41.5714H114.142C113.367 41.5905 112.632 41.9194 112.097 42.4861C111.562 43.0527 111.272 43.8107 111.29 44.5934V62.7253C111.186 67.4249 112.932 71.9741 116.145 75.3737C119.358 78.7734 123.775 80.7456 128.426 80.8571C133.078 80.7468 137.496 78.7752 140.71 75.3754C143.924 71.9756 145.671 67.4257 145.567 62.7253V44.5934C145.576 44.2054 145.509 43.8195 145.37 43.4576C145.231 43.0957 145.024 42.765 144.758 42.4844C144.493 42.2037 144.175 41.9787 143.824 41.822C143.473 41.6654 143.094 41.5802 142.71 41.5714Z" fill="#7B83EB"></path><path opacity="0.1" d="M128.425 35.0007C128.425 35.0007 128.429 35.0002 128.429 35.0022V60.662C128.425 61.4324 128.148 62.17 127.659 62.7143C127.169 63.2586 126.506 63.5654 125.814 63.568H119.9C115.485 63.568 111.289 60.7737 111.286 56.3592V38.0491C111.278 37.6574 111.34 37.2678 111.467 36.9025C111.594 36.5373 111.785 36.2036 112.028 35.9205C112.271 35.6374 112.562 35.4105 112.884 35.2528C113.206 35.0951 113.553 35.0097 113.905 35.0015H128.423L128.425 35.0007Z" fill="black"></path><path opacity="0.2" d="M128.424 34.0043V34.0061V62.4007C128.417 63.2026 128.115 63.9696 127.581 64.5361C127.047 65.1027 126.325 65.4232 125.571 65.4285H116.94C114.76 65.4285 112.68 64.2258 112.11 62.1208C111.565 60.2239 111.288 58.2519 111.286 56.2687V37.1754C111.278 36.7677 111.344 36.3622 111.483 35.9819C111.621 35.6017 111.829 35.2542 112.094 34.9593C112.359 34.6644 112.676 34.4279 113.027 34.2633C113.378 34.0987 113.756 34.0092 114.139 34H128.423C128.425 34 128.426 34.0027 128.424 34.0043Z" fill="black"></path><path opacity="0.2" d="M128.424 35.0044V35.0062V60.495C128.417 61.3097 128.115 62.0891 127.581 62.6647C127.047 63.2403 126.325 63.566 125.571 63.5714H118.131C114.569 63.5714 111.289 61.1875 111.286 57.6255V38.2263C111.278 37.8121 111.344 37.4 111.483 37.0137C111.621 36.6274 111.829 36.2743 112.094 35.9747C112.359 35.6751 112.676 35.4348 113.027 35.2675C113.378 35.1003 113.756 35.0094 114.139 35H128.422C128.425 35 128.426 35.0027 128.424 35.0044Z" fill="black"></path><path opacity="0.2" d="M113.901 35C120.347 35.0028 125.571 40.2292 125.571 46.6753V60.495C125.566 61.3097 125.288 62.0891 124.799 62.6647C124.31 63.2403 123.648 63.566 122.957 63.5714H118.051C114.512 63.5714 111.289 61.1638 111.286 57.6255V38.2263C111.278 37.8121 111.339 37.4 111.466 37.0137C111.593 36.6274 111.784 36.2743 112.027 35.9747C112.269 35.6751 112.56 35.4348 112.882 35.2675C113.203 35.1003 113.55 35.0094 113.901 35Z" fill="black"></path><path opacity="0.1" d="M128.429 49.0923V52.0637C128.429 52.4163 128.152 52.7143 127.8 52.7143C127.587 52.7143 127.387 52.7037 127.17 52.6932C125.447 52.5721 123.81 51.9556 122.496 50.9324C120.571 49.4344 122.24 47 124.678 47H126.128C126.737 47.0018 127.319 47.2222 127.75 47.6134C128.181 48.0045 128.425 48.5347 128.429 49.0888V49.0923Z" fill="black"></path><path opacity="0.2" d="M128.429 49.6251C128.429 51.2948 126.984 52.6468 125.419 52.0653C124.661 51.7837 123.939 51.4171 123.271 50.9714C121.202 49.5924 122.676 47 125.162 47H125.579C126.333 47.0034 127.055 47.281 127.588 47.7724C128.122 48.2639 128.424 48.9295 128.429 49.6251Z" fill="black"></path><path opacity="0.2" d="M128.429 49.6251C128.429 51.2948 126.984 52.6468 125.419 52.0653C124.661 51.7837 123.939 51.4171 123.271 50.9714C121.202 49.5924 122.676 47 125.162 47H125.579C126.333 47.0034 127.055 47.281 127.588 47.7724C128.122 48.2639 128.424 48.9295 128.429 49.6251Z" fill="black"></path><path opacity="0.2" d="M125.571 49.7375C125.571 51.2334 124.116 52.2909 122.934 51.374C122.656 51.1581 122.388 50.9218 122.133 50.6663C121.908 50.4421 121.695 50.2044 121.493 49.9546C120.454 48.6666 121.595 47 123.251 47C123.865 47.0036 124.454 47.2932 124.888 47.8058C125.323 48.3184 125.568 49.0126 125.571 49.7375Z" fill="black"></path><path d="M96.7622 32H122.952C124.4 32 125.571 33.2803 125.571 34.8579V63.4277C125.571 63.8034 125.504 64.1755 125.372 64.5225C125.24 64.8696 125.047 65.1849 124.804 65.4503C124.561 65.7157 124.272 65.9262 123.954 66.0695C123.636 66.2128 123.296 66.2863 122.952 66.2857H96.7578C96.4144 66.2857 96.0744 66.2118 95.7571 66.0681C95.4399 65.9245 95.1516 65.714 94.9087 65.4486C94.6659 65.1832 94.4733 64.8682 94.3419 64.5214C94.2105 64.1747 94.1428 63.803 94.1428 63.4277V34.8579C94.1428 33.2755 95.3143 32 96.7622 32Z" fill="url(#paint0_linear_67_1363)"></path><path d="M116.998 41.6243C116.999 42.5236 116.27 43.2533 115.371 43.2533H114.286C112.789 43.2533 111.576 44.4667 111.576 45.9635V58.2722C111.576 59.2264 110.802 60 109.848 60C108.894 60 108.12 59.2264 108.12 58.2722V45.9563C108.12 44.4634 106.91 43.2533 105.417 43.2533H104.341C103.443 43.2533 102.714 42.525 102.714 41.6266C102.714 40.7283 103.443 40 104.341 40H115.371C116.269 40 116.997 40.7269 116.998 41.6243Z" fill="white"></path><path d="M50 0C22.3855 0 0 22.3855 0 50C0 77.6145 22.3855 100 50 100C77.6145 100 100 77.6145 100 50C100 22.3855 77.6145 0 50 0Z" fill="#40B3E0"></path><path d="M74.3299 26.7288L65.3995 71.755C65.3995 71.755 64.1506 74.8777 60.7159 73.3788L40.1073 57.5788L32.6135 53.957L19.9987 49.7101C19.9987 49.7101 18.0628 49.0234 17.8753 47.5245C17.6881 46.0257 20.0612 45.214 20.0612 45.214L70.2081 25.5421C70.2081 25.5421 74.3299 23.7312 74.3299 26.7288Z" fill="white"></path><path d="M38.5233 67.9988C38.5233 67.9988 37.9217 67.9426 37.1721 65.5692C36.4229 63.1961 32.6135 50.7063 32.6135 50.7063L62.9014 31.4719C62.9014 31.4719 64.6502 30.4102 64.5877 31.4719C64.5877 31.4719 64.8999 31.659 63.9631 32.5332C63.0264 33.4078 40.1698 53.9535 40.1698 53.9535" fill="#D2E5F1"></path><path d="M48.0086 49.1926L39.8571 56.6246C39.8571 56.6246 39.22 57.1082 38.5227 56.8051L40.0836 43" fill="#B5CFE4"></path><defs><linearGradient id="paint0_linear_67_1363" x1="99.601" y1="29.7702" x2="122.903" y2="66.7604" gradientUnits="userSpaceOnUse"><stop stop-color="#5A62C3"></stop><stop offset="0.5" stop-color="#4D55BD"></stop><stop offset="1" stop-color="#3940AB"></stop></linearGradient></defs></svg> 