<?xml version="1.0" encoding="UTF-8"?> <svg xmlns="http://www.w3.org/2000/svg" width="312" height="215" viewBox="0 0 312 215" fill="none"><path d="M21.2021 149.248C25.7495 135.815 37.2978 126.732 50.4025 124.687C53.0478 124.275 54.4628 127.293 52.7333 129.336V129.336C52.2545 129.902 51.5921 130.277 50.8689 130.439C42.0328 132.415 34.5025 138.636 31.4685 147.599C26.7639 161.496 34.6492 176.722 49.0808 181.608C63.5124 186.493 79.0248 179.187 83.7293 165.291C86.7535 156.358 84.5749 146.876 78.7999 139.944C78.327 139.377 78.0306 138.678 77.994 137.94V137.94C77.8611 135.258 80.8293 133.719 82.6801 135.665C91.7945 145.249 95.4188 159.44 90.8836 172.836C84.3694 192.078 63.4904 202.396 44.2486 195.883C25.0068 189.368 14.6884 168.489 21.2021 149.248ZM66.7316 127.677C66.9197 127.596 67.1365 127.578 67.3457 127.649C67.5508 127.719 67.709 127.86 67.8097 128.033L67.8303 128.066L67.8487 128.105C67.8971 128.197 67.9383 128.303 67.9576 128.433C67.9955 128.689 68.0125 129.291 68.0194 129.907L68.0211 130.075C68.0227 130.272 68.0235 130.466 68.0236 130.649V130.802C68.0232 131.3 68.0189 131.674 68.0189 131.674L68.1636 137.116L68.3773 143.398L68.6438 154.315C68.6438 154.315 68.6438 154.317 68.6439 154.321L68.6441 154.339C68.6441 154.343 68.6441 154.347 68.6442 154.352L68.6442 154.387C68.6421 155.01 68.5143 159.575 65.2763 162.747C61.7946 166.158 57.5178 165.846 54.7353 164.904C51.9529 163.962 48.3663 161.612 47.6725 156.787C47.0828 152.687 49.2629 149.24 49.9302 148.298L49.9747 148.236C50.0655 148.11 50.1186 148.044 50.1186 148.044L56.962 139.534L60.948 134.674L64.3688 130.438C64.3688 130.438 64.8718 129.764 65.3896 129.101L65.4931 128.968C65.6657 128.748 65.8362 128.535 65.9866 128.353L66.0744 128.248C66.2019 128.096 66.3103 127.974 66.3862 127.9C66.4749 127.814 66.5659 127.758 66.655 127.715L66.7204 127.682L66.7316 127.677Z" fill="#0058CC"></path><path d="M81.2505 52.499C84.702 52.499 87.5 49.701 87.5 46.2495C87.5 42.798 84.7017 40 81.2502 40C77.7985 40 75 42.7983 75 46.25V52.499H81.2505ZM63.75 52.499C67.2017 52.499 70 49.7008 70 46.249V28.75C70 25.2982 67.2017 22.5 63.75 22.5C60.2982 22.5 57.5 25.2982 57.5 28.75V46.249C57.5 49.7008 60.2982 52.499 63.75 52.499Z" fill="#2EB67D"></path><path d="M28.7495 57.501C25.298 57.501 22.5 60.299 22.5 63.7505C22.5 67.202 25.2982 70 28.7497 70C32.2015 70 35 67.2017 35 63.75V57.501H28.7495ZM46.25 57.501C42.7983 57.501 40 60.2992 40 63.751V81.25C40 84.7017 42.7983 87.5 46.25 87.5C49.7017 87.5 52.5 84.7017 52.5 81.25V63.751C52.5 60.2992 49.7017 57.501 46.25 57.501Z" fill="#E01E5A"></path><path d="M57.501 81.2505C57.501 84.702 60.299 87.5 63.7505 87.5C67.202 87.5 70 84.7017 70 81.2502C70 77.7985 67.2017 75 63.75 75H57.501V81.2505ZM57.501 63.75C57.501 67.2017 60.2992 70 63.751 70H81.25C84.7017 70 87.5 67.2017 87.5 63.75C87.5 60.2982 84.7017 57.5 81.25 57.5H63.751C60.2992 57.5 57.501 60.2982 57.501 63.75Z" fill="#ECB22E"></path><path d="M52.499 28.7495C52.499 25.298 49.701 22.5 46.2495 22.5C42.798 22.5 40 25.2982 40 28.7497C40 32.2015 42.7983 35 46.25 35H52.499V28.7495ZM52.499 46.25C52.499 42.7983 49.7008 40 46.249 40H28.75C25.2982 40 22.5 42.7983 22.5 46.25C22.5 49.7017 25.2982 52.5 28.75 52.5H46.249C49.7008 52.5 52.499 49.7017 52.499 46.25Z" fill="#36C5F0"></path><path d="M269.782 47.8761H289.728C291.615 47.8761 293.143 49.3886 293.143 51.2572V69.2749C293.141 70.9099 292.816 72.5286 292.185 74.0386C291.553 75.5486 290.629 76.9203 289.464 78.0754C288.299 79.2305 286.917 80.1463 285.396 80.7707C283.875 81.395 282.245 81.7157 280.599 81.7142H280.544C278.898 81.7157 277.268 81.395 275.747 80.7707C274.226 80.1463 272.843 79.2305 271.679 78.0754C270.514 76.9203 269.589 75.5486 268.958 74.0386C268.327 72.5286 268.001 70.9099 268 69.2749V49.6516C268 48.6707 268.8 47.8761 269.782 47.8761ZM283.269 44.3142C287.726 44.3142 291.345 40.7249 291.345 36.3027C291.345 31.8749 287.726 28.2856 283.263 28.2856C278.801 28.2856 275.182 31.8749 275.182 36.3027C275.182 40.7249 278.801 44.3142 283.263 44.3142H283.269Z" fill="#5059C9"></path><path d="M259.427 44.4714C260.888 44.4735 262.336 44.1846 263.687 43.6212C265.039 43.0577 266.267 42.2308 267.302 41.1876C268.336 40.1445 269.158 38.9055 269.719 37.5416C270.279 36.1776 270.569 34.7154 270.57 33.2384C270.569 31.7605 270.28 30.2973 269.72 28.9323C269.159 27.5674 268.337 26.3276 267.302 25.2838C266.266 24.24 265.037 23.4127 263.685 22.8493C262.333 22.2858 260.884 21.9972 259.421 22C257.96 21.9986 256.513 22.2881 255.162 22.8518C253.812 23.4156 252.584 24.2426 251.55 25.2857C250.516 26.3288 249.695 27.5675 249.134 28.9311C248.574 30.2947 248.285 31.7565 248.283 33.2331C248.283 39.44 253.268 44.4714 259.421 44.4714H259.427ZM274.281 47.9286H242.856C242.004 47.9495 241.195 48.3114 240.607 48.9347C240.018 49.558 239.699 50.3917 239.719 51.2528V71.1978C239.605 76.3674 241.525 81.3715 245.06 85.1111C248.594 88.8507 253.453 91.0201 258.569 91.1429C263.686 91.0215 268.546 88.8527 272.081 85.1129C275.616 81.3731 277.538 76.3683 277.424 71.1978V51.2528C277.433 50.826 277.36 50.4014 277.207 50.0034C277.055 49.6053 276.826 49.2415 276.534 48.9328C276.242 48.6241 275.893 48.3765 275.506 48.2042C275.12 48.0319 274.703 47.9383 274.281 47.9286Z" fill="#7B83EB"></path><path opacity="0.1" d="M258.567 47.1475C258.569 47.1459 258.571 47.1469 258.571 47.1491V75.3749C258.567 76.2223 258.263 77.0337 257.724 77.6325C257.186 78.2312 256.457 78.5687 255.696 78.5715H249.19C244.334 78.5715 239.717 75.4977 239.715 70.6418V70.6418V50.5007C239.706 50.0699 239.773 49.6413 239.913 49.2395C240.053 48.8377 240.263 48.4706 240.531 48.1592C240.798 47.8479 241.118 47.5983 241.473 47.4248C241.827 47.2513 242.209 47.1574 242.595 47.1483H258.565C258.566 47.1483 258.567 47.148 258.567 47.1475V47.1475Z" fill="black"></path><path opacity="0.2" d="M258.567 47.1477C258.566 47.1482 258.566 47.1489 258.566 47.1497V78.3837C258.559 79.2658 258.226 80.1095 257.639 80.7327C257.052 81.3559 256.257 81.7085 255.428 81.7144H245.934C243.535 81.7144 241.248 80.3914 240.621 78.0759V78.0759C240.022 75.9893 239.717 73.82 239.715 71.6385V50.6359C239.705 50.1875 239.779 49.7414 239.931 49.3231C240.083 48.9048 240.312 48.5226 240.603 48.1982C240.895 47.8738 241.244 47.6137 241.63 47.4326C242.016 47.2516 242.431 47.1531 242.853 47.1429H258.565C258.567 47.1429 258.568 47.1459 258.567 47.1477V47.1477Z" fill="black"></path><path opacity="0.2" d="M258.567 47.1478C258.566 47.1483 258.566 47.149 258.566 47.1498V75.1875C258.559 76.0837 258.226 76.941 257.639 77.5741C257.052 78.2073 256.257 78.5656 255.428 78.5715H247.244C243.326 78.5715 239.718 75.9492 239.715 72.031V72.031V50.6919C239.705 50.2363 239.779 49.783 239.931 49.358C240.083 48.9331 240.312 48.5447 240.603 48.2151C240.895 47.8856 241.244 47.6212 241.63 47.4373C242.016 47.2533 242.431 47.1533 242.853 47.1429H258.565C258.567 47.1429 258.568 47.1459 258.567 47.1478V47.1478Z" fill="black"></path><path opacity="0.2" d="M242.591 47.1429C249.682 47.1461 255.428 52.8951 255.428 59.9858V75.1875C255.422 76.0837 255.117 76.941 254.579 77.5741C254.04 78.2073 253.313 78.5656 252.552 78.5715H247.155C243.263 78.5715 239.717 75.9231 239.715 72.031V72.031V50.6919C239.706 50.2363 239.773 49.783 239.913 49.358C240.053 48.9331 240.262 48.5447 240.529 48.2151C240.796 47.8856 241.116 47.6212 241.47 47.4373C241.823 47.2533 242.205 47.1533 242.591 47.1429V47.1429Z" fill="black"></path><path opacity="0.1" d="M258.571 40.0159V43.2844C258.571 43.6723 258.267 44.0001 257.879 44.0001V44.0001C257.646 44.0001 257.425 43.9885 257.187 43.9769C255.292 43.8437 253.491 43.1655 252.045 42.0401V42.0401C249.928 40.3923 251.764 37.7144 254.446 37.7144H256.041C256.71 37.7164 257.351 37.9589 257.825 38.3891C258.299 38.8193 258.567 39.4026 258.571 40.012V40.0159Z" fill="black"></path><path opacity="0.2" d="M258.571 40.602V40.602C258.571 42.4387 256.983 43.9259 255.261 43.2862C254.427 42.9764 253.633 42.5732 252.898 42.083V42.083C250.622 40.566 252.244 37.7144 254.979 37.7144H255.437C256.266 37.7182 257.06 38.0235 257.647 38.5641C258.234 39.1046 258.566 39.8369 258.571 40.602Z" fill="black"></path><path opacity="0.2" d="M258.571 40.602V40.602C258.571 42.4387 256.983 43.9259 255.261 43.2862C254.427 42.9764 253.633 42.5732 252.898 42.083V42.083C250.622 40.566 252.244 37.7144 254.979 37.7144H255.437C256.266 37.7182 257.06 38.0235 257.647 38.5641C258.234 39.1046 258.566 39.8369 258.571 40.602Z" fill="black"></path><path opacity="0.2" d="M255.429 40.7256V40.7256C255.429 42.3711 253.828 43.5344 252.528 42.5258C252.222 42.2883 251.927 42.0284 251.646 41.7473C251.399 41.5007 251.165 41.2393 250.943 40.9644C249.799 39.5476 251.055 37.7144 252.876 37.7144V37.7144C253.552 37.7183 254.199 38.0369 254.677 38.6007C255.155 39.1646 255.425 39.9282 255.429 40.7256Z" fill="black"></path><path d="M223.739 37.7144H252.547C254.14 37.7144 255.429 39.1227 255.429 40.8581V72.2849C255.429 72.6982 255.354 73.1074 255.209 73.4892C255.064 73.8709 254.852 74.2177 254.584 74.5097C254.317 74.8017 253.999 75.0332 253.65 75.1908C253.3 75.3485 252.925 75.4293 252.547 75.4286H223.734C223.356 75.4286 222.982 75.3473 222.633 75.1893C222.284 75.0313 221.967 74.7998 221.7 74.5079C221.433 74.2159 221.221 73.8694 221.076 73.488C220.932 73.1065 220.857 72.6977 220.857 72.2849V40.8581C220.857 39.1174 222.146 37.7144 223.739 37.7144Z" fill="url(#paint0_linear_49_181)"></path><path d="M245.998 48.9298C245.999 49.9189 245.198 50.7216 244.208 50.7216H243.015C241.368 50.7216 240.034 52.0563 240.034 53.7028V67.2424C240.034 68.2921 239.183 69.1429 238.133 69.1429V69.1429C237.083 69.1429 236.233 68.2921 236.233 67.2424V53.6949C236.233 52.0528 234.901 50.7216 233.259 50.7216H232.075C231.087 50.7216 230.286 49.9205 230.286 48.9323V48.9323C230.286 47.944 231.087 47.1429 232.075 47.1429H244.208C245.196 47.1429 245.996 47.9425 245.998 48.9298V48.9298Z" fill="white"></path><path d="M156 15C133.908 15 116 32.9084 116 55C116 77.0916 133.908 95 156 95C178.092 95 196 77.0916 196 55C196 32.9084 178.092 15 156 15Z" fill="#40B3E0"></path><path d="M175.464 38.0096L168.32 74.0305C168.32 74.0305 167.32 76.5286 164.573 75.3296L148.086 62.6896L142.091 59.7921L131.999 56.3946C131.999 56.3946 130.45 55.8452 130.3 54.6461C130.15 53.4471 132.049 52.7977 132.049 52.7977L172.166 37.0602C172.166 37.0602 175.464 35.6114 175.464 38.0096Z" fill="white"></path><path d="M146.819 73.6262C146.819 73.6262 146.337 73.5812 145.738 71.6824C145.138 69.784 142.091 59.7921 142.091 59.7921L166.321 44.4046C166.321 44.4046 167.72 43.5552 167.67 44.4046C167.67 44.4046 167.92 44.5543 167.171 45.2537C166.421 45.9534 148.136 62.3899 148.136 62.3899" fill="#D2E5F1"></path><path d="M154.407 67.5361L147.886 73.4817C147.886 73.4817 147.376 73.8686 146.818 73.6261L148.067 62.582" fill="#B5CFE4"></path><path d="M192 133H132C128.7 133 126 135.7 126 139V181C126 184.3 128.7 187 132 187H192C195.3 187 198 184.3 198 181V139C198 135.7 195.3 133 192 133ZM188.4 145L164.1 164.2C162.9 165.1 161.1 165.1 159.6 164.2L135.6 145.3C134.7 144.7 134.4 143.2 135.3 142C136.2 141.1 137.4 140.8 138.6 141.4L162 157L185.7 141.4C186.9 140.8 188.4 141.1 189 142C189.6 142.9 189.3 144.4 188.4 145Z" fill="#FFDF1D"></path><g clip-path="url(#clip0_49_181)"><path d="M268 123.192C247.646 123.192 231.144 139.692 231.144 160.047C231.144 180.401 247.646 196.903 268 196.903C288.355 196.903 304.856 180.401 304.856 160.047C304.856 139.692 288.354 123.192 268 123.192ZM268 192.17C262.209 192.17 257.514 188.302 257.514 183.531H278.487C278.487 188.301 273.792 192.17 268 192.17ZM285.321 180.67H250.678V174.388H285.321V180.67H285.321ZM285.196 171.155H250.777C250.663 171.023 250.546 170.893 250.435 170.759C246.889 166.454 246.054 164.206 245.243 161.915C245.229 161.84 249.543 162.796 252.601 163.484C252.601 163.484 254.175 163.849 256.477 164.268C254.267 161.678 252.955 158.386 252.955 155.021C252.955 147.633 258.622 141.177 256.577 135.959C258.567 136.121 260.695 140.158 260.839 146.47C262.954 143.547 263.839 138.209 263.839 134.936C263.839 131.548 266.072 127.612 268.305 127.477C266.315 130.758 268.821 133.571 271.049 140.549C271.885 143.17 271.779 147.581 272.424 150.379C272.638 144.569 273.637 136.091 277.323 133.165C275.697 136.85 277.563 141.462 278.84 143.68C280.9 147.257 282.149 149.967 282.149 155.093C282.149 158.53 280.88 161.765 278.739 164.295C281.173 163.838 282.854 163.427 282.854 163.427L290.757 161.884C290.758 161.884 289.609 166.607 285.196 171.155Z" fill="#DA4E31"></path></g><defs><linearGradient id="paint0_linear_49_181" x1="226.861" y1="35.2616" x2="252.493" y2="75.9508" gradientUnits="userSpaceOnUse"><stop stop-color="#5A62C3"></stop><stop offset="0.5" stop-color="#4D55BD"></stop><stop offset="1" stop-color="#3940AB"></stop></linearGradient><clipPath id="clip0_49_181"><rect width="74" height="74" fill="white" transform="translate(231 123)"></rect></clipPath></defs></svg> 