<svg width="300" height="71" viewBox="0 0 300 71" fill="none" xmlns="http://www.w3.org/2000/svg">
<path d="M90.368 23.6H95.776V46H90.368V23.6ZM93.76 28.048V23.6H98.144C100.043 23.6 101.632 23.8987 102.912 24.496C104.213 25.072 105.195 25.904 105.856 26.992C106.517 28.08 106.848 29.392 106.848 30.928C106.848 32.4213 106.517 33.7227 105.856 34.832C105.195 35.92 104.213 36.7627 102.912 37.36C101.632 37.936 100.043 38.224 98.144 38.224H93.76V33.776H98.144C99.232 33.776 100.085 33.5307 100.704 33.04C101.323 32.5493 101.632 31.8453 101.632 30.928C101.632 29.9893 101.323 29.2747 100.704 28.784C100.085 28.2933 99.232 28.048 98.144 28.048H93.76ZM114.754 34.8C114.754 36.1227 115.01 37.296 115.522 38.32C116.055 39.3227 116.791 40.112 117.73 40.688C118.69 41.264 119.81 41.552 121.09 41.552C122.348 41.552 123.447 41.264 124.385 40.688C125.346 40.112 126.082 39.3227 126.594 38.32C127.127 37.296 127.394 36.1227 127.394 34.8C127.394 33.4773 127.138 32.3147 126.626 31.312C126.114 30.288 125.388 29.488 124.45 28.912C123.511 28.336 122.391 28.048 121.09 28.048C119.81 28.048 118.69 28.336 117.73 28.912C116.791 29.488 116.055 30.288 115.522 31.312C115.01 32.3147 114.754 33.4773 114.754 34.8ZM109.026 34.8C109.026 33.072 109.324 31.4933 109.922 30.064C110.54 28.6347 111.394 27.3973 112.482 26.352C113.57 25.3067 114.85 24.5067 116.322 23.952C117.794 23.376 119.383 23.088 121.09 23.088C122.818 23.088 124.407 23.376 125.858 23.952C127.33 24.5067 128.61 25.3067 129.698 26.352C130.786 27.3973 131.628 28.6347 132.226 30.064C132.823 31.4933 133.122 33.072 133.122 34.8C133.122 36.528 132.823 38.1173 132.226 39.568C131.65 41.0187 130.818 42.2773 129.73 43.344C128.663 44.4107 127.394 45.2427 125.922 45.84C124.45 46.416 122.839 46.704 121.09 46.704C119.319 46.704 117.698 46.416 116.226 45.84C114.754 45.2427 113.474 44.4107 112.386 43.344C111.319 42.2773 110.487 41.0187 109.89 39.568C109.314 38.1173 109.026 36.528 109.026 34.8ZM139.051 38.128C139.499 38.9387 140 39.6427 140.555 40.24C141.131 40.8373 141.749 41.296 142.411 41.616C143.093 41.936 143.808 42.096 144.555 42.096C145.344 42.096 145.995 41.904 146.507 41.52C147.019 41.1147 147.275 40.5707 147.275 39.888C147.275 39.312 147.125 38.8533 146.827 38.512C146.528 38.1493 146.048 37.808 145.387 37.488C144.725 37.168 143.851 36.8053 142.763 36.4C142.229 36.208 141.611 35.9413 140.907 35.6C140.224 35.2587 139.573 34.8213 138.955 34.288C138.336 33.7333 137.824 33.072 137.419 32.304C137.013 31.5147 136.811 30.5653 136.811 29.456C136.811 28.1333 137.152 26.992 137.835 26.032C138.539 25.072 139.477 24.3467 140.651 23.856C141.845 23.344 143.168 23.088 144.619 23.088C146.112 23.088 147.403 23.3333 148.491 23.824C149.6 24.3147 150.517 24.9333 151.243 25.68C151.968 26.4267 152.523 27.184 152.907 27.952L148.779 30.256C148.459 29.7227 148.085 29.264 147.659 28.88C147.253 28.4747 146.795 28.1653 146.283 27.952C145.792 27.7173 145.259 27.6 144.683 27.6C143.915 27.6 143.328 27.7707 142.923 28.112C142.517 28.432 142.315 28.8373 142.315 29.328C142.315 29.84 142.507 30.288 142.891 30.672C143.296 31.056 143.861 31.408 144.587 31.728C145.333 32.048 146.229 32.3893 147.275 32.752C148.064 33.0507 148.8 33.4027 149.483 33.808C150.165 34.192 150.763 34.6613 151.275 35.216C151.808 35.7707 152.224 36.4107 152.523 37.136C152.821 37.8613 152.971 38.6933 152.971 39.632C152.971 40.7627 152.736 41.776 152.267 42.672C151.819 43.5467 151.2 44.2827 150.411 44.88C149.643 45.4773 148.757 45.9253 147.755 46.224C146.773 46.544 145.76 46.704 144.715 46.704C143.264 46.704 141.909 46.448 140.651 45.936C139.413 45.4027 138.336 44.688 137.419 43.792C136.501 42.896 135.787 41.9147 135.275 40.848L139.051 38.128ZM154.347 28.432V23.6H172.075V28.432H165.899V46H160.491V28.432H154.347ZM184.035 37.904V33.744H195.363C195.469 35.536 195.288 37.2107 194.819 38.768C194.349 40.3253 193.624 41.7013 192.643 42.896C191.661 44.0907 190.435 45.0293 188.963 45.712C187.491 46.3733 185.805 46.704 183.907 46.704C182.115 46.704 180.472 46.4267 178.979 45.872C177.485 45.296 176.195 44.4853 175.107 43.44C174.019 42.3733 173.165 41.1147 172.547 39.664C171.949 38.192 171.651 36.5707 171.651 34.8C171.651 33.0293 171.96 31.4293 172.579 30C173.197 28.5493 174.072 27.312 175.203 26.288C176.333 25.264 177.656 24.4747 179.171 23.92C180.685 23.3653 182.328 23.088 184.099 23.088C185.677 23.088 187.096 23.312 188.355 23.76C189.613 24.208 190.723 24.8373 191.683 25.648C192.664 26.4373 193.507 27.3547 194.211 28.4L189.411 30.896C188.899 30 188.205 29.264 187.331 28.688C186.477 28.0907 185.4 27.792 184.099 27.792C182.861 27.792 181.72 28.0693 180.675 28.624C179.651 29.1787 178.829 29.9787 178.211 31.024C177.613 32.048 177.315 33.3067 177.315 34.8C177.315 36.272 177.603 37.552 178.179 38.64C178.776 39.7067 179.576 40.5387 180.579 41.136C181.603 41.712 182.776 42 184.099 42C184.909 42 185.645 41.904 186.307 41.712C186.968 41.4987 187.533 41.2107 188.003 40.848C188.472 40.464 188.867 40.0267 189.187 39.536C189.528 39.024 189.795 38.48 189.987 37.904H184.035ZM204.593 35.856H210.193L217.201 46H210.865L204.593 35.856ZM198.993 23.6H204.401V46H198.993V23.6ZM202.385 28.176V23.6H207.153C209.073 23.6 210.673 23.9093 211.953 24.528C213.233 25.1467 214.204 26.0107 214.865 27.12C215.526 28.208 215.857 29.4773 215.857 30.928C215.857 32.3573 215.526 33.6267 214.865 34.736C214.204 35.824 213.233 36.6773 211.953 37.296C210.673 37.9147 209.073 38.224 207.153 38.224H202.385V34.032H206.769C207.494 34.032 208.113 33.9253 208.625 33.712C209.158 33.4773 209.564 33.1467 209.841 32.72C210.118 32.272 210.257 31.7387 210.257 31.12C210.257 30.5013 210.118 29.9787 209.841 29.552C209.564 29.104 209.158 28.7627 208.625 28.528C208.113 28.2933 207.494 28.176 206.769 28.176H202.385ZM223.296 46V41.552H234.592V46H223.296ZM223.296 28.048V23.6H234.592V28.048H223.296ZM223.296 36.4V32.048H233.952V36.4H223.296ZM219.712 23.6H224.896V46H219.712V23.6ZM241.457 38.128C241.905 38.9387 242.406 39.6427 242.961 40.24C243.537 40.8373 244.156 41.296 244.817 41.616C245.5 41.936 246.214 42.096 246.961 42.096C247.75 42.096 248.401 41.904 248.913 41.52C249.425 41.1147 249.681 40.5707 249.681 39.888C249.681 39.312 249.532 38.8533 249.233 38.512C248.934 38.1493 248.454 37.808 247.793 37.488C247.132 37.168 246.257 36.8053 245.169 36.4C244.636 36.208 244.017 35.9413 243.313 35.6C242.63 35.2587 241.98 34.8213 241.361 34.288C240.742 33.7333 240.23 33.072 239.825 32.304C239.42 31.5147 239.217 30.5653 239.217 29.456C239.217 28.1333 239.558 26.992 240.241 26.032C240.945 25.072 241.884 24.3467 243.057 23.856C244.252 23.344 245.574 23.088 247.025 23.088C248.518 23.088 249.809 23.3333 250.897 23.824C252.006 24.3147 252.924 24.9333 253.649 25.68C254.374 26.4267 254.929 27.184 255.313 27.952L251.185 30.256C250.865 29.7227 250.492 29.264 250.065 28.88C249.66 28.4747 249.201 28.1653 248.689 27.952C248.198 27.7173 247.665 27.6 247.089 27.6C246.321 27.6 245.734 27.7707 245.329 28.112C244.924 28.432 244.721 28.8373 244.721 29.328C244.721 29.84 244.913 30.288 245.297 30.672C245.702 31.056 246.268 31.408 246.993 31.728C247.74 32.048 248.636 32.3893 249.681 32.752C250.47 33.0507 251.206 33.4027 251.889 33.808C252.572 34.192 253.169 34.6613 253.681 35.216C254.214 35.7707 254.63 36.4107 254.929 37.136C255.228 37.8613 255.377 38.6933 255.377 39.632C255.377 40.7627 255.142 41.776 254.673 42.672C254.225 43.5467 253.606 44.2827 252.817 44.88C252.049 45.4773 251.164 45.9253 250.161 46.224C249.18 46.544 248.166 46.704 247.121 46.704C245.67 46.704 244.316 46.448 243.057 45.936C241.82 45.4027 240.742 44.688 239.825 43.792C238.908 42.896 238.193 41.9147 237.681 40.848L241.457 38.128ZM258.833 23.6H264.241V38.256C264.241 39.3867 264.54 40.304 265.137 41.008C265.734 41.712 266.63 42.064 267.825 42.064C269.041 42.064 269.948 41.712 270.545 41.008C271.142 40.304 271.441 39.3867 271.441 38.256V23.6H276.849V38.64C276.849 40.048 276.614 41.2747 276.145 42.32C275.697 43.3653 275.057 44.2293 274.225 44.912C273.414 45.5733 272.454 46.0747 271.345 46.416C270.257 46.7573 269.084 46.928 267.825 46.928C266.566 46.928 265.393 46.7573 264.305 46.416C263.217 46.0747 262.257 45.5733 261.425 44.912C260.614 44.2293 259.974 43.3653 259.505 42.32C259.057 41.2747 258.833 40.048 258.833 38.64V23.6ZM283.895 38.128C284.343 38.9387 284.844 39.6427 285.399 40.24C285.975 40.8373 286.593 41.296 287.255 41.616C287.937 41.936 288.652 42.096 289.399 42.096C290.188 42.096 290.839 41.904 291.351 41.52C291.863 41.1147 292.119 40.5707 292.119 39.888C292.119 39.312 291.969 38.8533 291.671 38.512C291.372 38.1493 290.892 37.808 290.231 37.488C289.569 37.168 288.695 36.8053 287.607 36.4C287.073 36.208 286.455 35.9413 285.751 35.6C285.068 35.2587 284.417 34.8213 283.799 34.288C283.18 33.7333 282.668 33.072 282.263 32.304C281.857 31.5147 281.655 30.5653 281.655 29.456C281.655 28.1333 281.996 26.992 282.679 26.032C283.383 25.072 284.321 24.3467 285.495 23.856C286.689 23.344 288.012 23.088 289.463 23.088C290.956 23.088 292.247 23.3333 293.335 23.824C294.444 24.3147 295.361 24.9333 296.087 25.68C296.812 26.4267 297.367 27.184 297.751 27.952L293.623 30.256C293.303 29.7227 292.929 29.264 292.503 28.88C292.097 28.4747 291.639 28.1653 291.127 27.952C290.636 27.7173 290.103 27.6 289.527 27.6C288.759 27.6 288.172 27.7707 287.767 28.112C287.361 28.432 287.159 28.8373 287.159 29.328C287.159 29.84 287.351 30.288 287.735 30.672C288.14 31.056 288.705 31.408 289.431 31.728C290.177 32.048 291.073 32.3893 292.119 32.752C292.908 33.0507 293.644 33.4027 294.327 33.808C295.009 34.192 295.607 34.6613 296.119 35.216C296.652 35.7707 297.068 36.4107 297.367 37.136C297.665 37.8613 297.815 38.6933 297.815 39.632C297.815 40.7627 297.58 41.776 297.111 42.672C296.663 43.5467 296.044 44.2827 295.255 44.88C294.487 45.4773 293.601 45.9253 292.599 46.224C291.617 46.544 290.604 46.704 289.559 46.704C288.108 46.704 286.753 46.448 285.495 45.936C284.257 45.4027 283.18 44.688 282.263 43.792C281.345 42.896 280.631 41.9147 280.118 40.848L283.895 38.128Z" fill="black"/>
<path d="M2.84043 19.17L7.70393 12.638L33.8319 13.135L46.8249 18.46L52.2919 27.9385L55.0254 35.7485L55.5934 41.251V45.2625L50.0554 46.0435L38.8374 41.251L23.8919 35.003L11.5379 37.3105L2.84043 31.311L0.106934 27.264V26.483L2.84043 19.17Z" fill="#155DFC"/>
<g clip-path="url(#clip0_204_374)">
<path d="M3.98644 32.3773C15.3909 40.0894 17.5309 43.8411 20.5154 42.4747C21.3042 42.1131 23.4266 40.8111 24.0877 35.052C23.8993 35.0432 23.5277 35.0445 23.1194 35.2025C20.5609 36.1986 20.6342 41.8426 19.3588 41.8489C19.3386 41.8489 19.2943 41.8489 19.2374 41.8325C19.1123 41.8097 18.9581 41.7617 18.7267 41.6543C18.0505 41.3383 17.7117 41.179 17.1985 40.8693C17.1985 40.8693 16.6739 40.5571 16.1961 40.2233C15.4907 39.7304 15.0875 39.1362 14.2962 38.4258C13.6338 37.8317 13.625 37.9872 12.079 36.8521C11.5468 36.4615 11.1562 36.153 10.3965 35.5513C9.1489 34.5641 8.2868 33.8815 7.55112 33.2457C6.63087 32.4506 5.38576 31.2763 4.00667 29.6469C2.75271 27.2894 1.25858 24.8384 0.500141 25.0849C0.0160026 25.2429 -0.0585766 26.4361 0.0349645 27.2363C0.347189 29.9351 2.95749 31.6833 3.98644 32.3785V32.3773Z" fill="#003A86"/>
<path d="M5.30985 31.6643C11.4444 32.8576 17.5776 34.0521 23.7122 35.2454C24.4251 36.349 25.181 37.0353 25.698 37.4386C25.698 37.4386 28.7482 39.8163 33.3798 39.6393C33.6022 39.6305 34.1546 39.5875 34.9055 39.6684C35.6766 39.7518 35.8106 39.834 37.0355 40.0552C38.2945 40.2827 38.436 40.2473 38.9391 40.442C39.5244 40.6683 39.939 40.9514 40.2297 41.1524C40.7114 41.4849 40.8251 41.6467 41.7466 42.443C42.2573 42.8842 42.5127 43.1054 42.7465 43.2824C43.1763 43.6072 43.8652 44.1242 44.8449 44.5414C45.4023 44.7778 45.9509 44.9396 46.4717 45.0925C46.7574 45.1759 46.9976 45.2404 47.1682 45.2834C47.2542 46.1076 47.3149 47.2806 47.1682 48.6724C47.0153 50.1273 46.9091 51.1411 46.2973 52.2876C46.0255 52.797 45.0383 54.5768 42.9083 55.3542C42.4785 55.511 41.1601 55.9711 39.5838 55.5476C39.0542 55.406 38.0707 55.1267 37.2921 54.1925C36.4932 53.2331 36.4085 52.1827 36.3882 51.8692C36.3491 51.2662 36.2947 50.4332 36.8724 49.7392C37.3287 49.1919 38.0897 48.8379 38.8089 48.8999C39.6698 48.9745 39.9074 49.5989 40.5078 49.4422C40.7948 49.3676 40.7923 49.2121 41.5836 48.3841C42.2965 47.6383 42.4621 47.5928 42.4874 47.3324C42.5468 46.708 41.6746 46.1531 41.3257 45.9306C41.0653 45.765 40.4282 45.3997 39.2918 45.253C38.6433 45.1696 37.3856 45.0217 35.9357 45.6083C34.1673 46.3225 33.2812 47.6548 32.9993 48.0934C32.2585 49.2412 32.079 50.3169 31.9665 51.0298C31.9046 51.4255 31.7352 52.6782 32.0639 54.257C32.524 56.4717 33.6667 57.9203 34.032 58.3564C35.6172 60.2474 37.5259 60.9465 38.4209 61.2612C42.6062 62.7338 46.3756 61.1892 47.1025 60.8744C51.0969 59.1464 52.8768 55.7815 53.7515 54.1293C55.4137 50.9881 55.6248 48.1629 55.8498 45.157C55.9257 44.1508 56.0963 41.1903 55.463 37.4108C55.0118 34.7234 54.3545 32.8197 53.6554 30.7946C52.1967 26.5689 50.5901 23.5477 50.073 22.5971C50.073 22.5971 48.0025 18.7936 44.5541 14.722C43.8816 13.9282 43.2041 13.1811 42.1018 12.5592C41.399 12.1635 40.1349 11.5985 36.8736 11.5264C35.224 11.4898 32.888 11.5745 30.0957 12.1395C30.236 12.3544 30.3751 12.5693 30.5154 12.7854C29.7468 12.3822 28.6281 11.8488 27.2237 11.3659C25.8383 10.8893 24.7892 10.6719 23.1244 10.3332C20.5217 9.80351 18.5623 9.5785 18.0896 9.52668C15.9761 9.29156 14.4288 9.24479 12.8614 9.36488C11.8704 9.44072 10.964 9.57598 10.021 10.1069C9.42187 10.4444 9.00473 10.8312 8.50416 11.3014C7.53588 12.2103 6.92281 13.0357 6.63207 13.4314C4.5729 16.2326 3.54395 17.6344 2.56556 19.2726C2.56556 19.2726 1.85389 20.4647 0.661873 23.0813C0.469734 23.5022 0.137285 24.2493 0.0563847 25.277C0.043744 25.435 0.00329343 25.9482 0.0816657 26.4387C0.280124 27.685 1.20289 28.5332 2.14715 29.3435C4.23413 31.1347 5.69792 32.151 5.69792 32.151C5.9343 32.309 8.22101 33.9093 10.1841 35.4426C13.3885 37.9467 14.9901 39.1994 15.971 40.083C15.971 40.083 16.7889 40.82 18.4448 41.567C18.9378 41.7895 19.3195 41.921 19.7683 41.8489C20.418 41.744 20.8263 41.27 21.2219 40.7997C21.3648 40.6291 21.6593 40.2562 22.601 38.1502C22.8349 37.6282 22.9512 37.3665 23.0928 37.0126C23.2103 36.7193 23.4985 35.9811 23.8146 34.9079C24.0636 34.0648 24.5566 32.3937 24.8359 30.5355C25.09 28.848 25.4578 26.4033 24.8031 23.3379C24.7436 23.0623 24.0926 20.1259 22.2648 17.3563C21.313 15.914 20.3851 15.0355 20.1879 14.8497C19.5913 14.2922 19.0338 13.8789 18.6066 13.5907C19.0225 13.6109 19.5926 13.6665 20.2524 13.8169C20.7391 13.9269 22.0474 14.2644 23.4796 15.2049C24.8802 16.1239 25.7195 17.1743 26.0937 17.69C27.4159 19.5116 27.766 21.3192 27.9822 22.4341C28.235 23.7399 28.3007 25.0899 28.3538 26.1454C28.4158 27.4145 28.3715 27.8001 28.5156 28.7279C28.6142 29.365 28.7861 30.4281 29.3436 31.6643C30.1817 33.5225 31.3851 34.6538 31.8389 35.0533C32.6466 35.7624 33.3671 36.1277 34.8082 36.8609C36.0141 37.474 36.8003 37.7356 37.6801 37.8292C38.0657 37.8696 38.3905 37.8696 38.6155 37.862C38.3931 37.3349 38.254 36.8634 38.1643 36.4905C38.0872 36.172 37.9683 35.6664 37.938 34.9901C37.914 34.4566 37.9544 34.0041 38.0025 33.6666C38.0973 34.0774 38.2388 34.6096 38.4537 35.2163C38.5574 35.5083 38.9316 36.5348 39.7127 37.8633C40.293 38.8518 40.9958 39.7202 42.165 40.9299C43.2799 42.0815 44.922 43.6287 47.167 45.2872C40.0515 41.3875 32.9373 37.4879 25.8219 33.5882" fill="#155DFC"/>
<path d="M43.2007 40.6151C43.3549 40.0122 43.6254 39.5988 43.8036 39.3675C43.9819 39.1362 44.5773 38.4258 45.5468 38.2058C45.787 38.1515 46.2458 38.063 46.687 38.2703C46.7616 38.3057 46.7906 38.3284 47.022 38.4788C47.3165 38.671 47.6173 38.8543 47.9131 39.0452C48.5515 39.456 49.5754 39.9983 49.7637 40.0994C51.5056 41.0348 54.7846 41.2244 55.423 41.2611C57.0486 41.3546 58.8081 41.457 61.1252 41.0032C61.1252 41.0032 64.6216 40.3181 67.6225 38.4207C68.1231 38.1034 69.061 37.5043 70.0963 36.4892C70.4818 36.1112 70.7852 35.7712 71.0001 35.5159C70.9799 35.7017 70.9407 35.9823 70.8497 36.3122C70.6702 36.9658 70.3643 37.5498 69.4301 38.743C68.7083 39.6645 68.3468 40.1247 67.7299 40.7226C67.4329 41.0095 66.4191 41.9652 64.8466 42.874C61.5701 44.7663 58.372 45.0078 57.1004 45.0899C56.3065 45.1418 54.863 45.186 53.1198 44.9395C48.6438 44.3075 45.2396 42.1902 43.2007 40.6151Z" fill="#8BC7FE"/>
<path d="M36.1216 24.2733C36.8029 23.8486 37.3793 23.5439 37.8003 23.3379C38.1845 23.1483 38.383 23.0749 38.6181 23.0155C38.7812 22.9738 39.3058 22.855 39.9846 22.9473C40.2665 22.9865 40.6634 23.0446 41.1147 23.2949C41.6544 23.5945 41.9464 23.9901 42.0185 24.0913C42.1044 24.2126 42.2915 24.4793 42.4053 24.8661C42.4761 25.1025 42.4609 25.191 42.5557 25.4046C42.6556 25.6284 42.7655 25.7472 42.9425 25.9646C43.0853 26.139 43.28 26.3919 43.5025 26.718C43.3849 26.6523 42.7895 26.3299 42.1689 26.3413C41.8883 26.3464 41.6089 26.4171 41.6089 26.4171C41.3839 26.474 41.2335 26.5448 41.1791 26.5676C40.6773 26.7761 39.5308 26.4993 39.0707 25.7497C38.7799 25.277 38.9834 24.9711 38.6383 24.6626C38.5107 24.5489 38.3426 24.4642 37.5866 24.3731C37.2289 24.3302 36.7296 24.2847 36.1241 24.2758L36.1216 24.2733Z" fill="#003C8D"/>
<path d="M52.8424 28.5837C52.2117 28.5357 51.2017 28.5395 50.0425 28.9099C49.1526 29.1943 48.4751 29.5975 48.02 29.9211C48.4068 29.8364 48.9099 29.7378 49.504 29.6519C49.6456 29.6317 50.1019 29.5672 50.7416 29.5116C51.3597 29.4585 52.1788 29.4092 53.161 29.4142C53.0548 29.1374 52.9486 28.8606 52.8424 28.5825V28.5837Z" fill="#0052C9"/>
<path d="M54.2032 32.4013C53.4991 32.3773 52.5081 32.4253 51.3805 32.7514C50.6006 32.9764 49.9597 33.2773 49.4692 33.5528C49.8131 33.5023 50.2454 33.4467 50.7447 33.3999C50.9115 33.3847 51.402 33.3392 52.0682 33.3114C52.6913 33.2849 53.5117 33.2697 54.4914 33.3064C54.3953 33.0055 54.2992 32.7034 54.2044 32.4025L54.2032 32.4013Z" fill="#0052C9"/>
<path d="M55.1131 35.6246C54.4684 35.5879 53.4357 35.6208 52.3107 36.0948C51.8645 36.2832 51.4916 36.5031 51.1895 36.7155C51.393 36.675 51.6736 36.6257 52.0086 36.5802C52.7139 36.4867 53.2537 36.4702 53.7947 36.4563C54.1853 36.4462 54.6935 36.4424 55.2914 36.4627L55.1131 35.6233V35.6246Z" fill="#0052C9"/>
<path d="M42.9033 41.4431C43.371 41.9639 43.9196 42.5163 44.5555 43.0725C45.4669 43.8689 46.3568 44.4946 47.1493 44.9825C47.1392 44.7676 47.0975 44.4921 46.9761 44.1975C46.9408 44.1116 46.9028 44.0332 46.8636 43.9612C47.2479 44.1558 47.6689 44.3416 48.1265 44.5047C50.3095 45.2821 52.332 45.2075 53.7212 45.0027C51.8529 44.7714 49.4171 44.2279 46.8358 42.936C45.9346 42.4847 45.1331 42.0006 44.4265 41.519C44.3937 41.4962 44.1396 41.3091 43.7818 41.0513C43.5429 40.8794 43.347 40.7378 43.2168 40.6455C43.1119 40.9122 43.0082 41.1777 42.9033 41.4444V41.4431Z" fill="#00398B"/>
<path d="M43.2168 39.8681C43.9298 40.3421 44.9448 40.9615 46.2215 41.5632C47.99 42.3975 51.8403 44.1571 56.9636 43.8411C62.5533 43.4972 66.5414 40.8743 67.8143 39.7101C68.6992 38.9011 69.4286 37.9771 69.4286 37.9771C70.1567 37.0543 70.6598 36.1871 70.9998 35.5146C70.948 35.971 70.8329 36.4539 70.6218 36.9393C70.4385 37.3602 70.1364 37.7786 69.5423 38.5977C69.1328 39.1615 68.928 39.4434 68.6233 39.796C68.1405 40.356 67.7271 40.7327 67.4313 41.0007C67.0142 41.3799 66.3935 41.9374 65.4923 42.5176C65.2698 42.6604 65.0574 42.7881 64.8552 42.9019C64.414 43.1496 63.9526 43.3797 63.3459 43.6338C62.2739 44.0838 61.5092 44.4061 60.436 44.6678C60.436 44.6678 59.0303 45.0103 56.5629 45.1304C56.2039 45.1481 55.8525 45.1519 55.8525 45.1519C55.6313 45.1544 55.3355 45.157 54.9752 45.1405C54.9752 45.1405 54.5416 45.1279 54.0625 45.0634C50.0643 44.5287 47.3289 43.3013 47.3289 43.3013C46.1583 42.7742 44.5921 41.9361 42.9312 40.619C43.0272 40.3674 43.1233 40.1159 43.2181 39.8643L43.2168 39.8681Z" fill="#0087F7"/>
<path d="M41.8252 40.4521C41.9288 40.2359 42.0818 39.9452 42.2967 39.6203C42.4497 39.3877 42.71 38.9959 43.0551 38.6685C43.2852 38.4498 44.1347 37.6446 45.2976 37.7331C45.5428 37.752 46.0586 37.8291 46.6249 38.2412C46.4707 38.1894 46.233 38.13 45.9448 38.1401C45.3406 38.1603 44.9133 38.4624 44.6744 38.6369C43.9766 39.1463 43.6467 39.8352 43.2005 40.7668C43.0652 41.0487 42.9667 41.2851 42.9034 41.4444C42.7088 41.3256 42.4775 41.16 42.2436 40.9337C42.0717 40.7668 41.9339 40.6013 41.8252 40.4534V40.4521Z" fill="#0051CB"/>
<path d="M36.6158 41.8842C38.5018 42.4644 40.4902 43.1141 42.2637 43.6918C43.3622 44.0495 44.2597 44.3466 44.8462 44.5413C42.7693 42.314 40.6937 40.0879 38.6168 37.8606C38.3122 37.8569 37.8344 37.8341 37.2618 37.7254C36.8547 37.6483 35.9257 37.4384 33.9916 36.3867C33.1017 35.9026 32.6568 35.6612 32.227 35.3426C30.1185 33.7802 29.3057 31.5277 29.0731 30.8577C28.8671 30.2623 28.7255 28.9351 28.4512 26.3058C28.0947 22.8966 28.1478 22.6792 27.9026 21.6907C27.5714 20.3571 27.2162 18.9224 26.095 17.4308C24.6059 15.4487 22.6567 14.55 21.5772 14.1707C20.3789 13.7498 19.3221 13.6436 18.6079 13.6221C19.1199 13.9622 19.8164 14.4779 20.5445 15.2035C22.4229 17.0743 23.2268 19.0589 23.869 20.6895C24.3266 21.8512 24.9384 23.4427 25.0951 25.627C25.2177 27.3297 25.0129 28.662 24.9662 28.9515C24.6577 30.8602 24.0485 32.0257 23.7628 34.7182C23.7388 34.9432 23.7223 35.1277 23.7135 35.244C24.1167 35.8596 24.5086 36.3185 24.8069 36.637C25.0964 36.9455 25.3328 37.149 25.4061 37.221C25.4061 37.221 25.8194 37.5863 26.2934 37.9036C28.4639 39.3598 36.6158 41.8816 36.6158 41.8816V41.8842Z" fill="#0051C8"/>
<path d="M37.9875 33.5844C37.918 34.2708 37.8914 35.2959 38.1644 36.4892C38.2997 37.0808 38.4615 37.5043 38.598 37.8607C38.9355 38.738 39.4955 40.1537 40.7444 41.5531C41.6128 42.5264 42.4926 43.1155 43.1992 43.592C43.5001 43.7943 43.9033 44.0648 44.4658 44.3542C45.5479 44.913 46.5237 45.186 47.2051 45.3301C47.1001 44.8902 46.994 44.4516 46.889 44.0117C44.639 42.96 43.0855 41.6706 42.145 40.763C41.451 40.0931 40.3285 38.9921 39.3514 37.211C38.5753 35.7965 38.191 34.4996 37.9875 33.5818V33.5844Z" fill="#003C8D"/>
<path d="M43.7276 54.98C44.3698 54.7576 45.2976 54.3429 46.2178 53.5617C47.0547 52.8513 47.5388 52.1321 47.7347 51.8186C48.3099 50.9021 48.5324 50.0982 48.6866 49.5268C48.8597 48.886 49.0443 47.9379 49.0253 46.7674C49.2655 46.9026 49.6055 47.0783 50.0252 47.2515C50.9467 47.6307 51.7014 47.7673 52.1716 47.8482C53.1095 48.0112 53.8452 48.0213 54.4141 48.0251C54.8944 48.0289 55.2976 48.0112 55.5909 47.9923C55.625 47.6889 55.6579 47.3817 55.6882 47.072C55.7527 46.4198 55.8058 45.7789 55.85 45.1519C55.4557 45.1468 55.041 45.1304 54.6075 45.1001C54.2763 45.0761 53.9565 45.0445 53.6506 45.0091C53.2347 45.0659 52.6772 45.1216 52.0174 45.1254C50.1086 45.1342 48.722 44.7006 48.3781 44.5881C47.7335 44.377 47.2177 44.1406 46.8613 43.9586C46.9245 44.1937 47.0066 44.5287 47.0787 44.9345C47.1646 45.4161 47.3656 46.7054 47.1672 48.6698C47.0344 49.9832 46.9674 50.6544 46.6615 51.4596C46.3986 52.1536 45.6869 53.6641 43.7251 54.9762L43.7276 54.98Z" fill="#0050C8"/>
<path d="M31.6708 40.2296C31.3624 39.9414 30.3878 39.0224 29.5522 38.0365C29.3525 37.8013 29.0201 37.4044 28.6232 36.8419C28.4917 36.6548 28.3539 36.4513 28.2123 36.2288C27.8786 35.7043 27.4438 35.0115 27.062 34.0205C26.8256 33.4062 26.6828 32.8689 26.5943 32.4708C26.3554 33.6059 26.3933 34.5489 26.4654 35.1658C26.5476 35.8762 26.703 36.3932 26.837 36.828C26.9811 37.297 27.196 37.8987 27.5247 38.5737C27.9785 38.805 28.3691 38.9858 28.6661 39.1172C29.5017 39.4876 30.1691 39.724 30.6027 39.8757C31.0363 40.0286 31.4041 40.1462 31.6721 40.2296H31.6708Z" fill="#003C8D"/>
</g>
<defs>
<clipPath id="clip0_204_374">
<rect width="71" height="71" fill="white"/>
</clipPath>
</defs>
</svg>
