<svg width="224" height="40" viewBox="0 0 224 40" fill="none" xmlns="http://www.w3.org/2000/svg">
<g clip-path="url(#clip0_194_164)">
<path d="M65.4773 8.6001H70.8853V31.0001H65.4773V8.6001ZM68.8693 13.0481V8.6001H73.2533C75.1519 8.6001 76.7413 8.89877 78.0213 9.4961C79.3226 10.0721 80.3039 10.9041 80.9653 11.9921C81.6266 13.0801 81.9573 14.3921 81.9573 15.9281C81.9573 17.4214 81.6266 18.7228 80.9653 19.8321C80.3039 20.9201 79.3226 21.7628 78.0213 22.3601C76.7413 22.9361 75.1519 23.2241 73.2533 23.2241H68.8693V18.7761H73.2533C74.3413 18.7761 75.1946 18.5308 75.8133 18.0401C76.4319 17.5494 76.7413 16.8454 76.7413 15.9281C76.7413 14.9894 76.4319 14.2748 75.8133 13.7841C75.1946 13.2934 74.3413 13.0481 73.2533 13.0481H68.8693ZM83.102 23.6401C83.102 22.0828 83.4647 20.7281 84.19 19.5761C84.9154 18.4241 85.918 17.5281 87.198 16.8881C88.478 16.2481 89.918 15.9281 91.518 15.9281C93.118 15.9281 94.5474 16.2481 95.806 16.8881C97.086 17.5281 98.0887 18.4241 98.814 19.5761C99.5607 20.7281 99.934 22.0828 99.934 23.6401C99.934 25.1761 99.5607 26.5201 98.814 27.6721C98.0887 28.8241 97.086 29.7201 95.806 30.3601C94.5474 31.0001 93.118 31.3201 91.518 31.3201C89.918 31.3201 88.478 31.0001 87.198 30.3601C85.918 29.7201 84.9154 28.8241 84.19 27.6721C83.4647 26.5201 83.102 25.1761 83.102 23.6401ZM88.062 23.6401C88.062 24.4081 88.222 25.0694 88.542 25.6241C88.862 26.1574 89.278 26.5734 89.79 26.8721C90.302 27.1708 90.878 27.3201 91.518 27.3201C92.1367 27.3201 92.702 27.1708 93.214 26.8721C93.7474 26.5734 94.1634 26.1574 94.462 25.6241C94.782 25.0694 94.942 24.4081 94.942 23.6401C94.942 22.8721 94.782 22.2108 94.462 21.6561C94.1634 21.1014 93.7474 20.6748 93.214 20.3761C92.702 20.0774 92.1367 19.9281 91.518 19.9281C90.878 19.9281 90.302 20.0774 89.79 20.3761C89.278 20.6748 88.862 21.1014 88.542 21.6561C88.222 22.2108 88.062 22.8721 88.062 23.6401ZM103.641 25.6561C104.388 26.2748 105.06 26.7654 105.657 27.1281C106.276 27.4694 106.82 27.7148 107.289 27.8641C107.758 27.9921 108.164 28.0561 108.505 28.0561C108.996 28.0561 109.358 27.9494 109.593 27.7361C109.828 27.5228 109.945 27.2454 109.945 26.9041C109.945 26.5841 109.849 26.3174 109.657 26.1041C109.465 25.8694 109.134 25.6454 108.665 25.4321C108.217 25.2188 107.598 24.9948 106.809 24.7601C106.105 24.5041 105.433 24.2054 104.793 23.8641C104.174 23.5014 103.662 23.0214 103.257 22.4241C102.852 21.8268 102.649 21.0588 102.649 20.1201C102.649 19.2241 102.884 18.4668 103.353 17.8481C103.844 17.2294 104.494 16.7601 105.305 16.4401C106.137 16.1201 107.086 15.9601 108.153 15.9601C109.006 15.9601 109.796 16.0561 110.521 16.2481C111.268 16.4401 111.961 16.6961 112.601 17.0161C113.262 17.3361 113.881 17.7094 114.457 18.1361L112.729 21.2721C112.11 20.6961 111.406 20.2268 110.617 19.8641C109.828 19.4801 109.102 19.2881 108.441 19.2881C107.993 19.2881 107.652 19.3734 107.417 19.5441C107.204 19.7148 107.097 19.9388 107.097 20.2161C107.097 20.5361 107.225 20.8028 107.481 21.0161C107.758 21.2294 108.142 21.4321 108.633 21.6241C109.145 21.7948 109.764 22.0188 110.489 22.2961C111.257 22.5734 111.961 22.8934 112.601 23.2561C113.262 23.6188 113.785 24.0774 114.169 24.6321C114.574 25.1868 114.777 25.9228 114.777 26.8401C114.777 28.4188 114.286 29.6134 113.305 30.4241C112.345 31.2134 110.99 31.6081 109.241 31.6081C108.174 31.6081 107.182 31.4801 106.265 31.2241C105.369 30.9894 104.537 30.6694 103.769 30.2641C103.001 29.8374 102.286 29.3681 101.625 28.8561L103.641 25.6561ZM115.707 16.2801H125.563V20.2801H115.707V16.2801ZM118.299 11.1601H122.939V31.0001H118.299V11.1601ZM127.078 32.0561H131.75C131.814 32.6534 131.985 33.1548 132.262 33.5601C132.561 33.9654 132.956 34.2641 133.446 34.4561C133.937 34.6694 134.492 34.7761 135.11 34.7761C135.793 34.7761 136.412 34.6161 136.966 34.2961C137.521 33.9974 137.958 33.5388 138.278 32.9201C138.62 32.3228 138.79 31.5761 138.79 30.6801V16.2801H143.43V30.6801C143.43 32.5574 143.057 34.0828 142.31 35.2561C141.585 36.4294 140.614 37.2828 139.398 37.8161C138.182 38.3708 136.817 38.6481 135.302 38.6481C133.489 38.6481 131.985 38.3708 130.79 37.8161C129.617 37.2614 128.732 36.4828 128.134 35.4801C127.537 34.4988 127.185 33.3574 127.078 32.0561ZM126.758 23.4481C126.758 21.7841 127.089 20.3974 127.75 19.2881C128.433 18.1788 129.308 17.3468 130.374 16.7921C131.441 16.2374 132.572 15.9601 133.766 15.9601C135.004 15.9601 136.092 16.2588 137.03 16.8561C137.99 17.4321 138.748 18.2748 139.302 19.3841C139.857 20.4934 140.134 21.8481 140.134 23.4481C140.134 25.0268 139.857 26.3814 139.302 27.5121C138.748 28.6214 137.99 29.4748 137.03 30.0721C136.092 30.6481 135.004 30.9361 133.766 30.9361C132.572 30.9361 131.441 30.6588 130.374 30.1041C129.308 29.5281 128.433 28.6854 127.75 27.5761C127.089 26.4668 126.758 25.0908 126.758 23.4481ZM131.846 23.4481C131.846 24.1948 132.006 24.8454 132.326 25.4001C132.646 25.9334 133.073 26.3388 133.606 26.6161C134.14 26.8934 134.726 27.0321 135.366 27.0321C135.921 27.0321 136.454 26.9041 136.966 26.6481C137.5 26.3708 137.937 25.9654 138.278 25.4321C138.62 24.8988 138.79 24.2374 138.79 23.4481C138.79 22.8508 138.684 22.3281 138.47 21.8801C138.278 21.4321 138.012 21.0588 137.67 20.7601C137.35 20.4614 136.988 20.2374 136.582 20.0881C136.177 19.9388 135.772 19.8641 135.366 19.8641C134.726 19.8641 134.14 20.0028 133.606 20.2801C133.073 20.5574 132.646 20.9628 132.326 21.4961C132.006 22.0294 131.846 22.6801 131.846 23.4481ZM151.922 16.2801V31.0001H147.154V16.2801H151.922ZM156.178 21.2721C155.922 21.0161 155.644 20.8134 155.346 20.6641C155.068 20.5148 154.716 20.4401 154.29 20.4401C153.82 20.4401 153.404 20.5681 153.042 20.8241C152.679 21.0801 152.402 21.4534 152.21 21.9441C152.018 22.4348 151.922 23.0321 151.922 23.7361L150.77 22.0401C150.77 20.8668 150.994 19.8214 151.442 18.9041C151.911 17.9868 152.519 17.2614 153.266 16.7281C154.012 16.1948 154.791 15.9281 155.602 15.9281C156.135 15.9281 156.647 16.0348 157.138 16.2481C157.628 16.4614 158.002 16.7601 158.258 17.1441L156.178 21.2721ZM167.329 31.3201C165.622 31.3201 164.14 31.0108 162.881 30.3921C161.644 29.7521 160.684 28.8561 160.001 27.7041C159.318 26.5521 158.977 25.1974 158.977 23.6401C158.977 22.0614 159.308 20.6961 159.969 19.5441C160.63 18.3921 161.58 17.5068 162.817 16.8881C164.076 16.2694 165.558 15.9601 167.265 15.9601C168.972 15.9601 170.412 16.2588 171.585 16.8561C172.758 17.4321 173.654 18.2748 174.273 19.3841C174.892 20.4934 175.201 21.8374 175.201 23.4161C175.201 23.6508 175.201 23.8854 175.201 24.1201C175.201 24.3334 175.18 24.5148 175.137 24.6641H161.697V21.9761H170.785L169.633 23.4481C169.74 23.2988 169.825 23.1174 169.889 22.9041C169.974 22.6694 170.017 22.4774 170.017 22.3281C170.017 21.6881 169.9 21.1334 169.665 20.6641C169.43 20.1948 169.1 19.8321 168.673 19.5761C168.246 19.3201 167.745 19.1921 167.169 19.1921C166.444 19.1921 165.836 19.3521 165.345 19.6721C164.854 19.9921 164.481 20.4828 164.225 21.1441C163.99 21.7841 163.862 22.5948 163.841 23.5761C163.841 24.4721 163.969 25.2401 164.225 25.8801C164.481 26.5201 164.865 27.0108 165.377 27.3521C165.889 27.6721 166.518 27.8321 167.265 27.8321C168.118 27.8321 168.844 27.6721 169.441 27.3521C170.06 27.0321 170.55 26.5521 170.913 25.9121L175.233 26.9681C174.465 28.4188 173.42 29.5068 172.097 30.2321C170.796 30.9574 169.206 31.3201 167.329 31.3201ZM178.985 25.6561C179.732 26.2748 180.404 26.7654 181.001 27.1281C181.62 27.4694 182.164 27.7148 182.633 27.8641C183.102 27.9921 183.508 28.0561 183.849 28.0561C184.34 28.0561 184.702 27.9494 184.937 27.7361C185.172 27.5228 185.289 27.2454 185.289 26.9041C185.289 26.5841 185.193 26.3174 185.001 26.1041C184.809 25.8694 184.478 25.6454 184.009 25.4321C183.561 25.2188 182.942 24.9948 182.153 24.7601C181.449 24.5041 180.777 24.2054 180.137 23.8641C179.518 23.5014 179.006 23.0214 178.601 22.4241C178.196 21.8268 177.993 21.0588 177.993 20.1201C177.993 19.2241 178.228 18.4668 178.697 17.8481C179.188 17.2294 179.838 16.7601 180.649 16.4401C181.481 16.1201 182.43 15.9601 183.497 15.9601C184.35 15.9601 185.14 16.0561 185.865 16.2481C186.612 16.4401 187.305 16.6961 187.945 17.0161C188.606 17.3361 189.225 17.7094 189.801 18.1361L188.073 21.2721C187.454 20.6961 186.75 20.2268 185.961 19.8641C185.172 19.4801 184.446 19.2881 183.785 19.2881C183.337 19.2881 182.996 19.3734 182.761 19.5441C182.548 19.7148 182.441 19.9388 182.441 20.2161C182.441 20.5361 182.569 20.8028 182.825 21.0161C183.102 21.2294 183.486 21.4321 183.977 21.6241C184.489 21.7948 185.108 22.0188 185.833 22.2961C186.601 22.5734 187.305 22.8934 187.945 23.2561C188.606 23.6188 189.129 24.0774 189.513 24.6321C189.918 25.1868 190.121 25.9228 190.121 26.8401C190.121 28.4188 189.63 29.6134 188.649 30.4241C187.689 31.2134 186.334 31.6081 184.585 31.6081C183.518 31.6081 182.526 31.4801 181.609 31.2241C180.713 30.9894 179.881 30.6694 179.113 30.2641C178.345 29.8374 177.63 29.3681 176.969 28.8561L178.985 25.6561ZM197.835 25.2401C197.835 26.0934 197.995 26.7654 198.315 27.2561C198.635 27.7254 199.189 27.9601 199.979 27.9601C200.512 27.9601 200.96 27.8534 201.323 27.6401C201.707 27.4268 202.005 27.1174 202.219 26.7121C202.432 26.3068 202.539 25.8161 202.539 25.2401V16.2801H207.371V31.0001H202.539V28.7921C202.091 29.5814 201.504 30.2108 200.779 30.6801C200.053 31.1281 199.147 31.3521 198.059 31.3521C196.224 31.3521 194.88 30.8614 194.027 29.8801C193.195 28.8774 192.779 27.5014 192.779 25.7521V16.2801H197.835V25.2401ZM211.985 25.6561C212.732 26.2748 213.404 26.7654 214.001 27.1281C214.62 27.4694 215.164 27.7148 215.633 27.8641C216.102 27.9921 216.508 28.0561 216.849 28.0561C217.34 28.0561 217.702 27.9494 217.937 27.7361C218.172 27.5228 218.289 27.2454 218.289 26.9041C218.289 26.5841 218.193 26.3174 218.001 26.1041C217.809 25.8694 217.478 25.6454 217.009 25.4321C216.561 25.2188 215.942 24.9948 215.153 24.7601C214.449 24.5041 213.777 24.2054 213.137 23.8641C212.518 23.5014 212.006 23.0214 211.601 22.4241C211.196 21.8268 210.993 21.0588 210.993 20.1201C210.993 19.2241 211.228 18.4668 211.697 17.8481C212.188 17.2294 212.838 16.7601 213.649 16.4401C214.481 16.1201 215.43 15.9601 216.497 15.9601C217.35 15.9601 218.14 16.0561 218.865 16.2481C219.612 16.4401 220.305 16.6961 220.945 17.0161C221.606 17.3361 222.225 17.7094 222.801 18.1361L221.073 21.2721C220.454 20.6961 219.75 20.2268 218.961 19.8641C218.172 19.4801 217.446 19.2881 216.785 19.2881C216.337 19.2881 215.996 19.3734 215.761 19.5441C215.548 19.7148 215.441 19.9388 215.441 20.2161C215.441 20.5361 215.569 20.8028 215.825 21.0161C216.102 21.2294 216.486 21.4321 216.977 21.6241C217.489 21.7948 218.108 22.0188 218.833 22.2961C219.601 22.5734 220.305 22.8934 220.945 23.2561C221.606 23.6188 222.129 24.0774 222.513 24.6321C222.918 25.1868 223.121 25.9228 223.121 26.8401C223.121 28.4188 222.63 29.6134 221.649 30.4241C220.689 31.2134 219.334 31.6081 217.585 31.6081C216.518 31.6081 215.526 31.4801 214.609 31.2241C213.713 30.9894 212.881 30.6694 212.113 30.2641C211.345 29.8374 210.63 29.3681 209.969 28.8561L211.985 25.6561Z" fill="#155DFC"/>
<path d="M26.4404 34.9821C25.3183 35.0292 24.0351 34.3656 23.2956 33.3391C23.0329 32.9746 22.4817 33.0004 22.2448 33.3816C21.8196 34.0664 21.44 34.648 21.2365 34.9943C20.7247 35.8689 20.8022 36.0269 21.2137 36.7056C21.9836 37.9751 24.3601 39.9416 27.7038 39.9902C32.8866 40.0646 37.2644 37.3009 38.9196 30.6179C43.1927 30.8123 43.955 29.0736 43.9702 27.4427C43.9854 25.833 43.3051 25.0404 41.3553 24.4922C40.7206 24.313 39.9765 24.1581 39.1747 23.8332C38.9454 21.8849 38.376 20.0353 37.4937 18.2936C41.7501 1.20419 23.8164 -4.04836 16.9269 3.42123C15.9687 2.19578 13.5513 0.00608131 9.44518 7.23773e-06C4.81218 -0.00606684 0 3.81149 0 9.58793C0 11.9917 1.43804 15.5861 2.40078 18.6626C4.40067 25.0525 5.68989 26.8687 8.49611 27.3804C10.742 27.7904 12.5581 26.7593 13.9157 25.0404C15.8787 25.2299 14.5702 26.9746 23.7026 26.4921C25.6508 26.3281 27.3318 27.016 28.5998 28.4525C30.466 30.5678 29.927 34.8348 26.4404 34.9806V34.9821ZM25.915 16.9846C24.9447 16.889 24.1596 16.1039 24.064 15.1336C23.9334 13.8216 25.0267 12.7297 26.3387 12.8588C27.309 12.9545 28.0941 13.7396 28.1898 14.7099C28.3188 16.0204 27.227 17.1137 25.915 16.9846ZM30.1137 24.884C29.1328 23.9015 28.9976 22.6335 29.766 21.809C30.6376 20.8736 31.8767 21.3033 32.5206 22.0049C34.5053 24.1672 36.7937 25.5627 41.3052 26.6667C42.2452 26.8975 42.1693 28.2581 41.208 28.375C39.1914 28.621 35.8932 28.1579 33.6671 27.2149C32.3186 26.6439 31.034 25.8042 30.1137 24.8824V24.884Z" fill="#155DFC"/>
<path d="M24.6775 26.48C24.6775 26.48 24.6669 26.48 24.6593 26.48C26.2476 26.5695 27.5369 27.2498 28.5998 28.4525C30.4661 30.5678 29.927 34.8348 26.4405 34.9806C25.3183 35.0277 24.0352 34.3641 23.2956 33.3376C25.7177 37.9159 32.0362 37.0412 32.715 32.8289C33.2678 29.4001 29.271 25.4868 24.6775 26.4769V26.48ZM22.5227 24.5727C20.8842 24.9797 18.9906 25.0708 17.422 24.4603C11.2644 22.0626 10.6418 13.0471 15.0395 6.88195C14.3531 5.92681 12.3168 4.2868 9.72919 4.22606C5.55782 4.12888 2.58457 7.68829 4.09549 12.622C4.57838 7.56529 9.54849 6.66177 11.8992 9.49532C8.86668 15.6089 9.72616 22.2372 13.9127 25.0419C15.8788 26.1023 17.1873 26.4769 18.0596 26.5384C20.4486 26.707 22.1613 25.543 22.5212 24.5727H22.5227Z" fill="#1E56E2"/>
</g>
<defs>
<clipPath id="clip0_194_164">
<rect width="224" height="40" fill="white"/>
</clipPath>
</defs>
</svg>
