<svg width="283" height="61" viewBox="0 0 283 61" fill="none" xmlns="http://www.w3.org/2000/svg">
<path d="M73.368 18.6H78.776V41H73.368V18.6ZM76.76 23.048V18.6H81.144C83.0427 18.6 84.632 18.8987 85.912 19.496C87.2133 20.072 88.1947 20.904 88.856 21.992C89.5173 23.08 89.848 24.392 89.848 25.928C89.848 27.4213 89.5173 28.7227 88.856 29.832C88.1947 30.92 87.2133 31.7627 85.912 32.36C84.632 32.936 83.0427 33.224 81.144 33.224H76.76V28.776H81.144C82.232 28.776 83.0853 28.5307 83.704 28.04C84.3227 27.5493 84.632 26.8453 84.632 25.928C84.632 24.9893 84.3227 24.2747 83.704 23.784C83.0853 23.2933 82.232 23.048 81.144 23.048H76.76ZM97.7535 29.8C97.7535 31.1227 98.0095 32.296 98.5215 33.32C99.0548 34.3227 99.7908 35.112 100.73 35.688C101.69 36.264 102.81 36.552 104.09 36.552C105.348 36.552 106.447 36.264 107.385 35.688C108.346 35.112 109.082 34.3227 109.594 33.32C110.127 32.296 110.394 31.1227 110.394 29.8C110.394 28.4773 110.138 27.3147 109.626 26.312C109.114 25.288 108.388 24.488 107.45 23.912C106.511 23.336 105.391 23.048 104.09 23.048C102.81 23.048 101.69 23.336 100.73 23.912C99.7908 24.488 99.0548 25.288 98.5215 26.312C98.0095 27.3147 97.7535 28.4773 97.7535 29.8ZM92.0255 29.8C92.0255 28.072 92.3242 26.4933 92.9215 25.064C93.5402 23.6347 94.3935 22.3973 95.4815 21.352C96.5695 20.3067 97.8495 19.5067 99.3215 18.952C100.794 18.376 102.383 18.088 104.09 18.088C105.818 18.088 107.407 18.376 108.858 18.952C110.33 19.5067 111.61 20.3067 112.698 21.352C113.786 22.3973 114.628 23.6347 115.226 25.064C115.823 26.4933 116.122 28.072 116.122 29.8C116.122 31.528 115.823 33.1173 115.226 34.568C114.65 36.0187 113.818 37.2773 112.73 38.344C111.663 39.4107 110.394 40.2427 108.922 40.84C107.45 41.416 105.839 41.704 104.09 41.704C102.319 41.704 100.698 41.416 99.2255 40.84C97.7535 40.2427 96.4735 39.4107 95.3855 38.344C94.3188 37.2773 93.4868 36.0187 92.8895 34.568C92.3135 33.1173 92.0255 31.528 92.0255 29.8ZM122.051 33.128C122.499 33.9387 123 34.6427 123.555 35.24C124.131 35.8373 124.749 36.296 125.411 36.616C126.093 36.936 126.808 37.096 127.555 37.096C128.344 37.096 128.995 36.904 129.507 36.52C130.019 36.1147 130.275 35.5707 130.275 34.888C130.275 34.312 130.125 33.8533 129.827 33.512C129.528 33.1493 129.048 32.808 128.387 32.488C127.725 32.168 126.851 31.8053 125.763 31.4C125.229 31.208 124.611 30.9413 123.907 30.6C123.224 30.2587 122.573 29.8213 121.955 29.288C121.336 28.7333 120.824 28.072 120.419 27.304C120.013 26.5147 119.811 25.5653 119.811 24.456C119.811 23.1333 120.152 21.992 120.835 21.032C121.539 20.072 122.477 19.3467 123.651 18.856C124.845 18.344 126.168 18.088 127.619 18.088C129.112 18.088 130.403 18.3333 131.491 18.824C132.6 19.3147 133.517 19.9333 134.243 20.68C134.968 21.4267 135.523 22.184 135.907 22.952L131.779 25.256C131.459 24.7227 131.085 24.264 130.659 23.88C130.253 23.4747 129.795 23.1653 129.283 22.952C128.792 22.7173 128.259 22.6 127.683 22.6C126.915 22.6 126.328 22.7707 125.923 23.112C125.517 23.432 125.315 23.8373 125.315 24.328C125.315 24.84 125.507 25.288 125.891 25.672C126.296 26.056 126.861 26.408 127.587 26.728C128.333 27.048 129.229 27.3893 130.275 27.752C131.064 28.0507 131.8 28.4027 132.483 28.808C133.165 29.192 133.763 29.6613 134.275 30.216C134.808 30.7707 135.224 31.4107 135.523 32.136C135.821 32.8613 135.971 33.6933 135.971 34.632C135.971 35.7627 135.736 36.776 135.267 37.672C134.819 38.5467 134.2 39.2827 133.411 39.88C132.643 40.4773 131.757 40.9253 130.755 41.224C129.773 41.544 128.76 41.704 127.715 41.704C126.264 41.704 124.909 41.448 123.651 40.936C122.413 40.4027 121.336 39.688 120.419 38.792C119.501 37.896 118.787 36.9147 118.275 35.848L122.051 33.128ZM137.347 23.432V18.6H155.075V23.432H148.899V41H143.491V23.432H137.347ZM167.035 32.904V28.744H178.363C178.469 30.536 178.288 32.2107 177.819 33.768C177.349 35.3253 176.624 36.7013 175.643 37.896C174.661 39.0907 173.435 40.0293 171.963 40.712C170.491 41.3733 168.805 41.704 166.907 41.704C165.115 41.704 163.472 41.4267 161.979 40.872C160.485 40.296 159.195 39.4853 158.107 38.44C157.019 37.3733 156.165 36.1147 155.547 34.664C154.949 33.192 154.651 31.5707 154.651 29.8C154.651 28.0293 154.96 26.4293 155.579 25C156.197 23.5493 157.072 22.312 158.203 21.288C159.333 20.264 160.656 19.4747 162.171 18.92C163.685 18.3653 165.328 18.088 167.099 18.088C168.677 18.088 170.096 18.312 171.355 18.76C172.613 19.208 173.723 19.8373 174.683 20.648C175.664 21.4373 176.507 22.3547 177.211 23.4L172.411 25.896C171.899 25 171.205 24.264 170.331 23.688C169.477 23.0907 168.4 22.792 167.099 22.792C165.861 22.792 164.72 23.0693 163.675 23.624C162.651 24.1787 161.829 24.9787 161.211 26.024C160.613 27.048 160.315 28.3067 160.315 29.8C160.315 31.272 160.603 32.552 161.179 33.64C161.776 34.7067 162.576 35.5387 163.579 36.136C164.603 36.712 165.776 37 167.099 37C167.909 37 168.645 36.904 169.307 36.712C169.968 36.4987 170.533 36.2107 171.003 35.848C171.472 35.464 171.867 35.0267 172.187 34.536C172.528 34.024 172.795 33.48 172.987 32.904H167.035ZM187.593 30.856H193.193L200.201 41H193.865L187.593 30.856ZM181.993 18.6H187.401V41H181.993V18.6ZM185.385 23.176V18.6H190.153C192.073 18.6 193.673 18.9093 194.953 19.528C196.233 20.1467 197.204 21.0107 197.865 22.12C198.526 23.208 198.857 24.4773 198.857 25.928C198.857 27.3573 198.526 28.6267 197.865 29.736C197.204 30.824 196.233 31.6773 194.953 32.296C193.673 32.9147 192.073 33.224 190.153 33.224H185.385V29.032H189.769C190.494 29.032 191.113 28.9253 191.625 28.712C192.158 28.4773 192.564 28.1467 192.841 27.72C193.118 27.272 193.257 26.7387 193.257 26.12C193.257 25.5013 193.118 24.9787 192.841 24.552C192.564 24.104 192.158 23.7627 191.625 23.528C191.113 23.2933 190.494 23.176 189.769 23.176H185.385ZM206.296 41V36.552H217.592V41H206.296ZM206.296 23.048V18.6H217.592V23.048H206.296ZM206.296 31.4V27.048H216.952V31.4H206.296ZM202.712 18.6H207.896V41H202.712V18.6ZM224.457 33.128C224.905 33.9387 225.406 34.6427 225.961 35.24C226.537 35.8373 227.156 36.296 227.817 36.616C228.5 36.936 229.214 37.096 229.961 37.096C230.75 37.096 231.401 36.904 231.913 36.52C232.425 36.1147 232.681 35.5707 232.681 34.888C232.681 34.312 232.532 33.8533 232.233 33.512C231.934 33.1493 231.454 32.808 230.793 32.488C230.132 32.168 229.257 31.8053 228.169 31.4C227.636 31.208 227.017 30.9413 226.313 30.6C225.63 30.2587 224.98 29.8213 224.361 29.288C223.742 28.7333 223.23 28.072 222.825 27.304C222.42 26.5147 222.217 25.5653 222.217 24.456C222.217 23.1333 222.558 21.992 223.241 21.032C223.945 20.072 224.884 19.3467 226.057 18.856C227.252 18.344 228.574 18.088 230.025 18.088C231.518 18.088 232.809 18.3333 233.897 18.824C235.006 19.3147 235.924 19.9333 236.649 20.68C237.374 21.4267 237.929 22.184 238.313 22.952L234.185 25.256C233.865 24.7227 233.492 24.264 233.065 23.88C232.66 23.4747 232.201 23.1653 231.689 22.952C231.198 22.7173 230.665 22.6 230.089 22.6C229.321 22.6 228.734 22.7707 228.329 23.112C227.924 23.432 227.721 23.8373 227.721 24.328C227.721 24.84 227.913 25.288 228.297 25.672C228.702 26.056 229.268 26.408 229.993 26.728C230.74 27.048 231.636 27.3893 232.681 27.752C233.47 28.0507 234.206 28.4027 234.889 28.808C235.572 29.192 236.169 29.6613 236.681 30.216C237.214 30.7707 237.63 31.4107 237.929 32.136C238.228 32.8613 238.377 33.6933 238.377 34.632C238.377 35.7627 238.142 36.776 237.673 37.672C237.225 38.5467 236.606 39.2827 235.817 39.88C235.049 40.4773 234.164 40.9253 233.161 41.224C232.18 41.544 231.166 41.704 230.121 41.704C228.67 41.704 227.316 41.448 226.057 40.936C224.82 40.4027 223.742 39.688 222.825 38.792C221.908 37.896 221.193 36.9147 220.681 35.848L224.457 33.128ZM241.833 18.6H247.241V33.256C247.241 34.3867 247.54 35.304 248.137 36.008C248.734 36.712 249.63 37.064 250.825 37.064C252.041 37.064 252.948 36.712 253.545 36.008C254.142 35.304 254.441 34.3867 254.441 33.256V18.6H259.849V33.64C259.849 35.048 259.614 36.2747 259.145 37.32C258.697 38.3653 258.057 39.2293 257.225 39.912C256.414 40.5733 255.454 41.0747 254.345 41.416C253.257 41.7573 252.084 41.928 250.825 41.928C249.566 41.928 248.393 41.7573 247.305 41.416C246.217 41.0747 245.257 40.5733 244.425 39.912C243.614 39.2293 242.974 38.3653 242.505 37.32C242.057 36.2747 241.833 35.048 241.833 33.64V18.6ZM266.895 33.128C267.343 33.9387 267.844 34.6427 268.399 35.24C268.975 35.8373 269.593 36.296 270.255 36.616C270.937 36.936 271.652 37.096 272.399 37.096C273.188 37.096 273.839 36.904 274.351 36.52C274.863 36.1147 275.119 35.5707 275.119 34.888C275.119 34.312 274.969 33.8533 274.671 33.512C274.372 33.1493 273.892 32.808 273.231 32.488C272.569 32.168 271.695 31.8053 270.607 31.4C270.073 31.208 269.455 30.9413 268.751 30.6C268.068 30.2587 267.417 29.8213 266.799 29.288C266.18 28.7333 265.668 28.072 265.263 27.304C264.857 26.5147 264.655 25.5653 264.655 24.456C264.655 23.1333 264.996 21.992 265.679 21.032C266.383 20.072 267.321 19.3467 268.495 18.856C269.689 18.344 271.012 18.088 272.463 18.088C273.956 18.088 275.247 18.3333 276.335 18.824C277.444 19.3147 278.361 19.9333 279.087 20.68C279.812 21.4267 280.367 22.184 280.751 22.952L276.623 25.256C276.303 24.7227 275.929 24.264 275.503 23.88C275.097 23.4747 274.639 23.1653 274.127 22.952C273.636 22.7173 273.103 22.6 272.527 22.6C271.759 22.6 271.172 22.7707 270.767 23.112C270.361 23.432 270.159 23.8373 270.159 24.328C270.159 24.84 270.351 25.288 270.735 25.672C271.14 26.056 271.705 26.408 272.431 26.728C273.177 27.048 274.073 27.3893 275.119 27.752C275.908 28.0507 276.644 28.4027 277.327 28.808C278.009 29.192 278.607 29.6613 279.119 30.216C279.652 30.7707 280.068 31.4107 280.367 32.136C280.665 32.8613 280.815 33.6933 280.815 34.632C280.815 35.7627 280.58 36.776 280.111 37.672C279.663 38.5467 279.044 39.2827 278.255 39.88C277.487 40.4773 276.601 40.9253 275.599 41.224C274.617 41.544 273.604 41.704 272.559 41.704C271.108 41.704 269.753 41.448 268.495 40.936C267.257 40.4027 266.18 39.688 265.263 38.792C264.345 37.896 263.631 36.9147 263.118 35.848L266.895 33.128Z" fill="black"/>
<g clip-path="url(#clip0_221_213)">
<path d="M13 9L29 9.5L37 9L44.5 14.5L51.5 29.5L52.5 38L51 43.5L45 39.5L38 37L26 33L22.5 30L13 20V9Z" fill="#155DFC"/>
<path d="M4.05934 27.4656C14.7992 34.7283 16.8146 38.2615 19.6252 36.9747C20.368 36.6342 22.3667 35.4081 22.9893 29.9845C22.8119 29.9762 22.4619 29.9774 22.0774 30.1262C19.668 31.0643 19.7371 36.3794 18.5359 36.3854C18.5169 36.3854 18.4752 36.3854 18.4217 36.3699C18.3038 36.3485 18.1586 36.3033 17.9407 36.2021C17.3039 35.9045 16.9848 35.7545 16.5015 35.4628C16.5015 35.4628 16.0075 35.1688 15.5575 34.8545C14.8933 34.3903 14.5135 33.8308 13.7683 33.1618C13.1446 32.6023 13.1362 32.7487 11.6804 31.6797C11.1792 31.3119 10.8114 31.0214 10.0959 30.4548C8.92098 29.525 8.10912 28.8822 7.4163 28.2834C6.54968 27.5347 5.37712 26.4288 4.07838 24.8943C2.89749 22.6742 1.49042 20.366 0.776174 20.5981C0.320246 20.7469 0.250012 21.8707 0.338103 22.6242C0.632135 25.1658 3.09034 26.8121 4.05934 27.4668V27.4656Z" fill="#003A86"/>
<path d="M5.3057 26.7942C11.0828 27.918 16.8587 29.0429 22.6357 30.1667C23.3071 31.2059 24.019 31.8523 24.5059 32.232C24.5059 32.232 27.3783 34.4712 31.74 34.3045C31.9495 34.2962 32.4697 34.2557 33.1768 34.3319C33.903 34.4105 34.0292 34.4879 35.1827 34.6962C36.3683 34.9105 36.5017 34.8771 36.9755 35.0604C37.5266 35.2735 37.9171 35.5402 38.1909 35.7295C38.6444 36.0425 38.7515 36.1949 39.6194 36.9449C40.1003 37.3603 40.3408 37.5686 40.561 37.7353C40.9657 38.0412 41.6145 38.5281 42.5371 38.921C43.062 39.1436 43.5787 39.2959 44.0691 39.44C44.3382 39.5185 44.5643 39.5793 44.725 39.6197C44.806 40.3959 44.8631 41.5006 44.725 42.8112C44.581 44.1814 44.481 45.1361 43.9048 46.2158C43.6489 46.6955 42.7192 48.3716 40.7134 49.1038C40.3086 49.2514 39.067 49.6847 37.5826 49.2859C37.0838 49.1526 36.1576 48.8895 35.4243 48.0098C34.672 47.1062 34.5922 46.117 34.5732 45.8218C34.5363 45.254 34.4851 44.4695 35.0291 43.8159C35.4589 43.3005 36.1755 42.9672 36.8528 43.0255C37.6635 43.0957 37.8873 43.6838 38.4528 43.5362C38.723 43.466 38.7206 43.3195 39.4658 42.5398C40.1372 41.8375 40.2931 41.7946 40.3169 41.5494C40.3729 40.9613 39.5515 40.4387 39.223 40.2292C38.9777 40.0733 38.3778 39.7292 37.3076 39.5912C36.6969 39.5126 35.5124 39.3733 34.147 39.9257C32.4816 40.5983 31.6472 41.8529 31.3817 42.266C30.6841 43.3469 30.5151 44.36 30.4091 45.0314C30.3508 45.404 30.1913 46.5837 30.5008 48.0705C30.9341 50.1561 32.0102 51.5203 32.3543 51.931C33.8471 53.7118 35.6446 54.3701 36.4874 54.6666C40.4288 56.0534 43.9787 54.5987 44.6631 54.3023C48.4248 52.675 50.101 49.5061 50.9247 47.9502C52.4901 44.9921 52.6889 42.3315 52.9008 39.5007C52.9722 38.5531 53.1329 35.7652 52.5365 32.2058C52.1116 29.675 51.4925 27.8823 50.8342 25.9752C49.4605 21.9957 47.9475 19.1506 47.4606 18.2554C47.4606 18.2554 45.5107 14.6734 42.2633 10.8391C41.63 10.0915 40.9919 9.388 39.9539 8.80231C39.292 8.42972 38.1016 7.8976 35.0303 7.82975C33.4768 7.79523 31.2769 7.87498 28.6473 8.4071C28.7795 8.60947 28.9104 8.81184 29.0425 9.0154C28.3188 8.63566 27.2653 8.1333 25.9427 7.67856C24.638 7.22978 23.65 7.02503 22.0822 6.706C19.6311 6.20721 17.786 5.99532 17.3408 5.94651C15.3504 5.7251 13.8933 5.68105 12.4172 5.79414C11.4839 5.86556 10.6304 5.99294 9.74237 6.49291C9.17811 6.81075 8.78528 7.17502 8.31387 7.61785C7.40202 8.47376 6.82467 9.2511 6.55087 9.6237C4.61169 12.2617 3.64269 13.5818 2.72131 15.1246C2.72131 15.1246 2.05111 16.2472 0.928549 18.7113C0.747606 19.1077 0.434528 19.8113 0.358342 20.7791C0.346438 20.9279 0.308344 21.4112 0.38215 21.8731C0.569045 23.0468 1.43805 23.8456 2.32728 24.6086C4.29266 26.2954 5.67116 27.2525 5.67116 27.2525C5.89376 27.4013 8.04722 28.9084 9.89593 30.3524C12.9136 32.7106 14.4219 33.8903 15.3456 34.7224C15.3456 34.7224 16.1158 35.4164 17.6753 36.1199C18.1395 36.3294 18.499 36.4532 18.9216 36.3854C19.5335 36.2866 19.918 35.8402 20.2906 35.3973C20.4251 35.2366 20.7025 34.8855 21.5894 32.9022C21.8096 32.4106 21.9191 32.1642 22.0524 31.8309C22.1631 31.5547 22.4346 30.8595 22.7322 29.8488C22.9667 29.0548 23.4309 27.4811 23.694 25.7312C23.9333 24.142 24.2797 21.8397 23.6631 18.953C23.6071 18.6935 22.994 15.9281 21.2727 13.3199C20.3763 11.9617 19.5026 11.1343 19.3169 10.9593C18.755 10.4344 18.23 10.0451 17.8277 9.77369C18.2193 9.79274 18.7562 9.84512 19.3776 9.98678C19.8359 10.0903 21.068 10.4082 22.4167 11.2938C23.7357 12.1593 24.5261 13.1485 24.8785 13.6342C26.1236 15.3496 26.4534 17.0519 26.657 18.1018C26.895 19.3315 26.9569 20.6029 27.0069 21.5969C27.0653 22.7921 27.0236 23.1551 27.1593 24.0289C27.2522 24.6289 27.4141 25.63 27.939 26.7942C28.7283 28.5441 29.8615 29.6095 30.2889 29.9857C31.0496 30.6535 31.7281 30.9976 33.0852 31.688C34.2208 32.2654 34.9613 32.5118 35.7898 32.5999C36.1529 32.638 36.4588 32.638 36.6707 32.6308C36.4612 32.1344 36.3303 31.6904 36.2457 31.3392C36.1731 31.0392 36.0612 30.5631 36.0326 29.9262C36.01 29.4238 36.0481 28.9977 36.0934 28.6798C36.1826 29.0667 36.316 29.5679 36.5183 30.1393C36.6159 30.4143 36.9683 31.3809 37.704 32.632C38.2504 33.5629 38.9123 34.3807 40.0134 35.52C41.0633 36.6044 42.6097 38.0615 44.7239 39.6233C38.023 35.9509 31.3234 32.2785 24.6225 28.606" fill="#155DFC"/>
<path d="M34.3218 19.8339C34.9634 19.4339 35.5062 19.147 35.9026 18.953C36.2645 18.7744 36.4514 18.7053 36.6728 18.6494C36.8264 18.6101 37.3204 18.4982 37.9597 18.5851C38.2251 18.622 38.5989 18.6768 39.0239 18.9125C39.5322 19.1946 39.8072 19.5672 39.8751 19.6624C39.956 19.7767 40.1322 20.0279 40.2393 20.3922C40.306 20.6148 40.2917 20.6981 40.381 20.8993C40.475 21.11 40.5786 21.2219 40.7452 21.4266C40.8798 21.5909 41.0631 21.829 41.2726 22.1361C41.1619 22.0742 40.6012 21.7707 40.0167 21.7814C39.7524 21.7861 39.4894 21.8528 39.4894 21.8528C39.2775 21.9064 39.1358 21.973 39.0846 21.9945C38.612 22.1909 37.5323 21.9302 37.099 21.2243C36.8252 20.779 37.0169 20.491 36.6919 20.2005C36.5717 20.0934 36.4133 20.0136 35.7015 19.9279C35.3646 19.8874 34.8944 19.8446 34.3242 19.8362L34.3218 19.8339Z" fill="#003C8D"/>
<path d="M50.0688 23.8932C49.4748 23.848 48.5236 23.8516 47.432 24.2004C46.594 24.4682 45.9559 24.8479 45.5273 25.1527C45.8916 25.0729 46.3654 24.9801 46.9249 24.8991C47.0582 24.8801 47.488 24.8194 48.0903 24.767C48.6724 24.717 49.4438 24.6706 50.3688 24.6753C50.2688 24.4146 50.1688 24.1539 50.0688 23.892V23.8932Z" fill="#0052C9"/>
<path d="M51.3497 27.4883C50.6866 27.4656 49.7534 27.5109 48.6915 27.818C47.957 28.0299 47.3535 28.3132 46.8916 28.5727C47.2154 28.5251 47.6225 28.4727 48.0927 28.4287C48.2499 28.4144 48.7117 28.3715 49.3391 28.3453C49.926 28.3204 50.6985 28.3061 51.6211 28.3406C51.5306 28.0573 51.4402 27.7728 51.3509 27.4894L51.3497 27.4883Z" fill="#0052C9"/>
<path d="M52.2068 30.5238C51.5996 30.4893 50.6271 30.5202 49.5676 30.9666C49.1474 31.144 48.7962 31.3511 48.5117 31.5511C48.7034 31.513 48.9676 31.4666 49.2831 31.4237C49.9474 31.3356 50.4557 31.3202 50.9652 31.3071C51.333 31.2976 51.8115 31.294 52.3746 31.313L52.2068 30.5226V30.5238Z" fill="#0052C9"/>
<path d="M34.7876 36.4187C36.5637 36.9651 38.4362 37.577 40.1064 38.121C41.1409 38.4579 41.986 38.7376 42.5384 38.9209C40.5826 36.8234 38.6279 34.7271 36.672 32.6296C36.3852 32.626 35.9352 32.6046 35.3959 32.5022C35.0126 32.4296 34.1377 32.232 32.3163 31.2416C31.4783 30.7857 31.0592 30.5583 30.6545 30.2583C28.6689 28.787 27.9035 26.6656 27.6844 26.0347C27.4904 25.474 27.3571 24.2241 27.0987 21.748C26.763 18.5375 26.813 18.3327 26.5821 17.4018C26.4023 16.6769 25.9988 14.9651 24.8798 13.3902C24.5108 12.8699 23.0644 10.895 20.3658 10.0606C19.2384 9.71178 18.248 9.67249 17.585 9.6963C18.1195 10.0832 18.8504 10.6665 19.6218 11.4748C20.0039 11.8748 21.6193 13.6128 22.7835 16.4614C23.1478 17.3518 23.7823 18.9399 23.9382 21.1112C24.0537 22.7147 23.8608 23.9694 23.8168 24.242C23.5263 26.0395 22.9525 27.137 22.6835 29.6726C22.6609 29.8845 22.6454 30.0583 22.6371 30.1678C23.0168 30.7476 23.3858 31.1797 23.6668 31.4797C23.9394 31.7701 24.162 31.9618 24.231 32.0296C24.231 32.0296 24.6203 32.3737 25.0667 32.6725C27.1106 34.0438 34.7876 36.4187 34.7876 36.4187Z" fill="#0051C8"/>
<path d="M36.079 28.6025C35.9968 29.2239 35.9468 30.1703 36.1992 31.2702C36.3254 31.8178 36.4789 32.2011 36.6539 32.6296C37.061 33.6296 37.5705 34.8688 38.6752 36.1068C39.4931 37.0235 40.3216 37.5782 40.987 38.027C41.2703 38.2174 41.6501 38.4722 42.1798 38.7448C43.1988 39.271 44.1178 39.5281 44.7594 39.6638C44.6606 39.2495 44.5606 38.8365 44.4618 38.4222C43.4381 37.9401 42.2036 37.2365 40.9406 36.2021C40.4811 35.8247 40.149 35.5116 39.9942 35.3628C39.4074 34.7974 38.2955 33.7165 37.3634 32.0178C36.6325 30.6857 36.2706 29.4643 36.079 28.6001V28.6025Z" fill="#00398B"/>
<path d="M41.4848 48.7514C42.0895 48.5419 42.9633 48.1514 43.8299 47.4158C44.618 46.7467 45.0739 46.0694 45.2584 45.7742C45.8 44.9111 46.0096 44.154 46.1548 43.616C46.3179 43.0124 46.4917 42.1196 46.4738 41.0173C46.7 41.1447 47.0202 41.3101 47.4154 41.4732C48.2832 41.8303 48.9939 41.9589 49.4368 42.0351C50.3201 42.1887 51.0129 42.1982 51.5486 42.2018C52.0009 42.2053 52.3807 42.1887 52.6568 42.1708C52.689 41.8851 52.7199 41.5958 52.7485 41.3042C52.8092 40.6899 52.8592 40.0864 52.9009 39.4959C52.5295 39.4912 52.139 39.4757 51.7307 39.4471C51.4188 39.4245 51.1176 39.3948 50.8295 39.3614C50.4379 39.415 49.9129 39.4674 49.2915 39.4709C47.494 39.4793 46.1881 39.071 45.8643 38.965C45.2572 38.7662 44.7715 38.5436 44.4358 38.3722C44.4954 38.5936 44.5727 38.9091 44.6406 39.2912C44.7215 39.7447 44.9108 40.959 44.7239 42.8089C44.5989 44.0457 44.5358 44.6778 44.2477 45.4361C44.0001 46.0896 43.3299 47.5122 41.4824 48.7478L41.4848 48.7514Z" fill="#0050C8"/>
<path d="M30.1304 34.8605C29.84 34.5891 28.9222 33.7236 28.1353 32.7951C27.9472 32.5737 27.6341 32.1999 27.2603 31.6702C27.1365 31.494 27.0068 31.3023 26.8735 31.0928C26.5592 30.5988 26.1497 29.9464 25.7902 29.0132C25.5676 28.4346 25.4331 27.9287 25.3497 27.5537C25.1247 28.6227 25.1605 29.5108 25.2283 30.0917C25.3057 30.7607 25.4521 31.2476 25.5783 31.6571C25.714 32.0987 25.9164 32.6653 26.2259 33.301C26.6532 33.5189 27.0211 33.6891 27.3008 33.8129C28.0877 34.1617 28.7162 34.3843 29.1245 34.5272C29.5328 34.6712 29.8793 34.7819 30.1316 34.8605H30.1304Z" fill="#003C8D"/>
<path d="M40.7837 35.2878C40.917 34.72 41.1503 34.3307 41.3051 34.1129C41.7325 33.5093 42.2431 33.2808 42.8133 33.0189C43.274 32.807 43.6419 32.6451 43.9811 32.8046C44.043 32.8332 44.0716 32.8582 44.4287 33.0879C44.5525 33.17 44.7335 33.2879 44.9561 33.4224C45.5382 33.7748 47.8619 35.1271 51.251 35.5199C53.5473 35.7866 55.3127 35.4937 56.3317 35.3164C58.4137 34.9545 60.1017 34.3152 61.3052 33.7569C60.6434 35.5021 59.7351 36.5389 59.1815 37.0758C57.0578 39.1364 54.4568 39.3435 52.8164 39.503C52.4474 39.5388 51.1498 39.6352 49.3701 39.3614C45.4953 38.7662 42.5479 36.7722 40.7837 35.289V35.2878Z" fill="#8BC7FE"/>
<path d="M40.5268 36.0676C40.9315 36.558 41.4065 37.0782 41.9577 37.602C42.7469 38.352 43.5171 38.9412 44.2028 39.4007C44.1933 39.1983 44.1575 38.9388 44.0528 38.6615C44.0218 38.5805 43.9885 38.5067 43.9552 38.4389C44.2873 38.6222 44.6528 38.7972 45.048 38.9507C46.9384 39.6828 48.6895 39.6126 49.8906 39.4198C48.2728 39.2019 46.1646 38.69 43.929 37.4734C43.1493 37.0485 42.4541 36.5925 41.8434 36.139C41.8148 36.1176 41.5946 35.9414 41.2851 35.6985C41.078 35.5366 40.9077 35.4033 40.7958 35.3164C40.7054 35.5676 40.6149 35.8176 40.5244 36.0687L40.5268 36.0676Z" fill="#00398B"/>
<path d="M60.5587 35.3152C59.5004 37.0687 58.1374 37.946 57.5922 38.2615C57.1101 38.5401 56.3863 38.8912 55.4435 39.1067C55.4316 39.1103 54.2174 39.4305 52.0913 39.5424C51.7806 39.559 51.477 39.5626 51.477 39.5626C51.477 39.5626 51.1033 39.5674 50.7176 39.5519C47.3689 39.4233 44.1251 38.0567 44.1251 38.0567C43.6239 37.8591 42.8001 37.5068 41.9526 36.9925C41.2062 36.5402 40.7931 36.1771 40.5741 35.9723C40.4693 35.8735 40.3848 35.789 40.3276 35.7295C40.7752 34.9391 41.2228 34.1498 41.6716 33.3594C42.0906 33.7784 42.712 34.3569 43.5215 34.9545C44.6524 35.789 47.8915 38.1829 52.2806 38.0389C57.1875 37.8794 60.4551 34.6498 61.3051 33.7534C61.1587 34.151 60.9254 34.7045 60.5575 35.3128L60.5587 35.3152Z" fill="#0087F7"/>
<path d="M39.6445 35.0212C39.7255 34.8474 39.8421 34.6129 40.0017 34.3498C40.0755 34.2284 40.3409 33.7939 40.6588 33.4534C40.9111 33.1832 41.6051 32.4392 42.6229 32.4082C43.1955 32.3904 43.6669 32.6046 43.9824 32.8034C43.7741 32.8225 43.4896 32.8629 43.1598 32.9546C42.8098 33.0534 42.4122 33.1427 42.0599 33.4224C41.5694 33.8117 41.298 34.3367 40.7838 35.4283C40.6802 35.6497 40.6004 35.833 40.5504 35.9509C40.3576 35.764 40.1636 35.5688 39.9671 35.364C39.8564 35.2485 39.7493 35.1343 39.6445 35.02V35.0212Z" fill="#0051CB"/>
</g>
<defs>
<clipPath id="clip0_221_213">
<rect width="61" height="61" fill="white"/>
</clipPath>
</defs>
</svg>
