<svg width="305" height="85" viewBox="0 0 305 85" fill="none" xmlns="http://www.w3.org/2000/svg">
<g clip-path="url(#clip0_228_215)">
<path d="M11.7963 38.9765C24.2676 47.41 26.6078 51.5126 29.8714 50.0184C30.734 49.623 33.0549 48.1993 33.7778 41.9014C33.5719 41.8918 33.1655 41.8932 32.719 42.0659C29.9212 43.1552 30.0014 49.3272 28.6066 49.3341C28.5845 49.3341 28.5361 49.3341 28.4739 49.3162C28.3371 49.2913 28.1684 49.2387 27.9155 49.1212C27.1759 48.7757 26.8055 48.6015 26.2443 48.2628C26.2443 48.2628 25.6706 47.9214 25.1481 47.5565C24.3768 47.0174 23.9358 46.3677 23.0705 45.5908C22.3461 44.9411 22.3365 45.1112 20.6459 43.8699C20.0639 43.4427 19.6368 43.1054 18.806 42.4475C17.4417 41.3679 16.499 40.6214 15.6945 39.9261C14.6881 39.0567 13.3266 37.7725 11.8185 35.9907C10.4472 33.4127 8.81332 30.7324 7.98394 31.0019C7.45451 31.1747 7.37296 32.4796 7.47525 33.3546C7.81668 36.3059 10.6711 38.2176 11.7963 38.9779V38.9765Z" fill="#003A86"/>
<path d="M13.2437 38.1969C19.9521 39.5018 26.659 40.808 33.3674 42.1129C34.147 43.3197 34.9736 44.0703 35.539 44.5113C35.539 44.5113 38.8745 47.1114 43.9393 46.9179C44.1826 46.9082 44.7867 46.8612 45.6078 46.9496C46.451 47.0409 46.5975 47.1307 47.937 47.3726C49.3137 47.6214 49.4686 47.5827 50.0187 47.7956C50.6587 48.0431 51.1121 48.3527 51.43 48.5725C51.9567 48.936 52.0811 49.113 53.0888 49.9838C53.6473 50.4662 53.9265 50.7081 54.1822 50.9017C54.6522 51.2569 55.4056 51.8223 56.4769 52.2784C57.0865 52.5369 57.6864 52.7139 58.2559 52.8811C58.5683 52.9724 58.8309 53.0429 59.0175 53.0899C59.1115 53.9911 59.1779 55.2739 59.0175 56.7958C58.8503 58.3869 58.7342 59.4955 58.0651 60.7492C57.7679 61.3063 56.6884 63.2526 54.3592 64.1027C53.8892 64.2741 52.4474 64.7773 50.7237 64.3142C50.1445 64.1594 49.0691 63.8539 48.2176 62.8324C47.3439 61.7832 47.2513 60.6345 47.2292 60.2917C47.1863 59.6323 47.1269 58.7214 47.7586 57.9625C48.2576 57.364 49.0898 56.9769 49.8763 57.0447C50.8177 57.1262 51.0776 57.8091 51.7342 57.6377C52.0479 57.5561 52.0452 57.3861 52.9105 56.4807C53.6901 55.6651 53.8712 55.6153 53.8988 55.3306C53.9638 54.6477 53.01 54.0409 52.6285 53.7976C52.3438 53.6165 51.6471 53.217 50.4044 53.0567C49.6952 52.9655 48.3198 52.8037 46.7343 53.4451C44.8005 54.2261 43.8315 55.6831 43.5232 56.1627C42.7132 57.4179 42.5169 58.5942 42.3939 59.3739C42.3261 59.8065 42.1409 61.1764 42.5003 62.9029C43.0035 65.3247 44.2531 66.9088 44.6526 67.3857C46.386 69.4537 48.4733 70.2181 49.452 70.5623C54.0288 72.1727 58.1508 70.4835 58.9457 70.1393C63.3138 68.2497 65.2601 64.5699 66.2166 62.7633C68.0344 59.3282 68.2652 56.2388 68.5112 52.9516C68.5942 51.8513 68.7808 48.6139 68.0883 44.4808C67.5948 41.542 66.876 39.4603 66.1116 37.2458C64.5164 32.6248 62.7595 29.321 62.1941 28.2815C62.1941 28.2815 59.9299 24.1222 56.1589 19.6698C55.4235 18.8017 54.6826 17.9847 53.4772 17.3046C52.7087 16.872 51.3264 16.2541 47.76 16.1753C45.9561 16.1352 43.4016 16.2278 40.3481 16.8457C40.5015 17.0807 40.6536 17.3157 40.807 17.5521C39.9665 17.1111 38.7432 16.5278 37.2075 15.9997C35.6924 15.4786 34.5451 15.2408 32.7246 14.8704C29.8784 14.2912 27.7359 14.0451 27.2189 13.9885C24.9077 13.7313 23.2157 13.6802 21.5016 13.8115C20.4179 13.8945 19.4268 14.0424 18.3956 14.6229C17.7404 14.992 17.2842 15.415 16.7368 15.9292C15.678 16.9231 15.0076 17.8258 14.6896 18.2584C12.4378 21.3216 11.3126 22.8546 10.2427 24.6461C10.2427 24.6461 9.46449 25.9496 8.16097 28.811C7.95086 29.2713 7.58731 30.0882 7.49885 31.212C7.48502 31.3848 7.44079 31.946 7.52649 32.4824C7.74351 33.8453 8.7526 34.7729 9.78519 35.6589C12.0674 37.6177 13.6681 38.729 13.6681 38.729C13.9266 38.9018 16.4272 40.6518 18.5739 42.3286C22.0781 45.0669 23.8295 46.4368 24.9021 47.403C24.9021 47.403 25.7965 48.2089 27.6073 49.0259C28.1464 49.2692 28.5639 49.4129 29.0546 49.3341C29.7651 49.2194 30.2116 48.701 30.6442 48.1868C30.8004 48.0002 31.1225 47.5924 32.1523 45.2895C32.4081 44.7186 32.5352 44.4325 32.6901 44.0454C32.8186 43.7247 33.1338 42.9174 33.4794 41.7439C33.7517 40.8219 34.2908 38.9944 34.5963 36.9625C34.8741 35.1171 35.2764 32.4437 34.5603 29.0916C34.4954 28.7902 33.7835 25.5791 31.7847 22.5505C30.7438 20.9733 29.7292 20.0126 29.5135 19.8094C28.8611 19.1998 28.2515 18.7478 27.7842 18.4326C28.239 18.4547 28.8625 18.5155 29.584 18.68C30.1162 18.8003 31.5469 19.1694 33.1131 20.1978C34.6447 21.2027 35.5625 22.3514 35.9717 22.9154C37.4176 24.9073 37.8005 26.884 38.0368 28.1032C38.3133 29.5312 38.3852 31.0075 38.4432 32.1617C38.511 33.5495 38.4626 33.9711 38.6202 34.9858C38.728 35.6824 38.916 36.845 39.5256 38.1969C40.4421 40.2289 41.758 41.466 42.2543 41.9028C43.1376 42.6783 43.9255 43.0778 45.5013 43.8795C46.82 44.55 47.6798 44.8361 48.6419 44.9384C49.0635 44.9826 49.4188 44.9826 49.6648 44.9743C49.4216 44.3979 49.2695 43.8823 49.1714 43.4745C49.087 43.1262 48.9571 42.5733 48.9239 41.8337C48.8977 41.2504 48.9419 40.7555 48.9944 40.3864C49.0981 40.8357 49.2529 41.4176 49.4879 42.0811C49.6012 42.4005 50.0104 43.5229 50.8647 44.9757C51.4992 46.0567 52.2677 47.0063 53.5464 48.3292C54.7656 49.5885 56.5612 51.2804 59.0162 53.094C51.2351 48.8296 43.4555 44.5652 35.6745 40.3007" fill="#155DFC"/>
<path d="M46.9375 30.1145C47.6826 29.65 48.3129 29.3169 48.7732 29.0915C49.1934 28.8842 49.4105 28.804 49.6676 28.7391C49.8459 28.6934 50.4195 28.5635 51.1618 28.6644C51.4701 28.7073 51.9041 28.7708 52.3976 29.0445C52.9879 29.3722 53.3072 29.8048 53.386 29.9154C53.48 30.0481 53.6846 30.3398 53.809 30.7628C53.8864 31.0212 53.8698 31.118 53.9735 31.3516C54.0827 31.5963 54.2029 31.7262 54.3964 31.964C54.5526 32.1547 54.7655 32.4312 55.0088 32.7878C54.8803 32.716 54.2292 32.3635 53.5505 32.3759C53.2436 32.3814 52.9381 32.4589 52.9381 32.4589C52.6921 32.5211 52.5276 32.5985 52.4681 32.6233C51.9193 32.8514 50.6656 32.5487 50.1624 31.729C49.8445 31.212 50.0671 30.8775 49.6897 30.5402C49.5501 30.4158 49.3662 30.3232 48.5396 30.2237C48.1484 30.1767 47.6024 30.1269 46.9403 30.1172L46.9375 30.1145Z" fill="#003C8D"/>
<path d="M65.2227 34.8282C64.533 34.7756 63.4285 34.7798 62.1609 35.1848C61.1878 35.4958 60.4469 35.9368 59.9492 36.2907C60.3722 36.198 60.9224 36.0902 61.572 35.9962C61.7269 35.9741 62.2259 35.9036 62.9253 35.8428C63.6013 35.7847 64.497 35.7308 65.5711 35.7364C65.455 35.4336 65.3388 35.1309 65.2227 34.8268V34.8282Z" fill="#0052C9"/>
<path d="M66.71 39.0027C65.94 38.9765 64.8563 39.029 63.6233 39.3856C62.7704 39.6317 62.0695 39.9607 61.5332 40.262C61.9092 40.2067 62.3819 40.1459 62.9279 40.0948C63.1104 40.0782 63.6468 40.0284 64.3752 39.998C65.0567 39.969 65.9538 39.9524 67.0251 39.9925C66.9201 39.6635 66.815 39.3331 66.7113 39.0041L66.71 39.0027Z" fill="#0052C9"/>
<path d="M67.7052 42.5276C67.0003 42.4875 65.8709 42.5235 64.6407 43.0419C64.1527 43.2478 63.7449 43.4883 63.4146 43.7206C63.6371 43.6763 63.944 43.6224 64.3103 43.5727C65.0816 43.4704 65.6719 43.4524 66.2635 43.4372C66.6906 43.4261 67.2463 43.422 67.9001 43.4441L67.7052 42.5263V42.5276Z" fill="#0052C9"/>
<path d="M47.4777 49.3728C49.5401 50.0073 51.7145 50.7178 53.6539 51.3495C54.8551 51.7407 55.8365 52.0656 56.4779 52.2784C54.2068 49.8428 51.937 47.4085 49.6659 44.9729C49.3328 44.9688 48.8103 44.9439 48.1841 44.825C47.739 44.7407 46.723 44.5112 44.608 43.3611C43.6349 42.8317 43.1483 42.5677 42.6783 42.2194C40.3726 40.5108 39.4838 38.0475 39.2295 37.3149C39.0042 36.6639 38.8493 35.2124 38.5494 32.3372C38.1596 28.6091 38.2176 28.3714 37.9495 27.2904C37.7407 26.4486 37.2721 24.4608 35.9727 22.632C35.5442 22.028 33.8647 19.7347 30.731 18.7657C29.422 18.3607 28.2719 18.3151 27.502 18.3427C28.1226 18.792 28.9713 19.4693 29.8671 20.4079C30.3108 20.8723 32.1866 22.8905 33.5385 26.1984C33.9615 27.2323 34.6983 29.0764 34.8793 31.5977C35.0134 33.4597 34.7895 34.9166 34.7383 35.2332C34.4011 37.3205 33.7348 38.5949 33.4224 41.5393C33.3961 41.7853 33.3782 41.9871 33.3685 42.1143C33.8094 42.7875 34.2379 43.2893 34.5642 43.6376C34.8807 43.9749 35.1392 44.1974 35.2194 44.2762C35.2194 44.2762 35.6714 44.6757 36.1898 45.0227C38.5632 46.6151 47.4777 49.3728 47.4777 49.3728Z" fill="#0051C8"/>
<path d="M48.9774 40.2966C48.882 41.0182 48.824 42.1171 49.117 43.3943C49.2635 44.0302 49.4419 44.4753 49.6451 44.9729C50.1178 46.1341 50.7094 47.5731 51.9922 49.0107C52.9419 50.075 53.904 50.7192 54.6767 51.2403C55.0057 51.4615 55.4466 51.7573 56.0617 52.0739C57.245 52.6848 58.3121 52.9834 59.0572 53.141C58.9425 52.66 58.8264 52.1803 58.7116 51.6993C57.5228 51.1394 56.0894 50.3225 54.6228 49.1213C54.0892 48.6831 53.7035 48.3195 53.5238 48.1467C52.8424 47.4901 51.5513 46.235 50.4689 44.2624C49.6202 42.7156 49.2 41.2974 48.9774 40.2938V40.2966Z" fill="#00398B"/>
<path d="M55.2547 63.6935C55.9569 63.4503 56.9715 62.9969 57.9779 62.1426C58.893 61.3657 59.4224 60.5792 59.6366 60.2364C60.2656 59.2342 60.5089 58.3551 60.6775 57.7303C60.8669 57.0294 61.0687 55.9927 61.048 54.7127C61.3106 54.8606 61.6825 55.0527 62.1414 55.2421C63.1491 55.6568 63.9743 55.8061 64.4886 55.8945C65.5142 56.0729 66.3187 56.0839 66.9408 56.0881C67.466 56.0922 67.907 56.0729 68.2277 56.0521C68.265 55.7204 68.301 55.3845 68.3341 55.0458C68.4046 54.3325 68.4627 53.6317 68.5111 52.9461C68.0798 52.9406 67.6264 52.9226 67.1523 52.8894C66.7901 52.8631 66.4404 52.8286 66.1059 52.7899C65.6511 52.8521 65.0415 52.9129 64.3199 52.917C62.2326 52.9267 60.7162 52.4526 60.3402 52.3296C59.6353 52.0987 59.0713 51.8402 58.6815 51.6412C58.7506 51.8983 58.8404 52.2646 58.9192 52.7083C59.0132 53.235 59.233 54.6449 59.016 56.793C58.8708 58.2293 58.7976 58.9633 58.4631 59.8438C58.1755 60.6027 57.3973 62.2546 55.252 63.6894L55.2547 63.6935Z" fill="#0050C8"/>
<path d="M42.0701 47.5634C41.7328 47.2482 40.667 46.2433 39.7533 45.1651C39.5349 44.908 39.1714 44.474 38.7373 43.8588C38.5936 43.6542 38.4429 43.4317 38.2881 43.1884C37.9232 42.6147 37.4476 41.8572 37.0302 40.7735C36.7717 40.1017 36.6155 39.5142 36.5187 39.0788C36.2575 40.3201 36.2989 41.3513 36.3777 42.0259C36.4676 42.8027 36.6376 43.3681 36.7841 43.8436C36.9417 44.3565 37.1767 45.0144 37.5361 45.7526C38.0324 46.0056 38.4595 46.2032 38.7843 46.347C39.698 46.752 40.4279 47.0105 40.902 47.1764C41.3762 47.3436 41.7784 47.4722 42.0715 47.5634H42.0701Z" fill="#003C8D"/>
<path d="M54.4404 48.0596C54.5952 47.4002 54.8662 46.9482 55.0459 46.6953C55.5421 45.9944 56.1351 45.729 56.7973 45.4249C57.3322 45.1789 57.7594 44.9909 58.1533 45.1761C58.2252 45.2093 58.2584 45.2383 58.6731 45.5051C58.8168 45.6005 59.0269 45.7373 59.2854 45.8935C59.9614 46.3027 62.6596 47.873 66.5951 48.3292C69.2616 48.6388 71.3115 48.2988 72.4948 48.0928C74.9124 47.6726 76.8726 46.9303 78.2701 46.282C77.5015 48.3084 76.4468 49.5124 75.804 50.1358C73.338 52.5286 70.3176 52.7691 68.4128 52.9544C67.9843 52.9958 66.4776 53.1078 64.411 52.7899C59.9116 52.0987 56.489 49.7834 54.4404 48.061V48.0596Z" fill="#8BC7FE"/>
<path d="M54.1419 48.965C54.6119 49.5345 55.1634 50.1386 55.8035 50.7468C56.7199 51.6177 57.6143 52.3019 58.4105 52.8355C58.3994 52.6005 58.358 52.2991 58.2363 51.9771C58.2004 51.8831 58.1617 51.7974 58.123 51.7186C58.5086 51.9314 58.933 52.1346 59.3919 52.313C61.587 53.1631 63.6204 53.0815 65.0152 52.8576C63.1366 52.6046 60.6885 52.0102 58.0926 50.5975C57.1872 50.104 56.3799 49.5746 55.6708 49.0479C55.6376 49.0231 55.3819 48.8185 55.0225 48.5365C54.7819 48.3485 54.5843 48.1937 54.4543 48.0928C54.3493 48.3844 54.2442 48.6747 54.1392 48.9664L54.1419 48.965Z" fill="#00398B"/>
<path d="M77.4035 48.0914C76.1746 50.1275 74.5919 51.1463 73.9588 51.5126C73.3989 51.8361 72.5585 52.2438 71.4637 52.494C71.4499 52.4982 70.0399 52.87 67.5711 53C67.2103 53.0193 66.8578 53.0235 66.8578 53.0235C66.8578 53.0235 66.4238 53.029 65.9759 53.011C62.0875 52.8617 58.3207 51.2748 58.3207 51.2748C57.7388 51.0454 56.7822 50.6362 55.798 50.0391C54.9313 49.5138 54.4516 49.0922 54.1973 48.8544C54.0756 48.7397 53.9775 48.6415 53.9111 48.5724C54.4309 47.6546 54.9506 46.7381 55.4718 45.8203C55.9583 46.3068 56.6799 46.9786 57.6199 47.6725C58.9331 48.6415 62.6943 51.4214 67.7909 51.2541C73.4888 51.0689 77.2832 47.3187 78.2702 46.2778C78.1002 46.7395 77.8292 47.3823 77.4021 48.0886L77.4035 48.0914Z" fill="#0087F7"/>
<path d="M53.1177 47.75C53.2117 47.5482 53.3471 47.2759 53.5324 46.9704C53.6181 46.8294 53.9263 46.3248 54.2954 45.9295C54.5885 45.6157 55.3943 44.7518 56.5762 44.7158C57.2411 44.6951 57.7885 44.9439 58.1548 45.1747C57.9129 45.1969 57.5825 45.2439 57.1996 45.3503C56.7932 45.465 56.3315 45.5687 55.9224 45.8935C55.3529 46.3456 55.0377 46.9552 54.4405 48.2227C54.3203 48.4798 54.2277 48.6927 54.1696 48.8296C53.9457 48.6125 53.7204 48.3858 53.4923 48.1481C53.3637 48.014 53.2393 47.8813 53.1177 47.7486V47.75Z" fill="#0051CB"/>
</g>
<g clip-path="url(#clip1_228_215)">
<path d="M24 17L41.5 18L52 17L61.5 27.5L66 39.5L68 48L64 56L59 53L38 46L33.5 42L27 44.5L17.5 27L24 17Z" fill="#155DFC"/>
<path d="M11.7963 38.9765C24.2676 47.41 26.6078 51.5126 29.8714 50.0184C30.734 49.623 33.0549 48.1993 33.7778 41.9014C33.5719 41.8918 33.1655 41.8932 32.719 42.0659C29.9212 43.1552 30.0014 49.3272 28.6066 49.3341C28.5845 49.3341 28.5361 49.3341 28.4739 49.3162C28.3371 49.2913 28.1684 49.2387 27.9155 49.1212C27.1759 48.7757 26.8055 48.6015 26.2443 48.2628C26.2443 48.2628 25.6706 47.9214 25.1481 47.5565C24.3768 47.0174 23.9358 46.3677 23.0705 45.5908C22.3461 44.9411 22.3365 45.1112 20.6459 43.8699C20.0639 43.4427 19.6368 43.1054 18.806 42.4475C17.4417 41.3679 16.499 40.6214 15.6945 39.9261C14.6881 39.0567 13.3266 37.7725 11.8185 35.9907C10.4472 33.4127 8.81332 30.7324 7.98394 31.0019C7.45451 31.1747 7.37296 32.4796 7.47525 33.3546C7.81668 36.3059 10.6711 38.2176 11.7963 38.9779V38.9765Z" fill="#003A86"/>
<path d="M13.2437 38.1969C19.9521 39.5018 26.659 40.808 33.3674 42.1129C34.147 43.3197 34.9736 44.0703 35.539 44.5113C35.539 44.5113 38.8745 47.1114 43.9393 46.9179C44.1826 46.9082 44.7867 46.8612 45.6078 46.9496C46.451 47.0409 46.5975 47.1307 47.937 47.3726C49.3137 47.6214 49.4686 47.5827 50.0187 47.7956C50.6587 48.0431 51.1121 48.3527 51.43 48.5725C51.9567 48.936 52.0811 49.113 53.0888 49.9838C53.6473 50.4662 53.9265 50.7081 54.1822 50.9017C54.6522 51.2569 55.4056 51.8223 56.4769 52.2784C57.0865 52.5369 57.6864 52.7139 58.2559 52.8811C58.5683 52.9724 58.8309 53.0429 59.0175 53.0899C59.1115 53.9911 59.1779 55.2739 59.0175 56.7958C58.8503 58.3869 58.7342 59.4955 58.0651 60.7492C57.7679 61.3063 56.6884 63.2526 54.3592 64.1027C53.8892 64.2741 52.4474 64.7773 50.7237 64.3142C50.1445 64.1594 49.0691 63.8539 48.2176 62.8324C47.3439 61.7832 47.2513 60.6345 47.2292 60.2917C47.1863 59.6323 47.1269 58.7214 47.7586 57.9625C48.2576 57.364 49.0898 56.9769 49.8763 57.0447C50.8177 57.1262 51.0776 57.8091 51.7342 57.6377C52.0479 57.5561 52.0452 57.3861 52.9105 56.4807C53.6901 55.6651 53.8712 55.6153 53.8988 55.3306C53.9638 54.6477 53.01 54.0409 52.6285 53.7976C52.3438 53.6165 51.6471 53.217 50.4044 53.0567C49.6952 52.9655 48.3198 52.8037 46.7343 53.4451C44.8005 54.2261 43.8315 55.6831 43.5232 56.1627C42.7132 57.4179 42.5169 58.5942 42.3939 59.3739C42.3261 59.8065 42.1409 61.1764 42.5003 62.9029C43.0035 65.3247 44.2531 66.9088 44.6526 67.3857C46.386 69.4537 48.4733 70.2181 49.452 70.5623C54.0288 72.1727 58.1508 70.4835 58.9457 70.1393C63.3138 68.2497 65.2601 64.5699 66.2166 62.7633C68.0344 59.3282 68.2652 56.2388 68.5112 52.9516C68.5942 51.8513 68.7808 48.6139 68.0883 44.4808C67.5948 41.542 66.876 39.4603 66.1116 37.2458C64.5164 32.6248 62.7595 29.321 62.1941 28.2815C62.1941 28.2815 59.9299 24.1222 56.1589 19.6698C55.4235 18.8017 54.6826 17.9847 53.4772 17.3046C52.7087 16.872 51.3264 16.2541 47.76 16.1753C45.9561 16.1352 43.4016 16.2278 40.3481 16.8457C40.5015 17.0807 40.6536 17.3157 40.807 17.5521C39.9665 17.1111 38.7432 16.5278 37.2075 15.9997C35.6924 15.4786 34.5451 15.2408 32.7246 14.8704C29.8784 14.2912 27.7359 14.0451 27.2189 13.9885C24.9077 13.7313 23.2157 13.6802 21.5016 13.8115C20.4179 13.8945 19.4268 14.0424 18.3956 14.6229C17.7404 14.992 17.2842 15.415 16.7368 15.9292C15.678 16.9231 15.0076 17.8258 14.6896 18.2584C12.4378 21.3216 11.3126 22.8546 10.2427 24.6461C10.2427 24.6461 9.46449 25.9496 8.16097 28.811C7.95086 29.2713 7.58731 30.0882 7.49885 31.212C7.48502 31.3848 7.44079 31.946 7.52649 32.4824C7.74351 33.8453 8.7526 34.7729 9.78519 35.6589C12.0674 37.6177 13.6681 38.729 13.6681 38.729C13.9266 38.9018 16.4272 40.6518 18.5739 42.3286C22.0781 45.0669 23.8295 46.4368 24.9021 47.403C24.9021 47.403 25.7965 48.2089 27.6073 49.0259C28.1464 49.2692 28.5639 49.4129 29.0546 49.3341C29.7651 49.2194 30.2116 48.701 30.6442 48.1868C30.8004 48.0002 31.1225 47.5924 32.1523 45.2895C32.4081 44.7186 32.5352 44.4325 32.6901 44.0454C32.8186 43.7247 33.1338 42.9174 33.4794 41.7439C33.7517 40.8219 34.2908 38.9944 34.5963 36.9625C34.8741 35.1171 35.2764 32.4437 34.5603 29.0916C34.4954 28.7902 33.7835 25.5791 31.7847 22.5505C30.7438 20.9733 29.7292 20.0126 29.5135 19.8094C28.8611 19.1998 28.2515 18.7478 27.7842 18.4326C28.239 18.4547 28.8625 18.5155 29.584 18.68C30.1162 18.8003 31.5469 19.1694 33.1131 20.1978C34.6447 21.2027 35.5625 22.3514 35.9717 22.9154C37.4176 24.9073 37.8005 26.884 38.0368 28.1032C38.3133 29.5312 38.3852 31.0075 38.4432 32.1617C38.511 33.5495 38.4626 33.9711 38.6202 34.9858C38.728 35.6824 38.916 36.845 39.5256 38.1969C40.4421 40.2289 41.758 41.466 42.2543 41.9028C43.1376 42.6783 43.9255 43.0778 45.5013 43.8795C46.82 44.55 47.6798 44.8361 48.6419 44.9384C49.0635 44.9826 49.4188 44.9826 49.6648 44.9743C49.4216 44.3979 49.2695 43.8823 49.1714 43.4745C49.087 43.1262 48.9571 42.5733 48.9239 41.8337C48.8977 41.2504 48.9419 40.7555 48.9944 40.3864C49.0981 40.8357 49.2529 41.4176 49.4879 42.0811C49.6012 42.4005 50.0104 43.5229 50.8647 44.9757C51.4992 46.0567 52.2677 47.0063 53.5464 48.3292C54.7656 49.5885 56.5612 51.2804 59.0162 53.094C51.2351 48.8296 43.4555 44.5652 35.6745 40.3007" fill="#155DFC"/>
<path d="M46.9375 30.1145C47.6826 29.65 48.3129 29.3169 48.7732 29.0915C49.1934 28.8842 49.4105 28.804 49.6676 28.7391C49.8459 28.6934 50.4195 28.5635 51.1618 28.6644C51.4701 28.7073 51.9041 28.7708 52.3976 29.0445C52.9879 29.3722 53.3072 29.8048 53.386 29.9154C53.48 30.0481 53.6846 30.3398 53.809 30.7628C53.8864 31.0212 53.8698 31.118 53.9735 31.3516C54.0827 31.5963 54.2029 31.7262 54.3964 31.964C54.5526 32.1547 54.7655 32.4312 55.0088 32.7878C54.8803 32.716 54.2292 32.3635 53.5505 32.3759C53.2436 32.3814 52.9381 32.4589 52.9381 32.4589C52.6921 32.5211 52.5276 32.5985 52.4681 32.6233C51.9193 32.8514 50.6656 32.5487 50.1624 31.729C49.8445 31.212 50.0671 30.8775 49.6897 30.5402C49.5501 30.4158 49.3662 30.3232 48.5396 30.2237C48.1484 30.1767 47.6024 30.1269 46.9403 30.1172L46.9375 30.1145Z" fill="#003C8D"/>
<path d="M65.2227 34.8282C64.533 34.7756 63.4285 34.7798 62.1609 35.1848C61.1878 35.4958 60.4469 35.9368 59.9492 36.2907C60.3722 36.198 60.9224 36.0902 61.572 35.9962C61.7269 35.9741 62.2259 35.9036 62.9253 35.8428C63.6013 35.7847 64.497 35.7308 65.5711 35.7364C65.455 35.4336 65.3388 35.1309 65.2227 34.8268V34.8282Z" fill="#0052C9"/>
<path d="M66.71 39.0027C65.94 38.9765 64.8563 39.029 63.6233 39.3856C62.7704 39.6317 62.0695 39.9607 61.5332 40.262C61.9092 40.2067 62.3819 40.1459 62.9279 40.0948C63.1104 40.0782 63.6468 40.0284 64.3752 39.998C65.0567 39.969 65.9538 39.9524 67.0251 39.9925C66.9201 39.6635 66.815 39.3331 66.7113 39.0041L66.71 39.0027Z" fill="#0052C9"/>
<path d="M67.7052 42.5276C67.0003 42.4875 65.8709 42.5235 64.6407 43.0419C64.1527 43.2478 63.7449 43.4883 63.4146 43.7206C63.6371 43.6763 63.944 43.6224 64.3103 43.5727C65.0816 43.4704 65.6719 43.4524 66.2635 43.4372C66.6906 43.4261 67.2463 43.422 67.9001 43.4441L67.7052 42.5263V42.5276Z" fill="#0052C9"/>
<path d="M47.4777 49.3728C49.5401 50.0073 51.7145 50.7178 53.6539 51.3495C54.8551 51.7407 55.8365 52.0656 56.4779 52.2784C54.2068 49.8428 51.937 47.4085 49.6659 44.9729C49.3328 44.9688 48.8103 44.9439 48.1841 44.825C47.739 44.7407 46.723 44.5112 44.608 43.3611C43.6349 42.8317 43.1483 42.5677 42.6783 42.2194C40.3726 40.5108 39.4838 38.0475 39.2295 37.3149C39.0042 36.6639 38.8493 35.2124 38.5494 32.3372C38.1596 28.6091 38.2176 28.3714 37.9495 27.2904C37.7407 26.4486 37.2721 24.4608 35.9727 22.632C35.5442 22.028 33.8647 19.7347 30.731 18.7657C29.422 18.3607 28.2719 18.3151 27.502 18.3427C28.1226 18.792 28.9713 19.4693 29.8671 20.4079C30.3108 20.8723 32.1866 22.8905 33.5385 26.1984C33.9615 27.2323 34.6983 29.0764 34.8793 31.5977C35.0134 33.4597 34.7895 34.9166 34.7383 35.2332C34.4011 37.3205 33.7348 38.5949 33.4224 41.5393C33.3961 41.7853 33.3782 41.9871 33.3685 42.1143C33.8094 42.7875 34.2379 43.2893 34.5642 43.6376C34.8807 43.9749 35.1392 44.1974 35.2194 44.2762C35.2194 44.2762 35.6714 44.6757 36.1898 45.0227C38.5632 46.6151 47.4777 49.3728 47.4777 49.3728Z" fill="#0051C8"/>
<path d="M48.9774 40.2966C48.882 41.0182 48.824 42.1171 49.117 43.3943C49.2635 44.0302 49.4419 44.4753 49.6451 44.9729C50.1178 46.1341 50.7094 47.5731 51.9922 49.0107C52.9419 50.075 53.904 50.7192 54.6767 51.2403C55.0057 51.4615 55.4466 51.7573 56.0617 52.0739C57.245 52.6848 58.3121 52.9834 59.0572 53.141C58.9425 52.66 58.8264 52.1803 58.7116 51.6993C57.5228 51.1394 56.0894 50.3225 54.6228 49.1213C54.0892 48.6831 53.7035 48.3195 53.5238 48.1467C52.8424 47.4901 51.5513 46.235 50.4689 44.2624C49.6202 42.7156 49.2 41.2974 48.9774 40.2938V40.2966Z" fill="#00398B"/>
<path d="M55.2547 63.6935C55.9569 63.4503 56.9715 62.9969 57.9779 62.1426C58.893 61.3657 59.4224 60.5792 59.6366 60.2364C60.2656 59.2342 60.5089 58.3551 60.6775 57.7303C60.8669 57.0294 61.0687 55.9927 61.048 54.7127C61.3106 54.8606 61.6825 55.0527 62.1414 55.2421C63.1491 55.6568 63.9743 55.8061 64.4886 55.8945C65.5142 56.0729 66.3187 56.0839 66.9408 56.0881C67.466 56.0922 67.907 56.0729 68.2277 56.0521C68.265 55.7204 68.301 55.3845 68.3341 55.0458C68.4046 54.3325 68.4627 53.6317 68.5111 52.9461C68.0798 52.9406 67.6264 52.9226 67.1523 52.8894C66.7901 52.8631 66.4404 52.8286 66.1059 52.7899C65.6511 52.8521 65.0415 52.9129 64.3199 52.917C62.2326 52.9267 60.7162 52.4526 60.3402 52.3296C59.6353 52.0987 59.0713 51.8402 58.6815 51.6412C58.7506 51.8983 58.8404 52.2646 58.9192 52.7083C59.0132 53.235 59.233 54.6449 59.016 56.793C58.8708 58.2293 58.7976 58.9633 58.4631 59.8438C58.1755 60.6027 57.3973 62.2546 55.252 63.6894L55.2547 63.6935Z" fill="#0050C8"/>
<path d="M42.0701 47.5634C41.7328 47.2482 40.667 46.2433 39.7533 45.1651C39.5349 44.908 39.1714 44.474 38.7373 43.8588C38.5936 43.6542 38.4429 43.4317 38.2881 43.1884C37.9232 42.6147 37.4476 41.8572 37.0302 40.7735C36.7717 40.1017 36.6155 39.5142 36.5187 39.0788C36.2575 40.3201 36.2989 41.3513 36.3777 42.0259C36.4676 42.8027 36.6376 43.3681 36.7841 43.8436C36.9417 44.3565 37.1767 45.0144 37.5361 45.7526C38.0324 46.0056 38.4595 46.2032 38.7843 46.347C39.698 46.752 40.4279 47.0105 40.902 47.1764C41.3762 47.3436 41.7784 47.4722 42.0715 47.5634H42.0701Z" fill="#003C8D"/>
<path d="M54.4404 48.0596C54.5952 47.4002 54.8662 46.9482 55.0459 46.6953C55.5421 45.9944 56.1351 45.729 56.7973 45.4249C57.3322 45.1789 57.7594 44.9909 58.1533 45.1761C58.2252 45.2093 58.2584 45.2383 58.6731 45.5051C58.8168 45.6005 59.0269 45.7373 59.2854 45.8935C59.9614 46.3027 62.6596 47.873 66.5951 48.3292C69.2616 48.6388 71.3115 48.2988 72.4948 48.0928C74.9124 47.6726 76.8726 46.9303 78.2701 46.282C77.5015 48.3084 76.4468 49.5124 75.804 50.1358C73.338 52.5286 70.3176 52.7691 68.4128 52.9544C67.9843 52.9958 66.4776 53.1078 64.411 52.7899C59.9116 52.0987 56.489 49.7834 54.4404 48.061V48.0596Z" fill="#8BC7FE"/>
<path d="M54.1419 48.965C54.6119 49.5345 55.1634 50.1386 55.8035 50.7468C56.7199 51.6177 57.6143 52.3019 58.4105 52.8355C58.3994 52.6005 58.358 52.2991 58.2363 51.9771C58.2004 51.8831 58.1617 51.7974 58.123 51.7186C58.5086 51.9314 58.933 52.1346 59.3919 52.313C61.587 53.1631 63.6204 53.0815 65.0152 52.8576C63.1366 52.6046 60.6885 52.0102 58.0926 50.5975C57.1872 50.104 56.3799 49.5746 55.6708 49.0479C55.6376 49.0231 55.3819 48.8185 55.0225 48.5365C54.7819 48.3485 54.5843 48.1937 54.4543 48.0928C54.3493 48.3844 54.2442 48.6747 54.1392 48.9664L54.1419 48.965Z" fill="#00398B"/>
<path d="M77.4035 48.0914C76.1746 50.1275 74.5919 51.1463 73.9588 51.5126C73.3989 51.8361 72.5585 52.2438 71.4637 52.494C71.4499 52.4982 70.0399 52.87 67.5711 53C67.2103 53.0193 66.8578 53.0235 66.8578 53.0235C66.8578 53.0235 66.4238 53.029 65.9759 53.011C62.0875 52.8617 58.3207 51.2748 58.3207 51.2748C57.7388 51.0454 56.7822 50.6362 55.798 50.0391C54.9313 49.5138 54.4516 49.0922 54.1973 48.8544C54.0756 48.7397 53.9775 48.6415 53.9111 48.5724C54.4309 47.6546 54.9506 46.7381 55.4718 45.8203C55.9583 46.3068 56.6799 46.9786 57.6199 47.6725C58.9331 48.6415 62.6943 51.4214 67.7909 51.2541C73.4888 51.0689 77.2832 47.3187 78.2702 46.2778C78.1002 46.7395 77.8292 47.3823 77.4021 48.0886L77.4035 48.0914Z" fill="#0087F7"/>
<path d="M53.1177 47.75C53.2117 47.5482 53.3471 47.2759 53.5324 46.9704C53.6181 46.8294 53.9263 46.3248 54.2954 45.9295C54.5885 45.6157 55.3943 44.7518 56.5762 44.7158C57.2411 44.6951 57.7885 44.9439 58.1548 45.1747C57.9129 45.1969 57.5825 45.2439 57.1996 45.3503C56.7932 45.465 56.3315 45.5687 55.9224 45.8935C55.3529 46.3456 55.0377 46.9552 54.4405 48.2227C54.3203 48.4798 54.2277 48.6927 54.1696 48.8296C53.9457 48.6125 53.7204 48.3858 53.4923 48.1481C53.3637 48.014 53.2393 47.8813 53.1177 47.7486V47.75Z" fill="#0051CB"/>
</g>
<path d="M95.368 30.6H100.776V53H95.368V30.6ZM98.76 35.048V30.6H103.144C105.043 30.6 106.632 30.8987 107.912 31.496C109.213 32.072 110.195 32.904 110.856 33.992C111.517 35.08 111.848 36.392 111.848 37.928C111.848 39.4213 111.517 40.7227 110.856 41.832C110.195 42.92 109.213 43.7627 107.912 44.36C106.632 44.936 105.043 45.224 103.144 45.224H98.76V40.776H103.144C104.232 40.776 105.085 40.5307 105.704 40.04C106.323 39.5493 106.632 38.8453 106.632 37.928C106.632 36.9893 106.323 36.2747 105.704 35.784C105.085 35.2933 104.232 35.048 103.144 35.048H98.76ZM119.754 41.8C119.754 43.1227 120.01 44.296 120.522 45.32C121.055 46.3227 121.791 47.112 122.73 47.688C123.69 48.264 124.81 48.552 126.09 48.552C127.348 48.552 128.447 48.264 129.385 47.688C130.346 47.112 131.082 46.3227 131.594 45.32C132.127 44.296 132.394 43.1227 132.394 41.8C132.394 40.4773 132.138 39.3147 131.626 38.312C131.114 37.288 130.388 36.488 129.45 35.912C128.511 35.336 127.391 35.048 126.09 35.048C124.81 35.048 123.69 35.336 122.73 35.912C121.791 36.488 121.055 37.288 120.522 38.312C120.01 39.3147 119.754 40.4773 119.754 41.8ZM114.026 41.8C114.026 40.072 114.324 38.4933 114.922 37.064C115.54 35.6347 116.394 34.3973 117.482 33.352C118.57 32.3067 119.85 31.5067 121.322 30.952C122.794 30.376 124.383 30.088 126.09 30.088C127.818 30.088 129.407 30.376 130.858 30.952C132.33 31.5067 133.61 32.3067 134.698 33.352C135.786 34.3973 136.628 35.6347 137.226 37.064C137.823 38.4933 138.122 40.072 138.122 41.8C138.122 43.528 137.823 45.1173 137.226 46.568C136.65 48.0187 135.818 49.2773 134.73 50.344C133.663 51.4107 132.394 52.2427 130.922 52.84C129.45 53.416 127.839 53.704 126.09 53.704C124.319 53.704 122.698 53.416 121.226 52.84C119.754 52.2427 118.474 51.4107 117.386 50.344C116.319 49.2773 115.487 48.0187 114.89 46.568C114.314 45.1173 114.026 43.528 114.026 41.8ZM144.051 45.128C144.499 45.9387 145 46.6427 145.555 47.24C146.131 47.8373 146.749 48.296 147.411 48.616C148.093 48.936 148.808 49.096 149.555 49.096C150.344 49.096 150.995 48.904 151.507 48.52C152.019 48.1147 152.275 47.5707 152.275 46.888C152.275 46.312 152.125 45.8533 151.827 45.512C151.528 45.1493 151.048 44.808 150.387 44.488C149.725 44.168 148.851 43.8053 147.763 43.4C147.229 43.208 146.611 42.9413 145.907 42.6C145.224 42.2587 144.573 41.8213 143.955 41.288C143.336 40.7333 142.824 40.072 142.419 39.304C142.013 38.5147 141.811 37.5653 141.811 36.456C141.811 35.1333 142.152 33.992 142.835 33.032C143.539 32.072 144.477 31.3467 145.651 30.856C146.845 30.344 148.168 30.088 149.619 30.088C151.112 30.088 152.403 30.3333 153.491 30.824C154.6 31.3147 155.517 31.9333 156.243 32.68C156.968 33.4267 157.523 34.184 157.907 34.952L153.779 37.256C153.459 36.7227 153.085 36.264 152.659 35.88C152.253 35.4747 151.795 35.1653 151.283 34.952C150.792 34.7173 150.259 34.6 149.683 34.6C148.915 34.6 148.328 34.7707 147.923 35.112C147.517 35.432 147.315 35.8373 147.315 36.328C147.315 36.84 147.507 37.288 147.891 37.672C148.296 38.056 148.861 38.408 149.587 38.728C150.333 39.048 151.229 39.3893 152.275 39.752C153.064 40.0507 153.8 40.4027 154.483 40.808C155.165 41.192 155.763 41.6613 156.275 42.216C156.808 42.7707 157.224 43.4107 157.523 44.136C157.821 44.8613 157.971 45.6933 157.971 46.632C157.971 47.7627 157.736 48.776 157.267 49.672C156.819 50.5467 156.2 51.2827 155.411 51.88C154.643 52.4773 153.757 52.9253 152.755 53.224C151.773 53.544 150.76 53.704 149.715 53.704C148.264 53.704 146.909 53.448 145.651 52.936C144.413 52.4027 143.336 51.688 142.419 50.792C141.501 49.896 140.787 48.9147 140.275 47.848L144.051 45.128ZM159.347 35.432V30.6H177.075V35.432H170.899V53H165.491V35.432H159.347ZM189.035 44.904V40.744H200.363C200.469 42.536 200.288 44.2107 199.819 45.768C199.349 47.3253 198.624 48.7013 197.643 49.896C196.661 51.0907 195.435 52.0293 193.963 52.712C192.491 53.3733 190.805 53.704 188.907 53.704C187.115 53.704 185.472 53.4267 183.979 52.872C182.485 52.296 181.195 51.4853 180.107 50.44C179.019 49.3733 178.165 48.1147 177.547 46.664C176.949 45.192 176.651 43.5707 176.651 41.8C176.651 40.0293 176.96 38.4293 177.579 37C178.197 35.5493 179.072 34.312 180.203 33.288C181.333 32.264 182.656 31.4747 184.171 30.92C185.685 30.3653 187.328 30.088 189.099 30.088C190.677 30.088 192.096 30.312 193.355 30.76C194.613 31.208 195.723 31.8373 196.683 32.648C197.664 33.4373 198.507 34.3547 199.211 35.4L194.411 37.896C193.899 37 193.205 36.264 192.331 35.688C191.477 35.0907 190.4 34.792 189.099 34.792C187.861 34.792 186.72 35.0693 185.675 35.624C184.651 36.1787 183.829 36.9787 183.211 38.024C182.613 39.048 182.315 40.3067 182.315 41.8C182.315 43.272 182.603 44.552 183.179 45.64C183.776 46.7067 184.576 47.5387 185.579 48.136C186.603 48.712 187.776 49 189.099 49C189.909 49 190.645 48.904 191.307 48.712C191.968 48.4987 192.533 48.2107 193.003 47.848C193.472 47.464 193.867 47.0267 194.187 46.536C194.528 46.024 194.795 45.48 194.987 44.904H189.035ZM209.593 42.856H215.193L222.201 53H215.865L209.593 42.856ZM203.993 30.6H209.401V53H203.993V30.6ZM207.385 35.176V30.6H212.153C214.073 30.6 215.673 30.9093 216.953 31.528C218.233 32.1467 219.204 33.0107 219.865 34.12C220.526 35.208 220.857 36.4773 220.857 37.928C220.857 39.3573 220.526 40.6267 219.865 41.736C219.204 42.824 218.233 43.6773 216.953 44.296C215.673 44.9147 214.073 45.224 212.153 45.224H207.385V41.032H211.769C212.494 41.032 213.113 40.9253 213.625 40.712C214.158 40.4773 214.564 40.1467 214.841 39.72C215.118 39.272 215.257 38.7387 215.257 38.12C215.257 37.5013 215.118 36.9787 214.841 36.552C214.564 36.104 214.158 35.7627 213.625 35.528C213.113 35.2933 212.494 35.176 211.769 35.176H207.385ZM228.296 53V48.552H239.592V53H228.296ZM228.296 35.048V30.6H239.592V35.048H228.296ZM228.296 43.4V39.048H238.952V43.4H228.296ZM224.712 30.6H229.896V53H224.712V30.6ZM246.457 45.128C246.905 45.9387 247.406 46.6427 247.961 47.24C248.537 47.8373 249.156 48.296 249.817 48.616C250.5 48.936 251.214 49.096 251.961 49.096C252.75 49.096 253.401 48.904 253.913 48.52C254.425 48.1147 254.681 47.5707 254.681 46.888C254.681 46.312 254.532 45.8533 254.233 45.512C253.934 45.1493 253.454 44.808 252.793 44.488C252.132 44.168 251.257 43.8053 250.169 43.4C249.636 43.208 249.017 42.9413 248.313 42.6C247.63 42.2587 246.98 41.8213 246.361 41.288C245.742 40.7333 245.23 40.072 244.825 39.304C244.42 38.5147 244.217 37.5653 244.217 36.456C244.217 35.1333 244.558 33.992 245.241 33.032C245.945 32.072 246.884 31.3467 248.057 30.856C249.252 30.344 250.574 30.088 252.025 30.088C253.518 30.088 254.809 30.3333 255.897 30.824C257.006 31.3147 257.924 31.9333 258.649 32.68C259.374 33.4267 259.929 34.184 260.313 34.952L256.185 37.256C255.865 36.7227 255.492 36.264 255.065 35.88C254.66 35.4747 254.201 35.1653 253.689 34.952C253.198 34.7173 252.665 34.6 252.089 34.6C251.321 34.6 250.734 34.7707 250.329 35.112C249.924 35.432 249.721 35.8373 249.721 36.328C249.721 36.84 249.913 37.288 250.297 37.672C250.702 38.056 251.268 38.408 251.993 38.728C252.74 39.048 253.636 39.3893 254.681 39.752C255.47 40.0507 256.206 40.4027 256.889 40.808C257.572 41.192 258.169 41.6613 258.681 42.216C259.214 42.7707 259.63 43.4107 259.929 44.136C260.228 44.8613 260.377 45.6933 260.377 46.632C260.377 47.7627 260.142 48.776 259.673 49.672C259.225 50.5467 258.606 51.2827 257.817 51.88C257.049 52.4773 256.164 52.9253 255.161 53.224C254.18 53.544 253.166 53.704 252.121 53.704C250.67 53.704 249.316 53.448 248.057 52.936C246.82 52.4027 245.742 51.688 244.825 50.792C243.908 49.896 243.193 48.9147 242.681 47.848L246.457 45.128ZM263.833 30.6H269.241V45.256C269.241 46.3867 269.54 47.304 270.137 48.008C270.734 48.712 271.63 49.064 272.825 49.064C274.041 49.064 274.948 48.712 275.545 48.008C276.142 47.304 276.441 46.3867 276.441 45.256V30.6H281.849V45.64C281.849 47.048 281.614 48.2747 281.145 49.32C280.697 50.3653 280.057 51.2293 279.225 51.912C278.414 52.5733 277.454 53.0747 276.345 53.416C275.257 53.7573 274.084 53.928 272.825 53.928C271.566 53.928 270.393 53.7573 269.305 53.416C268.217 53.0747 267.257 52.5733 266.425 51.912C265.614 51.2293 264.974 50.3653 264.505 49.32C264.057 48.2747 263.833 47.048 263.833 45.64V30.6ZM288.895 45.128C289.343 45.9387 289.844 46.6427 290.399 47.24C290.975 47.8373 291.593 48.296 292.255 48.616C292.937 48.936 293.652 49.096 294.399 49.096C295.188 49.096 295.839 48.904 296.351 48.52C296.863 48.1147 297.119 47.5707 297.119 46.888C297.119 46.312 296.969 45.8533 296.671 45.512C296.372 45.1493 295.892 44.808 295.231 44.488C294.569 44.168 293.695 43.8053 292.607 43.4C292.073 43.208 291.455 42.9413 290.751 42.6C290.068 42.2587 289.417 41.8213 288.799 41.288C288.18 40.7333 287.668 40.072 287.263 39.304C286.857 38.5147 286.655 37.5653 286.655 36.456C286.655 35.1333 286.996 33.992 287.679 33.032C288.383 32.072 289.321 31.3467 290.495 30.856C291.689 30.344 293.012 30.088 294.463 30.088C295.956 30.088 297.247 30.3333 298.335 30.824C299.444 31.3147 300.361 31.9333 301.087 32.68C301.812 33.4267 302.367 34.184 302.751 34.952L298.623 37.256C298.303 36.7227 297.929 36.264 297.503 35.88C297.097 35.4747 296.639 35.1653 296.127 34.952C295.636 34.7173 295.103 34.6 294.527 34.6C293.759 34.6 293.172 34.7707 292.767 35.112C292.361 35.432 292.159 35.8373 292.159 36.328C292.159 36.84 292.351 37.288 292.735 37.672C293.14 38.056 293.705 38.408 294.431 38.728C295.177 39.048 296.073 39.3893 297.119 39.752C297.908 40.0507 298.644 40.4027 299.327 40.808C300.009 41.192 300.607 41.6613 301.119 42.216C301.652 42.7707 302.068 43.4107 302.367 44.136C302.665 44.8613 302.815 45.6933 302.815 46.632C302.815 47.7627 302.58 48.776 302.111 49.672C301.663 50.5467 301.044 51.2827 300.255 51.88C299.487 52.4773 298.601 52.9253 297.599 53.224C296.617 53.544 295.604 53.704 294.559 53.704C293.108 53.704 291.753 53.448 290.495 52.936C289.257 52.4027 288.18 51.688 287.263 50.792C286.345 49.896 285.631 48.9147 285.118 47.848L288.895 45.128Z" fill="#155DFC"/>
<defs>
<clipPath id="clip0_228_215">
<rect width="70.8333" height="70.8333" fill="white" transform="translate(7.08301 7.08337)"/>
</clipPath>
<clipPath id="clip1_228_215">
<rect width="70.8333" height="70.8333" fill="white" transform="translate(7.08301 7.08337)"/>
</clipPath>
</defs>
</svg>
