<svg width="128" height="128" viewBox="0 0 128 128" fill="none" xmlns="http://www.w3.org/2000/svg">
<g clip-path="url(#clip0_287_1020)">
<path d="M50.1522 115.189C50.1522 121.189 57.1564 121.193 59 118C60.1547 116 61 114 61 108C61 102 58.1044 96.9536 55.3194 91.5175C54.6026 90.1184 53.8323 88.6149 53.0128 86.9234C51.6073 84.0225 49.8868 81.3469 47.3885 79.2139C47.0053 78.8867 46.8935 78.0093 46.9624 77.422C47.2351 75.1036 47.5317 72.7876 47.8283 70.4718C48.3186 66.6436 48.8088 62.8156 49.1909 58.9766C49.459 56.2872 49.4542 53.5119 49.1156 50.8329C48.3833 45.0344 45.1292 40.7783 40.1351 37.9114C38.6818 37.0771 38.2533 36.1455 38.4347 34.5853C38.9402 30.2473 40.6551 26.3306 42.8342 22.6642C44.8356 19.297 47.1037 16.0858 49.3676 12.8804C49.6576 12.4699 49.9475 12.0594 50.2367 11.6488C50.6069 11.1231 51.5231 10.7245 52.1971 10.7075C60.4129 10.5017 68.6303 10.3648 76.8477 10.2636C77.4123 10.2563 78.1584 10.5196 78.5221 10.9246C83.6483 16.634 88.2284 22.712 90.9778 29.9784C91.1658 30.4758 91.3221 30.9869 91.4655 31.4997C92.4976 35.1683 92.4804 35.1803 89.5401 37.2499L89.4071 37.3436C83.8702 41.2433 81.8458 46.8198 82.0921 53.349C82.374 60.8552 84.0622 68.1313 85.9869 75.3539C86.3782 76.8218 86.6318 77.9073 85.2206 79.2609C82.3951 81.9698 81.2196 85.6872 80.6575 89.4687C80.0724 93.4081 79.599 97.3637 79.1254 101.32C78.8627 103.515 78.8497 105.368 78.318 107.904C76.2819 117.611 71 128 63 128H50.1522C45 128 41 123.189 41 115.189H50.1522Z" fill="#155DFC"/>
<path d="M46.2429 6.56033C43.3387 11.1 40.3642 15.4031 37.7614 19.9209C35.413 23.9964 33.8487 28.4226 33.0913 33.1211C32.0998 39.2728 33.694 44.7189 38.0765 48.9775C41.6846 52.4835 42.6153 56.4472 42.152 61.1675C41.1426 71.4587 39.1174 81.5401 36.2052 91.4522C36.1769 91.5477 36.0886 91.6255 35.8974 91.8977C34.1517 91.3525 32.3161 90.8446 30.5266 90.2095C5.53011 81.3376 -12.7225 64.953 -24.1842 41.0298C-25.175 38.9625 -26.079 36.8498 -26.9263 34.7202C-27.0875 34.3151 -26.9749 33.5294 -26.6785 33.2531C-17.1479 24.3723 -7.64007 15.4647 2.00468 6.70938C8.64568 0.681612 16.5812 -1.21558 25.2457 0.739942C31.9378 2.24992 38.5131 4.27834 45.1363 6.09048C45.5843 6.2128 45.9998 6.45502 46.2429 6.56033Z" fill="#155DFC"/>
<path d="M96.9586 89.3257C95.5888 84.7456 94.0796 80.4011 93.0111 75.9514C91.6065 70.0978 90.4683 64.1753 89.3739 58.2529C88.755 54.9056 89.3998 51.8176 91.89 49.2108C98.2669 42.5358 98.3933 34.7971 95.3312 26.7037C92.7471 19.8739 88.593 13.9904 83.7026 8.60904C83.1298 7.9788 82.5693 7.33641 81.918 6.60491C82.2874 6.40239 82.5709 6.18773 82.8909 6.07999C90.1281 3.64085 97.4495 1.54842 105.041 0.488845C112.781 -0.591795 119.379 1.81818 125.045 6.97592C130.017 11.5018 134.805 16.2327 139.812 20.7188C143.822 24.3115 148.013 27.7066 152.19 31.1073C152.945 31.7205 153.137 32.2154 152.913 33.1041C149.059 48.4591 141.312 61.4883 129.457 71.9877C120.113 80.2626 109.35 85.9785 96.9586 89.3265V89.3257Z" fill="#155DFC"/>
</g>
<defs>
<clipPath id="clip0_287_1020">
<rect width="128" height="128" rx="6" fill="white"/>
</clipPath>
</defs>
</svg>
