<svg width="264" height="55" viewBox="0 0 264 55" fill="none" xmlns="http://www.w3.org/2000/svg">
<mask id="mask0_327_1652" style="mask-type:luminance" maskUnits="userSpaceOnUse" x="0" y="0" width="55" height="55">
<path d="M49 0H6C2.68629 0 0 2.68629 0 6V49C0 52.3137 2.68629 55 6 55H49C52.3137 55 55 52.3137 55 49V6C55 2.68629 52.3137 0 49 0Z" fill="white"/>
</mask>
<g mask="url(#mask0_327_1652)">
<path d="M21.5497 49.4952C21.5497 52.0733 24.5594 52.0752 25.3515 50.7031C25.8477 49.8437 26.2109 48.9843 26.2109 46.4062C26.2109 43.8281 24.9667 41.6598 23.77 39.324C23.462 38.7228 23.131 38.0768 22.7789 37.35C22.175 36.1035 21.4357 34.9538 20.3622 34.0373C20.1976 33.8967 20.1495 33.5197 20.1791 33.2673C20.2963 32.2711 20.4237 31.276 20.5512 30.2809C20.7619 28.636 20.9725 26.9912 21.1367 25.3416C21.2519 24.186 21.2498 22.9934 21.1043 21.8423C20.7897 19.3508 19.3914 17.522 17.2455 16.2901C16.6211 15.9316 16.4369 15.5313 16.5149 14.8609C16.7321 12.997 17.469 11.314 18.4053 9.73861C19.2653 8.29177 20.2398 6.91194 21.2126 5.53463C21.3372 5.35823 21.4618 5.18188 21.5861 5.00543C21.7451 4.77953 22.1388 4.60827 22.4284 4.60096C25.9586 4.51255 29.4895 4.45373 33.0205 4.41022C33.2631 4.40708 33.5837 4.52021 33.7399 4.69425C35.9426 7.14751 37.9106 9.75915 39.092 12.8814C39.1728 13.0951 39.2399 13.3148 39.3015 13.5351C39.745 15.1114 39.7377 15.1166 38.4743 16.0059L38.4171 16.0461C36.038 17.7218 35.1681 20.118 35.2739 22.9235C35.3951 26.1488 36.1205 29.2752 36.9475 32.3787C37.1156 33.0094 37.2246 33.4758 36.6182 34.0575C35.4041 35.2215 34.899 36.8188 34.6575 38.4436C34.4061 40.1364 34.2027 41.836 33.9992 43.5358C33.8863 44.4792 33.8807 45.2755 33.6522 46.3649C32.7774 50.5362 30.5078 55 27.0703 55H21.5497C19.3359 55 17.6172 52.9327 17.6172 49.4952H21.5497Z" fill="#155DFC"/>
<path d="M19.87 2.81889C18.6221 4.76953 17.344 6.61852 16.2256 8.55976C15.2165 10.3109 14.5444 12.2129 14.2189 14.2317C13.7929 16.875 14.4779 19.2152 16.361 21.045C17.9113 22.5515 18.3113 24.2546 18.1122 26.2829C17.6785 30.7049 16.8083 35.0368 15.5569 39.2958C15.5447 39.3369 15.5068 39.3703 15.4247 39.4873C14.6745 39.253 13.8858 39.0348 13.1169 38.7619C2.37623 34.9497 -5.46668 27.9095 -10.3917 17.63C-10.8174 16.7417 -11.2058 15.8339 -11.5699 14.9188C-11.6392 14.7448 -11.5908 14.4071 -11.4634 14.2884C-7.36824 10.4725 -3.28283 6.64498 0.861391 2.88294C3.71495 0.29288 7.12473 -0.522319 10.8478 0.317944C13.7233 0.966763 16.5486 1.83835 19.3945 2.617C19.587 2.66956 19.7656 2.77364 19.87 2.81889Z" fill="#155DFC"/>
<path d="M41.662 38.3822C41.0734 36.4142 40.4249 34.5474 39.9658 32.6354C39.3622 30.1202 38.8732 27.5754 38.4029 25.0306C38.137 23.5923 38.4141 22.2654 39.4841 21.1453C42.2242 18.2771 42.2785 14.952 40.9627 11.4743C39.8523 8.53964 38.0674 6.01154 35.966 3.69925C35.7199 3.42844 35.4791 3.15242 35.1992 2.8381C35.3579 2.75108 35.4798 2.65884 35.6173 2.61255C38.727 1.56448 41.8729 0.66539 45.1348 0.210102C48.4607 -0.254235 51.2958 0.781299 53.7303 2.99752C55.8668 4.94224 57.9239 6.97502 60.0754 8.90268C61.7987 10.4464 63.5993 11.9052 65.3944 13.3664C65.7184 13.6299 65.8009 13.8426 65.7049 14.2245C64.0487 20.8223 60.72 26.4208 55.6262 30.9323C51.6112 34.4879 46.9866 36.9435 41.662 38.3822Z" fill="#155DFC"/>
</g>
<path d="M82.794 16.3H88.188V38H82.794V16.3ZM90.544 38H86.266V33.35H90.358C91.1847 33.35 91.9803 33.2467 92.745 33.04C93.5303 32.8333 94.2123 32.4923 94.791 32.017C95.3903 31.5417 95.8657 30.9113 96.217 30.126C96.5683 29.32 96.744 28.328 96.744 27.15C96.744 25.972 96.5683 24.9903 96.217 24.205C95.8657 23.399 95.3903 22.7583 94.791 22.283C94.2123 21.8077 93.5303 21.4667 92.745 21.26C91.9803 21.0533 91.1847 20.95 90.358 20.95H86.266V16.3H90.544C92.9207 16.3 94.977 16.7443 96.713 17.633C98.449 18.5217 99.7923 19.772 100.743 21.384C101.694 22.996 102.169 24.918 102.169 27.15C102.169 29.3613 101.694 31.2833 100.743 32.916C99.7923 34.528 98.449 35.7783 96.713 36.667C94.977 37.5557 92.9207 38 90.544 38ZM108.001 33.815L108.373 29.816H119.13L119.471 33.815H108.001ZM113.674 24.267L110.636 31.273L110.884 32.42L108.187 38H102.266L113.674 14.936L125.113 38H119.161L116.557 32.637L116.743 31.304L113.674 24.267ZM123.037 20.981V16.3H140.211V20.981H134.228V38H128.989V20.981H123.037ZM142.906 33.815L143.278 29.816H154.035L154.376 33.815H142.906ZM148.579 24.267L145.541 31.273L145.789 32.42L143.092 38H137.171L148.579 14.936L160.018 38H154.066L151.462 32.637L151.648 31.304L148.579 24.267ZM166.198 27.212V24.918H169.701C170.3 24.918 170.807 24.825 171.22 24.639C171.654 24.453 171.985 24.1947 172.212 23.864C172.439 23.5127 172.553 23.089 172.553 22.593C172.553 21.849 172.305 21.291 171.809 20.919C171.313 20.547 170.61 20.361 169.701 20.361H167.531V33.939H170.197C170.879 33.939 171.489 33.8563 172.026 33.691C172.563 33.505 172.987 33.2157 173.297 32.823C173.628 32.4097 173.793 31.8517 173.793 31.149C173.793 30.6943 173.7 30.3017 173.514 29.971C173.328 29.6403 173.07 29.3717 172.739 29.165C172.408 28.9583 172.026 28.8137 171.592 28.731C171.179 28.6277 170.714 28.576 170.197 28.576H166.198V25.724H170.786C171.84 25.724 172.863 25.8377 173.855 26.065C174.847 26.2923 175.746 26.6643 176.552 27.181C177.358 27.677 177.999 28.3177 178.474 29.103C178.97 29.8677 179.218 30.7977 179.218 31.893C179.218 33.3397 178.867 34.5073 178.164 35.396C177.482 36.2847 176.511 36.946 175.25 37.38C173.989 37.7933 172.501 38 170.786 38H162.292V16.3H170.259C171.768 16.3 173.09 16.5067 174.227 16.92C175.384 17.3127 176.294 17.9223 176.955 18.749C177.637 19.555 177.978 20.578 177.978 21.818C177.978 22.9547 177.637 23.926 176.955 24.732C176.294 25.538 175.384 26.158 174.227 26.592C173.09 27.0053 171.768 27.212 170.259 27.212H166.198ZM185.834 33.815L186.206 29.816H196.963L197.304 33.815H185.834ZM191.507 24.267L188.469 31.273L188.717 32.42L186.02 38H180.099L191.507 14.936L202.946 38H196.994L194.39 32.637L194.576 31.304L191.507 24.267ZM207.607 30.374C208.041 31.1593 208.526 31.8413 209.064 32.42C209.622 32.9987 210.221 33.443 210.862 33.753C211.523 34.063 212.215 34.218 212.939 34.218C213.703 34.218 214.334 34.032 214.83 33.66C215.326 33.2673 215.574 32.7403 215.574 32.079C215.574 31.521 215.429 31.0767 215.14 30.746C214.85 30.3947 214.385 30.064 213.745 29.754C213.104 29.444 212.257 29.0927 211.203 28.7C210.686 28.514 210.087 28.2557 209.405 27.925C208.743 27.5943 208.113 27.1707 207.514 26.654C206.914 26.1167 206.418 25.476 206.026 24.732C205.633 23.9673 205.437 23.0477 205.437 21.973C205.437 20.6917 205.767 19.586 206.429 18.656C207.111 17.726 208.02 17.0233 209.157 16.548C210.314 16.052 211.595 15.804 213.001 15.804C214.447 15.804 215.698 16.0417 216.752 16.517C217.826 16.9923 218.715 17.5917 219.418 18.315C220.12 19.0383 220.658 19.772 221.03 20.516L217.031 22.748C216.721 22.2313 216.359 21.787 215.946 21.415C215.553 21.0223 215.109 20.7227 214.613 20.516C214.137 20.2887 213.621 20.175 213.063 20.175C212.319 20.175 211.75 20.3403 211.358 20.671C210.965 20.981 210.769 21.3737 210.769 21.849C210.769 22.345 210.955 22.779 211.327 23.151C211.719 23.523 212.267 23.864 212.97 24.174C213.693 24.484 214.561 24.8147 215.574 25.166C216.338 25.4553 217.051 25.7963 217.713 26.189C218.374 26.561 218.953 27.0157 219.449 27.553C219.965 28.0903 220.368 28.7103 220.658 29.413C220.947 30.1157 221.092 30.9217 221.092 31.831C221.092 32.9263 220.864 33.908 220.41 34.776C219.976 35.6233 219.376 36.3363 218.612 36.915C217.868 37.4937 217.01 37.9277 216.039 38.217C215.088 38.527 214.106 38.682 213.094 38.682C211.688 38.682 210.376 38.434 209.157 37.938C207.958 37.4213 206.914 36.729 206.026 35.861C205.137 34.993 204.445 34.0423 203.949 33.009L207.607 30.374ZM224.44 16.3H229.679V30.498C229.679 31.5933 229.968 32.482 230.547 33.164C231.125 33.846 231.993 34.187 233.151 34.187C234.329 34.187 235.207 33.846 235.786 33.164C236.364 32.482 236.654 31.5933 236.654 30.498V16.3H241.893V30.87C241.893 32.234 241.665 33.4223 241.211 34.435C240.777 35.4477 240.157 36.2847 239.351 36.946C238.565 37.5867 237.635 38.0723 236.561 38.403C235.507 38.7337 234.37 38.899 233.151 38.899C231.931 38.899 230.795 38.7337 229.741 38.403C228.687 38.0723 227.757 37.5867 226.951 36.946C226.165 36.2847 225.545 35.4477 225.091 34.435C224.657 33.4223 224.44 32.234 224.44 30.87V16.3ZM248.718 30.374C249.152 31.1593 249.638 31.8413 250.175 32.42C250.733 32.9987 251.332 33.443 251.973 33.753C252.634 34.063 253.327 34.218 254.05 34.218C254.815 34.218 255.445 34.032 255.941 33.66C256.437 33.2673 256.685 32.7403 256.685 32.079C256.685 31.521 256.54 31.0767 256.251 30.746C255.962 30.3947 255.497 30.064 254.856 29.754C254.215 29.444 253.368 29.0927 252.314 28.7C251.797 28.514 251.198 28.2557 250.516 27.925C249.855 27.5943 249.224 27.1707 248.625 26.654C248.026 26.1167 247.53 25.476 247.137 24.732C246.744 23.9673 246.548 23.0477 246.548 21.973C246.548 20.6917 246.879 19.586 247.54 18.656C248.222 17.726 249.131 17.0233 250.268 16.548C251.425 16.052 252.707 15.804 254.112 15.804C255.559 15.804 256.809 16.0417 257.863 16.517C258.938 16.9923 259.826 17.5917 260.529 18.315C261.232 19.0383 261.769 19.772 262.141 20.516L258.142 22.748C257.832 22.2313 257.47 21.787 257.057 21.415C256.664 21.0223 256.22 20.7227 255.724 20.516C255.249 20.2887 254.732 20.175 254.174 20.175C253.43 20.175 252.862 20.3403 252.469 20.671C252.076 20.981 251.88 21.3737 251.88 21.849C251.88 22.345 252.066 22.779 252.438 23.151C252.831 23.523 253.378 23.864 254.081 24.174C254.804 24.484 255.672 24.8147 256.685 25.166C257.45 25.4553 258.163 25.7963 258.824 26.189C259.485 26.561 260.064 27.0157 260.56 27.553C261.077 28.0903 261.48 28.7103 261.769 29.413C262.058 30.1157 262.203 30.9217 262.203 31.831C262.203 32.9263 261.976 33.908 261.521 34.776C261.087 35.6233 260.488 36.3363 259.723 36.915C258.979 37.4937 258.121 37.9277 257.15 38.217C256.199 38.527 255.218 38.682 254.205 38.682C252.8 38.682 251.487 38.434 250.268 37.938C249.069 37.4213 248.026 36.729 247.137 35.861C246.248 34.993 245.556 34.0423 245.06 33.009L248.718 30.374Z" fill="#1677FF"/>
</svg>
