<svg width="1000" height="1000" viewBox="0 0 1000 1000" fill="none" xmlns="http://www.w3.org/2000/svg">
<path d="M40 270L108.5 178L476.5 185L659.5 260L736.5 393.5L775 503.5L783 581V637.5L705 648.5L547 581L336.5 493L162.5 525.5L40 441L1.5 384V373L40 270Z" fill="#155DFC"/>
<path d="M56.1471 456.017C216.773 564.638 246.915 617.48 288.949 598.234C300.059 593.142 329.951 574.804 339.263 493.69C336.61 493.565 331.376 493.583 325.625 495.809C289.59 509.838 290.623 589.332 272.659 589.421C272.374 589.421 271.751 589.421 270.95 589.19C269.187 588.869 267.015 588.193 263.757 586.679C254.232 582.228 249.461 579.985 242.232 575.623C242.232 575.623 234.844 571.226 228.114 566.525C218.179 559.582 212.5 551.214 201.355 541.208C192.026 532.841 191.901 535.03 170.127 519.043C162.632 513.541 157.13 509.197 146.43 500.723C128.858 486.818 116.716 477.204 106.354 468.248C93.3926 457.05 75.8558 440.51 56.4319 417.561C38.7706 384.357 17.7265 349.836 7.04424 353.307C0.225388 355.533 -0.825022 372.339 0.492458 383.609C4.88999 421.62 41.6548 446.243 56.1471 456.035V456.017Z" fill="#003A86"/>
<path d="M74.7886 445.976C161.19 462.783 247.574 479.607 333.976 496.414C344.017 511.957 354.664 521.624 361.946 527.304C361.946 527.304 404.906 560.792 470.139 558.3C473.273 558.175 481.053 557.57 491.629 558.709C502.489 559.884 504.376 561.042 521.628 564.157C539.361 567.362 541.355 566.864 548.44 569.605C556.684 572.792 562.523 576.78 566.618 579.611C573.401 584.293 575.004 586.572 587.983 597.789C595.175 604.002 598.772 607.118 602.065 609.61C608.119 614.186 617.822 621.468 631.62 627.343C639.471 630.672 647.198 632.951 654.533 635.105C658.557 636.28 661.94 637.188 664.343 637.794C665.554 649.402 666.408 665.924 664.343 685.526C662.189 706.018 660.693 720.296 652.076 736.445C648.248 743.619 634.344 768.687 604.344 779.637C598.291 781.844 579.722 788.325 557.52 782.361C550.061 780.367 536.209 776.432 525.242 763.275C513.99 749.762 512.797 734.967 512.512 730.551C511.96 722.059 511.195 710.326 519.331 700.552C525.758 692.843 536.476 687.858 546.607 688.73C558.731 689.781 562.078 698.576 570.535 696.368C574.576 695.318 574.541 693.128 585.686 681.466C595.727 670.962 598.06 670.321 598.416 666.654C599.252 657.859 586.968 650.043 582.054 646.909C578.386 644.577 569.413 639.432 553.408 637.367C544.274 636.191 526.56 634.108 506.139 642.369C481.231 652.429 468.751 671.194 464.78 677.372C454.347 693.537 451.819 708.689 450.235 718.73C449.362 724.302 446.977 741.946 451.606 764.183C458.086 795.375 474.181 815.778 479.326 821.921C501.652 848.555 528.536 858.4 541.141 862.834C600.089 883.575 653.18 861.819 663.417 857.386C719.677 833.048 744.745 785.654 757.065 762.385C780.477 718.142 783.45 678.351 786.619 636.013C787.688 621.842 790.091 580.145 781.171 526.912C774.816 489.061 765.558 462.249 755.712 433.727C735.167 374.209 712.538 331.658 705.256 318.269C705.256 318.269 676.094 264.698 627.525 207.352C618.053 196.171 608.51 185.649 592.985 176.889C583.087 171.317 565.283 163.359 519.349 162.344C496.115 161.827 463.214 163.02 423.885 170.979C425.861 174.005 427.82 177.032 429.796 180.076C418.971 174.397 403.215 166.884 383.435 160.083C363.922 153.371 349.145 150.308 325.697 145.537C289.039 138.077 261.443 134.908 254.785 134.178C225.017 130.867 203.225 130.208 181.148 131.899C167.19 132.968 154.425 134.873 141.143 142.35C132.704 147.104 126.829 152.552 119.779 159.175C106.141 171.976 97.5063 183.602 93.4114 189.174C64.409 228.627 49.9167 248.372 36.1366 271.445C36.1366 271.445 26.1131 288.234 9.3241 325.088C6.61793 331.017 1.93555 341.539 0.796104 356.013C0.618066 358.239 0.0483395 365.467 1.15217 372.375C3.94737 389.93 16.9441 401.876 30.2435 413.288C59.6376 438.516 80.2544 452.83 80.2544 452.83C83.5837 455.056 115.791 477.595 143.44 499.191C188.573 534.461 211.13 552.104 224.946 564.549C224.946 564.549 236.465 574.929 259.788 585.451C266.731 588.584 272.108 590.436 278.428 589.421C287.579 587.943 293.33 581.267 298.903 574.644C300.914 572.24 305.063 566.988 318.327 537.327C321.62 529.974 323.258 526.289 325.252 521.304C326.908 517.173 330.967 506.776 335.418 491.66C338.926 479.785 345.869 456.249 349.804 430.077C353.382 406.309 358.563 371.877 349.341 328.702C348.504 324.821 339.335 283.463 313.591 244.455C300.184 224.141 287.117 211.767 284.339 209.15C275.936 201.298 268.084 195.477 262.067 191.417C267.924 191.702 275.954 192.486 285.247 194.604C292.102 196.153 310.529 200.907 330.7 214.153C350.427 227.096 362.248 241.891 367.518 249.155C386.141 274.81 391.073 300.27 394.117 315.973C397.678 334.364 398.604 353.378 399.352 368.245C400.224 386.12 399.601 391.55 401.63 404.618C403.019 413.591 405.44 428.564 413.292 445.976C425.096 472.147 442.045 488.082 448.437 493.708C459.813 503.696 469.961 508.841 490.258 519.167C507.242 527.802 518.316 531.487 530.708 532.805C536.138 533.375 540.714 533.375 543.883 533.268C540.749 525.844 538.791 519.203 537.527 513.951C536.441 509.464 534.767 502.343 534.34 492.818C534.002 485.304 534.571 478.931 535.248 474.177C536.583 479.963 538.577 487.459 541.604 496.004C543.064 500.117 548.334 514.574 559.336 533.286C567.508 547.208 577.407 559.439 593.876 576.478C609.579 592.697 632.706 614.489 664.325 637.847C564.108 582.922 463.908 527.998 363.691 473.073" fill="#155DFC"/>
<path d="M608.459 572.045C610.631 563.552 614.441 557.73 616.951 554.472C619.462 551.214 627.847 541.208 641.503 538.111C644.886 537.345 651.348 536.099 657.562 539.019C658.612 539.517 659.022 539.838 662.28 541.956C666.428 544.662 670.665 547.244 674.832 549.932C683.822 555.719 698.244 563.356 700.896 564.781C725.43 577.955 771.613 580.626 780.604 581.142C803.499 582.46 828.282 583.902 860.917 577.51C860.917 577.51 910.162 567.861 952.428 541.137C959.478 536.668 972.689 528.229 987.27 513.933C992.7 508.61 996.973 503.82 1000 500.224C999.715 502.841 999.163 506.794 997.881 511.441C995.353 520.645 991.044 528.87 977.887 545.677C967.722 558.656 962.63 565.137 953.941 573.558C949.757 577.599 935.479 591.059 913.331 603.86C867.184 630.512 822.14 633.913 804.229 635.07C793.049 635.8 772.717 636.423 748.165 632.951C685.122 624.049 637.176 594.228 608.459 572.045Z" fill="#8BC7FE"/>
<path d="M508.758 341.877C518.354 335.895 526.473 331.605 532.401 328.703C537.814 326.032 540.609 324.999 543.92 324.163C546.217 323.575 553.606 321.902 563.166 323.201C567.136 323.753 572.727 324.572 579.083 328.097C586.685 332.317 590.798 337.889 591.813 339.314C593.023 341.023 595.658 344.779 597.26 350.227C598.257 353.557 598.044 354.803 599.379 357.812C600.786 360.963 602.335 362.637 604.827 365.699C606.839 368.156 609.581 371.717 612.714 376.31C611.058 375.384 602.673 370.844 593.931 371.004C589.979 371.076 586.044 372.073 586.044 372.073C582.875 372.874 580.756 373.871 579.991 374.191C572.923 377.129 556.775 373.23 550.294 362.672C546.199 356.014 549.066 351.705 544.205 347.361C542.407 345.759 540.039 344.566 529.392 343.284C524.354 342.679 517.321 342.038 508.793 341.913L508.758 341.877Z" fill="#003C8D"/>
<path d="M744.263 402.588C735.379 401.912 721.154 401.965 704.828 407.182C692.294 411.187 682.751 416.867 676.342 421.425C681.79 420.232 688.876 418.843 697.243 417.632C699.237 417.347 705.665 416.439 714.673 415.656C723.379 414.908 734.916 414.214 748.75 414.285C747.254 410.386 745.759 406.487 744.263 402.57V402.588Z" fill="#0052C9"/>
<path d="M763.423 456.356C753.507 456.018 739.548 456.694 723.667 461.288C712.682 464.457 703.656 468.694 696.748 472.575C701.591 471.863 707.68 471.08 714.712 470.421C717.062 470.208 723.97 469.567 733.353 469.175C742.13 468.801 753.685 468.587 767.482 469.104C766.129 464.866 764.776 460.611 763.441 456.374L763.423 456.356Z" fill="#0052C9"/>
<path d="M776.241 501.755C767.161 501.239 752.616 501.702 736.77 508.378C730.486 511.031 725.234 514.129 720.979 517.12C723.845 516.55 727.797 515.856 732.515 515.215C742.45 513.897 750.052 513.666 757.672 513.47C763.173 513.328 770.331 513.274 778.752 513.559L776.241 501.737V501.755Z" fill="#0052C9"/>
<path d="M604.271 583.707C610.859 591.042 618.586 598.822 627.541 606.656C640.378 617.872 652.911 626.685 664.074 633.557C663.932 630.531 663.344 626.649 661.635 622.501C661.137 621.29 660.603 620.187 660.051 619.172C665.463 621.913 671.392 624.531 677.837 626.827C708.584 637.777 737.07 636.726 756.636 633.842C730.322 630.584 696.014 622.928 659.659 604.733C646.965 598.377 635.677 591.558 625.725 584.775C625.262 584.454 621.684 581.819 616.645 578.187C613.28 575.766 610.521 573.772 608.687 572.472C607.209 576.229 605.749 579.968 604.271 583.724V583.707Z" fill="#00398B"/>
<path d="M608.686 561.523C618.727 568.199 633.024 576.923 651.005 585.398C675.913 597.148 730.143 621.931 802.302 617.48C881.03 612.637 937.201 575.695 955.13 559.297C967.592 547.903 977.865 534.888 977.865 534.888C988.12 521.892 995.206 509.678 999.995 500.207C999.265 506.634 997.645 513.435 994.672 520.271C992.09 526.2 987.835 532.093 979.467 543.63C973.699 551.57 970.815 555.541 966.524 560.508C959.723 568.395 953.901 573.701 949.735 577.475C943.86 582.816 935.118 590.668 922.424 598.839C919.291 600.851 916.3 602.65 913.451 604.252C907.237 607.741 900.739 610.982 892.193 614.56C877.096 620.898 866.324 625.438 851.209 629.124C851.209 629.124 831.411 633.949 796.658 635.64C791.602 635.889 786.652 635.943 786.652 635.943C783.537 635.978 779.371 636.014 774.297 635.782C774.297 635.782 768.19 635.604 761.442 634.696C705.129 627.165 666.602 609.878 666.602 609.878C650.115 602.454 628.056 590.65 604.662 572.098C606.015 568.555 607.368 565.012 608.704 561.469L608.686 561.523Z" fill="#0087F7"/>
<path d="M589.088 569.748C590.548 566.703 592.702 562.609 595.729 558.033C597.883 554.757 601.551 549.238 606.411 544.627C609.651 541.547 621.615 530.206 637.995 531.452C641.449 531.719 648.713 532.805 656.689 538.609C654.517 537.879 651.17 537.042 647.11 537.185C638.6 537.47 632.583 541.725 629.218 544.182C619.39 551.357 614.743 561.06 608.458 574.181C606.553 578.151 605.165 581.481 604.275 583.724C601.533 582.05 598.275 579.718 594.981 576.531C592.56 574.181 590.619 571.849 589.088 569.766V569.748Z" fill="#0051CB"/>
<path d="M515.717 589.92C542.28 598.092 570.285 607.243 595.264 615.379C610.735 620.418 623.376 624.602 631.637 627.344C602.385 595.973 573.152 564.621 543.9 533.251C539.609 533.197 532.88 532.877 524.814 531.346C519.082 530.26 505.996 527.304 478.756 512.491C466.222 505.673 459.955 502.272 453.902 497.785C424.205 475.78 412.757 444.054 409.482 434.618C406.579 426.232 404.585 407.538 400.722 370.506C395.701 322.489 396.449 319.427 392.995 305.505C388.331 286.722 383.328 266.514 367.536 245.506C346.563 217.59 319.109 204.931 303.905 199.59C287.027 193.661 272.143 192.166 262.084 191.863C269.295 196.652 279.104 203.916 289.359 214.136C315.816 240.485 327.139 268.437 336.183 291.404C342.628 307.766 351.245 330.181 353.453 360.946C355.18 384.927 352.296 403.692 351.637 407.769C347.293 434.653 338.711 451.068 334.688 488.99C334.35 492.159 334.118 494.759 333.993 496.397C339.673 505.067 345.192 511.53 349.394 516.017C353.471 520.361 356.8 523.227 357.833 524.242C357.833 524.242 363.655 529.387 370.331 533.856C400.9 554.366 515.717 589.884 515.717 589.884V589.92Z" fill="#0051C8"/>
<path d="M535.035 473.02C534.055 482.687 533.682 497.126 537.527 513.933C539.432 522.265 541.711 528.23 543.634 533.25C548.388 545.606 556.275 565.546 573.865 585.255C586.096 598.964 598.487 607.261 608.44 613.973C612.677 616.821 618.356 620.631 626.279 624.708C641.519 632.577 655.264 636.423 664.86 638.453C663.382 632.257 661.887 626.079 660.409 619.883C628.718 605.071 606.837 586.911 593.591 574.128C583.817 564.692 568.007 549.185 554.245 524.099C543.313 504.177 537.901 485.91 535.035 472.984V473.02Z" fill="#003C8D"/>
<path d="M615.879 774.367C624.924 771.234 637.992 765.394 650.953 754.391C662.739 744.385 669.558 734.255 672.317 729.84C680.418 716.932 683.552 705.609 685.724 697.561C688.163 688.535 690.762 675.182 690.495 658.696C693.878 660.601 698.667 663.076 704.578 665.515C717.557 670.856 728.186 672.779 734.809 673.918C748.019 676.215 758.381 676.357 766.393 676.411C773.158 676.464 778.837 676.215 782.968 675.948C783.449 671.675 783.911 667.348 784.339 662.986C785.247 653.8 785.994 644.773 786.618 635.943C781.063 635.871 775.223 635.64 769.116 635.213C764.452 634.874 759.948 634.429 755.639 633.931C749.782 634.732 741.93 635.515 732.637 635.569C705.753 635.693 686.222 629.587 681.379 628.002C672.3 625.029 665.036 621.699 660.015 619.136C660.905 622.447 662.062 627.165 663.077 632.88C664.288 639.664 667.119 657.823 664.323 685.49C662.454 703.989 661.51 713.442 657.202 724.783C653.499 734.558 643.475 755.833 615.844 774.314L615.879 774.367Z" fill="#0050C8"/>
<path d="M446.067 566.615C441.723 562.556 427.997 549.612 416.228 535.725C413.415 532.414 408.733 526.823 403.143 518.901C401.291 516.266 399.35 513.399 397.356 510.266C392.656 502.877 386.532 493.121 381.155 479.163C377.826 470.51 375.814 462.943 374.567 457.335C371.203 473.323 371.737 486.605 372.752 495.293C373.909 505.299 376.099 512.58 377.986 518.705C380.015 525.31 383.042 533.785 387.671 543.292C394.063 546.55 399.564 549.096 403.748 550.948C415.516 556.164 424.917 559.493 431.023 561.63C437.13 563.784 442.311 565.44 446.085 566.615H446.067Z" fill="#003C8D"/>
</svg>
